<svg width="677" height="677" fill="none" xmlns="http://www.w3.org/2000/svg"><path d="M677 517.77H0v.338h677v-.338zm-67.835 21.786H564.32v.338h44.845v-.338zm-160.694 3.682h-11.766v.339h11.766v-.339zm114.495-16.248h-25.984v.339h25.984v-.339zm-433.455 2.276h-58.48v.338h58.48v-.338zm20.634 0h-8.571v.338h8.571v-.338zm154.709 5.713H178.012v.339h126.842v-.339zm16.044-77.598H59.454a7.73 7.73 0 01-7.718-7.731V82.134a7.732 7.732 0 017.718-7.664h261.444a7.733 7.733 0 017.731 7.732V449.65a7.73 7.73 0 01-7.731 7.731zM59.454 74.741a7.393 7.393 0 00-7.38 7.393V449.65a7.394 7.394 0 007.38 7.393h261.444a7.412 7.412 0 005.224-2.169 7.412 7.412 0 002.169-5.224V82.134a7.407 7.407 0 00-7.393-7.393H59.454zm554.328 382.64H352.325a7.743 7.743 0 01-7.731-7.731V82.134a7.744 7.744 0 017.731-7.664h261.457a7.73 7.73 0 017.705 7.664V449.65a7.73 7.73 0 01-7.705 7.731zM352.325 74.741a7.407 7.407 0 00-7.393 7.393V449.65a7.408 7.408 0 007.393 7.393h261.457a7.403 7.403 0 007.393-7.393V82.134a7.402 7.402 0 00-7.393-7.393H352.325z" fill="#EBEBEB"/><path d="M279.507 406.864h-91.734v98.733h91.734v-98.733zm14.014-7.339h-11.537V518.42h11.537V399.525z" fill="#E6E6E6"/><path d="M209.898 414.636h-7.515v36.896h7.515v-36.896z" fill="#FAFAFA"/><path d="M241.054 414.636h-7.515v36.896h7.515v-36.896zm-23.643 2.599h-7.515v34.297h7.515v-34.297z" fill="#F5F5F5"/><path d="M233.538 417.235h-7.515v34.297h7.515v-34.297z" fill="#FAFAFA"/><path d="M226.023 414.636h-4.861v36.896h4.861v-36.896z" fill="#EBEBEB"/><path d="M221.176 417.235h-3.764v34.297h3.764v-34.297z" fill="#FAFAFA"/><path d="M248.567 414.636h-7.514v36.896h7.514v-36.896z" fill="#EBEBEB"/><path d="M256.081 417.235h-7.515v34.297h7.515v-34.297zm16.141 0h-7.515v34.297h7.515v-34.297z" fill="#E6E6E6"/><path d="M264.707 414.636h-4.861v36.896h4.861v-36.896z" fill="#FAFAFA"/><path d="M259.846 417.235h-3.764v34.297h3.764v-34.297z" fill="#EBEBEB"/><path d="M275.987 415.516h-3.764v36.016h3.764v-36.016zm-7.529 85.464h7.515v-36.896h-7.515v36.896zm-31.168 0h7.515v-36.896h-7.515v36.896z" fill="#FAFAFA"/><path d="M260.942 500.994h7.515v-34.297h-7.515v34.297z" fill="#F0F0F0"/><path d="M244.817 500.994h7.515v-34.297h-7.515v34.297z" fill="#EBEBEB"/><path d="M252.317 500.98h4.861v-36.896h-4.861v36.896z" fill="#FAFAFA"/><path d="M257.179 500.994h3.764v-34.297h-3.764v34.297z" fill="#F5F5F5"/><path d="M229.774 500.98h7.515v-36.896h-7.515v36.896z" fill="#EBEBEB"/><path d="M222.272 500.994h7.515v-34.297h-7.515v34.297z" fill="#F5F5F5"/><path d="M206.132 500.994h7.514v-34.297h-7.514v34.297z" fill="#E6E6E6"/><path d="M213.649 500.98h4.861v-36.896h-4.861v36.896zm-16.127 0h4.861v-36.896h-4.861v36.896z" fill="#FAFAFA"/><path d="M218.496 500.994h3.764v-34.297h-3.764v34.297z" fill="#EBEBEB"/><path d="M202.369 500.994h3.764v-36.017h-3.764v36.017z" fill="#F0F0F0"/><path d="M279.046 399.525h-94.171v112.287h91.097v6.662h6.147V399.593l-3.073-.068zm-3.074 101.455H190.67v-43.247h85.302v43.247zm0-49.421H190.67v-41.297h85.302v41.297z" fill="#F0F0F0"/><path d="M95.89 505.611h91.733v-98.734H95.89v98.734zm3.535 12.808h11.536v-7.866H99.425v7.866z" fill="#E6E6E6"/><path d="M177.022 451.546h7.515v-36.897h-7.515v36.897z" fill="#FAFAFA"/><path d="M145.866 451.546h7.515v-36.897h-7.515v36.897zm23.641-.014h7.514v-34.297h-7.514v34.297z" fill="#F5F5F5"/><path d="M153.382 451.532h7.514v-34.297h-7.514v34.297z" fill="#FAFAFA"/><path d="M160.895 451.546h4.861v-36.897h-4.861v36.897z" fill="#EBEBEB"/><path d="M165.742 451.532h3.764v-34.297h-3.764v34.297z" fill="#FAFAFA"/><path d="M143.294 451.546h7.515v-36.897h-7.515v36.897z" fill="#EBEBEB"/><path d="M135.78 451.532h7.515v-34.297h-7.515v34.297zm-16.14 0h7.514v-34.297h-7.514v34.297z" fill="#E6E6E6"/><path d="M127.155 451.546h4.861v-36.897h-4.861v36.897z" fill="#FAFAFA"/><path d="M132.015 451.532h3.764v-34.297h-3.764v34.297z" fill="#EBEBEB"/><path d="M115.888 451.532h3.764v-36.016h-3.764v36.016z" fill="#F5F5F5"/><path d="M119.87 464.097h-7.515v36.897h7.515v-36.897zm31.168 0h-7.515v36.897h7.515v-36.897z" fill="#FAFAFA"/><path d="M127.397 466.684h-7.514v34.296h7.514v-34.296z" fill="#F5F5F5"/><path d="M143.523 466.684h-7.515v34.296h7.515v-34.296z" fill="#EBEBEB"/><path d="M136.009 464.097h-4.861v36.897h4.861v-36.897z" fill="#FAFAFA"/><path d="M131.163 466.684h-3.765v34.296h3.765v-34.296z" fill="#F5F5F5"/><path d="M153.599 464.097h-7.515v36.897h7.515v-36.897z" fill="#EBEBEB"/><path d="M161.112 466.684h-7.514v34.296h7.514v-34.296z" fill="#F5F5F5"/><path d="M177.251 466.684h-7.515v34.296h7.515v-34.296z" fill="#E6E6E6"/><path d="M169.738 464.097h-4.861v36.897h4.861v-36.897zm15.137 0h-4.861v36.897h4.861v-36.897z" fill="#FAFAFA"/><path d="M164.877 466.684h-3.764v34.296h3.764v-34.296zm16.139-1.72h-3.764v36.016h3.764v-36.016z" fill="#EBEBEB"/><path d="M93.291 399.525v118.881h6.147v-6.594h91.097V399.525H93.291zm6.147 58.222h85.302v43.233H99.438v-43.233zm0-47.39h85.302v41.283H99.438v-41.283z" fill="#F0F0F0"/><path d="M99.885 317.54h193.799V117.283H99.885V317.54z" fill="#EBEBEB"/><path d="M93.114 317.54h193.798V117.283H93.114V317.54z" fill="#F0F0F0"/><path d="M282.025 122.036H98.246v190.846h183.779V122.036z" fill="#E0E0E0"/><path d="M282.024 122.036H102.836v190.846h179.188V122.036z" fill="#F5F5F5"/><path d="M190.575 312.883h3.642V122.037h-3.642v190.846z" fill="#EBEBEB"/><path d="M169.697 122.036l-51.073 190.846h-4.901l51.073-190.846h4.901z" fill="#fff"/><path d="M189.032 316.539h3.114V119.085h-3.114v197.454z" fill="#F0F0F0"/><path d="M151.16 122.036l-48.324 180.61v-99.275l21.759-81.335h26.565zm130.864 17.318v18.32l-41.54 155.209h-4.902l46.442-173.529zm.001 36.991v99.276l-9.965 37.262h-26.566l36.531-136.538z" fill="#fff"/><path d="M505.875 168.747c14.884-3.513 24.101-18.426 20.588-33.309-3.512-14.884-18.426-24.101-33.309-20.589-14.883 3.513-24.101 18.426-20.588 33.31 3.512 14.883 18.426 24.101 33.309 20.588z" fill="#E0E0E0"/><path d="M516.164 158.421c9.195-9.196 9.195-24.104 0-33.3-9.196-9.195-24.104-9.195-33.3 0-9.195 9.196-9.195 24.104 0 33.3 9.196 9.195 24.104 9.195 33.3 0z" fill="#F0F0F0"/><path d="M498.407 157.931v-16.465l-10.913 6.175" fill="#F0F0F0"/><path d="M498.409 159.285a1.356 1.356 0 01-1.354-1.354v-14.136l-8.883 5.024a1.36 1.36 0 01-1.354-2.356l10.914-6.175a1.349 1.349 0 011.354 0 1.36 1.36 0 01.677 1.165v16.464a1.36 1.36 0 01-1.354 1.368zm88.333 61.133H412.293v7.122h174.449v-7.122z" fill="#E0E0E0"/><path d="M428.013 194.164h-7.691v26.254h7.691v-26.254zm37.168 0h-7.691v26.254h7.691v-26.254zm47.78 25.225l-7.568 1.029-5.606-25.862 7.569-1.042 5.605 25.875zm-75.415-21.759h-7.691v22.788h7.691V197.63zm17.655 0h-7.691v22.788h7.691V197.63zm44.587 0h-7.69v22.788h7.69V197.63zm-18.304 21.461l-7.502 1.327-6.214-22.246 7.501-1.327 6.215 22.246zm-37.305-26.227h-3.845v27.554h3.845v-27.554zm45.711 0h-3.845v27.554h3.845v-27.554zm80.117 6.783h-37.452v20.541h37.452v-20.541z" fill="#EBEBEB"/><path d="M338.5 578.916c144.989 0 262.527-6.862 262.527-15.327S483.489 548.262 338.5 548.262c-144.99 0-262.527 6.862-262.527 15.327S193.51 578.916 338.5 578.916z" fill="#F5F5F5"/><path d="M110.026 495.334s-8.368 1.828-11.942 0c-3.575-1.828-2.234-28.434-5.89-28.948-8.395-1.273-6.96 34.039-3.385 41.473 3.574 7.433 21.975 4.278 21.975 4.278l-.758-16.803z" fill="#407BFF"/><path opacity=".2" d="M110.026 495.334s-8.368 1.828-11.942 0c-3.575-1.828-2.234-28.434-5.89-28.948-8.395-1.273-6.96 34.039-3.385 41.473 3.574 7.433 21.975 4.278 21.975 4.278l-.758-16.803z" fill="#fff"/><path d="M110.717 544.403s-12.39-117.988 2.396-120.059c14.786-2.072 18.361-.786 12.647 117.798l-15.043 2.261z" fill="#407BFF"/><path opacity=".3" d="M110.717 544.403s-12.39-117.988 2.396-120.059c14.786-2.072 18.361-.786 12.647 117.798l-15.043 2.261z" fill="#fff"/><path d="M93.344 531.08h48.649l-4.062 31.128H97.406l-4.062-31.128z" fill="#263238"/><path d="M125.407 471.26s13.472 1.178 13.878 0c.406-1.178.406-26.701 6.12-25.185 5.714 1.517 3.209 32.212 0 35.787-3.209 3.574-19.998 5.578-19.998 5.578s-2.194-11.401 0-16.18z" fill="#407BFF"/><path opacity=".4" d="M125.407 471.26s13.472 1.178 13.878 0c.406-1.178.406-26.701 6.12-25.185 5.714 1.517 3.209 32.212 0 35.787-3.209 3.574-19.998 5.578-19.998 5.578s-2.194-11.401 0-16.18z" fill="#fff"/><path d="M116.863 527.938c-.984-8.53-1.886-17.069-2.708-25.617a783.63 783.63 0 01-2.044-25.726c-.569-8.571-.962-17.156-1.07-25.726 0-4.306 0-8.612.244-12.917.118-2.17.358-4.33.717-6.473.183-1.103.468-2.186.853-3.236a5.316 5.316 0 01.908-1.597c.13-.137.27-.263.419-.38.207-.128.437-.215.677-.257a1.566 1.566 0 011.26.555 8.435 8.435 0 011.354 3.25c.27 1.07.487 2.139.663 3.209.352 2.126.623 4.279.839 6.418.447 4.279.759 8.571 1.016 12.863.496 8.584.835 17.16 1.015 25.726.181 8.566.289 17.142.325 25.726 0 8.584-.054 17.16-.162 25.726-.108-8.584-.275-17.16-.501-25.726-.176-8.584-.393-17.169-.704-25.726-.312-8.557-.636-17.155-1.192-25.726-.284-4.279-.609-8.557-1.083-12.809-.23-2.126-.501-4.238-.866-6.337a39.444 39.444 0 00-.65-3.1 7.593 7.593 0 00-1.07-2.708c-.108-.149-.162-.109-.122-.136.041-.027 0 0 0 0l-.162.149a4.445 4.445 0 00-.677 1.205c-.357.966-.62 1.963-.786 2.979a56.905 56.905 0 00-.731 6.31c-.271 4.265-.325 8.543-.298 12.822 0 8.571.461 17.142.88 25.726.42 8.585 1.016 17.128 1.652 25.726.637 8.598 1.246 17.264 2.004 25.807zm10.237-50.626c1.746-.162 3.479-.284 5.213-.474 1.733-.189 3.452-.352 5.158-.636a24.422 24.422 0 002.478-.555c.758-.163 1.666-.704 1.354-.786a17.002 17.002 0 010-2.708c0-.88.108-1.746.19-2.626.311-3.48.717-6.946 1.259-10.399a98.56 98.56 0 011.977-10.291c-.19 1.734-.339 3.467-.474 5.213l-.474 5.2-.948 10.398a47.6 47.6 0 00-.271 5.064v.19c.007.117.007.235 0 .352a1.268 1.268 0 01-.284.555 1.787 1.787 0 01-.718.542 6.254 6.254 0 01-1.354.487c-.89.212-1.795.357-2.708.433a63.224 63.224 0 01-10.398.041z" fill="#407BFF"/><path d="M127.1 483.202l5.754-1.273c1.909-.406 3.832-.812 5.728-1.272a43.203 43.203 0 005.51-1.571c.122-.051.236-.119.339-.203a2.33 2.33 0 00.216-.515c.146-.442.26-.895.339-1.354.176-.934.298-1.895.406-2.857.46-3.859.677-7.772.961-11.685l.393-5.863.447-5.862c.23 3.926.257 7.853.203 11.779-.054 3.927-.23 7.854-.65 11.78a37.53 37.53 0 01-.46 2.966c-.099.51-.235 1.012-.406 1.502a3.265 3.265 0 01-.393.826c-.22.281-.516.493-.853.61a32.607 32.607 0 01-5.849 1.435 121.661 121.661 0 01-11.685 1.557zm-21.245 17.061a31.74 31.74 0 01-10.29-1.192 6.36 6.36 0 01-1.273-.596 1.782 1.782 0 01-.623-.582 2.621 2.621 0 01-.352-.663 13.554 13.554 0 01-.73-2.6 51.595 51.595 0 01-.65-5.159c-.272-3.439-.38-6.878-.353-10.304.027-3.425.122-6.864.433-10.29l.339 5.132.27 5.131c.217 3.412.366 6.77.65 10.223.136 1.692.299 3.385.57 5.037.114.805.3 1.597.554 2.369.06.17.138.333.23.488.074.114.17.211.285.284.326.219.67.409 1.029.569a23.709 23.709 0 004.847 1.354c1.666.325 3.372.555 5.064.799z" fill="#407BFF"/><path d="M89.527 472.086c.19 2.004.311 4.062.487 5.998l.407 6.012c.284 4.062.514 7.989.826 11.969.162 1.991.325 3.995.582 5.944.092.945.273 1.879.541 2.79.217.785 1.016 1.232 1.855 1.665 1.83.73 3.739 1.243 5.687 1.53 1.964.379 3.954.609 5.944.84a35.528 35.528 0 01-12.037-1.354 7.942 7.942 0 01-1.449-.772 2.71 2.71 0 01-1.083-1.354 15.003 15.003 0 01-.717-3.074c-.325-2.017-.488-4.062-.664-6.025a200.745 200.745 0 01-.528-12.037c-.054-4.008-.013-8.111.149-12.132zm463.501-325.854v109.931a3.684 3.684 0 01-3.683 3.683H380.474a3.678 3.678 0 01-3.403-2.273 3.686 3.686 0 01-.28-1.41V146.232a3.685 3.685 0 013.683-3.683h168.871a3.682 3.682 0 013.683 3.683z" fill="#407BFF"/><path opacity=".6" d="M553.028 154.925v101.171a3.683 3.683 0 01-3.683 3.683H380.474a3.679 3.679 0 01-2.604-1.079 3.682 3.682 0 01-1.079-2.604V154.925h176.237z" fill="#fff"/><path opacity=".4" d="M545.635 151.567a2.546 2.546 0 100-5.092 2.546 2.546 0 000 5.092zm-9.64 0a2.545 2.545 0 100-5.09 2.545 2.545 0 000 5.09zm-7.095-2.545a2.548 2.548 0 01-4.346 1.8 2.544 2.544 0 01-.552-2.775 2.547 2.547 0 014.898.975z" fill="#fff"/><path opacity=".2" d="M547.042 161.668H382.693v92.492h164.349v-92.492z" fill="#fff"/><path d="M547.042 199.742v2.316l-12.525 13.661-16.194-9.22-3.994 6.35-1.828 2.897-14.989 23.804-12.971-24.047-.785-1.476-7.393-13.689-18.184 28.366-14.055-3.615-17.372 5.904-6.688-3.683-37.371 7.406v-1.611l37.614-7.447 6.608 3.615 17.169-5.836 13.391 3.48 19.023-29.68 8.368 15.585.813 1.449 11.928 22.178 11.929-18.969 1.828-2.884 6.431-10.223 16.411 9.356 12.836-13.987z" fill="#fff"/><path d="M547.016 219.429v1.625l-9.654 2.153-19.321-10.737-5.565 3.263-2.965 1.747-4.13 2.437-12.646-13.323-7.082 7.677-1.137 1.232-27.662 29.991-11.767-16.316-21.393 6.621-11.048-3.615c-9.736 3.412-22.91 8.124-29.978 10.643v-1.679c4.901-1.815 13.743-4.929 29.707-10.534l.257-.082 11.076 3.615 22.016-6.77 11.265 15.68 26.742-28.989 1.11-1.205 7.88-8.544 12.971 13.675 5.674-3.344 2.965-1.747 3.723-2.207 19.579 10.9 9.383-2.167z" fill="#407BFF"/><path d="M401.637 189.181V389.83a3.68 3.68 0 01-3.683 3.683H107.156a3.684 3.684 0 01-3.683-3.683V189.181a3.683 3.683 0 013.683-3.683h290.798a3.68 3.68 0 013.683 3.683z" fill="#407BFF"/><path opacity=".4" d="M401.637 197.941V389.83a3.684 3.684 0 01-3.683 3.683H107.156a3.687 3.687 0 01-2.605-1.078 3.687 3.687 0 01-1.078-2.605V197.941h298.164z" fill="#fff"/><path opacity=".2" d="M401.637 381.666v8.124a3.685 3.685 0 01-2.274 3.402c-.446.185-.925.28-1.409.28H107.156a3.686 3.686 0 01-3.403-2.273 3.685 3.685 0 01-.28-1.409v-8.124h298.164z" fill="#000"/><path opacity=".4" d="M394.243 194.583a2.544 2.544 0 100-5.091 2.546 2.546 0 000 5.091zm-9.639 0a2.545 2.545 0 10.001-5.09 2.545 2.545 0 00-.001 5.09zm-7.095-2.545a2.545 2.545 0 11-5.09 0 2.545 2.545 0 015.09 0z" fill="#fff"/><path opacity=".2" d="M401.637 197.941H103.473v12.065h298.164v-12.065z" fill="#000"/><path d="M114.238 204.522h-5.416a.677.677 0 110-1.354h5.416a.676.676 0 110 1.354z" fill="#fff"/><path d="M110.418 206.715a.672.672 0 01-.473-.203l-2.194-2.193a.676.676 0 010-.962l2.194-2.193a.676.676 0 01.961 0 .68.68 0 010 .961l-1.72 1.72 1.72 1.706a.69.69 0 010 .961.688.688 0 01-.488.203zm285.709-4.901h-5.755a.676.676 0 110-1.354h5.755a.678.678 0 01.479 1.156.678.678 0 01-.479.198zm0 2.708h-5.755a.676.676 0 110-1.354h5.755a.678.678 0 01.479 1.156.678.678 0 01-.479.198zm0 2.708h-5.755a.676.676 0 110-1.354h5.755a.678.678 0 01.479 1.156.678.678 0 01-.479.198zM178.05 231.114h-59.454a1.352 1.352 0 01-.957-2.311c.254-.254.598-.397.957-.397h59.454a1.356 1.356 0 01.958 2.312 1.355 1.355 0 01-.958.396zm47.675 14.109H118.596a1.357 1.357 0 01-1.354-1.354 1.353 1.353 0 011.354-1.354h107.129a1.353 1.353 0 010 2.708zm0 8.72H118.596a1.353 1.353 0 010-2.708h107.129a1.357 1.357 0 011.354 1.354 1.353 1.353 0 01-1.354 1.354zm0 8.733H118.596a1.352 1.352 0 01-.957-2.311c.254-.254.598-.397.957-.397h107.129a1.353 1.353 0 010 2.708zm0 8.72H118.596a1.353 1.353 0 010-2.708h107.129a1.353 1.353 0 010 2.708zm0 8.72H118.596a1.353 1.353 0 010-2.708h107.129a1.352 1.352 0 01.957 2.311 1.353 1.353 0 01-.957.397zm0 8.733H118.596a1.353 1.353 0 010-2.708h107.129a1.352 1.352 0 01.957 2.311 1.353 1.353 0 01-.957.397zm0 8.719H118.596a1.352 1.352 0 01-.957-2.311c.254-.254.598-.397.957-.397h107.129a1.353 1.353 0 010 2.708zm0 8.721H118.596a1.353 1.353 0 010-2.708h107.129a1.352 1.352 0 01.957 2.311 1.353 1.353 0 01-.957.397z" fill="#fff"/><path opacity=".4" d="M386.5 225.278H244.939v79.67H386.5v-79.67z" fill="#fff"/><path d="M244.939 288.916l34.527-6.837 5.362 2.938 13.919-4.726 11.076 2.857 15.002-23.41 17.034 31.629 16.532-26.267 13.134 7.501 14.975-16.33v48.663H244.939v-16.018z" fill="#fff"/><path d="M244.939 296.215c0-.204 28.434-10.21 28.434-10.21l8.923 2.911 17.494-5.416 9.288 12.918 28.881-31.318 10.304 10.832 10.101-5.944 15.679 8.719 12.43-2.708v28.949H244.939v-8.733z" fill="#407BFF"/><path opacity=".3" d="M219.376 371.957c14.365 0 26.01-11.645 26.01-26.01 0-14.365-11.645-26.01-26.01-26.01-14.366 0-26.011 11.645-26.011 26.01 0 14.365 11.645 26.01 26.011 26.01z" fill="#fff"/><path d="M219.348 345.947h26.011a26.01 26.01 0 01-31.085 25.51 26.003 26.003 0 01-20.436-20.436 26.005 26.005 0 0111.06-26.701 26.008 26.008 0 0114.45-4.383v26.01z" fill="#407BFF"/><path d="M219.375 363.008c9.422 0 17.06-7.639 17.06-17.061s-7.638-17.06-17.06-17.06c-9.422 0-17.061 7.638-17.061 17.06 0 9.422 7.639 17.061 17.061 17.061z" fill="#fff"/><path d="M225.359 347.301h-11.956a1.355 1.355 0 110-2.708h11.956a1.353 1.353 0 010 2.708z" fill="#407BFF"/><path opacity=".3" d="M285.721 371.957c14.365 0 26.011-11.645 26.011-26.01 0-14.365-11.646-26.01-26.011-26.01-14.365 0-26.01 11.645-26.01 26.01 0 14.365 11.645 26.01 26.01 26.01z" fill="#fff"/><path d="M285.693 345.947l17.805 18.956a26.01 26.01 0 11-17.805-44.966v26.01z" fill="#407BFF"/><path d="M285.721 363.008c9.422 0 17.06-7.639 17.06-17.061s-7.638-17.06-17.06-17.06c-9.423 0-17.061 7.638-17.061 17.06 0 9.422 7.638 17.061 17.061 17.061z" fill="#fff"/><path d="M291.693 347.301h-11.956a1.355 1.355 0 110-2.708h11.956a1.353 1.353 0 010 2.708z" fill="#407BFF"/><path opacity=".3" d="M352.053 371.957c14.365 0 26.011-11.645 26.011-26.01 0-14.365-11.646-26.01-26.011-26.01-14.365 0-26.01 11.645-26.01 26.01 0 14.365 11.645 26.01 26.01 26.01z" fill="#fff"/><path d="M352.04 345.947h26.01a26.01 26.01 0 11-46.293-16.248l20.283 16.248z" fill="#407BFF"/><path d="M352.055 363.008c9.422 0 17.06-7.639 17.06-17.061s-7.638-17.06-17.06-17.06c-9.423 0-17.061 7.638-17.061 17.06 0 9.422 7.638 17.061 17.061 17.061z" fill="#fff"/><path d="M358.038 347.301h-11.969a1.355 1.355 0 110-2.708h11.969a1.356 1.356 0 01.958 2.312 1.355 1.355 0 01-.958.396z" fill="#407BFF"/><path opacity=".3" d="M153.044 371.957c14.365 0 26.01-11.645 26.01-26.01 0-14.365-11.645-26.01-26.01-26.01-14.366 0-26.011 11.645-26.011 26.01 0 14.365 11.645 26.01 26.011 26.01z" fill="#fff"/><path d="M153.002 345.947l22.531-12.985a26 26 0 00-9.52-9.533 26 26 0 00-13.011-3.492v26.01z" fill="#407BFF"/><path d="M153.043 363.008c9.422 0 17.06-7.639 17.06-17.061s-7.638-17.06-17.06-17.06c-9.422 0-17.061 7.638-17.061 17.06 0 9.422 7.639 17.061 17.061 17.061z" fill="#fff"/><path d="M159.027 347.301h-11.956a1.355 1.355 0 110-2.708h11.956a1.353 1.353 0 010 2.708zm103.364-185.024a1.964 1.964 0 01-1.436-.596 11.888 11.888 0 00-16.803 0 2.031 2.031 0 01-3.476-1.43 2.036 2.036 0 01.592-1.44 15.962 15.962 0 0111.279-4.672 15.94 15.94 0 0111.279 4.672 2.043 2.043 0 01-.658 3.313c-.246.102-.51.154-.777.153z" fill="#407BFF"/><path d="M269.623 155.046a2.013 2.013 0 01-1.449-.595 22.123 22.123 0 00-31.251 0 2.03 2.03 0 01-3.415-1.451 2.03 2.03 0 01.545-1.42 26.212 26.212 0 0137.005 0 2.045 2.045 0 010 2.871 2.012 2.012 0 01-1.435.595z" fill="#407BFF"/><path d="M276.324 148.344a2.074 2.074 0 01-1.436-.595 31.567 31.567 0 00-44.682 0 2.043 2.043 0 01-3.314-.658 2.016 2.016 0 01.444-2.213 35.634 35.634 0 0125.211-10.456 35.624 35.624 0 0125.212 10.456 2.027 2.027 0 01.439 2.212 2.023 2.023 0 01-.747.911 2.022 2.022 0 01-1.127.343zm-19.85 21.285a3.93 3.93 0 01-.661 2.182 3.932 3.932 0 01-4.031 1.669 3.923 3.923 0 01-2.862-5.353 3.925 3.925 0 013.628-2.424 3.9 3.9 0 012.78 1.146 3.917 3.917 0 011.146 2.78zm310.325 368.545H338.664v24.02h228.135v-24.02z" fill="#407BFF"/><path opacity=".4" d="M566.799 538.174H338.664v24.02h228.135v-24.02z" fill="#fff"/><path opacity=".2" d="M477.395 538.174H338.664v24.02h138.731v-24.02z" fill="#fff"/><path d="M423.141 480.209h152.311l23.208-119.91a21.23 21.23 0 00-20.852-25.279H468.77a21.242 21.242 0 00-20.851 17.209l-24.778 127.98z" fill="#407BFF"/><path opacity=".3" d="M532.23 480.209h43.328l23.208-119.91a21.23 21.23 0 00-20.852-25.279 21.242 21.242 0 00-20.851 17.209l-24.833 127.98z" fill="#000"/><path d="M570.563 478.733H333.058c-5.915 0-10.71 4.795-10.71 10.711v41.757c0 5.915 4.795 10.71 10.71 10.71h237.505c5.915 0 10.71-4.795 10.71-10.71v-41.757c0-5.916-4.795-10.711-10.71-10.711z" fill="#407BFF"/><path opacity=".3" d="M570.563 478.733h-92.357c-5.915 0-10.71 4.795-10.71 10.711v41.757c0 5.915 4.795 10.71 10.71 10.71h92.357c5.915 0 10.71-4.795 10.71-10.71v-41.757c0-5.916-4.795-10.711-10.71-10.711z" fill="#000"/><path d="M460.484 346.448c-9.045.65-12.186 43.436-12.782 45.305-.596 1.868-24.561 38.562-24.561 38.562l4.915 5.091s32.942-31.061 34.012-42.313c1.07-11.252 6.418-47.227-1.584-46.645z" fill="#263238"/><path opacity=".2" d="M463.584 379.242c-.582 5.646-1.218 10.71-1.516 13.851-.325 3.439-3.616 8.706-8.03 14.366-6.377-13.635 3.453-43.829 3.453-43.829s3.06 6.905 6.093 15.612z" fill="#000"/><path d="M414.392 548.627l8.91-3.547-3.48-12.985-3.209-11.915-11.265 2.491 4.779 13.757 4.265 12.199z" fill="#EBB376"/><path opacity=".2" d="M410.236 536.698l9.681-4.36-3.263-12.037-11.293 2.437 4.875 13.96z" fill="#000"/><path d="M481.809 431.628s-74.47-10.033-95.159 3.169c-20.689 13.201 19.375 93.71 19.375 93.71l12.538-2.776s-9.396-63.8-8.692-66.468c.704-2.667 35.759 14.732 83.758 16.384l-11.82-44.019z" fill="#407BFF"/><path opacity=".5" d="M481.809 431.628s-74.47-10.033-95.159 3.169c-20.689 13.201 19.375 93.71 19.375 93.71l12.538-2.776s-9.396-63.8-8.692-66.468c.704-2.667 35.759 14.732 83.758 16.384l-11.82-44.019z" fill="#fff"/><path d="M334.115 544.646l6.906 6.662 10.412-8.517 9.532-7.826-6.905-9.234-10.562 10.006-9.383 8.909z" fill="#EBB376"/><path d="M343.727 552.432c.84-.65-7.541-10.602-7.541-10.602s-11.293-1.597-17.372-6.77c-6.08-5.172-7.244 1.097-2.099 8.124l12.755 17.264c3.615 4.928 5.605-1.246 14.257-8.016z" fill="#2E353A"/><path d="M334.141 541.681a.374.374 0 01-.163 0c-.839-.447-5.023-2.708-4.942-4.441 0-.325.19-.772.921-1.07a1.45 1.45 0 011.11 0 5.547 5.547 0 012.018 2.221c-.19-1.205-.203-2.397.338-2.844a1.212 1.212 0 011.354 0 2.048 2.048 0 011.029 1.354c.447 1.855-1.354 4.523-1.354 4.645a.367.367 0 01-.216.135h-.095zm-3.683-4.983a.792.792 0 00-.257 0c-.501.203-.501.42-.515.488 0 .812 1.991 2.329 3.791 3.385-.609-1.354-1.679-3.399-2.708-3.846a.816.816 0 00-.311-.027zm3.534-.69a.27.27 0 00-.149 0c-.46.392-.162 2.505.393 4.509a5.762 5.762 0 00.948-3.494 1.35 1.35 0 00-.745-.839 1.133 1.133 0 00-.447-.176z" fill="#577AFA"/><path opacity=".2" d="M343.295 535.954l7.948 7.027 9.627-7.921-6.851-9.289-10.724 10.183z" fill="#000"/><path d="M460.685 441.255s1.07-14.732 1.571-17.737a67.855 67.855 0 011.814-8.815c3.277-9.83 47.052 1.72 47.052 1.72s25.888 38.995 7.799 57.396c-4.062 4.062-11.875 5.917-19.917 5.849 0 0-24.548 1.178-70.192-.948 0 0-16.072 23.925-71.762 61.973l-9.085-9.478s62.974-72.385 64.992-74.064c18.265-14.732 47.728-15.896 47.728-15.896z" fill="#407BFF"/><path opacity=".6" d="M460.685 441.255s1.07-14.732 1.571-17.737a67.855 67.855 0 011.814-8.815c3.277-9.83 47.052 1.72 47.052 1.72s25.888 38.995 7.799 57.396c-4.062 4.062-11.875 5.917-19.917 5.849 0 0-24.548 1.178-70.192-.948 0 0-16.072 23.925-71.762 61.973l-9.085-9.478s62.974-72.385 64.992-74.064c18.265-14.732 47.728-15.896 47.728-15.896z" fill="#fff"/><path d="M361.208 539.257l-11.157-12.28-5.389 5.537 10.453 11.184 6.093-4.441z" fill="#407BFF"/><path d="M514.996 360.367c-4.319 12.985-4.522 42.285-2.992 58.493l-48.934-.312c-8.422-32.306-5.578-54.972-4.861-62.541.894-9.221 2.316-9.559 2.316-9.559s9.992-.975 18.685-.908a142.7 142.7 0 0120.066 2.113c4.932.823 9.814 1.922 14.623 3.29a3.875 3.875 0 012.374 1.932 3.883 3.883 0 01.239 3.051 133.372 133.372 0 00-1.516 4.441z" fill="#263238"/><path opacity=".1" d="M463.069 418.548l29.531.19 19.443.122a243.821 243.821 0 01.393-45.319 69.65 69.65 0 012.599-13.161c.461-1.435.962-2.924 1.476-4.441a3.885 3.885 0 00-2.613-4.996 134.138 134.138 0 00-14.623-3.29 142.548 142.548 0 00-20.067-2.112c-8.692 0-18.685.907-18.685.907s-1.354.352-2.315 9.559c-.758 7.569-3.602 30.235 4.861 62.541z" fill="#fff"/><path opacity=".2" d="M512.002 418.86a243.897 243.897 0 01.393-45.318c-5.999 8.557-16.627 25.888-19.836 45.196l19.443.122z" fill="#000"/><path d="M480.088 436.394s-12.186 7.948-13.621 8.585c-1.435.636-10.466 2.843-13.066 2.708-2.6-.136.88-8.26 3.114-9.316 2.234-1.056 10.223.393 10.223.393l9.478-7.122 3.872 4.752z" fill="#E4897B"/><path d="M396.506 444.979v3.98c0 1.016 1.205 1.436 2.22 1.436h79.48c1.029 0 2.248-.42 2.248-1.436v-3.98h-83.948z" fill="#263238"/><path opacity=".4" d="M396.506 444.979v3.98c0 1.016 1.205 1.436 2.22 1.436h79.48c1.029 0 2.248-.42 2.248-1.436v-3.98h-83.948z" fill="#fff"/><path opacity=".2" d="M396.506 444.979v3.98c0 1.016 1.205 1.436 2.22 1.436h52.427c1.016 0 2.221-.42 2.221-1.436v-3.98h-56.868z" fill="#000"/><path d="M383.182 403.682l9.478 42.921a3.226 3.226 0 003.074 2.438h51.682a2.083 2.083 0 001.652-.867 2.08 2.08 0 00.298-1.841l-9.478-42.597a2.94 2.94 0 00-3.074-2.099h-51.655c-1.381.014-2.261.636-1.977 2.045z" fill="#263238"/><path opacity=".4" d="M383.182 403.682l9.478 42.921a3.226 3.226 0 003.074 2.438h49.935a2.09 2.09 0 002.019-1.752c.051-.32.028-.647-.069-.956l-9.478-42.597a2.935 2.935 0 00-3.073-2.099h-49.909c-1.381.014-2.261.636-1.977 2.045z" fill="#fff"/><path opacity=".2" d="M408.691 425.494c0 3.67 3.941 6.662 6.838 6.662 2.898 0 4.59-2.992 3.778-6.662-.813-3.669-3.697-6.539-6.527-6.648.826 3.67-.947 6.648-3.818 6.648h-.271z" fill="#000"/><path d="M515.957 352.446c-9.708-7.785-6.025 36.098-10.601 46.104-4.577 10.006-31.874 33.62-31.874 33.62l5.836 6.526s33.308-18.374 37.98-30.695c5.957-15.585 5.836-49.8-1.341-55.555z" fill="#263238"/><path d="M473.481 432.17l-3.737 3.155 5.132 6.255 4.468-2.83-5.863-6.58zm-54.228 89.553l-15.774 5.118 2.829 7.19 14.488-4.929-1.543-7.379z" fill="#407BFF"/><path d="M404.59 550.374a1.681 1.681 0 01-1.029-.271 1.248 1.248 0 01-.365-1.354 1.348 1.348 0 01.663-.894 5.422 5.422 0 012.966-.419c-1.097-.528-2.086-1.192-2.14-1.882 0-.434.23-.799.799-1.097a1.942 1.942 0 011.666-.108c1.787.677 2.965 3.642 3.019 3.791a.211.211 0 010 .122v.094a.753.753 0 010 .095l-.108.081a15.8 15.8 0 01-5.471 1.842zm1.422-2.316a3.598 3.598 0 00-1.814.353.672.672 0 00-.352.473c-.122.528 0 .65.108.704.636.488 3.033-.324 4.929-1.218a17.308 17.308 0 00-2.871-.312zm.42-3.195a1.358 1.358 0 00-.65.176c-.176.081-.474.271-.447.46 0 .596 1.963 1.558 3.927 2.221a5.608 5.608 0 00-2.343-2.708 1.572 1.572 0 00-.487-.149z" fill="#577AFA"/><path d="M425.158 544.849c0-1.056-13.012.203-13.012.203s-7.718 8.409-15.409 10.494c-7.691 2.085-3.209 6.594 5.416 6.296l21.447-.731c6.175-.203 2.153-5.321 1.558-16.262z" fill="#2E353A"/><path d="M488.456 343.239s11.902-.962 14.894 5.158c2.992 6.121-2.708 15.233-2.708 15.233l-8.598-6.432-17.683 6.432-4.617-6.174-3.453 1.882s-.189-18.834 22.165-16.099z" fill="#407BFF"/><path opacity=".2" d="M488.456 343.239s11.902-.962 14.894 5.158c2.992 6.121-2.708 15.233-2.708 15.233l-8.598-6.432-17.683 6.432-4.617-6.174-3.453 1.882s-.189-18.834 22.165-16.099z" fill="#fff"/><path d="M497.175 349.332s-4.481 6.404-21.379 12.118c0 0-7.528-9.573 3.913-13.946 0 0 2.383-.745 2.897-4.536a18.382 18.382 0 00-1.015-7.894c-.122-.406-.271-.839-.42-1.273l13.919-8.706s-4.942 17.602 2.085 24.237z" fill="#E4897B"/><path opacity=".2" d="M491.963 330.105s-.744 9.952-9.356 12.822a18.378 18.378 0 00-1.015-7.893c5.077-2.681 10.371-4.929 10.371-4.929z" fill="#000"/><path d="M474.118 300.967a14.192 14.192 0 0110.71-15.395c2.99-.856 6.149-.94 9.18-.244a22.883 22.883 0 0117.71 21.813c.38 11.387-2.274 25.943-18.712 24.63-26.687-2.14-18.888-30.804-18.888-30.804z" fill="#263238"/><path d="M488.293 296.797c-11.481-1.07-15.76 4.725-17.71 16.492-2.437 14.704-.149 25.522 14.515 23.708 19.944-2.464 22.287-38.413 3.195-40.2z" fill="#E4897B"/><path d="M478.072 313.343a24.628 24.628 0 01-3.791 4.454 3.183 3.183 0 002.911 1.585l.88-6.039z" fill="#DE5753"/><path d="M485.193 313.058c-.109.948.311 1.774.934 1.842.623.068 1.232-.623 1.354-1.571.122-.948-.311-1.76-.948-1.841-.636-.082-1.232.636-1.34 1.57z" fill="#263238"/><path d="M486.778 311.569l-1.95-1.043s.826 1.842 1.95 1.043zm-13.27-.081c-.109.947.298 1.773.934 1.841.636.068 1.219-.623 1.354-1.571.135-.947-.311-1.76-.948-1.841-.636-.081-1.232.636-1.34 1.571z" fill="#263238"/><path d="M475.092 310.066l-1.949-1.043s.758 1.774 1.949 1.043zm15.775-2.234a.52.52 0 01-.407-.217 5.597 5.597 0 00-4.4-1.99.484.484 0 01-.459-.288.499.499 0 01-.006-.387.487.487 0 01.492-.3 6.408 6.408 0 015.24 2.424.467.467 0 01.079.367.488.488 0 01-.214.31.493.493 0 01-.325.081zm-17.792-2.952a.484.484 0 01-.433-.257.477.477 0 01.05-.545.469.469 0 01.153-.119 5.84 5.84 0 015.105-.528.478.478 0 01.249.278.48.48 0 01-.133.525.49.49 0 01-.536.078 4.946 4.946 0 00-4.225.501.466.466 0 01-.23.067z" fill="#263238"/><path d="M499.044 317.337s-4.495-9.938-2.992-17.155c0 0-21.908-11.428-25.198 11.576 0 0-.298-20.729 19.497-19.348 19.796 1.381 17.007 30.289 5.999 37.912 0 .054 5.47-6.716 2.694-12.985z" fill="#263238"/><path d="M496.919 319.544a5.066 5.066 0 015.863-4.062c3.52.718 4.536 8.192-4.482 9.112-1.286.149-1.882-1.164-1.381-5.05z" fill="#E4897B"/><path d="M475.418 323.809a29.207 29.207 0 011.246 3.94h.731c3.29-.284 4.712-1.503 5.308-2.708a4.214 4.214 0 00.352-1.991 4.436 4.436 0 00-.19-1.137 15.63 15.63 0 01-6.337 1.896c-.677-.014-1.11 0-1.11 0z" fill="#263238"/><path d="M476.527 323.701l.407 1.151c3.087-.271 5.24-.88 6.12-1.909a4.393 4.393 0 00-.19-1.138 15.63 15.63 0 01-6.337 1.896z" fill="#fff"/><path d="M477.395 327.668c3.29-.284 4.712-1.503 5.307-2.708a10.737 10.737 0 00-3.588 1.029 3.975 3.975 0 00-1.719 1.679z" fill="#DE5753"/><path d="M508.279 308.522s-5.538-8.787 3.846-12.267c9.383-3.48 18.482 8.585 12.849 16.939a12.912 12.912 0 01-14.596 5.307l-2.099-9.979z" fill="#263238"/></svg>