<svg width="51" height="31" fill="none" xmlns="http://www.w3.org/2000/svg"><path d="M18.46 9.367l-7.137 2.901-.163.223c-.314.425-.264 1.06.118 1.42.205.195.61.336.871.304.151-.019 3.997-1.552 14.472-5.787C39.925 3.053 40.91 2.66 41.344 2.57c1.384-.291 2.43-.22 3.413.218a3.97 3.97 0 011.16.748c.895.782 1.826 2.268 2.152 3.43.72 2.546.136 4.458-1.79 5.868-.937.682.48.09-19.246 8.052-11.554 4.67-18.24 7.346-18.59 7.456-1.379.425-2.57.15-3.68-.855-1.257-1.129-1.829-2.628-1.546-4.031.169-.812.611-1.546 1.299-2.142l.37-.323 14.007-5.657C31.097 10.408 32.956 9.67 33.32 9.592c.862-.19 1.394-.1 1.854.296l.284.247.301.749c.267.673.3.78.301 1.047 0 .588-.275 1.07-.87 1.53-.25.19-.666.362-9.536 3.935-8.838 3.56-9.28 3.744-9.422 3.89-.32.333-.413.78-.25 1.186.162.4.56.67.998.672.245.006 18.625-7.371 19.105-7.659 1.932-1.182 2.579-3.03 1.817-5.197-.467-1.316-1.186-2.132-2.287-2.59-.83-.347-1.693-.408-2.83-.207-.398.071-1.103.35-14.612 5.792C4.46 18.806 3.967 19.01 3.65 19.232c-1.291.902-2.122 2.06-2.515 3.492-.16.583-.228 1.606-.153 2.184.219 1.589 1.096 3.18 2.381 4.302.734.643 1.877 1.23 2.726 1.402.58.118 1.322.154 1.917.087l.504-.056 18.598-7.476c13.286-5.341 18.734-7.546 19.077-7.726 1.155-.601 2.242-1.474 2.905-2.328 1.374-1.77 1.762-3.855 1.187-6.369-.295-1.28-1.149-2.891-2.125-4.018C46.104.376 43.36-.327 40.074.661c-.526.16-7.351 2.909-21.613 8.706z" fill="#2D56B3"/></svg>