<svg width="119" height="119" fill="none" xmlns="http://www.w3.org/2000/svg"><path d="M3.305 82.639v11.239a8.594 8.594 0 008.594 8.594h95.002a8.594 8.594 0 008.594-8.594v-11.24H3.305zm105.777 11.239a1.985 1.985 0 01-1.983 1.983H11.767a1.983 1.983 0 01-1.983-1.983v-6.182h32.89a5.42 5.42 0 004.958 3.306h23.569a5.422 5.422 0 004.958-3.306h32.923v6.182zM74.375 19.833c.004-1.105.081-2.21.232-3.305H18.18a4.958 4.958 0 00-4.958 4.958v54.542h6.61v-52.89h54.774a25.018 25.018 0 01-.232-3.305zm24.791 24.792v31.403h6.611V43.699a24.761 24.761 0 01-6.611.926z" fill="#020206" fill-opacity=".7"/><path d="M76.458 29.75H26.445v45.881h5.29V35.04h47.864a24.76 24.76 0 01-3.14-5.289z" fill="#020206" fill-opacity=".7"/><path d="M99.166 36.361c9.128 0 16.528-7.4 16.528-16.528 0-9.128-7.4-16.527-16.528-16.527-9.128 0-16.527 7.4-16.527 16.527 0 9.129 7.4 16.528 16.528 16.528z" fill="#2D56B3"/></svg>