<svg width="99" height="19" fill="none" xmlns="http://www.w3.org/2000/svg"><path d="M10.132 8.448c.72.228 1.284.612 1.692 1.152.408.528.612 1.182.612 1.962 0 1.104-.432 1.956-1.296 2.556-.852.588-2.1.882-3.744.882H.88V2.4h6.156c1.536 0 2.712.294 3.528.882.828.588 1.242 1.386 1.242 2.394 0 .612-.15 1.158-.45 1.638-.288.48-.696.858-1.224 1.134zM3.778 4.596v2.97h2.898c.72 0 1.266-.126 1.638-.378.372-.252.558-.624.558-1.116 0-.492-.186-.858-.558-1.098-.372-.252-.918-.378-1.638-.378H3.778zm3.402 8.208c.768 0 1.344-.126 1.728-.378.396-.252.594-.642.594-1.17 0-1.044-.774-1.566-2.322-1.566H3.778v3.114H7.18zm16.877-7.488l-4.374 10.278c-.444 1.116-.996 1.902-1.656 2.358-.648.456-1.434.684-2.358.684a4.916 4.916 0 01-1.494-.234c-.492-.156-.894-.372-1.206-.648l1.026-1.998a2.438 2.438 0 001.584.612c.384 0 .696-.096.936-.288.24-.18.456-.486.648-.918l.036-.09-4.194-9.756h2.898l2.718 6.57 2.736-6.57h2.7zm4.26-.576v3.33h5.832v2.34h-5.832V15h-2.916V2.4h9.522v2.34h-6.606zm8.206.576h2.808V15h-2.808V5.316zm1.404-1.35c-.516 0-.935-.15-1.26-.45a1.46 1.46 0 01-.486-1.116c0-.444.163-.816.486-1.116.325-.3.744-.45 1.26-.45.517 0 .937.144 1.26.432.325.288.486.648.486 1.08 0 .468-.162.858-.486 1.17-.323.3-.743.45-1.26.45zm9.897 1.206c1.2 0 2.166.36 2.898 1.08.744.72 1.116 1.788 1.116 3.204V15H49.03V9.888c0-.768-.168-1.338-.504-1.71-.336-.384-.822-.576-1.458-.576-.708 0-1.272.222-1.692.666-.42.432-.63 1.08-.63 1.944V15h-2.808V5.316h2.682V6.45c.372-.408.834-.72 1.386-.936a4.717 4.717 0 011.818-.342zm10.465 0c1.5 0 2.652.36 3.456 1.08.804.708 1.206 1.782 1.206 3.222V15h-2.628v-1.206c-.528.9-1.512 1.35-2.952 1.35-.744 0-1.392-.126-1.944-.378-.54-.252-.954-.6-1.242-1.044a2.717 2.717 0 01-.432-1.512c0-.9.336-1.608 1.008-2.124.684-.516 1.734-.774 3.15-.774h2.232c0-.612-.186-1.08-.558-1.404-.372-.336-.93-.504-1.674-.504a4.81 4.81 0 00-1.53.252 3.904 3.904 0 00-1.26.648l-1.008-1.962c.528-.372 1.158-.66 1.89-.864a8.606 8.606 0 012.286-.306zm-.216 8.082c.48 0 .906-.108 1.278-.324.372-.228.636-.558.792-.99v-.99h-1.926c-1.152 0-1.728.378-1.728 1.134 0 .36.138.648.414.864.288.204.678.306 1.17.306zm13.305-8.082c1.2 0 2.166.36 2.898 1.08.744.72 1.116 1.788 1.116 3.204V15h-2.808V9.888c0-.768-.168-1.338-.504-1.71-.336-.384-.822-.576-1.458-.576-.708 0-1.272.222-1.692.666-.42.432-.63 1.08-.63 1.944V15h-2.808V5.316h2.682V6.45c.372-.408.834-.72 1.386-.936a4.717 4.717 0 011.818-.342zm11.345 9.972c-1.032 0-1.962-.21-2.79-.63a4.929 4.929 0 01-1.926-1.782c-.456-.756-.684-1.614-.684-2.574 0-.96.228-1.818.684-2.574a4.8 4.8 0 011.926-1.764c.828-.432 1.758-.648 2.79-.648 1.02 0 1.908.216 2.664.648a3.734 3.734 0 011.674 1.818l-2.178 1.17c-.504-.888-1.23-1.332-2.178-1.332-.732 0-1.338.24-1.818.72s-.72 1.134-.72 1.962c0 .828.24 1.482.72 1.962s1.086.72 1.818.72c.96 0 1.686-.444 2.178-1.332l2.178 1.188c-.348.768-.906 1.368-1.674 1.8-.756.432-1.644.648-2.664.648zm15.318-4.95c0 .036-.018.288-.054.756H90.66c.132.6.444 1.074.936 1.422.492.348 1.104.522 1.836.522.504 0 .948-.072 1.332-.216a3.345 3.345 0 001.098-.72l1.494 1.62c-.912 1.044-2.244 1.566-3.996 1.566-1.092 0-2.058-.21-2.898-.63-.84-.432-1.488-1.026-1.944-1.782-.456-.756-.684-1.614-.684-2.574 0-.948.222-1.8.666-2.556a4.726 4.726 0 011.854-1.782c.792-.432 1.674-.648 2.646-.648.948 0 1.806.204 2.574.612a4.393 4.393 0 011.8 1.764c.444.756.666 1.638.666 2.646zm-5.022-2.898c-.636 0-1.17.18-1.602.54-.432.36-.696.852-.792 1.476h4.77c-.096-.612-.36-1.098-.792-1.458-.432-.372-.96-.558-1.584-.558z" fill="#2D56B3"/></svg>