<svg width="46" height="51" fill="none" xmlns="http://www.w3.org/2000/svg"><path d="M3.169 15.405c1.285 1.95 2.402 4.008 3.695 5.97.915 1.387 3.059 2.42 4.59 2.901 3.927 1.233 8.767 1.695 12.406-.59 1.23-.773 2.794-1.552 3.646-2.753.607-.855 1.576-2.09 1.665-3.159.162-1.95.319-3.577-.885-5.198-.511-.69-1.822.238-2.29.546-.71.468-1.021 2.565-.9 3.364.462 3.049 1.18 6.09 2.854 8.733 2.107 3.328 3.655 6.507 7.342 8.395 1.58.81 3.32 1.366 4.939 2.111.62.285 2.084.988 2.716.913" stroke="#FA9945" stroke-width="3" stroke-linecap="round"/></svg>