<svg width="70" height="57" fill="none" xmlns="http://www.w3.org/2000/svg"><g clip-path="url(#clip0)"><path d="M35.124 18.708l-6.734-3.745-.276.012c-.528.022-.99.46-1.032.982-.024.282.12.686.309.87.109.105 3.714 2.142 13.577 7.652 12.525 7.002 13.448 7.525 13.79 7.806 1.094.897 1.694 1.757 1.968 2.797.136.527.169.83.144 1.373-.049 1.187-.624 2.843-1.326 3.826-1.533 2.156-3.39 2.899-5.694 2.282-1.119-.304.23.43-18.334-9.956-10.878-6.08-17.153-9.612-17.459-9.817-1.194-.809-1.727-1.91-1.64-3.404.093-1.687.903-3.072 2.174-3.73.739-.378 1.588-.493 2.483-.33l.484.086 13.186 7.372c11.485 6.425 13.225 7.411 13.514 7.646.688.552.95 1.023.93 1.63l-.014.376-.395.704c-.358.63-.421.722-.628.89-.458.368-1.006.457-1.737.281-.305-.076-.7-.292-9.042-4.966-8.312-4.658-8.733-4.888-8.935-4.907-.46-.04-.867.167-1.08.548-.212.378-.172.857.1 1.2.15.194 17.415 9.897 17.94 10.09 2.132.766 3.977.112 5.189-1.84.733-1.188.919-2.26.585-3.405-.25-.864-.742-1.575-1.611-2.335-.305-.265-.964-.64-13.669-7.76-12.897-7.226-13.364-7.483-13.735-7.59-1.513-.441-2.935-.363-4.298.227-.555.241-1.394.83-1.798 1.25-1.101 1.165-1.791 2.846-1.861 4.551-.042.974.217 2.234.615 3.003a6.675 6.675 0 001.133 1.549l.36.357 17.479 9.811c12.487 7.009 17.618 9.873 17.974 10.028 1.192.523 2.554.823 3.634.805 2.24-.038 4.109-1.041 5.708-3.065.814-1.032 1.534-2.707 1.8-4.173.55-3.07-.623-5.649-3.452-7.59-.454-.31-6.872-3.908-20.326-11.39z" fill="#FA9B45"/></g><defs><clipPath id="clip0"><path fill="#fff" transform="rotate(29.264 7.283 27.896)" d="M0 0h62.577v29.799H0z"/></clipPath></defs></svg>