<svg width="70" height="70" fill="none" xmlns="http://www.w3.org/2000/svg"><path d="M68.524 51.678a1.919 1.919 0 01-1.63 1.388l.011-.002-47.27 6.875a1.943 1.943 0 01-1.605-.506l-.007-.008c-.24-.22-.418-.5-.517-.811l-.007-.022a2.063 2.063 0 01-.077-.76v.014l1.359-17.412-12.34-5.654a1.812 1.812 0 01-1.035-1.122l-.018-.057v.002l-.018-.057a1.742 1.742 0 01-.078-.665v.012c.013-.396.154-.776.4-1.086l.005-.007c.244-.31.574-.538.95-.657l13.216-4.228 1.224-15.602A1.804 1.804 0 0122.32 9.63a1.787 1.787 0 012.014.37l.008.008 43.605 39.663a1.77 1.77 0 01.578 2.01v-.005h-.001zM21.53 55.692l40.721-5.902-37.57-34.183-.861 11.101 26.736 19.249-27.755-6.525-1.27 16.26z" fill="#FA9945"/></svg>