<svg width="44" height="36" fill="none" xmlns="http://www.w3.org/2000/svg"><path d="M43.39.79a1.4 1.4 0 01.317 1.53l.003-.008-12.175 32.676a1.418 1.418 0 01-.888.85l-.007.002a1.371 1.371 0 01-.701.047l-.016-.004a1.505 1.505 0 01-.514-.217l.01.006-10.673-6.977-7.947 5.918a1.323 1.323 0 01-1.081.27l-.043-.01.001.001-.042-.008a1.272 1.272 0 01-.454-.184l.008.005a1.352 1.352 0 01-.555-.637l-.003-.006a1.432 1.432 0 01-.088-.838l1.928-9.945-9.56-6.255a1.317 1.317 0 01-.645-1.379 1.305 1.305 0 01.944-1.16l.008-.002L41.903.455a1.292 1.292 0 011.49.335L43.39.788V.79zM29.48 32.286l10.5-28.142L4.92 16.21l6.806 4.444 21.7-10.368L19.515 25.77l9.965 6.516z" fill="#2D56B3"/></svg>