<svg width="42" height="42" fill="none" xmlns="http://www.w3.org/2000/svg"><path d="M40.226 3.022l-1.248-1.25a6.058 6.058 0 00-8.564 0L5.194 26.997l-5 13.07c-.586 1.547.198 2.327 1.74 1.737l13.072-4.994 25.22-25.223a6.055 6.055 0 000-8.564zm-15.84 6.64l1.756 1.755L8.806 28.753 7.05 26.997 24.386 9.662zm2.684 2.684l2.586 2.587-17.334 17.336-2.586-2.587L27.07 12.346zM6.318 38.724L3.28 35.682l2.94-7.659 7.756 7.754-7.657 2.947zm8.688-3.77l-1.754-1.757 17.333-17.336 1.756 1.757-17.335 17.335zm18.346-18.348l-7.955-7.954 1.979-1.98 7.955 7.954-1.979 1.98z" fill="#2D56B3"/></svg>