<svg width="16" height="16" fill="none" xmlns="http://www.w3.org/2000/svg"><g clip-path="url(#clip0)"><path d="M15.928 12.754l-.08-.24c-.188-.56-.807-1.146-1.374-1.3l-2.103-.574c-.57-.155-1.383.054-1.8.47l-.76.761a8.07 8.07 0 01-5.68-5.679l.761-.76c.417-.418.626-1.23.47-1.8L4.79 1.529C4.635.959 4.049.342 3.49.155l-.24-.08c-.561-.187-1.36.002-1.778.419L.334 1.633c-.203.202-.333.78-.333.782a13.44 13.44 0 003.932 9.65A13.444 13.444 0 0013.553 16c.02 0 .615-.128.818-.33l1.138-1.138c.417-.417.605-1.217.419-1.777z" fill="#fff"/></g><defs><clipPath id="clip0"><path fill="#fff" d="M0 0h16v16H0z"/></clipPath></defs></svg>