<svg width="18" height="16" fill="none" xmlns="http://www.w3.org/2000/svg"><path d="M16.952.013a2.13 2.13 0 01-.153.024c-.306.043-.75.212-1.208.46-1.495.808-3.846 2.763-6.733 5.6a95.413 95.413 0 00-2.614 2.67l-.279.297-.076.08-.26-.124C2.475 7.531.915 7.173.273 7.792c-.134.128-.194.241-.243.45-.037.158-.037.188-.002.282.048.126.089.172.326.37a25.67 25.67 0 011.799 1.679c1.133 1.193 2.253 2.708 3.634 4.921.101.161.206.317.236.348a.53.53 0 00.255.14c.078.022.085.022.174 0a.47.47 0 00.252-.125c.07-.066.091-.103.198-.349.124-.282.374-.827.534-1.162 1.862-3.897 4.135-7.202 6.859-9.972.631-.643 1.525-1.472 2.58-2.39.858-.748 1.028-.938 1.104-1.24.025-.104.025-.11.001-.192-.085-.298-.29-.45-.711-.528a.828.828 0 00-.317-.011z" fill="#E49809"/></svg>