<svg width="35" height="31" fill="none" xmlns="http://www.w3.org/2000/svg"><path d="M32.963.025a4.15 4.15 0 01-.298.047c-.596.084-1.46.41-2.349.89-2.906 1.566-7.478 5.354-13.092 10.852a185.083 185.083 0 00-5.083 5.17l-.542.577-.147.156-.506-.24C4.813 14.592 1.78 13.897.53 15.097c-.26.247-.378.467-.473.873-.072.304-.072.364-.003.544.093.245.172.334.634.718a49.81 49.81 0 013.497 3.253c2.204 2.31 4.381 5.248 7.066 9.535.197.312.402.614.46.673.125.129.273.21.494.272.154.042.167.042.34 0 .24-.057.352-.113.489-.242s.178-.2.386-.676c.24-.546.727-1.603 1.039-2.251 3.62-7.55 8.039-13.954 13.335-19.322 1.228-1.245 2.967-2.85 5.018-4.632 1.668-1.447 1.998-1.816 2.146-2.402.05-.2.05-.213.003-.371-.167-.577-.566-.871-1.384-1.022-.268-.047-.473-.057-.615-.022z" fill="#E49809"/></svg>