<svg width="37" height="37" fill="none" xmlns="http://www.w3.org/2000/svg"><g clip-path="url(#clip0)"><path d="M18.502 37c10.217 0 18.5-8.283 18.5-18.5S28.719 0 18.502 0 .002 8.283.002 18.5 8.285 37 18.502 37z" fill="#71A5E2"/><path d="M29.833 13.296a8.825 8.825 0 01-2.54.695 4.434 4.434 0 001.945-2.446 8.85 8.85 0 01-2.808 1.073 4.423 4.423 0 00-7.535 4.034 12.553 12.553 0 01-9.116-4.621 4.422 4.422 0 001.368 5.904 4.391 4.391 0 01-2.002-.554v.056a4.424 4.424 0 003.547 4.336 4.405 4.405 0 01-1.997.076 4.427 4.427 0 004.131 3.071 8.872 8.872 0 01-5.492 1.893c-.357 0-.71-.02-1.055-.062a12.507 12.507 0 006.778 1.987c8.134 0 12.582-6.738 12.582-12.582 0-.192-.004-.382-.013-.572a8.968 8.968 0 002.207-2.288z" fill="#F1F2F2"/></g><defs><clipPath id="clip0"><path fill="#fff" d="M0 0h37v37H0z"/></clipPath></defs></svg>