<svg xmlns="http://www.w3.org/2000/svg" viewBox="0 0 512 512"><path d="M216.9 293.5l23.8-13.8-30.9-26.1z"/><path d="M512 255.7c0-5.9-2.9-11-7.3-14.3l.1-.2-61.9-35.7 35.6-61.7-.1-.1c2.2-5 2.1-10.9-.8-16-2.9-5.1-8-8.1-13.4-8.7v-.2h-71.5V47.6h-.1c-.6-5.4-3.6-10.5-8.7-13.4-5.1-2.9-11-3-16-.8l-.1-.2-62.9 36.3-35-60.4-.1.1c-3.2-4.4-8.4-7.3-14.3-7.3s-11 2.9-14.3 7.3l-.2-.1-35.4 61.4-61-35.2-.1.1c-5-2.2-10.9-2.1-16 .8-5.1 2.9-8.1 8-8.7 13.4h-.2v70.9H49.1v.1c-5.4.6-10.5 3.6-13.4 8.7-2.9 5.1-3 11-.8 16l-.2.1 34.8 60.3-62.4 36 .1.1c-4.4 3.2-7.3 8.4-7.3 14.3s2.9 11 7.3 14.3l-.1.2L69 306.3 33.4 368l.1.1c-2.2 5-2.1 10.9.8 16 2.9 5.1 8 8.1 13.4 8.7v.2h71.5v71.3h.1c.6 5.4 3.6 10.5 8.7 13.4 5.1 2.9 11 3 16 .8l.1.1 62.9-36.3 34.9 60.4.1-.1c3.2 4.4 8.4 7.3 14.3 7.3s11-2.9 14.3-7.3l.2.1 35.4-61.4 61 35.2.1-.1c5 2.2 10.9 2.1 16-.8 5.1-2.9 8.1-8 8.7-13.4h.2v-70.9h70.5v-.1c5.4-.6 10.5-3.6 13.4-8.7 2.9-5.1 3-11 .8-16l.2-.1-34.8-60.3 62.4-36-.1-.1c4.5-3.2 7.4-8.4 7.4-14.3zM173.3 356.9c-14.8 8.6-28.2 9.7-39.6 6.7l1.6-17.9c8.6 2.5 19.8 2.5 30.4-3.6 9.1-5.2 11-11.7 8.4-16.2-7.7-13.3-46.4 21.4-63.1-7.4-7.4-12.8-2.4-29.7 15.6-40.1 12.2-7 24.4-9.2 36-6.6l-2.1 17.4c-9.5-2.1-19.3 0-27.1 4.5-6.9 4-9.1 9.2-6.4 13.8 7 12.1 46.2-21.5 62.8 7.1 8 14 4 30.4-16.5 42.3zm92.5-55.3l-12.3-10.2-32.8 19 2.7 15.8-18.5 10.7-14.7-93.6 20.4-11.8 73.7 59.6-18.5 10.5zm24.9-14.4l-44.2-76.6 16.4-9.5 35.9 62.2 32.4-18.7 8.3 14.4-48.8 28.2zm59.9-34.5l-44.2-76.6 54.2-31.3 8.3 14.4-38 21.8 9.3 16.1 37.1-21.4 8.3 14.4-37.1 21.4 10.1 17.5 37.9-21.9 8.3 14.4-54.2 31.2z"/></svg>