<svg width="116" height="51" fill="none" xmlns="http://www.w3.org/2000/svg"><path fill-rule="evenodd" clip-rule="evenodd" d="M65 0h51v51H65V0z" fill="#051244"/><path fill-rule="evenodd" clip-rule="evenodd" d="M90.511 35.2a12.851 12.851 0 008.722 3.395c7.194 0 13.016-5.867 13.016-13.084 0-7.238-5.822-13.106-13.016-13.106a12.85 12.85 0 00-8.722 3.395c-2.63 2.405-4.294 5.867-4.294 9.711 0 3.844 1.664 7.307 4.294 9.69z" fill="#051244"/><path fill-rule="evenodd" clip-rule="evenodd" d="M110.519 32.795c0-.225.18-.405.405-.405.247 0 .427.18.427.405 0 .247-.18.427-.427.427-.225 0-.405-.18-.405-.427zm.405.337c.18 0 .337-.157.337-.337 0-.18-.158-.315-.337-.315a.321.321 0 00-.315.315c0 .18.157.337.315.337zm-.045-.134h-.09v-.383h.157c.023 0 .068 0 .09.023.045.022.045.045.045.09s-.022.09-.067.09l.09.18h-.113l-.045-.158h-.067v.157-.224h.09c.022 0 .022-.023.022-.045 0-.023 0-.023-.022-.045h-.09v.315zm-16.164-8.88c-.045-.472-.135-.922-.225-1.394h-7.958c.09-.472.225-.922.36-1.372h7.216a15.048 15.048 0 00-.54-1.393h-6.114c.225-.477.472-.942.742-1.394h4.609c-.297-.48-.627-.939-.99-1.372h-2.63c.407-.497.85-.962 1.326-1.393-2.315-2.091-5.372-3.395-8.745-3.395-7.17 0-13.016 5.868-13.016 13.106 0 7.217 5.845 13.084 13.016 13.084 3.373 0 6.43-1.282 8.745-3.395.469-.423.905-.882 1.305-1.371h-2.63a15.51 15.51 0 01-.99-1.394h4.609c.29-.445.545-.91.764-1.394h-6.115c-.203-.45-.405-.899-.562-1.371h7.216c.157-.45.27-.922.382-1.394.09-.45.18-.921.225-1.394a14.127 14.127 0 000-2.764zm15.804 4.428c0-.247.18-.427.405-.427.247 0 .427.18.427.427 0 .225-.18.428-.427.428-.225 0-.405-.203-.405-.428zm.405.315c.18 0 .337-.135.337-.315s-.158-.314-.337-.314a.321.321 0 00-.315.314c0 .18.157.315.315.315zm-.045-.135h-.09v-.36h.247c.045.023.045.068.045.113 0 .022-.022.067-.067.09l.09.157h-.113l-.045-.135h-.067v.135-.202h.045c.022 0 .045 0 .045-.023.022 0 .022-.022.022-.045 0 0 0-.022-.022-.022 0-.023-.023 0-.045 0h-.045v.292z" fill="#051244"/><path fill-rule="evenodd" clip-rule="evenodd" d="M86.082 29.288c-.427.112-.741.18-1.056.18-.674 0-1.08-.427-1.08-1.192 0-.157.023-.314.046-.494l.09-.517.067-.427.607-3.687h1.349l-.157.81h.854l-.203 1.348h-.854l-.36 2.203c-.022.113-.022.18-.022.225 0 .293.135.405.472.405.158 0 .292-.023.427-.045l-.18 1.191zm4.362-.045a5.287 5.287 0 01-1.439.202c-1.529 0-2.406-.81-2.406-2.405 0-1.866 1.035-3.215 2.473-3.215 1.147 0 1.889.765 1.889 1.956 0 .405-.045.787-.158 1.326h-2.81c-.022.09-.022.135-.022.18 0 .63.427.944 1.236.944.517 0 .967-.112 1.461-.337l-.224 1.35zm-.832-3.215v-.27c0-.449-.247-.696-.674-.696-.45 0-.765.337-.9.966h1.574zm-14.32 3.327h-1.394l.81-5.102-1.822 5.102h-.966l-.113-5.08-.854 5.08h-1.371l1.101-6.631h2.046l.045 4.092 1.371-4.092h2.248l-1.101 6.631zm3.394-2.405c-.134-.023-.18-.023-.27-.023-.809 0-1.213.315-1.213.81 0 .337.202.562.517.562.674 0 .944-.562.966-1.349zm1.124 2.405h-1.213l.022-.561c-.315.426-.742.651-1.484.651-.674 0-1.259-.606-1.259-1.483 0-.247.045-.472.113-.697.224-.832 1.056-1.349 2.338-1.372.157 0 .404 0 .63.023.044-.18.044-.247.044-.36 0-.36-.292-.472-.944-.472-.405 0-.855.068-1.17.18l-.201.045-.09.022.202-1.214c.652-.202 1.124-.292 1.641-.292 1.214 0 1.866.562 1.866 1.596 0 .27.022.473-.068 1.057l-.314 1.933-.045.338-.022.27-.023.18-.022.156zm17.423-5.35c.405 0 .764.113 1.259.36l.247-1.44c-.135-.067-.18-.067-.36-.134l-.561-.157a2.766 2.766 0 00-.652-.068c-.698 0-1.102.023-1.529.27-.225.157-.517.36-.832.72l-.18-.046-1.439 1.012.068-.562H91.77l-.876 5.395h1.416l.517-2.9s.203-.405.292-.539c.27-.337.495-.337.787-.337h.113c-.048.342-.07.688-.068 1.034 0 1.753.989 2.855 2.518 2.855.382 0 .72-.045 1.236-.18l.248-1.529c-.45.247-.854.36-1.192.36-.831 0-1.326-.63-1.326-1.619 0-1.46.741-2.495 1.798-2.495zm11.937-1.281l-.315 1.888c-.337-.517-.742-.764-1.281-.764-.742 0-1.439.427-1.866 1.236v-.022l-.899-.54.09-.562h-1.507l-.854 5.395h1.394l.472-2.9s.36-.404.45-.539a.876.876 0 01.629-.337c-.157.45-.247.989-.247 1.596 0 1.349.697 2.248 1.731 2.248.517 0 .921-.18 1.303-.607l-.067.54h1.327l1.079-6.632h-1.439zm-1.731 5.35c-.472 0-.719-.36-.719-1.057 0-1.056.449-1.82 1.101-1.82.494 0 .742.382.742 1.056 0 1.08-.45 1.821-1.124 1.821zm-6.497-1.124c-.134-.023-.179-.023-.269-.023-.81 0-1.215.315-1.215.81 0 .337.203.562.517.562.675 0 .945-.562.967-1.349zm1.124 2.405h-1.236l.045-.561c-.315.426-.742.651-1.484.651-.697 0-1.304-.584-1.304-1.483 0-1.281.967-2.068 2.495-2.068.158 0 .405 0 .608.023.045-.18.067-.248.067-.36 0-.36-.292-.473-.966-.473-.383 0-.855.068-1.17.18l-.18.045-.09.022.203-1.213c.652-.203 1.124-.292 1.641-.292 1.214 0 1.843.561 1.843 1.596 0 .27.045.472-.067 1.056l-.292 1.933-.045.338-.045.27-.022.18-.001.156zm-19.31-4.248c.27 0 .651.022 1.056.09l.203-1.26c-.405-.044-.945-.112-1.26-.112-1.573 0-2.09.855-2.09 1.844 0 .652.292 1.123 1.056 1.483.562.27.652.315.652.562 0 .337-.292.54-.832.54-.427 0-.831-.068-1.281-.225l-.157 1.236.022.023.27.045c.09.022.202.045.36.067.337.023.629.045.809.045 1.574 0 2.226-.607 2.226-1.798 0-.742-.36-1.191-1.057-1.506-.607-.27-.675-.315-.675-.562 0-.248.27-.472.697-.472z" fill="#051244"/><path fill-rule="evenodd" clip-rule="evenodd" d="M99.121 22.499l-.247 1.439c-.495-.248-.855-.36-1.26-.36-1.056 0-1.797 1.034-1.797 2.495 0 1.012.494 1.619 1.326 1.619.337 0 .742-.112 1.191-.337l-.247 1.506c-.517.135-.854.202-1.237.202-1.528 0-2.472-1.101-2.472-2.877 0-2.36 1.304-4.024 3.17-4.024.247 0 .471.022.651.067l.562.135c.18.068.226.09.36.135zm-4.54.99h-.136c-.472 0-.741.224-1.169.876l.135-.832H92.13l-.877 5.395h1.417c.517-3.305.651-3.867 1.326-3.867h.09a5.65 5.65 0 01.539-1.55l-.045-.023zm-8.139 5.372c-.382.135-.697.18-1.011.18-.72 0-1.124-.405-1.124-1.192 0-.134.022-.314.045-.472l.09-.54.067-.426.607-3.687h1.394l-.158.809h.72l-.18 1.326h-.72l-.382 2.249c-.022.09-.022.157-.022.224 0 .27.135.383.472.383.157 0 .292 0 .382-.045l-.18 1.19zm-5.417-3.62c0 .675.314 1.147 1.056 1.507.584.27.674.36.674.584 0 .337-.247.495-.809.495-.427 0-.81-.068-1.259-.202l-.202 1.236.067.022.248.045c.09.023.202.045.382.045.314.045.584.045.764.045 1.484 0 2.18-.562 2.18-1.798 0-.742-.291-1.17-.988-1.506-.607-.27-.675-.337-.675-.585 0-.292.248-.427.697-.427.27 0 .652.023 1.012.068l.202-1.237a8.137 8.137 0 00-1.236-.112c-1.574 0-2.136.831-2.114 1.82zm28.865 3.687h-1.327l.068-.517c-.382.405-.787.585-1.305.585-1.034 0-1.708-.877-1.708-2.226 0-1.798 1.057-3.327 2.293-3.327.562 0 .967.247 1.349.742l.315-1.888h1.394l-1.079 6.631zm-2.069-1.259c.652 0 1.102-.764 1.102-1.82 0-.698-.248-1.057-.742-1.057-.63 0-1.101.742-1.101 1.798 0 .72.247 1.08.741 1.08zm-17.063 1.147a4.606 4.606 0 01-1.46.225c-1.575 0-2.384-.832-2.384-2.428 0-1.844 1.034-3.215 2.45-3.215 1.17 0 1.911.765 1.911 1.956 0 .405-.045.787-.18 1.349h-2.787c-.022.067-.022.113-.022.157 0 .63.427.945 1.236.945.517 0 .967-.09 1.461-.338l-.225 1.349zm-.786-3.215v-.27c0-.45-.248-.697-.675-.697-.45 0-.764.338-.9.967h1.575zm-14.32 3.327h-1.394l.81-5.103-1.822 5.103h-.966l-.113-5.058-.854 5.058h-1.304l1.102-6.631h2.023l.067 4.114 1.349-4.114h2.203l-1.101 6.631zm3.484-2.405c-.135 0-.202-.022-.315-.022-.787 0-1.191.292-1.191.831 0 .337.18.54.494.54.585 0 .99-.54 1.012-1.35zm1.034 2.405H79l.023-.562c-.36.45-.831.652-1.483.652-.765 0-1.282-.584-1.282-1.46 0-1.327.9-2.091 2.473-2.091.157 0 .36.022.585.044.044-.18.044-.247.044-.337 0-.36-.247-.494-.899-.494-.404 0-.854.045-1.169.135l-.202.067-.135.023.202-1.214c.697-.203 1.17-.27 1.687-.27 1.213 0 1.865.54 1.865 1.573 0 .27-.022.473-.112 1.08l-.315 1.91-.045.337-.022.27-.023.203-.022.134zm21.222-2.405c-.158 0-.225-.022-.314-.022-.81 0-1.215.292-1.215.831 0 .337.203.54.517.54.563 0 .989-.54 1.012-1.35zm1.034 2.405h-1.169l.022-.562c-.359.45-.831.652-1.483.652-.765 0-1.282-.584-1.282-1.46 0-1.327.9-2.091 2.473-2.091.158 0 .36.022.562.044.045-.18.068-.247.068-.337 0-.36-.248-.494-.899-.494-.405 0-.877.045-1.192.135l-.18.067-.135.023.203-1.214c.697-.203 1.168-.27 1.686-.27 1.214 0 1.843.54 1.843 1.573 0 .27 0 .473-.112 1.08l-.292 1.91-.045.337-.045.27-.023.203v.134zm3.777-5.44h-.135c-.472 0-.742.225-1.169.877l.135-.832h-1.282l-.854 5.395h1.394c.517-3.305.652-3.867 1.326-3.867h.09a5.652 5.652 0 01.54-1.55l-.045-.023z" fill="#051244"/><path d="M17.967 33.183l2.489-14.286h3.889l-2.412 14.286h-3.966z" fill="#051244"/><path d="M17.967 33.183l3.189-14.286h3.189l-2.412 14.286h-3.966zm18.044-14.128c-.778-.317-2.022-.634-3.578-.634-3.889 0-6.689 1.984-6.689 4.84 0 2.144 1.945 3.255 3.5 3.969 1.556.714 2.023 1.19 2.023 1.825 0 .953-1.245 1.429-2.334 1.429-1.555 0-2.41-.238-3.733-.794l-.544-.238-.545 3.254c.933.397 2.645.794 4.433.794 4.123 0 6.845-1.984 6.845-5 0-1.667-1.011-2.937-3.345-3.968-1.4-.715-2.255-1.111-2.255-1.826 0-.635.7-1.27 2.255-1.27 1.323 0 2.256.238 2.956.556l.389.159.622-3.096z" fill="#051244"/><path d="M36.011 19.055c-.778-.317-2.022-.634-3.578-.634-3.889 0-5.989 1.984-5.989 4.84 0 2.144 1.245 3.255 2.8 3.969 1.556.714 2.023 1.19 2.023 1.825 0 .953-1.245 1.429-2.334 1.429-1.555 0-2.41-.238-3.733-.794l-.544-.238-.545 3.254c.933.397 2.645.794 4.433.794 4.123 0 6.845-1.984 6.845-5 0-1.667-1.011-2.937-3.345-3.968-1.4-.715-2.255-1.111-2.255-1.826 0-.635.7-1.27 2.255-1.27 1.323 0 2.256.238 2.956.556l.389.159.622-3.096zm6.689-.158c-.933 0-1.633.08-2.022 1.032l-5.834 13.254h4.2l.778-2.381H44.8l.467 2.38H49l-3.267-14.285H42.7zm-1.789 9.524c.233-.715 1.556-4.207 1.556-4.207s.31-.873.544-1.428l.233 1.349s.778 3.571.934 4.365H40.91v-.08z" fill="#051244"/><path d="M43.633 18.897c-.933 0-1.633.08-2.022 1.032l-6.767 13.254h4.2l.778-2.381H44.8l.467 2.38H49l-3.267-14.285h-2.1zm-2.722 9.524c.311-.794 1.556-4.207 1.556-4.207s.31-.873.544-1.428l.233 1.349s.778 3.571.934 4.365H40.91v-.08zm-30.1.476l-.389-2.063c-.7-2.381-2.955-5-5.444-6.27l3.5 12.698h4.2l6.3-14.286h-4.2l-3.967 9.921z" fill="#051244"/><path d="M10.811 28.897l-.389-2.063c-.7-2.381-2.955-5-5.444-6.27l3.5 12.698h4.2l6.3-14.286h-3.422l-4.745 9.921z" fill="#051244"/><path d="M0 18.897l.7.159c4.978 1.19 8.4 4.206 9.722 7.777l-1.4-6.746c-.233-.952-.933-1.19-1.789-1.19H0z" fill="#051244"/><path d="M0 18.897c4.978 1.19 9.1 4.286 10.422 7.857L9.1 21.12c-.233-.952-1.011-1.508-1.867-1.508L0 18.897z" fill="#051244"/><path d="M0 18.897c4.978 1.19 9.1 4.286 10.422 7.857L9.49 23.66c-.233-.953-.545-1.905-1.633-2.302L0 18.897z" fill="#051244"/><path d="M14.7 28.42l-2.644-2.698-1.245 3.016-.31-1.984c-.7-2.381-2.956-5-5.445-6.27l3.5 12.698h4.2l1.944-4.761zm7.233 4.763L18.59 29.69l-.622 3.493h3.966zm8.945-4.921c.311.317.467.555.389.873 0 .952-1.245 1.428-2.333 1.428-1.556 0-2.412-.238-3.734-.793l-.544-.238-.545 3.254c.934.397 2.645.793 4.434.793 2.489 0 4.51-.714 5.677-1.984l-3.344-3.333zm4.511 4.92h3.655l.778-2.38H44.8l.467 2.38H49l-1.322-5.793-4.667-4.603.233 1.27s.778 3.57.934 4.364H40.91c.311-.793 1.556-4.206 1.556-4.206s.31-.873.544-1.428" fill="#051244"/></svg>