<svg width="16" height="19" fill="none" xmlns="http://www.w3.org/2000/svg"><path d="M14.847 16.33a.26.26 0 00-.188-.113h-.035A8.21 8.21 0 019.784 1.37a.26.26 0 00-.147-.477l.002.001a8.734 8.734 0 105.137 15.797.26.26 0 00.071-.361z" fill="#FFE380"/><path d="M12.044 11.14a.261.261 0 00-.108-.055l-.002-.004-.705-.169-.378-.613a.26.26 0 00-.446 0l-.381.613-.694.17a.26.26 0 00-.148.425l.47.55-.056.723a.26.26 0 00.367.26l.672-.274.657.27a.26.26 0 00.367-.256l-.055-.723.47-.55a.26.26 0 00-.03-.367zm1.132-6.65a.26.26 0 00-.108-.055l.004.01-1.204-.294-.65-1.051a.26.26 0 00-.445 0l-.652 1.055-1.192.291a.26.26 0 00-.153.411l.802.945-.094 1.237a.26.26 0 00.367.26l1.147-.47 1.132.465a.26.26 0 00.367-.255l-.093-1.237.802-.945a.26.26 0 00-.03-.367zm2.328 4.218a.261.261 0 00-.107-.054l-.008-.004-.55-.132-.292-.474a.26.26 0 00-.446 0l-.288.483-.532.13a.26.26 0 00-.15.42l.366.428-.042.55a.26.26 0 00.367.26l.518-.212.502.206a.26.26 0 00.367-.255l-.042-.55.367-.428a.26.26 0 00-.03-.368z" fill="#FFE380"/></svg>