<svg width="39" height="44" fill="none" xmlns="http://www.w3.org/2000/svg"><path d="M7.31 41.509a4.866 4.866 0 100-9.732 4.866 4.866 0 000 9.732z" fill="#fff" stroke="#476482" stroke-miterlimit="10" stroke-linecap="round" stroke-linejoin="round"/><path d="M25.975 39.594c0 .08.08.16.16.24.159.318.398.558.558.797 1.196 1.436 2.951 2.313 4.865 2.313 3.51 0 6.382-2.872 6.382-6.381 0-1.994-.878-3.749-2.313-4.866" fill="#fff"/><path d="M25.975 39.594c0 .08.08.16.16.24.159.318.398.558.558.797 1.196 1.436 2.951 2.313 4.865 2.313 3.51 0 6.382-2.872 6.382-6.381 0-1.994-.878-3.749-2.313-4.866" stroke="#476482" stroke-miterlimit="10" stroke-linecap="round" stroke-linejoin="round"/><path d="M3.242 31.697A6.37 6.37 0 00.93 36.643c0 3.51 2.871 6.38 6.381 6.38 2.792 0 5.185-1.834 6.062-4.386l.24-.957" fill="#fff"/><path d="M3.242 31.697A6.37 6.37 0 00.93 36.643c0 3.51 2.871 6.38 6.381 6.38 2.792 0 5.185-1.834 6.062-4.386l.24-.957" stroke="#476482" stroke-miterlimit="10" stroke-linecap="round" stroke-linejoin="round"/><path d="M31.558 41.509a4.866 4.866 0 100-9.732 4.866 4.866 0 000 9.732z" fill="#fff" stroke="#476482" stroke-miterlimit="10" stroke-linecap="round" stroke-linejoin="round"/><path d="M3.242 31.697s1.117-1.276 5.025-2.313c2.313-.558 4.467-1.595 6.222-3.19.797-.639 1.436-1.436 1.994-2.234l1.595 2.632s-2.552 2.074-4.786 11.965" fill="#fff"/><path d="M3.242 31.697s1.117-1.276 5.025-2.313c2.313-.558 4.467-1.595 6.222-3.19.797-.639 1.436-1.436 1.994-2.234l1.595 2.632s-2.552 2.074-4.786 11.965" stroke="#476482" stroke-miterlimit="10" stroke-linecap="round" stroke-linejoin="round"/><path d="M20.391 17.977s1.915 3.032 1.995 3.43c0 0 4.785-7.976 5.663-9.252.877-1.197 4.227-5.664 2.632-11.327l-8.614 14.517-1.676 2.632z" fill="#fff" stroke="#476482" stroke-miterlimit="10" stroke-linecap="round" stroke-linejoin="round"/><path d="M26.613 40.63c-.08-.08-.16-.239-.24-.318-.079-.08-.159-.24-.239-.32a1.1 1.1 0 00-.239-.319c-.877-1.515-1.116-3.11-1.196-4.147-.08-1.675-.638-3.031-1.516-4.387" fill="#fff"/><path d="M26.613 40.63c-.08-.08-.16-.239-.24-.318-.079-.08-.159-.24-.239-.32a1.1 1.1 0 00-.239-.319c-.877-1.515-1.116-3.11-1.196-4.147-.08-1.675-.638-3.031-1.516-4.387" stroke="#476482" stroke-miterlimit="10" stroke-linecap="round" stroke-linejoin="round"/><path d="M22.306 24.04c.797 1.356 2.233 2.553 3.51 3.43a14.838 14.838 0 004.466 1.914c3.59.957 5.265 2.393 5.265 2.393" fill="#fff"/><path d="M22.306 24.04c.797 1.356 2.233 2.553 3.51 3.43a14.838 14.838 0 004.466 1.914c3.59.957 5.265 2.393 5.265 2.393" stroke="#476482" stroke-miterlimit="10" stroke-linecap="round" stroke-linejoin="round"/><path d="M16.722 21.567s-4.786-8.056-5.663-9.253C10.102 11.118 6.752 6.651 8.347.988l8.694 14.517 1.675 2.632" fill="#fff"/><path d="M16.722 21.567s-4.786-8.056-5.663-9.253C10.102 11.118 6.752 6.651 8.347.988l8.694 14.517 1.675 2.632m-1.994 3.43l6.461 9.412m-.877-6.939l-3.59-5.903" stroke="#476482" stroke-miterlimit="10" stroke-linecap="round" stroke-linejoin="round"/><path d="M19.355 22.922a.717.717 0 100-1.435.717.717 0 000 1.435z" fill="#476482"/><path d="M7.31 41.509a4.866 4.866 0 100-9.732 4.866 4.866 0 000 9.732z" fill="#fff" stroke="#476482" stroke-miterlimit="10" stroke-linecap="round" stroke-linejoin="round"/></svg>