<svg width="231" height="231" fill="none" xmlns="http://www.w3.org/2000/svg"><path d="M.21.749h199.999c16.569 0 30 13.432 30 30v200h-200c-16.568 0-30-13.431-30-30v-200z" fill="#122E4A"/><path d="M65.498 133.156c-.123 1.053-.512 1.866-1.169 2.441-.651.569-1.52.854-2.604.854-1.176 0-2.12-.421-2.83-1.264-.707-.844-1.06-1.972-1.06-3.384v-.957c0-.925.164-1.739.492-2.441.333-.702.803-1.239 1.409-1.613.606-.378 1.308-.567 2.105-.567 1.057 0 1.905.296 2.543.888.638.588 1.01 1.404 1.114 2.448H64.18c-.114-.793-.362-1.368-.745-1.723-.378-.356-.91-.533-1.593-.533-.838 0-1.497.31-1.975.929-.474.62-.711 1.502-.711 2.646v.964c0 1.08.225 1.939.676 2.577.452.638 1.083.957 1.894.957.73 0 1.287-.164 1.675-.492.392-.333.652-.909.78-1.73h1.318zm1.265-.608c0-.725.141-1.376.424-1.955.287-.579.684-1.026 1.19-1.34.51-.315 1.09-.472 1.743-.472 1.007 0 1.82.349 2.44 1.046.624.697.936 1.625.936 2.782v.089c0 .72-.138 1.367-.416 1.942a3.12 3.12 0 01-1.183 1.333c-.51.319-1.099.478-1.764.478-1.002 0-1.816-.348-2.44-1.046-.62-.697-.93-1.62-.93-2.768v-.089zm1.271.15c0 .821.19 1.479.568 1.976.383.497.893.745 1.531.745.643 0 1.153-.251 1.531-.752.379-.506.568-1.212.568-2.119 0-.811-.194-1.468-.581-1.969-.383-.506-.894-.759-1.531-.759-.625 0-1.128.249-1.511.745-.383.497-.575 1.208-.575 2.133zm13.002-3.78v7.396h-1.271v-6.35h-2.516l-.15 2.768c-.082 1.272-.296 2.181-.643 2.728-.341.547-.886.832-1.633.854h-.506V135.2l.362-.027c.41-.046.704-.283.882-.711.178-.428.292-1.221.342-2.379l.136-3.165h4.998zm8.074 7.396h-1.265v-3.158h-3.397v3.158h-1.272v-7.396h1.272v3.206h3.397v-3.206h1.265v7.396zm2.146-7.396h1.272v6.364h3.404v-6.364h1.265v6.364h.882l-.124 3.227h-1.134v-2.195h-5.565v-7.396zm11.259 7.533c-1.003 0-1.818-.328-2.447-.984-.63-.661-.944-1.543-.944-2.646v-.232c0-.734.14-1.388.417-1.962a3.288 3.288 0 011.176-1.354 2.96 2.96 0 011.641-.492c.961 0 1.709.317 2.242.95.533.634.8 1.541.8 2.721v.527h-5.011c.018.729.23 1.319.636 1.77.41.447.929.67 1.558.67.447 0 .825-.091 1.135-.273.31-.183.581-.424.814-.725l.772.601c-.62.953-1.549 1.429-2.789 1.429zm-.157-6.631a1.68 1.68 0 00-1.285.561c-.347.369-.561.889-.643 1.558h3.705v-.095c-.036-.643-.21-1.14-.519-1.49-.31-.356-.73-.534-1.258-.534zm8.579 1.121a.973.973 0 00-.397-.82c-.264-.205-.626-.308-1.087-.308-.446 0-.82.117-1.121.349-.296.233-.444.506-.444.82h-1.258c0-.642.269-1.169.807-1.579.538-.41 1.21-.615 2.016-.615.866 0 1.541.187 2.024.561.483.369.725.897.725 1.586 0 .332-.101.638-.301.916-.201.278-.486.499-.855.663.862.291 1.292.866 1.292 1.722 0 .679-.262 1.217-.786 1.614-.524.396-1.224.594-2.099.594-.852 0-1.556-.207-2.112-.622-.551-.419-.827-.984-.827-1.695h1.258c0 .36.159.67.478.93.324.255.725.382 1.203.382.484 0 .873-.111 1.169-.335.297-.223.445-.512.445-.868 0-.414-.126-.711-.376-.888-.246-.183-.631-.274-1.155-.274h-1.265v-1.066h1.374c.861-.023 1.292-.378 1.292-1.067zm7.608 5.373c-.073-.145-.132-.405-.177-.779-.588.611-1.29.916-2.106.916-.729 0-1.328-.205-1.798-.615a2.016 2.016 0 01-.697-1.572c0-.771.292-1.368.875-1.791.588-.429 1.413-.643 2.475-.643h1.23v-.581c0-.442-.132-.793-.396-1.053-.265-.264-.654-.396-1.169-.396-.452 0-.83.114-1.135.342-.305.227-.458.503-.458.827h-1.272c0-.369.13-.725.39-1.067.264-.346.62-.619 1.066-.82.452-.2.946-.301 1.484-.301.852 0 1.52.214 2.003.643.483.424.733 1.009.752 1.757v3.404c0 .679.086 1.219.259 1.62v.109h-1.326zm-2.098-.963c.396 0 .772-.103 1.128-.308a1.86 1.86 0 00.772-.8v-1.517h-.991c-1.55 0-2.324.453-2.324 1.36 0 .396.132.706.396.93.264.223.604.335 1.019.335zm6.453-6.433v6.364h2.707v-6.364h1.264v6.364h2.701v-6.364h1.271v6.364h1.039l-.123 3.227h-1.135v-2.195h-8.996v-7.396h1.272zm15.059 0h1.265v7.396h-1.265v-5.393l-3.411 5.393h-1.264v-7.396h1.264v5.4l3.411-5.4zm8.791 1.025h-2.481v6.371h-1.265v-6.371h-2.433v-1.025h6.179v1.025zm7.274 6.371h-1.265v-3.158h-3.397v3.158h-1.272v-7.396h1.272v3.206h3.397v-3.206h1.265v7.396zm3.418-4.846h1.921c.838.009 1.501.228 1.989.656.488.428.731 1.009.731 1.743 0 .738-.25 1.331-.752 1.778-.501.446-1.175.669-2.023.669h-3.131v-7.396h1.265v2.55zm7.28 4.846h-1.271v-7.396h1.271v7.396zm-7.28-3.814v2.782h1.88c.474 0 .84-.121 1.1-.362.26-.246.39-.581.39-1.005 0-.41-.128-.745-.383-1.005-.251-.264-.604-.401-1.059-.41h-1.928zm12.557 3.951c-1.002 0-1.818-.328-2.447-.984-.629-.661-.943-1.543-.943-2.646v-.232c0-.734.139-1.388.417-1.962a3.278 3.278 0 011.176-1.354 2.954 2.954 0 011.64-.492c.962 0 1.709.317 2.242.95.534.634.8 1.541.8 2.721v.527h-5.011c.019.729.231 1.319.636 1.77.41.447.93.67 1.559.67.446 0 .825-.091 1.135-.273.309-.183.581-.424.813-.725l.772.601c-.619.953-1.549 1.429-2.789 1.429zm-.157-6.631c-.51 0-.939.187-1.285.561-.346.369-.561.889-.643 1.558h3.706v-.095c-.037-.643-.21-1.14-.52-1.49-.31-.356-.729-.534-1.258-.534zm-79.509 25.599c.451 0 .846-.137 1.183-.41.337-.274.524-.615.56-1.026h1.197a2.29 2.29 0 01-.438 1.21 2.866 2.866 0 01-1.08.916c-.446.228-.92.342-1.422.342-1.007 0-1.809-.335-2.406-1.005-.592-.674-.889-1.595-.889-2.761v-.212c0-.72.133-1.361.397-1.921a3.027 3.027 0 011.135-1.306c.496-.31 1.082-.465 1.757-.465.829 0 1.517.249 2.064.745.551.497.845 1.142.882 1.935h-1.197c-.036-.479-.218-.871-.546-1.176-.324-.31-.725-.465-1.204-.465-.642 0-1.141.233-1.496.698-.351.46-.527 1.128-.527 2.003v.239c0 .852.176 1.508.526 1.969.351.46.853.69 1.504.69zm9.147-6.501h1.265v7.396H99.48v-5.393l-3.411 5.393h-1.265v-7.396h1.265v5.4l3.41-5.4zm6.262 6.501c.451 0 .845-.137 1.182-.41.337-.274.524-.615.561-1.026h1.196a2.299 2.299 0 01-.437 1.21 2.863 2.863 0 01-1.081.916 3.08 3.08 0 01-1.421.342c-1.008 0-1.81-.335-2.407-1.005-.592-.674-.888-1.595-.888-2.761v-.212c0-.72.132-1.361.396-1.921a3.026 3.026 0 011.135-1.306c.497-.31 1.082-.465 1.757-.465.829 0 1.517.249 2.064.745.552.497.846 1.142.882 1.935h-1.196c-.037-.479-.219-.871-.547-1.176-.324-.31-.725-.465-1.203-.465-.643 0-1.142.233-1.497.698-.351.46-.527 1.128-.527 2.003v.239c0 .852.176 1.508.527 1.969.351.46.852.69 1.504.69zm9.857-5.476h-2.481v6.371h-1.265v-6.371h-2.434v-1.025h6.18v1.025zm3.753 6.508c-1.003 0-1.818-.328-2.447-.984-.629-.661-.944-1.543-.944-2.646v-.232c0-.734.139-1.388.417-1.962a3.292 3.292 0 011.176-1.354 2.96 2.96 0 011.641-.492c.961 0 1.709.317 2.242.95.533.634.8 1.541.8 2.721v.527h-5.011c.018.729.23 1.319.636 1.77.41.447.929.67 1.558.67.447 0 .825-.091 1.135-.273.31-.183.581-.424.814-.725l.772.601c-.62.953-1.549 1.429-2.789 1.429zm-.157-6.631a1.68 1.68 0 00-1.285.561c-.347.369-.561.889-.643 1.558h3.705v-.095c-.036-.643-.21-1.14-.519-1.49-.31-.356-.73-.534-1.258-.534zm8.77 4.82l2.516-5.722h1.579v7.396h-1.265v-5.379l-2.392 5.379h-.875l-2.441-5.496v5.496h-1.264v-7.396h1.64l2.502 5.722zm7.513-3.172h1.921c.838.009 1.501.228 1.989.656.488.428.732 1.009.732 1.743 0 .738-.251 1.331-.752 1.778-.502.446-1.176.669-2.024.669h-3.131v-7.396h1.265v2.55zm7.28 4.846h-1.271v-7.396h1.271v7.396zm-7.28-3.814v2.782h1.88c.474 0 .841-.121 1.1-.362.26-.246.39-.581.39-1.005 0-.41-.128-.745-.383-1.005-.25-.264-.604-.401-1.059-.41h-1.928z" fill="#6485A7"/><path d="M70.356 109h-9.73l-2.462-12.733L55.703 109h-9.729l-6.298-32.555h7.671l3.492 18.049 3.49-18.048H62l3.491 18.049 3.492-18.048h7.672L70.357 109zm43.961 0h-8.468l-3.095-15.998L99.664 109h-7.67l6.297-32.556h7.67l3.491 18.049 3.492-18.049h7.671L114.317 109zm14.73 0h-7.671l7.739-39.996h7.663l-.406 2.105-.054.277-.557 2.903-.417 2.158L129.047 109zm-44.038 0h-7.67l6.298-32.556h7.67L85.01 109zm98.442 0h-20.62l1.437-7.443h20.613L183.453 109h-.002zm-26.808 0h-20.614l1.437-7.443h20.613L156.642 109h.001zm29.248-12.622h-20.617l1.437-7.444h20.612l-1.428 7.443-.004.001zm-26.8 0h-20.619l1.437-7.444h20.619l-1.436 7.44-.001.004zm29.215-12.485h-20.617l1.437-7.444h20.617l-1.437 7.443v.001zm-26.802 0h-20.612l1.44-7.449h20.613l-1.437 7.443-.004.006z" fill="#FF7A44"/></svg>