<svg width="161" height="160" fill="none" xmlns="http://www.w3.org/2000/svg"><path d="M.905 30.583c0-16.569 13.432-30 30-30h129.166v129.165c0 16.569-13.432 30-30 30H.905V30.583z" fill="#122E4A"/><path d="M42.827 87.205h.938v7.11h-.938v-5.48l-3.501 5.48h-.942v-7.11h.942v5.479l3.501-5.479zm6.821 7.11h-.903v-2.256h-2.427v2.255h-.908v-5.283h.908v2.29h2.427v-2.29h.903v5.283zm5.381-4.551h-1.772v4.55h-.904v-4.55h-1.738v-.733h4.414v.733zm2.68 4.648c-.715 0-1.298-.234-1.747-.703-.45-.472-.674-1.102-.674-1.89v-.166c0-.524.1-.99.298-1.401a2.35 2.35 0 01.84-.967 2.113 2.113 0 011.171-.351c.687 0 1.221.226 1.602.678.38.453.571 1.1.571 1.944v.376h-3.579c.013.52.165.942.454 1.264.293.32.664.479 1.114.479.319 0 .589-.065.81-.195.221-.13.415-.303.581-.518l.552.43c-.443.68-1.107 1.02-1.992 1.02zm-.112-4.736c-.364 0-.67.133-.918.4-.247.264-.4.635-.459 1.114h2.647v-.069c-.026-.459-.15-.814-.371-1.064-.221-.254-.52-.381-.899-.381zm7.686 2.055c0 .805-.184 1.452-.552 1.944-.368.491-.866.737-1.494.737-.641 0-1.146-.203-1.514-.61v2.544h-.903V89.03h.825l.044.586c.368-.456.88-.683 1.533-.683.635 0 1.137.239 1.504.717.371.479.557 1.145.557 1.997v.083zm-.903-.102c0-.596-.127-1.066-.381-1.411s-.602-.518-1.045-.518c-.547 0-.957.243-1.23.728v2.524c.27.482.683.723 1.24.723.433 0 .776-.171 1.03-.513.257-.345.386-.856.386-1.533zm6.372 2.685h-.904V92.06h-2.426v2.255h-.909v-5.283h.909v2.29h2.426v-2.29h.904v5.283zm3.647.098c-.716 0-1.299-.234-1.748-.703-.449-.472-.674-1.102-.674-1.89v-.166c0-.524.1-.99.298-1.401a2.35 2.35 0 01.84-.967 2.112 2.112 0 011.172-.351c.687 0 1.22.226 1.601.678.381.453.572 1.1.572 1.944v.376h-3.58c.014.52.165.942.455 1.264.293.32.664.479 1.113.479.32 0 .59-.065.81-.195.222-.13.416-.303.582-.518l.551.43c-.442.68-1.106 1.02-1.992 1.02zm-.112-4.736c-.365 0-.67.133-.918.4-.247.264-.4.635-.459 1.114h2.647v-.069c-.027-.459-.15-.814-.372-1.064-.221-.254-.52-.381-.898-.381zm7.09.088h-1.773v4.55h-.903v-4.55h-1.738v-.733h4.414v.733zm2.759 1.9h-2.383v-.738h2.383v.737zm3.925 1.454l1.797-4.087h1.128v5.283h-.903v-3.842l-1.71 3.843h-.624l-1.743-3.926v3.925h-.904v-5.283h1.172l1.787 4.087zm7.642 1.197c-.052-.105-.094-.29-.127-.557-.42.436-.921.654-1.504.654-.52 0-.949-.146-1.284-.44a1.44 1.44 0 01-.498-1.122c0-.55.208-.977.625-1.28.42-.306 1.009-.459 1.767-.459h.88v-.415c0-.316-.095-.566-.284-.752-.189-.189-.467-.283-.835-.283-.322 0-.592.082-.81.244-.218.163-.328.36-.328.591h-.908c0-.264.093-.517.279-.762a1.93 1.93 0 01.761-.586 2.58 2.58 0 011.06-.214c.609 0 1.085.153 1.43.459.346.302.525.72.538 1.254v2.432c0 .485.061.87.185 1.157v.078h-.947zm-1.5-.689c.284 0 .553-.073.807-.22.253-.146.437-.337.551-.571v-1.084h-.708c-1.106 0-1.66.324-1.66.972 0 .283.095.504.283.664.19.16.432.239.728.239zm7.091-3.848h-2.437v4.536h-.908v-5.283h3.345v.747zm4.048 4.536c-.052-.104-.095-.29-.127-.556-.42.436-.922.654-1.504.654-.521 0-.949-.146-1.284-.44a1.44 1.44 0 01-.498-1.122c0-.55.208-.977.625-1.28.419-.306 1.009-.459 1.767-.459h.879v-.415c0-.316-.094-.566-.283-.752-.189-.189-.467-.283-.835-.283-.322 0-.593.082-.811.244-.218.163-.327.36-.327.591h-.908c0-.264.093-.517.278-.762.189-.247.443-.442.762-.586a2.578 2.578 0 011.06-.214c.608 0 1.085.153 1.43.459.345.302.524.72.537 1.254v2.432c0 .485.062.87.186 1.157v.078h-.947zm-1.499-.688c.283 0 .551-.073.805-.22a1.33 1.33 0 00.552-.571v-1.084h-.708c-1.107 0-1.66.324-1.66.972 0 .283.094.504.283.664.189.16.431.239.728.239zm6.582-3.15a.696.696 0 00-.284-.585c-.188-.147-.447-.22-.776-.22-.319 0-.586.083-.801.249-.211.166-.317.361-.317.586h-.899c0-.46.193-.835.577-1.128.384-.293.864-.44 1.44-.44.619 0 1.1.134 1.445.4.345.265.518.642.518 1.134 0 .237-.072.455-.215.654a1.466 1.466 0 01-.61.474c.615.208.923.618.923 1.23 0 .485-.188.87-.562 1.152-.374.284-.874.425-1.499.425-.609 0-1.112-.148-1.509-.444-.394-.3-.591-.703-.591-1.211h.899c0 .257.114.479.342.664.231.182.517.273.859.273.345 0 .623-.08.835-.239a.741.741 0 00.317-.62c0-.296-.089-.508-.268-.635-.176-.13-.451-.195-.825-.195h-.904v-.762h.982c.615-.016.923-.27.923-.761zm5.59-1.445h.904v5.283h-.904v-3.852l-2.436 3.852h-.903v-5.283h.903v3.858l2.436-3.858zm6.67 5.283h-.903V92.06h-2.427v2.255h-.908v-5.283h.908v2.29h2.427v-2.29h.903v5.283zM29.521 106.02h-.634v2.294h-.904v-2.294h-.635l-1.479 2.294h-1.143l1.89-2.734-1.709-2.549h1.094l1.362 2.188h.62v-2.188h.904v2.188h.615l1.372-2.188h1.094l-1.714 2.554 1.89 2.729H31l-1.48-2.294zm6.704 2.294c-.052-.104-.094-.289-.127-.556-.42.436-.92.654-1.504.654-.52 0-.948-.146-1.284-.439a1.442 1.442 0 01-.498-1.123c0-.551.209-.977.625-1.28.42-.306 1.01-.459 1.768-.459h.879v-.415c0-.315-.095-.566-.283-.752-.19-.188-.468-.283-.835-.283-.323 0-.593.082-.81.244-.219.163-.328.36-.328.591h-.908c0-.264.093-.517.278-.762a1.94 1.94 0 01.762-.586 2.582 2.582 0 011.06-.214c.608 0 1.085.153 1.43.459.345.302.524.721.537 1.254v2.432c0 .485.062.871.186 1.157v.078h-.948zm-1.499-.688c.284 0 .552-.073.806-.22.254-.146.438-.337.552-.571v-1.084h-.708c-1.107 0-1.66.324-1.66.972 0 .283.094.504.283.664.189.159.431.239.727.239zm8.008-4.595v5.283h-.908v-4.536h-1.797l-.107 1.978c-.059.908-.212 1.557-.46 1.948-.243.391-.632.594-1.166.61h-.362v-.795l.26-.02c.292-.033.502-.202.63-.508.126-.306.207-.872.243-1.699l.098-2.261h3.57zm2.437 2.241h1.27c.068-.703.317-1.267.746-1.694.433-.43.979-.644 1.636-.644.69 0 1.255.232 1.694.698.44.465.677 1.071.713 1.816l.005.283c0 .515-.1.979-.303 1.392a2.26 2.26 0 01-.85.957 2.364 2.364 0 01-1.25.332c-.68 0-1.236-.221-1.67-.664-.432-.446-.675-1.024-.727-1.733h-1.264v2.299h-.904v-5.283h.904v2.241zm2.158.459c0 .586.135 1.057.405 1.412.274.354.64.532 1.099.532.459 0 .822-.181 1.089-.542.27-.362.405-.864.405-1.509 0-.576-.137-1.045-.41-1.406a1.301 1.301 0 00-1.094-.542 1.3 1.3 0 00-1.084.532c-.273.355-.41.863-.41 1.523zm7.925-1.254a.695.695 0 00-.283-.586c-.19-.147-.448-.22-.777-.22-.319 0-.586.083-.8.249-.212.166-.318.361-.318.586h-.898c0-.459.192-.835.576-1.128.384-.293.864-.44 1.44-.44.619 0 1.1.134 1.445.401.345.264.518.641.518 1.133 0 .237-.072.455-.215.654a1.467 1.467 0 01-.61.474c.615.208.923.618.923 1.23 0 .485-.188.869-.562 1.152-.374.284-.874.425-1.499.425-.609 0-1.111-.148-1.509-.444-.394-.3-.59-.703-.59-1.211h.898c0 .257.114.478.342.664.23.182.517.273.86.273.344 0 .623-.079.834-.239a.741.741 0 00.317-.62c0-.296-.089-.508-.268-.635-.176-.13-.45-.195-.825-.195h-.904v-.762h.982c.615-.016.923-.27.923-.761zm6.098-.713H59.58v4.55h-.903v-4.55h-1.739v-.733h4.414v.733zm7.823 1.967c0 .804-.184 1.452-.552 1.944-.368.491-.866.737-1.494.737-.642 0-1.146-.203-1.514-.61v2.544h-.903v-7.315h.825l.044.586c.368-.456.879-.683 1.533-.683.635 0 1.136.239 1.504.717.371.479.557 1.145.557 1.997v.083zm-.904-.102c0-.596-.127-1.066-.38-1.411-.255-.345-.603-.518-1.046-.518-.546 0-.957.243-1.23.728v2.524c.27.482.684.723 1.24.723.433 0 .777-.171 1.03-.513.258-.345.386-.856.386-1.533zm3.726 1.362l1.23-3.96h.967l-2.124 6.099c-.329.879-.851 1.318-1.567 1.318l-.171-.014-.337-.064v-.732l.244.019c.306 0 .544-.062.713-.185.172-.124.314-.35.425-.679l.2-.537-1.885-5.225h.987l1.318 3.96zm7.134-3.96v5.283h-.909v-4.536h-1.796l-.108 1.978c-.058.908-.211 1.557-.459 1.948-.244.391-.633.594-1.167.61h-.361v-.795l.259-.02c.293-.033.503-.202.63-.508s.208-.872.244-1.699l.097-2.261h3.57zm1.21 2.593c0-.518.102-.983.303-1.396a2.29 2.29 0 01.85-.957c.365-.225.78-.337 1.245-.337.72 0 1.3.249 1.743.747.446.498.67 1.16.67 1.987v.063c0 .515-.1.977-.299 1.387a2.225 2.225 0 01-.844.952 2.326 2.326 0 01-1.26.342c-.716 0-1.297-.249-1.743-.747-.443-.498-.664-1.157-.664-1.977v-.064zm.909.107c0 .586.135 1.057.405 1.412.273.354.638.532 1.094.532a1.3 1.3 0 001.094-.537c.27-.362.405-.866.405-1.514 0-.579-.139-1.048-.415-1.406a1.301 1.301 0 00-1.094-.542c-.446 0-.806.177-1.079.532-.273.355-.41.863-.41 1.523zm9.35 2.583h-.903v-2.255H87.27v2.255h-.908v-5.283h.908v2.29h2.427v-2.29h.903v5.283zm5.772 0h-.903v-2.255h-2.427v2.255h-.908v-5.283h.908v2.29h2.427v-2.29h.903v5.283zm2.441-3.461h1.372c.599.006 1.073.162 1.421.468.349.306.523.721.523 1.245 0 .528-.179.951-.537 1.27-.358.319-.84.478-1.446.478H97.91v-5.283h.903v1.822zm5.2 3.461h-.908v-5.283h.908v5.283zm-5.2-2.724v1.987h1.343c.339 0 .601-.086.786-.259.186-.175.279-.415.279-.717 0-.293-.092-.533-.274-.718-.179-.189-.431-.287-.757-.293h-1.377zm8.55-.63l1.172-1.929h1.055l-1.729 2.613 1.782 2.67h-1.045l-1.22-1.977-1.221 1.977h-1.05l1.782-2.67-1.728-2.613h1.045l1.157 1.929zm6.655-1.929v4.546h1.934v-4.546h.903v4.546h1.929v-4.546h.908v5.283h-6.582v-5.283h.908zm11.026.733h-1.773v4.55h-.903v-4.55h-1.738v-.733h4.414v.733zm.434 1.86c0-.518.101-.983.303-1.396.205-.414.488-.733.85-.957a2.319 2.319 0 011.245-.337c.719 0 1.3.249 1.743.747.446.498.669 1.16.669 1.987v.063c0 .515-.099.977-.298 1.387a2.222 2.222 0 01-.845.952 2.322 2.322 0 01-1.259.342c-.717 0-1.298-.249-1.744-.747-.442-.498-.664-1.157-.664-1.977v-.064zm.909.107c0 .586.135 1.057.405 1.412.273.354.638.532 1.094.532.459 0 .823-.179 1.093-.537.27-.362.406-.866.406-1.514 0-.579-.139-1.048-.415-1.406a1.302 1.302 0 00-1.094-.542c-.446 0-.806.177-1.079.532-.274.355-.41.863-.41 1.523zm9.497 0c0 .804-.184 1.452-.552 1.944-.368.491-.866.737-1.494.737-.642 0-1.146-.203-1.514-.61v2.544h-.903v-7.315h.825l.044.586c.368-.456.879-.683 1.533-.683.635 0 1.136.239 1.504.717.371.479.557 1.145.557 1.997v.083zm-.904-.102c0-.596-.127-1.066-.381-1.411-.253-.345-.602-.518-1.044-.518-.547 0-.958.243-1.231.728v2.524c.27.482.684.723 1.24.723.433 0 .777-.171 1.031-.513.257-.345.385-.856.385-1.533z" fill="#6485A7"/><path d="M39.039 52.666H28.976v18.652H39.04a9.24 9.24 0 006.574-2.73 9.3 9.3 0 002.722-6.596c0-5.153-4.16-9.326-9.296-9.326zm2.415 12.037a3.82 3.82 0 01-2.703 1.135h-4.12v-7.5h4.312a3.646 3.646 0 013.642 3.654 3.766 3.766 0 01-1.13 2.711zm9.565-15.883v5.384h19.55v-8.076L51.02 48.82zM70.57 74.876v-5.384H51.018v8.076l19.55-2.692zm0-15.769H51.018v5.384h19.55v-5.384zm31.74-6.441c-5.137 0-9.297 4.173-9.297 9.326 0 5.153 4.16 9.326 9.297 9.326 5.137 0 9.296-4.173 9.296-9.326 0-5.153-4.179-9.326-9.296-9.326zm0 13.23a3.9 3.9 0 01-3.891-3.904 3.9 3.9 0 013.891-3.904 3.9 3.9 0 013.891 3.904 3.9 3.9 0 01-3.891 3.903zm-16.062-2.731l5.041 1.961c-1.341 3.75-5.022 6.403-9.296 6.153-4.753-.269-8.568-4.172-8.74-8.941-.211-5.288 4.025-9.672 9.277-9.672 4.044 0 7.494 2.596 8.76 6.21l-5.042 1.962a3.901 3.901 0 00-3.718-2.769c-2.224 0-4.006 1.865-3.891 4.134.115 2.02 1.802 3.654 3.814 3.692a3.874 3.874 0 003.795-2.73zm36.456-10.499c-5.137 0-9.296 4.173-9.296 9.326 0 5.153 4.159 9.326 9.296 9.326S132 67.145 132 61.992c0-5.153-4.159-9.326-9.296-9.326zm0 13.23a3.9 3.9 0 01-3.891-3.904 3.9 3.9 0 013.891-3.904 3.9 3.9 0 013.891 3.904 3.9 3.9 0 01-3.891 3.903z" fill="#FE8A90"/></svg>