<svg width="74" height="73" fill="none" xmlns="http://www.w3.org/2000/svg"><path fill="#122E4A" d="M.892.032h72.735v72.735H.892z"/><path d="M24.83 42.004h-2.726l-.69-3.569-.69 3.569h-2.726l-1.765-9.123h2.15l.978 5.058.979-5.058h2.149l.978 5.058.979-5.057h2.15l-1.765 9.122zm12.32 0h-2.374l-.867-4.483-.866 4.483h-2.15l1.765-9.123h2.15l.978 5.057.979-5.057h2.15l-1.766 9.123zm4.127 0h-2.15l2.17-11.208h2.146l-.113.59-.015.077-.157.814-.117.605-1.764 9.122zm-12.34 0h-2.15l1.765-9.123h2.15l-1.765 9.123zm27.585 0h-5.778l.403-2.086h5.776l-.4 2.086zm-7.512 0h-5.776l.402-2.086h5.776l-.402 2.086zm8.196-3.537h-5.777l.402-2.086h5.776l-.4 2.086h-.001zm-7.51 0h-5.778l.403-2.086h5.778l-.403 2.084v.002zm8.187-3.499h-5.778l.403-2.086h5.777l-.402 2.086zm-7.51 0h-5.777L45 32.881h5.776l-.403 2.086v.001z" fill="#314961"/></svg>