<svg version="1.0" xmlns="http://www.w3.org/2000/svg" width="350.667" height="110.667" viewBox="0 0 263 83"><path d="M19.3 5.4c-2.8 3.7-3.3 5.1-3.3 9.9 0 3.1-.4 5.9-1 6.2-.6.4-1-.5-1-2.1 0-2.6 0-2.7-2-.9-1.1 1-2 2.6-2 3.7 0 1-.7 1.8-1.5 1.8S7 24.8 7 25.7c-.1 1.6-.2 1.6-1.3.3-.7-.8-2-2.1-3-2.9-1.6-1.2-1.7-1-1.7 2.8V30h50v-3.4c0-3.5-2.1-6.3-4-5.1-.5.3-1 1.5-1 2.6 0 1-.4 1.9-1 1.9-.5 0-1-.5-1-1.1 0-.5-1-.9-2.2-.7-1.9.2-2.4-.2-2.6-3-.2-1.7-.7-3.2-1.3-3.2-.5 0-.9.4-.9 1 0 .5-.7 1-1.5 1-.9 0-1.5.9-1.5 2.5 0 1.4-.4 2.5-1 2.5-.5 0-1-2.2-1-4.9 0-3.1-.5-5.3-1.5-6.1-.8-.7-1.5-2.2-1.5-3.5 0-1.2-.9-3-2-4-2-1.8-2-1.7-2 7.8 0 6.2-.4 9.7-1.1 9.7-.7 0-.9-3.9-.7-11.5.2-6.3.1-11.5-.2-11.5-.3 0-2 2-3.7 4.4zM89 30c-4.2 1-9.8 6.8-10.7 11-.4 2.3-1.1 3-2.9 3-2.3 0-2.4-.4-2.4-5.8 0-3.2.5-6.3 1.2-7 .9-.9-.1-1.2-4.5-1.2-5.3 0-7.1 1-4.7 2.5.6.4 1 5.6 1 12.2 0 9.4-.3 12-1.7 13.5-1.5 1.7-1.4 1.8 4.7 1.8 4.9 0 6-.3 5.2-1.3-.6-.6-1.2-3.7-1.3-6.7-.3-5.3-.2-5.5 2.4-5.8 2.2-.3 2.7.1 2.7 1.9 0 3.1 3.7 8.7 7 10.4 5.3 2.7 10.1 2.8 14.9.3 8.6-4.4 11.2-12.4 6.9-20.8-3.4-6.7-10.3-9.8-17.8-8zm9.6 4.1c1.4 1.5 2 4 2.2 9.5.5 9.1-.8 12.9-5 14.3-7 2.4-11.4-4.1-10.5-15.2C86 34.8 88 32 92.9 32c2.6 0 4.4.7 5.7 2.1zm24.2-4.4c-1.4.3-3.8 1.5-5.2 2.8-2.5 2.3-2.6 2.8-2.6 13.8 0 7.4-.4 11.7-1.2 12.5-.9.9.1 1.2 4.7 1.2 4.6 0 5.6-.3 4.7-1.2-.7-.7-1.2-3.1-1.2-5.4v-4.3l3.4.6c5.2.8 8.4-.4 10.6-4 2.4-3.8 2.5-6.8.5-10.7-2.2-4.2-7.2-6.2-13.7-5.3zm7 7.7c.4 6.7-.4 9.6-2.7 9.6-4.4 0-5.1-1-5.1-6.9 0-6.4 1.2-8.3 5-7.9 2.2.3 2.5.8 2.8 5.2zm22.5-7.7c-9.4.3-12 1.1-9.3 2.8 1.5.9 1.3 24.8-.2 26.3-.9.9.1 1.2 4.7 1.2 4.6 0 5.6-.3 4.7-1.2-.8-.8-1.2-5.4-1.2-14V32h3.9c3 0 4.4.6 5.9 2.5 2.7 3.4 3.2 3.2 3.2-1.5 0-2.2-.3-3.9-.7-3.8-.5.1-5.4.4-11 .5zm25.8.3c-10.7.4-12.2.7-10.8 1.9 2.5 2 2.5 23.6 0 26.3-1.6 1.7-1.1 1.8 12.5 1.8H194v-3.5c0-4.2-.6-4.3-3.2-1-1.7 2.2-2.7 2.5-8.4 2.5H176v-5.5c0-3-.1-5.8-.2-6.3-.6-1.5 5.9-1.3 7.2.2 2 2.5 3 1.9 3-1.8s-1.4-5.6-2.4-3.1c-.3.9-1.8 1.5-4 1.5-3.4 0-3.4 0-3.8-5.1-.1-2.8-.1-5.3.1-5.5.2-.2 2.6-.4 5.3-.4 4 0 5.3.5 7.3 2.6 1.4 1.5 2.5 2.5 2.6 2.3.3-1.9.3-7.1-.1-7.2-.3-.1-6.1 0-12.9.3zm54.9 3.2c0 4.5.5 4.6 3.6 1.3 1.3-1.4 3.4-2.5 4.9-2.5h2.5v12.8c0 8.6-.4 13.2-1.2 14-.9.9.2 1.2 5.2 1.2 6 0 6.2-.1 4.7-1.8-1.4-1.5-1.7-4.1-1.7-14V32h2.7c1.6 0 3.9 1.1 5.5 2.7 2.3 2.2 2.8 2.4 3.3 1 .4-.8.5-2.5.3-3.7-.3-2.1-.8-2.2-15.1-2.3l-14.7-.2v3.7zM198 31c0 .5.5 1 1 1 1.5 0 1.3 25.3-.2 26.8-.9.9.1 1.2 4.7 1.2 4.6 0 5.6-.3 4.7-1.2-.7-.7-1.2-3.8-1.2-7V46h15v6c0 3.3-.4 6-1 6-.5 0-1 .4-1 1 0 .5 2.6 1 5.7 1 4.4 0 5.4-.3 4.5-1.2-1.7-1.7-1.7-25.9 0-27.6.9-.9-.1-1.2-4.5-1.2-5.6 0-6.7.6-4.6 2.7.5.5.9 3.2.7 5.9l-.3 4.9-7.2.3-7.3.3V38c0-3.3.4-6 1-6s1-.5 1-1c0-.6-2.5-1-5.5-1s-5.5.4-5.5 1zM.2 47.3c.3 14.9.4 15.5 3.1 19.6 7.1 10.6 21.4 12.9 31.1 4.9 6.2-5.1 7.6-9.3 7.6-23.6V36h5v11.7c0 6.5-.5 13.5-1 15.5-2.6 9.3-13.2 17.7-22.3 17.8-3 0-4.6.4-4.2 1 .9 1.5 9.6 1.2 14.6-.5 6.3-2.2 11.3-6.6 14.3-12.7 2.5-4.9 2.6-6 2.6-21V32H28v13c0 12.6-.1 13.2-2.5 15.5-3.1 3.2-5.9 3.2-9 0C14.1 58.2 14 57.4 14 47V36h2.5c2.4 0 2.4.1 2.7 10.7.2 8.8.6 10.8 1.8 10.8 1.2 0 1.5-2.2 1.8-12.8l.3-12.7H-.2l.4 15.3zm9.8.2c0 6.7.5 12.5 1.2 14 2.2 4.9 9.6 6.9 15.3 4.3 4.5-2 5.5-5.5 5.5-18.3V36h5v12.4c0 13.5-1 16.3-7.3 21-4 2.9-13.4 2.9-17.4 0C6 64.7 5 61.9 5 48.4V36h5v11.5zm185.6 17.1c-1.6 1.6-2.2 7.9-.8 8.7.4.3.6-1.3.6-3.4-.2-3 .3-4.3 1.9-5.4 1.2-.8 1.6-1.5 1-1.5-.6 0-1.9.7-2.7 1.6zm45 2.4c.6.8.9 2.7.8 4.2-.2 1.6.1 2.8.7 2.8 1.6 0 1-5.7-.8-7.1-1.6-1.2-1.7-1.2-.7.1zM84.1 70.5c.1 2.2.3 3.2.6 2.2.6-2.2 1.9-2.2 3.2 0 .5 1 1.2 1.5 1.6 1.2.3-.4-.1-1.4-1.1-2.3-1.3-1.3-1.4-1.9-.4-3.1.8-.9.8-1.5.2-1.5-.6 0-1.3.6-1.5 1.2-.4 1-.8.9-1.6-.2-.8-1.2-1-.6-1 2.5zm10.4 0c0 1.9.3 3.5.8 3.5.4 0 .7-1.6.7-3.5s-.3-3.5-.7-3.5c-.5 0-.8 1.6-.8 3.5zm3.5-1.8c0 1.2.5 2.5 1.1 2.8 1.6 1.1 1.7.2.2-2.5-1.2-2.4-1.3-2.4-1.3-.3zm4.3 1.8c.1 1.9.4 3.5.7 3.5.4 0 .7-1.6.8-3.5.1-1.9-.2-3.5-.7-3.5-.5 0-.8 1.6-.8 3.5zm3.5-1.2c-.5 2.5 0 4.7 1 4.7.4 0 .7-1.6.7-3.5 0-3.9-1-4.7-1.7-1.2zm3.8-.8c.4.8.8 1.5 1 1.5.2 0 .4-.7.4-1.5s-.4-1.5-1-1.5c-.5 0-.7.7-.4 1.5zm3.5.7c-.5 1.3-.6 2.9-.4 3.5.9 2.4 1.8 1.3 1.8-2.2 0-4.1-.3-4.3-1.4-1.3zm8.2 1.3c0 2.2.2 3 .4 1.7.2-1.2.2-3 0-4-.3-.9-.5.1-.4 2.3zm5 0c0 2.2.2 3 .4 1.7.2-1.2.2-3 0-4-.3-.9-.5.1-.4 2.3zm3-2.8c.4.3.2 1.2-.4 2-.9.9-.8 1.3 0 1.3.6 0 1.1.7 1.1 1.6 0 .8.5 1.2 1 .9.8-.5.8-1.1 0-2-.6-.7-.8-2-.4-2.9.4-1 .1-1.6-.7-1.6-.7 0-.9.3-.6.7zm4.4 0c-.9.9-.9 5.1.1 5.6.4.3.7-1 .7-2.9s0-3.4-.1-3.4c0 0-.4.3-.7.7zm3.8 2.8c0 1.8.3 3.1.8 2.8.4-.2.7-1.5.7-2.8 0-1.3-.3-2.6-.7-2.8-.5-.3-.8 1-.8 2.8zm6.5 0c0 1.9.3 3.5.8 3.5.4 0 .7-1.6.8-3.5 0-1.9-.3-3.5-.8-3.5-.4 0-.8 1.6-.8 3.5zm4.5-2.8c.3.3 0 1.2-.6 2-.9 1-.8 1.3.1 1.3.7 0 1 .7.6 1.5-.3.8-.1 1.5.4 1.5 1.1 0 .7-5.7-.3-6.5-.4-.3-.5-.2-.2.2zm6.9 2.9c.1 1.8.4 3.4.8 3.4 1.1 0 1-5.7 0-6.4-.5-.3-.8 1.1-.8 3zm3.6-.1c0 1.9.4 3.5.8 3.5s.6-1.6.4-3.5c-.2-1.9-.6-3.5-.8-3.5-.2 0-.4 1.6-.4 3.5zm4 0c0 1.9.4 3.5.8 3.5s.6-1.6.4-3.5c-.2-1.9-.6-3.5-.8-3.5-.2 0-.4 1.6-.4 3.5zm4 0c0 1.9.4 3.5.8 3.5.5 0 .8-1.6.8-3.5-.1-4.6-1.6-4.6-1.6 0zm3.5-1.6c-.7 2.2.3 5.1 1.8 5.1.8 0 .8-.3 0-1.1s-.8-2-.3-3.5c.6-1.4.6-2.4 0-2.4-.5 0-1.1.8-1.5 1.9zm4.1-.4c.4.8.8 1.5 1 1.5.2 0 .4-.7.4-1.5s-.4-1.5-1-1.5c-.5 0-.7.7-.4 1.5zm3.7 2c0 2.2.2 3 .4 1.7.2-1.2.2-3 0-4-.3-.9-.5.1-.4 2.3zm5.4-2.8c-.9.9-.9 5.1.1 5.6.4.3.7-1 .7-2.9s0-3.4-.1-3.4c0 0-.4.3-.7.7zm3.8 2.8c0 1.8.3 3.1.8 2.8.4-.2.7-1.5.7-2.8 0-1.3-.3-2.6-.7-2.8-.5-.3-.8 1-.8 2.8zm10.9 0c0 1.9.4 3.1.8 2.9.4-.3.8-1.6.8-2.9 0-1.3-.4-2.6-.8-2.9-.4-.2-.8 1-.8 2.9zm3.8-1.5c0 1.4.2 1.9.5 1.2.2-.6.2-1.8 0-2.5-.3-.6-.5-.1-.5 1.3zm2.7.4c-.7 1.4-1.6 2.6-2.1 2.6-.4 0-.8.6-.8 1.2.1.7 1.2-.1 2.6-1.7l2.5-3-.7 2.7c-.3 1.6-.2 2.8.3 2.8 1.1 0 1-5.6 0-6.6-.3-.4-1.2.5-1.8 2zm8.1-.9c0 .8-.6 1.5-1.2 1.5-.7 0-.5.5.5 1.1.9.6 1.4 1.5 1.1 2.1-.4.7-.2.8.5.4.6-.4.8-1.3.4-1.9-.4-.7-.6-2-.5-3 .2-.9.1-1.7-.2-1.7-.3 0-.6.7-.6 1.5zm4.2 2c0 2.2.2 3.2.5 2.2.2-.9 1.1-1.7 1.8-1.7s1.6.8 1.8 1.7c.3 1 .5 0 .5-2.2s-.2-3.2-.5-2.3c-.2 1-1.1 1.8-1.8 1.8s-1.6-.8-1.8-1.8c-.3-.9-.5.1-.5 2.3zm7.2-2.1c-.9 2.2-.1 4.9 1.6 5.4 1.2.4 1.3.2.3-.9-.7-.8-1-2.5-.6-3.7.6-2.4-.4-3-1.3-.8zm4.2-.1c.3 1 .9 1.5 1.2 1.2.3-.3 0-1.1-.7-1.8-1-.9-1.1-.8-.5.6zm2.9.6c-.7 2.2.3 5.1 1.7 5.1.6 0 .5-.7-.3-1.6-1-1.2-1-2-.1-3.5.7-1 .8-1.9.3-1.9s-1.2.8-1.6 1.9zM91.3 71.6c-.3.8-.2 1.9.3 2.4s.9-.1.9-1.6c0-2.8-.3-3-1.2-.8zm60.4-.1c-.4.8-.2 1.7.2 2 .5.2 1.1-.4 1.4-1.5.6-2.3-.8-2.7-1.6-.5zm86 0c-.4.8-.1 1.7.6 2.1.7.4.9.4.5-.1-.4-.4-.3-1.4.3-2.2.7-.8.8-1.3.1-1.3-.5 0-1.2.7-1.5 1.5z"/></svg>