<svg version="1.0" xmlns="http://www.w3.org/2000/svg" width="682.667" height="682.667" viewBox="0 0 512 512"><path d="M239.6 1.1c-57.7 8-102.8 52.5-111.7 110.1-1.7 11.4-.6 37 2.1 47.8 4.7 19.1 11.5 33.4 22.9 48.5 38.1 50.5 105.9 65.9 162.2 36.8 34.8-17.9 58.9-49.2 67.4-87.3 2.5-11.3 3.1-34.4 1.1-46.8C375 56 334.2 13.3 280.5 2.4c-9-1.8-32-2.6-40.9-1.3zm36.2 68.5C295.1 76 310.1 91 316.1 110c2.7 8.2 3.6 23.8 2 32.2-.7 3.5-3.3 10.5-5.8 15.7-15.1 31.4-53.2 44-84.9 28.1-14.6-7.4-25.8-19.9-31.1-35-3.5-9.9-4.3-26.4-1.9-36 6.5-25.4 25.7-43.4 51.4-48 7.9-1.5 21.4-.3 30 2.6z"/><path d="M124.5 259.2c-9.4 3.5-17.3 12.4-20.6 23.1-2.5 8-2.1 12.6 1.6 20.2 5.6 11.6 29.6 29.9 52.6 40.1 17.9 7.9 45.4 15.2 64.7 17 3.9.4 7.2.9 7.2 1.1 0 .3-21.9 22.7-48.7 49.9-38.1 38.6-49.5 50.6-51.8 55.1-10.4 19.7 6.6 45.7 30 45.8 12.2 0 12.4-.2 55.4-43.1 21.1-21.1 39.1-38.5 40-38.5.9-.1 2.3-.1 3.1.1.8.1 18.8 17.4 40 38.5 40.5 40.4 41.8 41.5 52.2 43 12.1 1.8 27.2-7.4 33.5-20.4 2.1-4.4 2.7-7 2.7-12.6-.1-12.5.8-11.5-54.1-66.6-27.1-27.3-49.3-50.1-49.3-50.7 0-.7 1.1-1.2 2.4-1.2 3.7 0 26.2-3.9 35.1-6.1 25.7-6.4 46-15.7 65-30 11-8.2 18.6-15.9 21.6-21.9 6.6-12.7-1-32.7-15.1-40.4-6.7-3.6-15.4-4.5-23.1-2.3-3 .9-10.6 4.9-16.9 8.8-21.9 13.8-42.1 21.9-64.2 25.9-43.5 7.9-86.7-.6-125.3-24.5-6-3.7-13-7.7-15.5-8.7-5.4-2.4-18.2-3.3-22.5-1.6z"/></svg>