<svg width="24" height="24" viewBox="0 0 500 500" fill="none" xmlns="http://www.w3.org/2000/svg"><path d="M228.479 54.934A154.046 154.046 0 0074.43 208.981a154.047 154.047 0 00154.05 154.048 154.047 154.047 0 000-308.095zm0 26.776c17.066 0 33.965 3.292 49.733 9.688 15.767 6.396 30.093 15.771 42.161 27.589 12.068 11.818 21.641 25.848 28.172 41.29a124.988 124.988 0 019.892 48.704c0 16.714-3.361 33.263-9.892 48.705-6.531 15.441-16.104 29.471-28.172 41.289-12.068 11.818-26.394 21.193-42.161 27.589a132.348 132.348 0 01-49.733 9.688c-34.467 0-67.523-13.409-91.894-37.277-24.372-23.868-38.064-56.24-38.064-89.994s13.692-66.126 38.064-89.994c24.371-23.867 57.427-37.276 91.894-37.276z" fill="#fff"/><path d="M412.191 401.678l-69.581-80.665c-11.994-13.905-26.631-18.742-32.692-10.804-6.061 7.937-1.251 25.644 10.743 39.549l69.581 80.664c11.994 13.905 26.631 18.743 32.692 10.805 6.061-7.938 1.251-25.645-10.743-39.549z" fill="#fff"/></svg>