<svg xmlns="http://www.w3.org/2000/svg" width="551.852" height="551.852"><path d="M545.933 106.575l.377-.999L276.049 0 6.228 106.671l-.881-.35v.684l-.038.021.038.115v338.651l270.579 106.059 270.617-106.064V106.326l-.61.249zm-270.136-85.82l91.666 32.829L117.578 150.6l-84.647-33.39 242.866-96.455zm-9.516 507.172L164.94 487.013l-50.859-19.107-89.396-35.267V134.737l88.499 34.909v74.49l7.887-2.202 5.33 7.324 7.421-1.732 7.187 7.592 6.272-2.161 10.125 10.041v-75.911l7.877 3.11 100.999 39.834v297.896h-.001zm9.667-314.85l-98.808-38.983L420.832 75.33l100.504 40.944-245.388 96.803zm251.27 219.562l-241.612 95.288V230.032l241.589-95.301v297.901l.023.007z"/></svg>