<svg xmlns="http://www.w3.org/2000/svg" width="16" height="16" viewBox="0 0 481.64 481.64"><path d="M284.225.167c-.406-.036-.757.015-1.143.01-.025 0-.056-.01-.081-.01C168.63-3.792 48.421 62.674 58.816 191.276c.041.521.17.982.264 1.468-.15 1.33-.15 2.724.173 4.237 6.271 29.348-3.354 55.149-27.447 73.141-1.107.827-1.955 1.767-2.686 2.747-2.435 1.604-4.359 4.058-5.393 7.028-4.514 12.969-1.086 26.172 9.275 35.19a14.352 14.352 0 005.748 3.041c6.69 3.697 13.685 6.154 20.949 7.871-1.493 8.054-.759 16.199 3.121 23.866-7.244 14.117-2.435 29.691 11.865 38.192.807.477 1.612.843 2.401 1.122 2.43 2.889 2.664 7.53 1.77 11.994-.277 1.365-.312 2.727-.208 4.057-.063 1.214-.025 2.442.208 3.677 3.775 19.778 20.657 30.696 39.986 31.047a13.158 13.158 0 002.907-.27c.894.041 1.831-.015 2.798-.167 31.037-5.032 66.375-2.225 78.034 31.869 2.328 6.81 8.559 9.12 14.137 8.222 1.879 1.406 4.354 2.214 7.478 1.995 56.246-3.931 111.992-12.101 167.835-19.601 1.975-.265 3.687-.904 5.159-1.803 6.773-2.113 12.243-9.694 7.865-17.854-37.317-69.568 38.334-145.464 52.685-212.295.31-1.444.314-2.783.192-4.058C473.111 116.221 397.154 10.338 284.225.167zm149.892 220.925a13.557 13.557 0 00-.111 2.922c-15.595 71.509-83.98 140.64-56.904 215.515-50.855 6.901-101.682 13.995-152.905 17.58-.368.025-.681.122-1.028.178-18.309-40.751-60.91-48.058-103.06-41.68-.421-.046-.812-.138-1.265-.152-4.798-.087-7.302-.584-11.049-2.874.327.106-1.925-1.691-1.899-1.661a12.945 12.945 0 00-.67-.645c0-.097-.129-.386-.602-1.153-.713-1.143-1.239-2.752-1.676-4.57 2.173-15.01-2.089-28.05-14.667-37.647-1.011-.767-2.143-1.198-3.313-1.483-.363-.305-.716-.599-1.097-.984.068.03.005-.122-.214-.473 0-.314-.02-.411-.056-.381.15-.649.295-1.3.523-1.93.005-.025 1.831-2.858 2.435-3.712 1.693-2.382 2.039-5.271 1.503-8.049.503-2.747.145-5.605-1.503-7.992-4.634-6.713-3.717-12.426 0-19.484 5.329-10.105-4.266-19.321-12.776-18.382-.089-.011-.167-.036-.254-.051-8.627-1.138-16.968-3.662-24.445-8.13-.536-.315-1.061-.514-1.587-.747a18.258 18.258 0 01-1.033-1.676c-.053-.152-.094-.289-.167-.513-.061-.284-.104-.472-.145-.655-.02-.563-.01-1.117.021-1.681.041-.152.119-.503.224-1.051 31.115-24.309 44.48-57.727 36.909-96.786.01-.49.066-.947.025-1.468-9.357-115.598 98.19-170.123 199.665-166.609.325.01.604-.046.92-.056.106.01.192.045.31.056 96.338 8.678 163.611 102.636 149.891 196.424z"/><path d="M258.328 275.982c-27.668 0-27.668 42.903 0 42.903 27.67.001 27.67-42.903 0-42.903zm-89.48-187.746c-9.26 7.097-14.162 18.309-7.695 29.349 5.357 9.14 20.045 14.83 29.353 7.695 28.33-21.716 70.274-29.27 100.234-5.908 6.119 4.773 9.166 8.346 12.426 14.338 1.163 2.13 1.234 5.131.895 7.231-.133-.612-2.494 4.966-1.28 3.433-2.422 3.062-5.312 5.373-8.541 7.477-10.969 7.17-24.202 10.192-36.841 12.881-2.996.635-5.443 1.767-7.53 3.166-8.346 2.148-15.371 8.727-15.371 19.905v35.754c0 27.665 42.909 27.665 42.909 0v-19.449c25.11-6.292 51.973-17.699 64.14-41.599 11.852-23.288 3.387-47.926-12.913-66.4-39.748-45.066-114.993-42.207-159.786-7.873z"/></svg>