<svg width="655" height="1015" viewBox="0 0 655 1015" fill="none" xmlns="http://www.w3.org/2000/svg">
<path d="M444.5 507.5C444.5 663.183 300.177 789.5 122 789.5C-56.1768 789.5 -200.5 663.183 -200.5 507.5C-200.5 351.817 -56.1768 225.5 122 225.5C300.177 225.5 444.5 351.817 444.5 507.5Z" stroke="#10B1CB"/>
<path d="M314.5 507.5C314.5 600.222 228.381 675.5 122 675.5C15.6193 675.5 -70.5 600.222 -70.5 507.5C-70.5 414.778 15.6193 339.5 122 339.5C228.381 339.5 314.5 414.778 314.5 507.5Z" stroke="#10B1CB"/>
<g filter="url(#filter0_f)">
<ellipse cx="146" cy="507.5" rx="159" ry="157.5" fill="#10B1CB"/>
</g>
<path d="M561.5 507.5C561.5 710.107 364.594 874.5 121.5 874.5C-121.594 874.5 -318.5 710.107 -318.5 507.5C-318.5 304.893 -121.594 140.5 121.5 140.5C364.594 140.5 561.5 304.893 561.5 507.5Z" stroke="#10B1CB"/>
<circle cx="418.5" cy="236.5" r="17.5" fill="#10B1CB"/>
<path d="M419 232V237M419 242V237M419 237H424H414" stroke="#DDDFE8"/>
<circle cx="521.5" cy="356.5" r="17.5" fill="#10B1CB"/>
<path d="M522 352V357M522 362V357M522 357H527H517" stroke="#DDDFE8"/>
<circle cx="565.5" cy="507.5" r="17.5" fill="#10B1CB"/>
<path d="M566 503V508M566 513V508M566 508H571H561" stroke="#DDDFE8"/>
<circle cx="521.5" cy="658.5" r="17.5" fill="#10B1CB"/>
<path d="M522 654V659M522 664V659M522 659H527H517" stroke="#DDDFE8"/>
<circle cx="418.5" cy="779.5" r="17.5" fill="#10B1CB"/>
<path d="M419 775V780M419 785V780M419 780H424H414" stroke="#DDDFE8"/>
<defs>
<filter id="filter0_f" x="-363" y="0" width="1018" height="1015" filterUnits="userSpaceOnUse" color-interpolation-filters="sRGB">
<feFlood flood-opacity="0" result="BackgroundImageFix"/>
<feBlend mode="normal" in="SourceGraphic" in2="BackgroundImageFix" result="shape"/>
<feGaussianBlur stdDeviation="175" result="effect1_foregroundBlur"/>
</filter>
</defs>
</svg>
