<svg width="27" height="28" viewBox="0 0 27 28" fill="none" xmlns="http://www.w3.org/2000/svg">
<path d="M13.5 26.6541C20.4407 26.6541 26.0673 21.0275 26.0673 14.0868C26.0673 7.14609 20.4407 1.51953 13.5 1.51953C6.55931 1.51953 0.932754 7.14609 0.932754 14.0868C0.932754 21.0275 6.55931 26.6541 13.5 26.6541Z" fill="#FCFCFC"/>
<path d="M11.5904 9.95343C11.5904 10.3167 11.5904 11.9367 11.5904 11.9367H10.1373V14.3618H11.5904V21.0087H14.5751V14.3569H16.578C16.578 14.3569 16.7646 13.1934 16.8578 11.922C16.5977 11.922 14.5898 11.922 14.5898 11.922C14.5898 11.922 14.5898 10.5131 14.5898 10.2627C14.5898 10.0172 14.9138 9.68343 15.2378 9.68343C15.5569 9.68343 16.2344 9.68343 16.8628 9.68343C16.8628 9.35452 16.8628 8.2107 16.8628 7.16016C16.0233 7.16016 15.0709 7.16016 14.6537 7.16016C11.5168 7.16507 11.5904 9.59016 11.5904 9.95343Z" fill="#10B1CB"/>
</svg>
