<svg width="70" height="54" viewBox="0 0 70 54" fill="none" xmlns="http://www.w3.org/2000/svg">
<path d="M29.5947 8.40625L36.1689 26.9688L42.708 8.40625H49.6338V34H44.3427V27.0039L44.8701 14.9277L37.9619 34H34.3408L27.4502 14.9453L27.9775 27.0039V34H22.7041V8.40625H29.5947Z" fill="#FCFCFC"/>
<rect width="69.4929" height="3.22227" transform="matrix(0.989223 -0.146417 0.389789 0.920904 0 30.2559)" fill="#10B1CB"/>
<path d="M22.7314 49C22.6585 48.8542 22.5993 48.5944 22.5537 48.2207C21.9658 48.8314 21.264 49.1367 20.4482 49.1367C19.7191 49.1367 19.1198 48.9316 18.6504 48.5215C18.1855 48.1068 17.9531 47.5827 17.9531 46.9492C17.9531 46.179 18.2448 45.582 18.8281 45.1582C19.416 44.7298 20.2409 44.5156 21.3027 44.5156H22.5332V43.9346C22.5332 43.4925 22.401 43.1416 22.1367 42.8818C21.8724 42.6175 21.4827 42.4854 20.9678 42.4854C20.5166 42.4854 20.1383 42.5993 19.833 42.8271C19.5277 43.055 19.375 43.3307 19.375 43.6543H18.1035C18.1035 43.2852 18.2334 42.9297 18.4932 42.5879C18.7575 42.2415 19.113 41.9681 19.5596 41.7676C20.0107 41.5671 20.5052 41.4668 21.043 41.4668C21.8952 41.4668 22.5628 41.681 23.0459 42.1094C23.529 42.5332 23.7796 43.1188 23.7979 43.8662V47.2705C23.7979 47.9495 23.8844 48.4896 24.0576 48.8906V49H22.7314ZM20.6328 48.0361C21.0293 48.0361 21.4053 47.9336 21.7607 47.7285C22.1162 47.5234 22.3737 47.2568 22.5332 46.9287V45.4111H21.542C19.9925 45.4111 19.2178 45.8646 19.2178 46.7715C19.2178 47.168 19.3499 47.4779 19.6143 47.7012C19.8786 47.9245 20.2181 48.0361 20.6328 48.0361ZM25.4795 45.2402C25.4795 44.0872 25.7461 43.1712 26.2793 42.4922C26.8125 41.8086 27.5189 41.4668 28.3984 41.4668C29.3008 41.4668 30.0049 41.7858 30.5107 42.4238L30.5723 41.6035H31.7275V48.8223C31.7275 49.7793 31.4427 50.5335 30.873 51.085C30.3079 51.6364 29.5469 51.9121 28.5898 51.9121C28.0566 51.9121 27.5348 51.7982 27.0244 51.5703C26.514 51.3424 26.1243 51.0303 25.8555 50.6338L26.5117 49.875C27.054 50.5449 27.7171 50.8799 28.501 50.8799C29.1162 50.8799 29.5947 50.7067 29.9365 50.3604C30.2829 50.014 30.4561 49.5264 30.4561 48.8975V48.2617C29.9502 48.8451 29.2598 49.1367 28.3848 49.1367C27.5189 49.1367 26.8171 48.7881 26.2793 48.0908C25.7461 47.3936 25.4795 46.4434 25.4795 45.2402ZM26.751 45.3838C26.751 46.2178 26.9219 46.874 27.2637 47.3525C27.6055 47.8265 28.084 48.0635 28.6992 48.0635C29.4967 48.0635 30.0824 47.7012 30.4561 46.9766V43.5996C30.0687 42.8932 29.4876 42.54 28.7129 42.54C28.0977 42.54 27.6169 42.7793 27.2705 43.2578C26.9242 43.7363 26.751 44.445 26.751 45.3838ZM36.7109 49.1367C35.7083 49.1367 34.8926 48.8086 34.2637 48.1523C33.6348 47.4915 33.3203 46.6097 33.3203 45.5068V45.2744C33.3203 44.5407 33.4593 43.8867 33.7373 43.3125C34.0199 42.7337 34.4118 42.2826 34.9131 41.959C35.4189 41.6309 35.9658 41.4668 36.5537 41.4668C37.5153 41.4668 38.2627 41.7835 38.7959 42.417C39.3291 43.0505 39.5957 43.9574 39.5957 45.1377V45.6641H34.585C34.6032 46.3932 34.8151 46.9834 35.2207 47.4346C35.6309 47.8812 36.1504 48.1045 36.7793 48.1045C37.2259 48.1045 37.6042 48.0133 37.9141 47.8311C38.224 47.6488 38.4951 47.4072 38.7275 47.1064L39.5 47.708C38.8802 48.6605 37.9505 49.1367 36.7109 49.1367ZM36.5537 42.5059C36.0433 42.5059 35.6149 42.6927 35.2686 43.0664C34.9222 43.4355 34.708 43.9551 34.626 44.625H38.3311V44.5293C38.2946 43.8867 38.1214 43.39 37.8115 43.0391C37.5016 42.6836 37.0824 42.5059 36.5537 42.5059ZM42.2617 41.6035L42.3027 42.5332C42.8678 41.8223 43.6061 41.4668 44.5176 41.4668C46.0807 41.4668 46.8691 42.3486 46.8828 44.1123V49H45.6182V44.1055C45.6136 43.5723 45.4906 43.1781 45.249 42.9229C45.012 42.6676 44.6406 42.54 44.1348 42.54C43.7246 42.54 43.3646 42.6494 43.0547 42.8682C42.7448 43.0869 42.5033 43.374 42.3301 43.7295V49H41.0654V41.6035H42.2617ZM51.7568 48.1045C52.208 48.1045 52.6022 47.9678 52.9395 47.6943C53.2767 47.4209 53.4635 47.0791 53.5 46.6689H54.6963C54.6735 47.0928 54.5277 47.4961 54.2588 47.8789C53.9899 48.2617 53.6299 48.5671 53.1787 48.7949C52.7321 49.0228 52.2581 49.1367 51.7568 49.1367C50.7497 49.1367 49.9476 48.8018 49.3506 48.1318C48.7581 47.4574 48.4619 46.5368 48.4619 45.3701V45.1582C48.4619 44.4382 48.5941 43.7979 48.8584 43.2373C49.1227 42.6768 49.501 42.2415 49.9932 41.9316C50.4899 41.6217 51.0755 41.4668 51.75 41.4668C52.5794 41.4668 53.2676 41.7152 53.8145 42.2119C54.3659 42.7087 54.6598 43.3535 54.6963 44.1465H53.5C53.4635 43.668 53.2812 43.276 52.9531 42.9707C52.6296 42.6608 52.2285 42.5059 51.75 42.5059C51.1074 42.5059 50.6084 42.7383 50.2529 43.2031C49.902 43.6634 49.7266 44.3311 49.7266 45.2061V45.4453C49.7266 46.2975 49.902 46.9538 50.2529 47.4141C50.6038 47.8743 51.1051 48.1045 51.7568 48.1045ZM58.5381 47.1475L60.2607 41.6035H61.6143L58.6406 50.1416C58.1803 51.3721 57.4489 51.9873 56.4463 51.9873L56.207 51.9668L55.7354 51.8779V50.8525L56.0771 50.8799C56.5055 50.8799 56.8382 50.7933 57.0752 50.6201C57.3167 50.4469 57.515 50.1302 57.6699 49.6699L57.9502 48.918L55.3115 41.6035H56.6924L58.5381 47.1475Z" fill="#FCFCFC"/>
</svg>
