<svg width="1255" height="802" viewBox="0 0 1255 802" fill="none" xmlns="http://www.w3.org/2000/svg">
<path d="M1009 1.5H1004L1011.5 9.5L1021 19.5L1030 30L1043.5 45.5L1054 58.5L1066 73.5L1078 89.5L1087 102L1095.5 113L1100.5 120.5L1107.5 131L1117 144.5L1124.5 156.5L1132.5 168.5L1141.5 182L1148.5 193.5L1155.5 204.5L1164.5 219L1174 236L1183 251.5L1192 268L1200 282.5L1209 299L1215.5 311.5L1222.5 324.5L1229 337.5L1236 351.5L1242.5 364.5L1249 378.5L1254.5 388.5V379.5L1250 370.5L1245 360L1238.5 346.5L1231.5 332.5L1222.5 315.5L1215 301L1206.5 285.5L1198.5 271L1190.5 257L1183 243.5L1176 231.5L1166.5 215L1162 208L1154.5 196L1146 182L1140.5 173L1132 160L1124.5 149L1118 139L1110 127.5L1103 117.5L1095.5 107L1087 96L1079.5 85L1072 75L1060.5 60L1050.5 48.5L1041 36.5L1034 28.5L1026 19.5L1020 12.5L1014 6.5L1009 1.5Z" fill="#00FFFD" stroke="#00FFFD" stroke-width="0.5" stroke-linejoin="round"/>
<path d="M840.5 801H836V791.5L835.5 769V753V732.5V717.5L836.5 705L839.5 711.5V720.5V737.5V753V768.5L840 784L840.5 801Z" fill="#004D57" stroke="#004D57" stroke-width="0.5" stroke-linejoin="round"/>
<path d="M798 1.49999C796.593 0.873221 795.742 0.780713 794 1.49999L792.5 8.49999L791.5 19L791 31.5V47.5V62L791.5 82.5L792.5 95L793.5 104.5L795.5 124.5L797.5 141.5L799.5 157.5L802.5 174.5L805.5 190L808.5 206C808.5 206 812 224.5 813 225.5C814 226.5 815.5 219 815.5 219L811.5 198L808 181.5L804.5 160.5L801.5 141L799 122.5L797 100L796 86.5L795.5 71V55.5V42.5V28.5L796 20L797 11L798 1.49999Z" fill="#004D57" stroke="#004D57" stroke-width="0.5" stroke-linejoin="round"/>
<g filter="url(#filter0_d)">
<circle cx="620" cy="419" r="5" fill="#00FFFD"/>
</g>
<mask id="path-5-inside-1" fill="white">
<path d="M652 584C650.667 587.167 649.8 587.7 647 598.5C647 598.5 645.835 606.866 645.5 608.5C645.069 610.604 645 613 645 613V618V624C645 624 645 627 645.5 631.5C646 636 645.5 636 645.5 636L647 640.5L648.5 644.5L650.5 650L653 655.5L656.5 661.5L660 666L664 670.5L669.5 675.5L674 679.5L678.5 683L682.5 686L687 688.5L691 691L695.5 693L700.5 695.5L706 698L712.5 700.5L720.5 703L727.5 705L736 707L743.5 709L753.5 711L764 712.5L773.5 713.5L781 714.5L790 715L798 715.5L807 716L816.5 716.5H826.5H832H838.5L841 716L839.5 713.5L833.5 713L824.5 712.5L816.5 712H809L799.5 711L791 710.5L778.5 709L770.5 708L761.5 706.5L750.5 705L742 703L733 700.5L725 698L718.5 695.5L711.5 693L704.5 690L698 687L691 683L684.5 678.5L678 673L671.5 667.5L666.5 661L663 655.5L658 646.5L656 640L654 632.5L653 626V613V609.5V604L654.5 598.5L656 593.5L657.5 588L659.5 583L661.5 578L663.5 572.5L666 568L668.5 562.5L671 558L674 553L676.5 548L678 546L679.5 543.5L682.5 539.5L685 535.5L688.5 531L691.5 527L694.5 523L696.5 520.5L699.5 516.5L704 511.5L707.5 507L712.5 502L716 498.5L719 494.5L722.5 491L726 487L730 483.5L733.5 479.5L738 475.5L741.5 471L746 467.5L750 463.5L754.5 460L759 455.5L763.5 451.5L768.5 447L774 442.5L778 438.5L783.5 434L788 430.5L793.5 426L798.5 422L803.5 418.5L810.5 413.5L816.5 408.5L822 404.5L826 401L831.5 397L836.5 393.5L841.5 389.5L846.5 386L851 383L857.5 378L862.5 374L869 370L876 365L880.5 362L886 359L892 355L895.5 353L901.5 349L906 346L910 343.5L915 340.5L921.5 336L927 333L930.5 330.5L934.5 328.5L938.5 325.5L942.5 323L947 320L951 318L954.5 315.5L959 312.5L963.5 310L967.5 308L970.5 306L976 303L981 300L987.5 296.5L993.5 293L999 290.5L1004 287.5L1010 284L1015 281.5L1020 279L1026.5 275.5L1034.5 271.5L1040.5 268.5L1044 266.5L1048.5 264L1054 261L1058.5 258.5L1063.5 256L1068.5 253.5L1074.5 250.5L1080 248L1086.5 244.5L1093 241.5L1098 239L1103 236.5L1107.5 234L1112.5 232L1117 229.5L1122.5 227L1125.5 225.5L1132 222.5L1137 220.5L1143 218L1147.5 216L1151.5 214L1156 212L1160.5 210L1165 208L1169.5 206L1174 204L1177.5 202.5L1181 201L1186 198.5L1190.5 196L1196 193.5L1201 191.5L1208 188.5L1214 186L1220.5 183.5L1226.5 181L1235.5 177L1242 174.5L1249 172L1255 169.5V167.5L1248.5 169.5L1242 172L1236 174.5L1227.5 178L1222 180.5L1216.5 183L1211 185L1205 187.5L1197.5 190.5L1190.5 193.5L1183.5 197L1177.5 200L1170.5 203L1163.5 206L1157.5 209L1151.5 211.5L1146.5 214L1139.5 217L1133.5 220L1127 222.5L1119.5 226.5L1112 230L1104 233.5L1097 237.5L1090.5 240.5L1080.5 245.5L1071.5 249.5L1063.5 253.5L1056 257.5L1047 262L1038 266.5L1032 270L1024 274L1016.5 278L1008 282.5L1002.5 285L996.5 288.5L991 291.5L984.5 295L978.5 298.5L972.5 301.5L967.5 304.5L962.5 307L957 310.5L951 314L945.5 317.5L940.5 321.5L934 325.5L928.5 329L923 332L917.5 336L912 339.5L907 342.5L904.5 344.5L896.5 349L890 353.5L882.5 358L874 363.5L869 367L862.5 371L855.5 376.5L846 383L839.5 388L833 392L826 397.5L820.5 402L815 406L810 410L804.5 414L799 418.5L793.5 422.5L786.5 428L780 433L773 439L767 444L761 449L755.5 454L749 460L741.5 466.5L735.5 472.5L728.5 479.5L722 486L715 493L709 499.5L703.5 505.5L698 511.5L692 519.5L686 527L680.5 534L676 541L671 548L667 555L663 562.5L658 571.5L652 584Z"/>
</mask>
<path d="M652 584C650.667 587.167 649.8 587.7 647 598.5C647 598.5 645.835 606.866 645.5 608.5C645.069 610.604 645 613 645 613V618V624C645 624 645 627 645.5 631.5C646 636 645.5 636 645.5 636L647 640.5L648.5 644.5L650.5 650L653 655.5L656.5 661.5L660 666L664 670.5L669.5 675.5L674 679.5L678.5 683L682.5 686L687 688.5L691 691L695.5 693L700.5 695.5L706 698L712.5 700.5L720.5 703L727.5 705L736 707L743.5 709L753.5 711L764 712.5L773.5 713.5L781 714.5L790 715L798 715.5L807 716L816.5 716.5H826.5H832H838.5L841 716L839.5 713.5L833.5 713L824.5 712.5L816.5 712H809L799.5 711L791 710.5L778.5 709L770.5 708L761.5 706.5L750.5 705L742 703L733 700.5L725 698L718.5 695.5L711.5 693L704.5 690L698 687L691 683L684.5 678.5L678 673L671.5 667.5L666.5 661L663 655.5L658 646.5L656 640L654 632.5L653 626V613V609.5V604L654.5 598.5L656 593.5L657.5 588L659.5 583L661.5 578L663.5 572.5L666 568L668.5 562.5L671 558L674 553L676.5 548L678 546L679.5 543.5L682.5 539.5L685 535.5L688.5 531L691.5 527L694.5 523L696.5 520.5L699.5 516.5L704 511.5L707.5 507L712.5 502L716 498.5L719 494.5L722.5 491L726 487L730 483.5L733.5 479.5L738 475.5L741.5 471L746 467.5L750 463.5L754.5 460L759 455.5L763.5 451.5L768.5 447L774 442.5L778 438.5L783.5 434L788 430.5L793.5 426L798.5 422L803.5 418.5L810.5 413.5L816.5 408.5L822 404.5L826 401L831.5 397L836.5 393.5L841.5 389.5L846.5 386L851 383L857.5 378L862.5 374L869 370L876 365L880.5 362L886 359L892 355L895.5 353L901.5 349L906 346L910 343.5L915 340.5L921.5 336L927 333L930.5 330.5L934.5 328.5L938.5 325.5L942.5 323L947 320L951 318L954.5 315.5L959 312.5L963.5 310L967.5 308L970.5 306L976 303L981 300L987.5 296.5L993.5 293L999 290.5L1004 287.5L1010 284L1015 281.5L1020 279L1026.5 275.5L1034.5 271.5L1040.5 268.5L1044 266.5L1048.5 264L1054 261L1058.5 258.5L1063.5 256L1068.5 253.5L1074.5 250.5L1080 248L1086.5 244.5L1093 241.5L1098 239L1103 236.5L1107.5 234L1112.5 232L1117 229.5L1122.5 227L1125.5 225.5L1132 222.5L1137 220.5L1143 218L1147.5 216L1151.5 214L1156 212L1160.5 210L1165 208L1169.5 206L1174 204L1177.5 202.5L1181 201L1186 198.5L1190.5 196L1196 193.5L1201 191.5L1208 188.5L1214 186L1220.5 183.5L1226.5 181L1235.5 177L1242 174.5L1249 172L1255 169.5V167.5L1248.5 169.5L1242 172L1236 174.5L1227.5 178L1222 180.5L1216.5 183L1211 185L1205 187.5L1197.5 190.5L1190.5 193.5L1183.5 197L1177.5 200L1170.5 203L1163.5 206L1157.5 209L1151.5 211.5L1146.5 214L1139.5 217L1133.5 220L1127 222.5L1119.5 226.5L1112 230L1104 233.5L1097 237.5L1090.5 240.5L1080.5 245.5L1071.5 249.5L1063.5 253.5L1056 257.5L1047 262L1038 266.5L1032 270L1024 274L1016.5 278L1008 282.5L1002.5 285L996.5 288.5L991 291.5L984.5 295L978.5 298.5L972.5 301.5L967.5 304.5L962.5 307L957 310.5L951 314L945.5 317.5L940.5 321.5L934 325.5L928.5 329L923 332L917.5 336L912 339.5L907 342.5L904.5 344.5L896.5 349L890 353.5L882.5 358L874 363.5L869 367L862.5 371L855.5 376.5L846 383L839.5 388L833 392L826 397.5L820.5 402L815 406L810 410L804.5 414L799 418.5L793.5 422.5L786.5 428L780 433L773 439L767 444L761 449L755.5 454L749 460L741.5 466.5L735.5 472.5L728.5 479.5L722 486L715 493L709 499.5L703.5 505.5L698 511.5L692 519.5L686 527L680.5 534L676 541L671 548L667 555L663 562.5L658 571.5L652 584Z" fill="#00FFFD" stroke="#00FFFD" stroke-linejoin="round" mask="url(#path-5-inside-1)"/>
<path d="M808 235L813 227.5L810 240L808 243L805 247.5L800 256L793 268L786 281L778.5 295.5L772.5 309L766.5 323.5L761 339L757 353L753 367.5L749.5 383L746.5 398.5L744.5 413.5L742.5 429.5C742.5 429.5 742 441.5 742 449C742 456.5 741.5 468 741.5 468L742 489L743.5 505L745.5 520L747.5 531L750 544.5L753 557.5L756 568.5L759.5 580.5L763.5 594L767.5 604.5L771 614L776 624.5L781.5 636.5L788 650L795.5 662.5L804 677L812 689L825 706.5L836 721L849 736L863.5 751.5L874 761.5L883.5 770.5L892.5 779.5L904 788L914.5 796L920.5 801H913L900.5 791.5L890.5 783L877 770.5L864.5 759L849 743L836 728L828 718L818 705.5L808 691.5L798.5 677L788 659.5C785.833 655.333 781.1 646.3 779.5 643.5C777.9 640.7 773.167 630.667 771 626L763.5 608L756 585.5L747.5 555.5L742 526.5L738.5 501.5L737 482.5V457L737.5 438.5L739 421L741.5 402L744.5 383.5L749.5 362L756 340L764 318L771.5 299L778.5 284.5L787 269L793 258L800.5 246L808 235Z" fill="#004D57" stroke="#004D57" stroke-width="0.5" stroke-linejoin="round"/>
<g filter="url(#filter1_d)">
<circle cx="410" cy="399" r="4" fill="#00FFFD"/>
</g>
<g filter="url(#filter2_d)">
<circle cx="615" cy="738" r="3" fill="#00FFFD"/>
</g>
<path d="M1099 800.5H1094.5L1099.5 791L1103.5 783L1108 774L1112 765.5L1117 754.5L1121.5 746L1126.5 735L1130.5 726L1135 715L1140 703L1144.5 693L1149 682L1156 664L1161.5 649.5L1166 637L1172 620L1177 606.5L1182 592L1188.5 573L1193 558L1198.5 540.5L1204.5 521.5L1210.5 502L1214.5 488.5L1218 473.5L1221 463L1224 451.5L1227 441L1229 432.5L1232 421L1235 408.5L1238 396L1242 381L1245 369L1247.5 356L1249.5 347L1252.5 333.5L1254.5 325V339.5L1253.5 347L1251 357.5L1248.5 369L1246 380L1243 393L1240 405L1237 417L1234 429L1231 441L1228 452L1225 462.5L1222.5 471.5L1220 480.5L1218 488.5L1215.5 497.5L1213.5 504.5L1210.5 514L1208 522L1205.5 529.5L1203.5 536L1201 544.5L1198.5 552.5L1196 560.5L1193 569.5L1190.5 577.5L1186 591L1183 599L1181 605.5L1178.5 612.5L1176 620L1173.5 627L1171 633L1169 639L1167 644.5L1164.5 651.5L1161.5 659L1159.5 664L1158 668.5L1155.5 674L1153.5 679.5L1151 685L1148.5 691L1146.5 696.5L1144.5 702L1142 707L1139.5 712.5L1137.5 717L1135 723.5L1133 728.5L1131.5 732.5L1129 737.5L1127 742L1124 748.5L1121.5 754L1119 759L1116 765.5L1113.5 771.5L1110.5 778L1108.5 781.5L1106 786.5L1103.5 791L1101 796L1099 800.5Z" fill="#00FFFD" stroke="#00FFFD" stroke-width="0.5"/>
<g filter="url(#filter3_d)">
<circle cx="208.5" cy="520.5" r="1.5" fill="#00FFFD"/>
</g>
<g filter="url(#filter4_d)">
<circle cx="170" cy="338" r="2" fill="#00FFFD"/>
</g>
<g filter="url(#filter5_d)">
<circle cx="105" cy="451" r="2" fill="#00FFFD"/>
</g>
<g filter="url(#filter6_d)">
<circle cx="6" cy="224" r="1" fill="#00FFFD"/>
</g>
<g filter="url(#filter7_d)">
<circle cx="369" cy="263" r="1" fill="#00FFFD"/>
</g>
<g filter="url(#filter8_d)">
<circle cx="333" cy="96" r="1" fill="#00FFFD"/>
</g>
<g filter="url(#filter9_d)">
<circle cx="552" cy="33" r="2" fill="#00FFFD"/>
</g>
<g filter="url(#filter10_d)">
<circle cx="515" cy="78" r="2" fill="#00FFFD"/>
</g>
<g filter="url(#filter11_d)">
<circle cx="84.5" cy="643.5" r="2.5" fill="#00FFFD"/>
</g>
<g filter="url(#filter12_d)">
<circle cx="685" cy="218" r="9" fill="#00FFFD"/>
</g>
<defs>
<filter id="filter0_d" x="599" y="398" width="42" height="42" filterUnits="userSpaceOnUse" color-interpolation-filters="sRGB">
<feFlood flood-opacity="0" result="BackgroundImageFix"/>
<feColorMatrix in="SourceAlpha" type="matrix" values="0 0 0 0 0 0 0 0 0 0 0 0 0 0 0 0 0 0 127 0" result="hardAlpha"/>
<feMorphology radius="8" operator="dilate" in="SourceAlpha" result="effect1_dropShadow"/>
<feOffset/>
<feGaussianBlur stdDeviation="4"/>
<feComposite in2="hardAlpha" operator="out"/>
<feColorMatrix type="matrix" values="0 0 0 0 0 0 0 0 0 1 0 0 0 0 0.992157 0 0 0 1 0"/>
<feBlend mode="normal" in2="BackgroundImageFix" result="effect1_dropShadow"/>
<feBlend mode="normal" in="SourceGraphic" in2="effect1_dropShadow" result="shape"/>
</filter>
<filter id="filter1_d" x="390" y="379" width="40" height="40" filterUnits="userSpaceOnUse" color-interpolation-filters="sRGB">
<feFlood flood-opacity="0" result="BackgroundImageFix"/>
<feColorMatrix in="SourceAlpha" type="matrix" values="0 0 0 0 0 0 0 0 0 0 0 0 0 0 0 0 0 0 127 0" result="hardAlpha"/>
<feMorphology radius="8" operator="dilate" in="SourceAlpha" result="effect1_dropShadow"/>
<feOffset/>
<feGaussianBlur stdDeviation="4"/>
<feComposite in2="hardAlpha" operator="out"/>
<feColorMatrix type="matrix" values="0 0 0 0 0 0 0 0 0 1 0 0 0 0 0.992157 0 0 0 1 0"/>
<feBlend mode="normal" in2="BackgroundImageFix" result="effect1_dropShadow"/>
<feBlend mode="normal" in="SourceGraphic" in2="effect1_dropShadow" result="shape"/>
</filter>
<filter id="filter2_d" x="600" y="723" width="30" height="30" filterUnits="userSpaceOnUse" color-interpolation-filters="sRGB">
<feFlood flood-opacity="0" result="BackgroundImageFix"/>
<feColorMatrix in="SourceAlpha" type="matrix" values="0 0 0 0 0 0 0 0 0 0 0 0 0 0 0 0 0 0 127 0" result="hardAlpha"/>
<feMorphology radius="6" operator="dilate" in="SourceAlpha" result="effect1_dropShadow"/>
<feOffset/>
<feGaussianBlur stdDeviation="3"/>
<feComposite in2="hardAlpha" operator="out"/>
<feColorMatrix type="matrix" values="0 0 0 0 0 0 0 0 0 1 0 0 0 0 0.992157 0 0 0 1 0"/>
<feBlend mode="normal" in2="BackgroundImageFix" result="effect1_dropShadow"/>
<feBlend mode="normal" in="SourceGraphic" in2="effect1_dropShadow" result="shape"/>
</filter>
<filter id="filter3_d" x="201" y="513" width="15" height="15" filterUnits="userSpaceOnUse" color-interpolation-filters="sRGB">
<feFlood flood-opacity="0" result="BackgroundImageFix"/>
<feColorMatrix in="SourceAlpha" type="matrix" values="0 0 0 0 0 0 0 0 0 0 0 0 0 0 0 0 0 0 127 0" result="hardAlpha"/>
<feMorphology radius="2" operator="dilate" in="SourceAlpha" result="effect1_dropShadow"/>
<feOffset/>
<feGaussianBlur stdDeviation="2"/>
<feComposite in2="hardAlpha" operator="out"/>
<feColorMatrix type="matrix" values="0 0 0 0 0 0 0 0 0 1 0 0 0 0 0.992157 0 0 0 1 0"/>
<feBlend mode="normal" in2="BackgroundImageFix" result="effect1_dropShadow"/>
<feBlend mode="normal" in="SourceGraphic" in2="effect1_dropShadow" result="shape"/>
</filter>
<filter id="filter4_d" x="160" y="328" width="20" height="20" filterUnits="userSpaceOnUse" color-interpolation-filters="sRGB">
<feFlood flood-opacity="0" result="BackgroundImageFix"/>
<feColorMatrix in="SourceAlpha" type="matrix" values="0 0 0 0 0 0 0 0 0 0 0 0 0 0 0 0 0 0 127 0" result="hardAlpha"/>
<feMorphology radius="3" operator="dilate" in="SourceAlpha" result="effect1_dropShadow"/>
<feOffset/>
<feGaussianBlur stdDeviation="2.5"/>
<feComposite in2="hardAlpha" operator="out"/>
<feColorMatrix type="matrix" values="0 0 0 0 0 0 0 0 0 1 0 0 0 0 0.992157 0 0 0 1 0"/>
<feBlend mode="normal" in2="BackgroundImageFix" result="effect1_dropShadow"/>
<feBlend mode="normal" in="SourceGraphic" in2="effect1_dropShadow" result="shape"/>
</filter>
<filter id="filter5_d" x="97" y="443" width="16" height="16" filterUnits="userSpaceOnUse" color-interpolation-filters="sRGB">
<feFlood flood-opacity="0" result="BackgroundImageFix"/>
<feColorMatrix in="SourceAlpha" type="matrix" values="0 0 0 0 0 0 0 0 0 0 0 0 0 0 0 0 0 0 127 0" result="hardAlpha"/>
<feMorphology radius="2" operator="dilate" in="SourceAlpha" result="effect1_dropShadow"/>
<feOffset/>
<feGaussianBlur stdDeviation="2"/>
<feComposite in2="hardAlpha" operator="out"/>
<feColorMatrix type="matrix" values="0 0 0 0 0 0 0 0 0 1 0 0 0 0 0.992157 0 0 0 1 0"/>
<feBlend mode="normal" in2="BackgroundImageFix" result="effect1_dropShadow"/>
<feBlend mode="normal" in="SourceGraphic" in2="effect1_dropShadow" result="shape"/>
</filter>
<filter id="filter6_d" x="0" y="218" width="12" height="12" filterUnits="userSpaceOnUse" color-interpolation-filters="sRGB">
<feFlood flood-opacity="0" result="BackgroundImageFix"/>
<feColorMatrix in="SourceAlpha" type="matrix" values="0 0 0 0 0 0 0 0 0 0 0 0 0 0 0 0 0 0 127 0" result="hardAlpha"/>
<feMorphology radius="2" operator="dilate" in="SourceAlpha" result="effect1_dropShadow"/>
<feOffset/>
<feGaussianBlur stdDeviation="1.5"/>
<feComposite in2="hardAlpha" operator="out"/>
<feColorMatrix type="matrix" values="0 0 0 0 0 0 0 0 0 1 0 0 0 0 0.992157 0 0 0 1 0"/>
<feBlend mode="normal" in2="BackgroundImageFix" result="effect1_dropShadow"/>
<feBlend mode="normal" in="SourceGraphic" in2="effect1_dropShadow" result="shape"/>
</filter>
<filter id="filter7_d" x="362" y="256" width="14" height="14" filterUnits="userSpaceOnUse" color-interpolation-filters="sRGB">
<feFlood flood-opacity="0" result="BackgroundImageFix"/>
<feColorMatrix in="SourceAlpha" type="matrix" values="0 0 0 0 0 0 0 0 0 0 0 0 0 0 0 0 0 0 127 0" result="hardAlpha"/>
<feMorphology radius="2" operator="dilate" in="SourceAlpha" result="effect1_dropShadow"/>
<feOffset/>
<feGaussianBlur stdDeviation="2"/>
<feComposite in2="hardAlpha" operator="out"/>
<feColorMatrix type="matrix" values="0 0 0 0 0 0 0 0 0 1 0 0 0 0 0.992157 0 0 0 1 0"/>
<feBlend mode="normal" in2="BackgroundImageFix" result="effect1_dropShadow"/>
<feBlend mode="normal" in="SourceGraphic" in2="effect1_dropShadow" result="shape"/>
</filter>
<filter id="filter8_d" x="327" y="90" width="12" height="12" filterUnits="userSpaceOnUse" color-interpolation-filters="sRGB">
<feFlood flood-opacity="0" result="BackgroundImageFix"/>
<feColorMatrix in="SourceAlpha" type="matrix" values="0 0 0 0 0 0 0 0 0 0 0 0 0 0 0 0 0 0 127 0" result="hardAlpha"/>
<feMorphology radius="2" operator="dilate" in="SourceAlpha" result="effect1_dropShadow"/>
<feOffset/>
<feGaussianBlur stdDeviation="1.5"/>
<feComposite in2="hardAlpha" operator="out"/>
<feColorMatrix type="matrix" values="0 0 0 0 0 0 0 0 0 1 0 0 0 0 0.992157 0 0 0 1 0"/>
<feBlend mode="normal" in2="BackgroundImageFix" result="effect1_dropShadow"/>
<feBlend mode="normal" in="SourceGraphic" in2="effect1_dropShadow" result="shape"/>
</filter>
<filter id="filter9_d" x="545" y="26" width="14" height="14" filterUnits="userSpaceOnUse" color-interpolation-filters="sRGB">
<feFlood flood-opacity="0" result="BackgroundImageFix"/>
<feColorMatrix in="SourceAlpha" type="matrix" values="0 0 0 0 0 0 0 0 0 0 0 0 0 0 0 0 0 0 127 0" result="hardAlpha"/>
<feMorphology radius="2" operator="dilate" in="SourceAlpha" result="effect1_dropShadow"/>
<feOffset/>
<feGaussianBlur stdDeviation="1.5"/>
<feComposite in2="hardAlpha" operator="out"/>
<feColorMatrix type="matrix" values="0 0 0 0 0 0 0 0 0 1 0 0 0 0 0.992157 0 0 0 1 0"/>
<feBlend mode="normal" in2="BackgroundImageFix" result="effect1_dropShadow"/>
<feBlend mode="normal" in="SourceGraphic" in2="effect1_dropShadow" result="shape"/>
</filter>
<filter id="filter10_d" x="506" y="69" width="18" height="18" filterUnits="userSpaceOnUse" color-interpolation-filters="sRGB">
<feFlood flood-opacity="0" result="BackgroundImageFix"/>
<feColorMatrix in="SourceAlpha" type="matrix" values="0 0 0 0 0 0 0 0 0 0 0 0 0 0 0 0 0 0 127 0" result="hardAlpha"/>
<feMorphology radius="3" operator="dilate" in="SourceAlpha" result="effect1_dropShadow"/>
<feOffset/>
<feGaussianBlur stdDeviation="2"/>
<feComposite in2="hardAlpha" operator="out"/>
<feColorMatrix type="matrix" values="0 0 0 0 0 0 0 0 0 1 0 0 0 0 0.992157 0 0 0 1 0"/>
<feBlend mode="normal" in2="BackgroundImageFix" result="effect1_dropShadow"/>
<feBlend mode="normal" in="SourceGraphic" in2="effect1_dropShadow" result="shape"/>
</filter>
<filter id="filter11_d" x="75" y="634" width="19" height="19" filterUnits="userSpaceOnUse" color-interpolation-filters="sRGB">
<feFlood flood-opacity="0" result="BackgroundImageFix"/>
<feColorMatrix in="SourceAlpha" type="matrix" values="0 0 0 0 0 0 0 0 0 0 0 0 0 0 0 0 0 0 127 0" result="hardAlpha"/>
<feMorphology radius="3" operator="dilate" in="SourceAlpha" result="effect1_dropShadow"/>
<feOffset/>
<feGaussianBlur stdDeviation="2"/>
<feComposite in2="hardAlpha" operator="out"/>
<feColorMatrix type="matrix" values="0 0 0 0 0 0 0 0 0 1 0 0 0 0 0.992157 0 0 0 1 0"/>
<feBlend mode="normal" in2="BackgroundImageFix" result="effect1_dropShadow"/>
<feBlend mode="normal" in="SourceGraphic" in2="effect1_dropShadow" result="shape"/>
</filter>
<filter id="filter12_d" x="656" y="189" width="58" height="58" filterUnits="userSpaceOnUse" color-interpolation-filters="sRGB">
<feFlood flood-opacity="0" result="BackgroundImageFix"/>
<feColorMatrix in="SourceAlpha" type="matrix" values="0 0 0 0 0 0 0 0 0 0 0 0 0 0 0 0 0 0 127 0" result="hardAlpha"/>
<feMorphology radius="10" operator="dilate" in="SourceAlpha" result="effect1_dropShadow"/>
<feOffset/>
<feGaussianBlur stdDeviation="5"/>
<feComposite in2="hardAlpha" operator="out"/>
<feColorMatrix type="matrix" values="0 0 0 0 0 0 0 0 0 1 0 0 0 0 0.992157 0 0 0 1 0"/>
<feBlend mode="hard-light" in2="BackgroundImageFix" result="effect1_dropShadow"/>
<feBlend mode="normal" in="SourceGraphic" in2="effect1_dropShadow" result="shape"/>
</filter>
</defs>
</svg>
