<svg width="51" height="53" viewBox="0 0 51 53" fill="none" xmlns="http://www.w3.org/2000/svg">
<path d="M18.4902 8.40625L25.0644 26.9688L31.6035 8.40625H38.5293V34H33.2383V27.0039L33.7656 14.9277L26.8574 34H23.2363L16.3457 14.9453L16.873 27.0039V34H11.5996V8.40625H18.4902Z" fill="#10B1CB"/>
<rect width="47.59" height="3.6" transform="matrix(0.970419 -0.241425 0.244196 0.969726 0.981934 25.9717)" fill="#0F0F0F"/>
<path d="M8.75975 49.7788C8.68683 49.633 8.62759 49.3732 8.58201 48.9995C7.99412 49.6102 7.2923 49.9155 6.47654 49.9155C5.74738 49.9155 5.14809 49.7104 4.67869 49.3003C4.21385 48.8856 3.98143 48.3615 3.98143 47.728C3.98143 46.9578 4.27309 46.3608 4.85643 45.937C5.44432 45.5086 6.26919 45.2944 7.33104 45.2944H8.5615V44.7134C8.5615 44.2713 8.42934 43.9204 8.16502 43.6606C7.9007 43.3963 7.51105 43.2642 6.99607 43.2642C6.5449 43.2642 6.16665 43.3781 5.86131 43.606C5.55597 43.8338 5.4033 44.1095 5.4033 44.4331H4.13182C4.13182 44.064 4.2617 43.7085 4.52147 43.3667C4.78579 43.0203 5.14126 42.7469 5.58787 42.5464C6.03904 42.3459 6.53351 42.2456 7.07127 42.2456C7.92348 42.2456 8.59113 42.4598 9.0742 42.8882C9.55727 43.312 9.80792 43.8976 9.82615 44.645V48.0493C9.82615 48.7284 9.91274 49.2684 10.0859 49.6694V49.7788H8.75975ZM6.66111 48.8149C7.0576 48.8149 7.43357 48.7124 7.78904 48.5073C8.14451 48.3022 8.402 48.0356 8.5615 47.7075V46.1899H7.57029C6.02081 46.1899 5.24607 46.6434 5.24607 47.5503C5.24607 47.9468 5.37824 48.2567 5.64256 48.48C5.90688 48.7033 6.2464 48.8149 6.66111 48.8149ZM11.5078 46.019C11.5078 44.866 11.7744 43.95 12.3076 43.271C12.8408 42.5874 13.5472 42.2456 14.4267 42.2456C15.3291 42.2456 16.0332 42.5646 16.539 43.2026L16.6006 42.3823H17.7558V49.6011C17.7558 50.5581 17.471 51.3123 16.9013 51.8638C16.3362 52.4152 15.5752 52.6909 14.6181 52.6909C14.0849 52.6909 13.5631 52.577 13.0527 52.3491C12.5423 52.1213 12.1527 51.8091 11.8838 51.4126L12.54 50.6538C13.0823 51.3237 13.7454 51.6587 14.5293 51.6587C15.1445 51.6587 15.623 51.4855 15.9648 51.1392C16.3112 50.7928 16.4844 50.3052 16.4844 49.6763V49.0405C15.9785 49.6239 15.2881 49.9155 14.4131 49.9155C13.5472 49.9155 12.8454 49.5669 12.3076 48.8696C11.7744 48.1724 11.5078 47.2222 11.5078 46.019ZM12.7793 46.1626C12.7793 46.9966 12.9502 47.6528 13.292 48.1313C13.6338 48.6053 14.1123 48.8423 14.7275 48.8423C15.525 48.8423 16.1107 48.48 16.4844 47.7554V44.3784C16.097 43.672 15.5159 43.3188 14.7412 43.3188C14.126 43.3188 13.6452 43.5581 13.2988 44.0366C12.9525 44.5151 12.7793 45.2238 12.7793 46.1626ZM22.7392 49.9155C21.7366 49.9155 20.9209 49.5874 20.292 48.9312C19.6631 48.2703 19.3486 47.3885 19.3486 46.2856V46.0532C19.3486 45.3195 19.4876 44.6655 19.7656 44.0913C20.0482 43.5125 20.4401 43.0614 20.9414 42.7378C21.4472 42.4097 21.9941 42.2456 22.582 42.2456C23.5436 42.2456 24.291 42.5623 24.8242 43.1958C25.3574 43.8293 25.624 44.7362 25.624 45.9165V46.4429H20.6133C20.6315 47.172 20.8434 47.7622 21.249 48.2134C21.6592 48.66 22.1787 48.8833 22.8076 48.8833C23.2542 48.8833 23.6325 48.7922 23.9424 48.6099C24.2523 48.4276 24.5234 48.186 24.7558 47.8853L25.5283 48.4868C24.9085 49.4393 23.9788 49.9155 22.7392 49.9155ZM22.582 43.2847C22.0716 43.2847 21.6432 43.4715 21.2969 43.8452C20.9505 44.2144 20.7363 44.7339 20.6543 45.4038H24.3594V45.3081C24.3229 44.6655 24.1497 44.1688 23.8398 43.8179C23.5299 43.4624 23.1107 43.2847 22.582 43.2847ZM28.29 42.3823L28.331 43.312C28.8961 42.6011 29.6344 42.2456 30.5459 42.2456C32.109 42.2456 32.8974 43.1274 32.9111 44.8911V49.7788H31.6465V44.8843C31.6419 44.3511 31.5189 43.9569 31.2773 43.7017C31.0403 43.4465 30.6689 43.3188 30.1631 43.3188C29.7529 43.3188 29.3929 43.4282 29.083 43.647C28.7731 43.8657 28.5316 44.1528 28.3584 44.5083V49.7788H27.0937V42.3823H28.29ZM37.7851 48.8833C38.2363 48.8833 38.6305 48.7466 38.9678 48.4731C39.305 48.1997 39.4918 47.8579 39.5283 47.4478H40.7246C40.7018 47.8716 40.556 48.2749 40.2871 48.6577C40.0182 49.0405 39.6582 49.3459 39.207 49.5737C38.7604 49.8016 38.2864 49.9155 37.7851 49.9155C36.778 49.9155 35.9759 49.5806 35.3789 48.9106C34.7864 48.2362 34.4902 47.3156 34.4902 46.1489V45.937C34.4902 45.217 34.6224 44.5767 34.8867 44.0161C35.151 43.4556 35.5293 43.0203 36.0215 42.7104C36.5182 42.4006 37.1038 42.2456 37.7783 42.2456C38.6077 42.2456 39.2959 42.494 39.8428 42.9907C40.3942 43.4875 40.6881 44.1323 40.7246 44.9253H39.5283C39.4918 44.4468 39.3096 44.0549 38.9814 43.7495C38.6579 43.4396 38.2568 43.2847 37.7783 43.2847C37.1357 43.2847 36.6367 43.5171 36.2812 43.9819C35.9303 44.4422 35.7549 45.1099 35.7549 45.9849V46.2241C35.7549 47.0763 35.9303 47.7326 36.2812 48.1929C36.6321 48.6532 37.1334 48.8833 37.7851 48.8833ZM44.5664 47.9263L46.289 42.3823H47.6426L44.6689 50.9204C44.2086 52.1509 43.4772 52.7661 42.4746 52.7661L42.2353 52.7456L41.7637 52.6567V51.6313L42.1054 51.6587C42.5338 51.6587 42.8665 51.5721 43.1035 51.3989C43.345 51.2257 43.5433 50.909 43.6982 50.4487L43.9785 49.6968L41.3398 42.3823H42.7207L44.5664 47.9263Z" fill="#10B1CB"/>
</svg>
