<svg width="17" height="18" viewBox="0 0 17 18" fill="none" xmlns="http://www.w3.org/2000/svg">
<path d="M17 13.3368C17 13.7095 16.8952 14.055 16.7272 14.359L11.3596 8.35342L16.669 3.70817C16.8756 4.03594 17 4.42095 17 4.83701V13.3368ZM8.50002 9.44386L15.8879 2.97966C15.5847 2.81369 15.2433 2.71191 14.875 2.71191H2.12499C1.75626 2.71191 1.41477 2.81369 1.11282 2.97966L8.50002 9.44386ZM10.5597 9.05278L8.84961 10.55C8.74958 10.6372 8.62503 10.6807 8.50002 10.6807C8.37494 10.6807 8.25038 10.6372 8.15036 10.55L6.43988 9.05271L1.00439 15.1351C1.33019 15.3395 1.71201 15.4619 2.12495 15.4619H14.875C15.2879 15.4619 15.6699 15.3395 15.9956 15.1351L10.5597 9.05278ZM0.331023 3.70814C0.124519 4.0359 0 4.42091 0 4.83701V13.3369C0 13.7096 0.104338 14.0551 0.272898 14.359L5.63986 8.35241L0.331023 3.70814Z" fill="#FCFCFC"/>
</svg>
