<svg width="16" height="17" viewBox="0 0 16 17" fill="none" xmlns="http://www.w3.org/2000/svg">
<g clip-path="url(#clip0)">
<path d="M15.928 13.3407L15.8483 13.1007C15.6597 12.5401 15.0415 11.9554 14.4735 11.8014L12.3715 11.2271C11.8014 11.072 10.9883 11.2806 10.5712 11.6976L9.81044 12.4584C7.04563 11.7113 4.87758 9.54318 4.13149 6.7789L4.8923 6.01809C5.30937 5.60102 5.51787 4.78894 5.36279 4.2189L4.78959 2.1158C4.63451 1.5468 4.04874 0.928568 3.48919 0.742029L3.24923 0.661351C2.68861 0.474813 1.88907 0.663464 1.47204 1.0805L0.334027 2.21955C0.130723 2.42178 0.000786054 3.00021 0.000786054 3.00232C-0.0390164 6.6154 1.37771 10.0964 3.93345 12.6522C6.48293 15.2017 9.95091 16.6163 13.5535 16.5859C13.5723 16.5859 14.1675 16.4581 14.3708 16.2558L15.5088 15.1178C15.9259 14.7008 16.1145 13.9013 15.928 13.3407Z" fill="#FCFCFC"/>
</g>
<defs>
<clipPath id="clip0">
<rect width="16" height="16" fill="white" transform="translate(0 0.586914)"/>
</clipPath>
</defs>
</svg>
