<svg width="25" height="26" viewBox="0 0 25 26" fill="none" xmlns="http://www.w3.org/2000/svg">
<g clip-path="url(#clip0)">
<path d="M12.5 25.5869C19.4035 25.5869 25 19.9905 25 13.0869C25 6.18337 19.4035 0.586914 12.5 0.586914C5.59646 0.586914 0 6.18337 0 13.0869C0 19.9905 5.59646 25.5869 12.5 25.5869Z" fill="#FCFCFC"/>
<path d="M4.65533 13.6984C6.11657 12.8935 7.74771 12.2217 9.27178 11.5465C11.8938 10.4406 14.5262 9.35381 17.1851 8.34204C17.7025 8.16965 18.632 8.00105 18.7231 8.76772C18.6732 9.85293 18.4679 10.9318 18.3271 12.0106C17.9696 14.3831 17.5565 16.7475 17.1537 19.1122C17.0148 19.8999 16.0281 20.3076 15.3968 19.8036C13.8795 18.7787 12.3505 17.7638 10.8526 16.7151C10.3619 16.2165 10.8169 15.5005 11.2552 15.1445C12.5048 13.9129 13.8302 12.8666 15.0145 11.5714C15.334 10.7999 14.3901 11.4501 14.0787 11.6493C12.3679 12.8282 10.6989 14.0792 8.89516 15.1153C7.97381 15.6225 6.89995 15.1891 5.97902 14.9061C5.15328 14.5642 3.94327 14.2198 4.65525 13.6984L4.65533 13.6984Z" fill="#10B1CB"/>
</g>
<defs>
<clipPath id="clip0">
<rect width="25" height="25" fill="white" transform="translate(0 0.586914)"/>
</clipPath>
</defs>
</svg>
