<svg width="26" height="27" viewBox="0 0 26 27" fill="none" xmlns="http://www.w3.org/2000/svg">
<g clip-path="url(#clip0)">
<path fill-rule="evenodd" clip-rule="evenodd" d="M14.5031 9.6796C15.0093 9.78746 15.3973 9.97982 15.7288 10.2902C16.1553 10.693 16.3891 11.1805 16.4919 11.8809C16.5614 12.3375 16.533 12.5171 16.3711 12.6659C16.2195 12.8045 15.9394 12.8096 15.7698 12.6787C15.6465 12.5863 15.6079 12.4888 15.5797 12.2246C15.5464 11.8729 15.4846 11.6268 15.3792 11.3984C15.1531 10.9136 14.7548 10.6621 14.0816 10.5801C13.7656 10.5415 13.6705 10.5057 13.5677 10.3851C13.38 10.1618 13.4522 9.80005 13.7115 9.6666C13.8092 9.61785 13.8503 9.61277 14.0662 9.62557C14.2001 9.63329 14.3979 9.65645 14.5031 9.6796ZM13.9559 7.7424C15.5157 7.97071 16.7233 8.69424 17.5149 9.86932C17.9595 10.5313 18.237 11.3087 18.332 12.1425C18.3653 12.4478 18.3653 13.0046 18.3294 13.097C18.2959 13.1841 18.188 13.3021 18.0956 13.3509C17.9955 13.4023 17.7822 13.397 17.664 13.3354C17.4661 13.2353 17.407 13.0763 17.407 12.6452C17.407 11.9808 17.2347 11.2802 16.9368 10.7363C16.5975 10.1153 16.1042 9.60221 15.5029 9.24552C14.9864 8.93759 14.2232 8.70927 13.5269 8.6528C13.275 8.63229 13.1363 8.5809 13.0412 8.4706C12.8948 8.30384 12.8793 8.07796 13.0026 7.89068C13.1361 7.68349 13.3417 7.64998 13.9559 7.7424ZM7.90441 6.15945C7.99439 6.19032 8.13312 6.26202 8.21275 6.31341C8.70086 6.63679 10.0602 8.37371 10.5048 9.24085C10.7591 9.73607 10.844 10.1029 10.7644 10.3749C10.6821 10.6674 10.546 10.8214 9.93687 11.3113C9.69272 11.5087 9.464 11.7115 9.42805 11.7655C9.33563 11.8989 9.26108 12.1606 9.26108 12.3454C9.26372 12.7738 9.54119 13.5514 9.906 14.1492C10.1885 14.6135 10.6947 15.2087 11.1958 15.6655C11.7843 16.2044 12.3033 16.5712 12.8893 16.8611C13.6423 17.2356 14.1022 17.3305 14.4387 17.1741C14.5234 17.1355 14.6134 17.0843 14.6417 17.0612C14.6673 17.038 14.8653 16.7969 15.081 16.53C15.4972 16.0065 15.5923 15.9218 15.8777 15.8243C16.24 15.7012 16.6099 15.7346 16.9827 15.9245C17.2654 16.0707 17.8821 16.453 18.2802 16.7301C18.8045 17.0969 19.9247 18.0104 20.0765 18.1926C20.3436 18.521 20.3899 18.9417 20.2101 19.4062C20.02 19.8962 19.28 20.8147 18.7635 21.2074C18.2959 21.5614 17.9644 21.6973 17.5275 21.7178C17.1677 21.7357 17.0186 21.705 16.5587 21.5151C12.9512 20.0296 10.0707 17.8129 7.78375 14.7673C6.58897 13.1766 5.67917 11.5268 5.05741 9.81549C4.69503 8.81754 4.67716 8.38387 4.97514 7.87321C5.10372 7.65769 5.65094 7.12409 6.04927 6.82651C6.71227 6.33393 7.01797 6.15173 7.26212 6.10034C7.42909 6.06438 7.71956 6.09262 7.90441 6.15945ZM13.7786 5.88238C14.6626 5.99268 15.3768 6.20555 16.1606 6.58804C16.9315 6.96524 17.4249 7.32193 18.0775 7.97091C18.6891 8.58415 19.0283 9.04849 19.3881 9.76938C19.8892 10.7751 20.1744 11.9709 20.2231 13.2869C20.2412 13.7358 20.2282 13.8359 20.1254 13.9643C19.9302 14.2131 19.501 14.1721 19.3546 13.8924C19.3082 13.8 19.2955 13.7206 19.28 13.3612C19.2542 12.8096 19.2158 12.4531 19.1386 12.0271C18.8354 10.3568 18.0336 9.0227 16.754 8.06557C15.6875 7.26505 14.5852 6.87505 13.1412 6.79035C12.6529 6.76212 12.5682 6.74424 12.4577 6.65954C12.2521 6.49785 12.2417 6.11821 12.4396 5.94109C12.5604 5.83079 12.6451 5.81535 13.064 5.82815C13.2828 5.83607 13.6039 5.86187 13.7786 5.88238ZM13 0.586914C20.1797 0.586914 26 6.40726 26 13.5869C26 20.7666 20.1797 26.5869 13 26.5869C5.82034 26.5869 0 20.7666 0 13.5869C0 6.40726 5.82034 0.586914 13 0.586914Z" fill="#FCFCFC"/>
</g>
<defs>
<clipPath id="clip0">
<rect width="26" height="26" fill="white" transform="translate(0 0.586914)"/>
</clipPath>
</defs>
</svg>
