<svg width="163" height="163" fill="none" xmlns="http://www.w3.org/2000/svg"><path d="M101.875 86.594h30.002a45.846 45.846 0 01-19.815 31.275l-9.117 6.113 5.603 8.456 9.118-6.113a56.037 56.037 0 0024.959-46.608V45.844a10.186 10.186 0 00-10.187-10.188h-30.563a10.187 10.187 0 00-10.188 10.188v30.562a10.187 10.187 0 0010.188 10.188zm-71.312 0h30.002a45.845 45.845 0 01-19.815 31.275l-9.118 6.113 5.552 8.456 9.17-6.113a56.03 56.03 0 0024.959-46.608V45.844a10.187 10.187 0 00-10.188-10.188H30.562a10.187 10.187 0 00-10.187 10.188v30.562a10.187 10.187 0 0010.188 10.188z" opacity=".1" fill="#FEFEFE"/></svg>