<svg width="129" height="129" fill="none" xmlns="http://www.w3.org/2000/svg"><path fill-rule="evenodd" clip-rule="evenodd" d="M37.625 16.125A5.375 5.375 0 0032.25 21.5v75.25a5.376 5.376 0 005.375 5.375h29.563v5.375H37.624a10.75 10.75 0 01-10.75-10.75V21.5a10.75 10.75 0 0110.75-10.75h53.75a10.75 10.75 0 0110.75 10.75v75.25a10.75 10.75 0 01-10.75 10.75h-8.063v-5.375h8.063a5.375 5.375 0 005.375-5.375V21.5a5.375 5.375 0 00-5.375-5.375h-53.75z" fill="#020206" fill-opacity=".7"/><path fill-rule="evenodd" clip-rule="evenodd" d="M48.375 29.563a2.687 2.687 0 012.688-2.688h26.874a2.687 2.687 0 110 5.375H51.064a2.688 2.688 0 01-2.688-2.688zm-10.75 16.125A2.687 2.687 0 0140.313 43h48.374a2.688 2.688 0 110 5.375H40.313a2.687 2.687 0 01-2.688-2.688zm0 10.75a2.687 2.687 0 012.688-2.688h48.374a2.688 2.688 0 110 5.375H40.313a2.687 2.687 0 01-2.688-2.688zm0 10.75a2.687 2.687 0 012.688-2.688h48.374a2.688 2.688 0 110 5.375H40.313a2.687 2.687 0 01-2.688-2.688zM75.25 94.063a5.375 5.375 0 100-10.75 5.375 5.375 0 000 10.75zm0 5.375a10.75 10.75 0 100-21.5 10.75 10.75 0 000 21.5z" fill="#020206" fill-opacity=".7"/><path fill-rule="evenodd" clip-rule="evenodd" d="M72.563 94.063h-5.376v24.187l8.063-4.031 8.063 4.031V94.063h-5.376v15.49l-2.687-1.343-2.688 1.343v-15.49z" fill="#020206" fill-opacity=".7"/><ellipse cx="75.025" cy="88.519" rx="7.017" ry="6.477" fill="#2D56B3"/></svg>