<svg width="23" height="28" fill="none" xmlns="http://www.w3.org/2000/svg"><g clip-path="url(#clip0)"><path d="M8.581 17.184l1.122 2.704.095.057c.18.111.46.074.628-.085a.515.515 0 00.153-.348c-.005-.058-.597-1.516-2.233-5.485-2.077-5.04-2.228-5.414-2.258-5.58-.098-.533-.044-.943.17-1.338.11-.2.188-.304.356-.473.364-.37 1.039-.774 1.558-.933 1.138-.35 1.967-.175 2.546.537.28.347.05-.19 3.126 7.285 1.805 4.378 2.838 6.911 2.879 7.045.156.526.01.998-.458 1.459-.525.52-1.198.785-1.81.713a1.524 1.524 0 01-.915-.448l-.134-.135-2.186-5.307c-1.903-4.625-2.188-5.33-2.215-5.469-.064-.33-.013-.54.172-.73l.115-.118.336-.139c.303-.122.35-.138.468-.146.259-.015.466.079.655.298.078.092.145.25 1.525 3.61 1.375 3.35 1.447 3.517 1.508 3.569a.5.5 0 00.517.064.496.496 0 00.318-.407c.008-.096-2.84-7.061-2.956-7.24-.479-.722-1.28-.923-2.25-.567-.59.218-.966.521-1.192.963-.17.334-.217.672-.153 1.11.023.153.13.42 2.232 5.539 2.133 5.196 2.212 5.383 2.303 5.5.37.479.861.771 1.483.885.254.047.703.045.96 0a3.776 3.776 0 001.947-1.047c.3-.303.584-.765.678-1.101.064-.23.096-.52.08-.75l-.014-.195-2.886-7.048c-2.063-5.035-2.915-7.099-2.987-7.228-.24-.434-.6-.834-.962-1.069-.75-.487-1.66-.581-2.78-.288-.57.15-1.299.527-1.817.939-1.08.863-1.45 1.953-1.087 3.207.06.2 1.121 2.787 3.363 8.19z" fill="#2D56B3"/></g><defs><clipPath id="clip0"><path fill="#fff" transform="rotate(-112.322 14.248 10.577)" d="M0 0h23.777v13.428H0z"/></clipPath></defs></svg>