<svg width="77" height="61" fill="none" xmlns="http://www.w3.org/2000/svg"><g clip-path="url(#clip0)"><path d="M37.76 40.879l7.52 3.873.302-.023c.578-.043 1.071-.538 1.098-1.114.016-.31-.156-.748-.37-.943-.123-.112-4.15-2.22-15.166-7.92-13.988-7.244-15.019-7.786-15.403-8.081-1.233-.947-1.92-1.87-2.259-3a4.365 4.365 0 01-.206-1.502c.012-1.305.585-3.142 1.321-4.245 1.606-2.42 3.617-3.3 6.168-2.703 1.238.294-.267-.463 20.466 10.281 12.15 6.29 19.158 9.946 19.5 10.16 1.34.845 1.962 2.034 1.92 3.677-.044 1.854-.884 3.402-2.255 4.17-.797.44-1.725.595-2.713.449l-.534-.079-14.726-7.626c-12.828-6.648-14.772-7.668-15.097-7.915-.774-.583-1.08-1.09-1.078-1.757l.003-.413.408-.786c.372-.703.438-.807.658-1 .49-.419 1.088-.535 1.897-.368.337.073.778.296 10.095 5.132 9.284 4.82 9.753 5.057 9.976 5.07.505.029.945-.212 1.166-.638a1.19 1.19 0 00-.153-1.313c-.17-.208-19.455-10.249-20.037-10.443-2.366-.765-4.369.017-5.63 2.2-.762 1.33-.928 2.513-.523 3.758.305.94.87 1.702 1.85 2.505.344.281 1.08.669 15.27 8.035 14.405 7.478 14.927 7.743 15.338 7.848 1.675.43 3.233.295 4.707-.4.6-.284 1.501-.959 1.93-1.434 1.167-1.318 1.865-3.187 1.882-5.06.011-1.07-.316-2.443-.78-3.273a7.328 7.328 0 00-1.298-1.66l-.407-.38L43.077 23.81C29.13 16.557 23.4 13.594 23.004 13.437c-1.327-.532-2.831-.814-4.016-.756-2.457.12-4.472 1.286-6.156 3.563-.856 1.16-1.588 3.024-1.829 4.642-.494 3.387.882 6.176 4.054 8.208.51.324 7.678 4.045 22.703 11.785z" fill="#2D56B3"/></g><defs><clipPath id="clip0"><path fill="#fff" transform="rotate(-152.566 37.893 22.901)" d="M0 0h68.698v32.713H0z"/></clipPath></defs></svg>