<svg width="109" height="109" fill="none" xmlns="http://www.w3.org/2000/svg"><path d="M57.286 32.548a3.028 3.028 0 00-6.056 0v26.403l17.864 12.11a3.025 3.025 0 004.337-.736 3.027 3.027 0 00-.976-4.29L57.316 55.773l-.03-23.224z" fill="#020206" fill-opacity=".7"/><path d="M100.278 38.786a22.527 22.527 0 01-5.783 1.756 42.54 42.54 0 11-26.04-26.039 22.529 22.529 0 011.757-5.783 48.626 48.626 0 1030.066 30.066z" fill="#020206" fill-opacity=".7"/><path d="M54.502 19.317a35 35 0 00-6.873 69.306l.817-4.754a30.277 30.277 0 1122.375-54.803 22.556 22.556 0 01-2.361-6.752 34.669 34.669 0 00-13.958-2.997z" fill="#020206" fill-opacity=".7"/><path d="M90.834 33.306c8.361 0 15.139-6.778 15.139-15.14 0-8.36-6.778-15.138-15.139-15.138-8.36 0-15.139 6.778-15.139 15.139 0 8.36 6.778 15.139 15.14 15.139z" fill="#2D56B3"/></svg>