<svg width="37" height="32" fill="none" xmlns="http://www.w3.org/2000/svg"><path d="M2 2c.876.354 1.777.563 2.645.897.949.365 1.75.84 2.636 1.304.49.256.97.508 1.462.754.555.278.993.715 1.544 1.004.626.327 1.365 1.196 1.702 1.794.455.809 1.097 1.618 1.415 2.488.588 1.609 1.224 3.248 1.249 4.995.024 1.736.18 3.61-.083 5.327-.25 1.618-.893 3.191-1.675 4.625-.376.69-.69 1.393-1.248 1.951-.538.538-1.238.71-1.905.999-1.143.494-1.553-.88-1.832-1.683-.516-1.485.084-2.84 1.203-3.853 1.025-.927 2.616-1.197 3.917-1.42 1.014-.173 2.017-.352 3.038-.494.468-.065.96-.076 1.415-.208.41-.12.816-.032 1.23-.102.71-.121 1.376-.013 2.081.018.366.017.672.206 1.022.287.33.077.682.073.995.213 1.492.668 3.24 1.005 4.62 1.924 1.515 1.01 2.734 2.454 4.17 3.58.403.314.706.738 1.097 1.072.318.272.653.525.934.837.515.573.879 1.223 1.332 1.827" stroke="#2D56B3" stroke-width="3" stroke-linecap="round"/></svg>