<svg width="134" height="134" fill="none" xmlns="http://www.w3.org/2000/svg"><path d="M112.014 50.25a45.012 45.012 0 00-20.99-38.104 45.016 45.016 0 00-52.288 73.106v40.373a3.139 3.139 0 003 3.137 3.146 3.146 0 001.545-.328l23.716-11.86 23.725 11.86a3.143 3.143 0 004.147-1.28c.261-.467.398-.994.398-1.529V85.247a44.942 44.942 0 0016.747-34.997zm-83.75 0a38.734 38.734 0 1138.734 38.734A38.779 38.779 0 0128.264 50.25zm60.722 70.293L68.4 110.253a3.141 3.141 0 00-2.808 0l-20.576 10.29v-31.03a44.87 44.87 0 0043.968-.004v31.034zM66.998 78.515A28.266 28.266 0 1038.732 50.25a28.298 28.298 0 0028.266 28.266zm0-50.25A21.985 21.985 0 1145.014 50.25a22.009 22.009 0 0121.984-21.985z" fill="#020206" fill-opacity=".7"/><path d="M34.206 31.663c4.528 0 8.198-3.798 8.198-8.482 0-4.684-3.67-8.48-8.198-8.48-4.528 0-8.198 3.796-8.198 8.48 0 4.684 3.67 8.482 8.198 8.482z" fill="#2D56B3"/></svg>