<svg width="739" height="739" fill="none" xmlns="http://www.w3.org/2000/svg"><path d="M664.951 588.968H616v.37h48.951v-.37zm-175.408 4.02h-12.844v.37h12.844v-.37zm124.98-17.736H586.16v.37h28.363v-.37zm-473.151 2.484H77.537v.369h63.835v-.369zm22.523 0h-9.356v.369h9.356v-.369zm168.877 6.237h-138.46v.369h138.46v-.369zm19.583-84.705H66.953a8.442 8.442 0 01-8.44-8.439V89.656a8.44 8.44 0 018.44-8.366h285.402a8.434 8.434 0 015.967 2.472 8.433 8.433 0 012.472 5.967v401.1a8.444 8.444 0 01-2.472 5.968 8.44 8.44 0 01-5.967 2.471zM66.953 81.586a8.084 8.084 0 00-8.07 8.07v401.173a8.085 8.085 0 008.07 8.07h285.402a8.084 8.084 0 008.07-8.07V89.656a8.087 8.087 0 00-8.07-8.07H66.953zm605.093 417.682H386.644a8.441 8.441 0 01-8.439-8.439V89.656a8.44 8.44 0 018.439-8.366h285.402a8.44 8.44 0 018.44 8.44v401.099a8.442 8.442 0 01-8.44 8.439zM386.644 81.586a8.081 8.081 0 00-8.069 8.07v401.173a8.084 8.084 0 008.069 8.07h285.402a8.082 8.082 0 008.07-8.07V89.656a8.083 8.083 0 00-8.07-8.07H386.644zM739 565.187H0v.37h739v-.37z" fill="#EBEBEB"/><path d="M585.732 488.538h37.32a12.13 12.13 0 0012.149-12.134v-54.553a2.217 2.217 0 10-4.434 0v54.553a7.715 7.715 0 01-7.715 7.7h-37.32v4.434z" fill="#E0E0E0"/><path d="M575.061 540.845v-50.814l-2.956-.946a8.059 8.059 0 01-5.646-7.686H594.6a8.059 8.059 0 01-5.646 7.686l-2.956.946v50.814l23.382 10.449v4.434l-28.865-10.08-28.851 10.08v-4.434l23.397-10.449z" fill="#E0E0E0"/><path d="M543.713 484.104h73.619a7.994 7.994 0 007.996-7.981 7.997 7.997 0 00-7.996-7.996h-73.619a7.993 7.993 0 00-7.996 7.996 7.995 7.995 0 007.996 7.981z" fill="#F0F0F0"/><path d="M630.324 441.05l3.976-56.77a7.997 7.997 0 00-7.39-8.528 7.98 7.98 0 00-8.514 7.39l-3.975 56.814a7.977 7.977 0 007.39 8.528 7.996 7.996 0 008.513-7.434z" fill="#EBEBEB"/><path d="M604.34 558.906a5.058 5.058 0 003.124 4.671 5.054 5.054 0 10-3.124-4.671zm-57.731 0a5.056 5.056 0 0010.013.986 5.053 5.053 0 00-8.532-4.56 5.054 5.054 0 00-1.481 3.574zm-398.424-70.368H110.85a12.134 12.134 0 01-12.149-12.134v-54.553a2.218 2.218 0 014.434 0v54.553a7.72 7.72 0 002.265 5.446 7.72 7.72 0 005.45 2.254h37.32l.015 4.434z" fill="#E0E0E0"/><path d="M158.854 540.845v-50.814l2.956-.946a8.059 8.059 0 005.646-7.686h-28.082a8.054 8.054 0 005.646 7.686l2.956.946v50.814l-23.441 10.449v4.434l28.865-10.08 28.866 10.08v-4.434l-23.412-10.449z" fill="#E0E0E0"/><path d="M190.203 484.104h-73.619a7.994 7.994 0 01-7.996-7.981 7.993 7.993 0 017.996-7.996h73.619a7.993 7.993 0 017.996 7.996 7.995 7.995 0 01-7.996 7.981z" fill="#F0F0F0"/><path d="M103.593 441.05l-3.976-56.77a7.995 7.995 0 017.39-8.528 7.98 7.98 0 018.513 7.39l3.976 56.814a7.981 7.981 0 01-7.39 8.528 7.994 7.994 0 01-8.513-7.434z" fill="#EBEBEB"/><path d="M129.576 558.906a5.058 5.058 0 01-3.123 4.671 5.052 5.052 0 01-5.511-1.102 5.059 5.059 0 01-1.086-5.514 5.054 5.054 0 019.72 1.945zm57.731 0a5.058 5.058 0 01-3.124 4.671 5.052 5.052 0 01-5.51-1.102 5.052 5.052 0 01-1.087-5.514 5.05 5.05 0 011.869-2.265 5.055 5.055 0 017.852 4.21z" fill="#E0E0E0"/><path d="M306.788 565.616h-28.836l-2.956-54.657h34.748l-2.956 54.657z" fill="#EBEBEB"/><path d="M284.603 565.616h-11.824v-2.424l11.824-1.478v3.902zm-5.262-59.091h25.954a4.435 4.435 0 014.434 4.434h-34.733a4.432 4.432 0 014.434-4.434h-.089zm-31.687-82.649h-46.129v-5.528l46.129-2.956v8.484z" fill="#E0E0E0"/><path d="M315.893 429.507H179.43v18.889h136.463v-18.889z" fill="#F0F0F0"/><path d="M344.183 423.876H151.629v11.262h192.554v-11.262z" fill="#FAFAFA"/><path d="M326.298 565.616h8.69l-15.046-130.478h-10.198l16.554 130.478zM186.066 435.138h-10.199l-15.06 130.478h8.705l16.554-130.478z" fill="#E6E6E6"/><path d="M294.387 421.067l-11.824-58.735c-.576-2.809-4.847-1.611-4.286 1.167l11.263 55.943h-24.387a2.217 2.217 0 100 4.434h27.091a2.266 2.266 0 002.164-1.804 2.244 2.244 0 00-.021-1.005z" fill="#E0E0E0"/><path d="M266.779 405.312l7.597-108.618a20.172 20.172 0 018.38 17.825l-5.187 74.313a20.198 20.198 0 01-10.79 16.48z" fill="#FAFAFA"/><path d="M325.972 392.306h-12.356a4.286 4.286 0 00-4.286 4.286v22.998a4.286 4.286 0 004.286 4.286h12.356a4.286 4.286 0 004.287-4.286v-22.998a4.286 4.286 0 00-4.287-4.286z" fill="#F5F5F5"/><path d="M317.607 380.541c-3.266 0-5.912.813-5.912 1.818 0 1.005 2.661-.355 5.912-.355h1.257v7.168h1.862v-6.887c1.685.325 2.793.65 2.793 0 0-.961-2.645-1.744-5.912-1.744z" fill="#E0E0E0"/><path d="M323.121 386.896h-6.666v6.666h6.666v-6.666zm94.902 61.5h136.463v-18.889H418.023v18.889z" fill="#F0F0F0"/><path d="M389.749 435.138h192.554v-11.262H389.749v11.262z" fill="#FAFAFA"/><path d="M407.618 565.616h-8.69l15.046-130.478h10.198l-16.554 130.478zm140.247-130.478h10.184l15.06 130.478h-8.705l-16.539-130.478z" fill="#E6E6E6"/><path d="M515.113 423.876h46.129v-5.528l-46.129-2.956v8.484z" fill="#E0E0E0"/><path d="M422.309 324.731v99.145h6.399l1.478-8.868a6.718 6.718 0 012.291-3.983 6.716 6.716 0 014.316-1.575h59.667a6.712 6.712 0 016.606 5.558l1.478 8.868h6.4v-99.145h-88.635z" fill="#F5F5F5"/><path d="M450.981 421.067l11.824-58.735c.577-2.809 4.848-1.611 4.287 1.167l-11.263 55.943h24.387a2.217 2.217 0 110 4.434h-27.092a2.262 2.262 0 01-2.143-2.809z" fill="#E0E0E0"/><path d="M478.592 405.312l-7.597-108.618a20.172 20.172 0 00-8.38 17.825l5.187 74.313a20.172 20.172 0 0010.79 16.48z" fill="#E0E0E0"/><path d="M321.701 218.655H79.561v147.549H321.7V218.655z" fill="#EBEBEB"/><path d="M323.504 218.596h-1.774v147.549h1.774V218.596zm-235.15 6.459H86.89v132.769h1.463V225.055z" fill="#E0E0E0"/><path d="M313.809 225.055H86.744v132.769H313.81V225.055z" fill="#fff"/><path d="M167.176 283.54v6.325h14.75v-6.325h-14.75zm2.883 47.606v4.922h14.75v-4.922h-14.75z" fill="#F5F5F5"/><path d="M172.452 281.47h-47.917v67.338h47.917V281.47z" fill="#F0F0F0"/><path d="M166.748 342.024v4.922h14.75v-4.922h-14.75zm2.453-45.02v4.922h14.751v-4.922h-14.751zm-3.236 12.223v4.922h14.75v-4.922h-14.75z" fill="#F5F5F5"/><path d="M162.845 289.747h-32.663v5.794h32.663v-5.794zm.518 24.757h-32.664l-.517-2.631h32.649l.532 2.631zm-21.594-13.169h-11.587v5.793h11.587v-5.793z" fill="#E6E6E6"/><path d="M240.456 269.306h-18.712v26.87h18.712v-26.87zm-124.063 42.582H97.682v26.87h18.711v-26.87zm2.541-77.211h-18.711v18.711h18.711v-18.711zm88.711 85.783h-18.711v18.711h18.711V320.46zm91.901-48.833h-47.917v67.338h47.917v-67.338z" fill="#F5F5F5"/><path d="M292.614 281.367h-34.423v.739h34.423v-.739z" fill="#E0E0E0"/><path d="M275.764 282.091h-.739v49.868h.739v-49.868zm15.815 0h-.739v49.868h.739v-49.868zm-29.856 0h-.739v49.868h.739v-49.868zm-2.466 0h-.739v49.868h.739v-49.868z" fill="#E0E0E0"/><path d="M290.841 284.722h-31.954v.739h31.954v-.739z" fill="#E0E0E0"/><path d="M362.376 626.243c158.268 0 286.569-7.49 286.569-16.731 0-9.24-128.301-16.731-286.569-16.731-158.268 0-286.57 7.491-286.57 16.731 0 9.241 128.302 16.731 286.57 16.731z" fill="#F5F5F5"/><path d="M406.746 303.094a32.858 32.858 0 01-32.812 32.855h-11.942v31.305h-32.398v12.843a32.854 32.854 0 01-55.833 22.781 32.85 32.85 0 01-9.864-22.781v-12.843h-30.255v-31.305h-13.745a32.856 32.856 0 110-65.711h13.745v-31.304h31.304v13.804a32.876 32.876 0 009.371 23.682 32.86 32.86 0 0046.956 0 32.865 32.865 0 009.371-23.682v-13.745h31.304v31.304h11.986a32.855 32.855 0 0132.812 32.797z" fill="#407BFF"/><path opacity=".5" d="M406.746 303.094a32.858 32.858 0 01-32.812 32.855h-11.942v31.305h-32.398v12.843a32.854 32.854 0 01-55.833 22.781 32.85 32.85 0 01-9.864-22.781v-12.843h-30.255v-31.305h-13.745a32.856 32.856 0 110-65.711h13.745v-31.304h31.304v13.804a32.876 32.876 0 009.371 23.682 32.86 32.86 0 0046.956 0 32.865 32.865 0 009.371-23.682v-13.745h31.304v31.304h11.986a32.855 32.855 0 0132.812 32.797z" fill="#fff"/><path d="M374.052 335.787h-13.745v31.304h128.32v-31.304h11.927a32.86 32.86 0 0023.233-9.623 32.86 32.86 0 000-46.466 32.86 32.86 0 00-23.233-9.623h-11.927v-31.304h-31.304v-13.745a32.857 32.857 0 00-65.712 0v13.745h-31.304v31.304h13.745a32.86 32.86 0 0123.233 9.623 32.86 32.86 0 010 46.466 32.86 32.86 0 01-23.233 9.623z" fill="#407BFF"/><path opacity=".3" d="M374.052 335.787h-13.745v31.304h128.32v-31.304h11.927a32.86 32.86 0 0023.233-9.623 32.86 32.86 0 000-46.466 32.86 32.86 0 00-23.233-9.623h-11.927v-31.304h-31.304v-13.745a32.857 32.857 0 00-65.712 0v13.745h-31.304v31.304h13.745a32.86 32.86 0 0123.233 9.623 32.86 32.86 0 010 46.466 32.86 32.86 0 01-23.233 9.623z" fill="#fff"/><path d="M381.887 224.257l-2.764-.695a41.541 41.541 0 01-8.646-2.793l-.37-.177c-2.719-1.316-6.119-2.956-6.843-8.676a1.553 1.553 0 00-1.315-1.478c-25.333-1.227-34.157-14.633-34.172-29.56 0-14.633 9.622-28.452 36.95-28.777 25.333-.31 38.015 15.283 37.246 31.348-.503 10.258-8.543 24.313-23.84 27.506-1.877.635-5.218.754-6.385 2.439a2.535 2.535 0 000 2.734c.549.84 1.222 1.592 1.995 2.232 2.72 2.335 8.144 5.897 8.144 5.897z" fill="#fff"/><path d="M381.886 224.996h-.178l-2.764-.68a42.68 42.68 0 01-8.794-2.852l-.354-.178c-2.735-1.315-6.489-3.118-7.257-9.252 0-.133-.133-.857-.636-.887-30.314-1.478-34.851-19.583-34.866-30.24 0-8.735 3.651-29.102 37.689-29.56 16.066-.162 25.126 5.735 29.974 10.76a28.537 28.537 0 018.025 21.372 31.323 31.323 0 01-7.531 18.114 31.324 31.324 0 01-16.826 10.086c-.619.2-1.251.358-1.892.473-1.581.325-3.37.695-4.035 1.67a1.78 1.78 0 000 1.907 9.435 9.435 0 001.848 2.069c2.645 2.276 8.011 5.794 8.07 5.838a.728.728 0 01.266.902.745.745 0 01-.739.458zm-16.391-72.171h-.754c-32.723.399-36.241 19.732-36.226 28.082 0 10.139 4.36 27.358 33.462 28.762a2.265 2.265 0 012.025 2.188c.68 5.32 3.724 6.798 6.429 8.099l.37.177a35.94 35.94 0 007.271 2.439c-1.64-1.138-3.517-2.513-4.803-3.621a10.56 10.56 0 01-2.128-2.409 3.191 3.191 0 010-3.533c.99-1.478 3.089-1.891 4.951-2.276.665-.148 1.315-.281 1.803-.443A29.849 29.849 0 00394 200.727a29.854 29.854 0 007.233-17.278 27.04 27.04 0 00-7.612-20.278c-4.552-4.759-13.125-10.346-28.126-10.346z" fill="#407BFF"/><path d="M351.765 218.049c1.759-1.995 2.586-3.99 2.143-5.823-.917-3.858-4.331-3.798-6.533-4.537-15.297-3.208-23.338-14.293-23.84-24.55-.769-16.066 11.913-31.674 37.245-31.363 27.343.34 36.95 14.159 36.95 28.776 0 14.884-8.868 28.289-34.171 29.56-.842 0-1.227.813-1.33 1.478-.71 5.72-4.109 7.39-6.828 8.676l-.37.178a42.424 42.424 0 01-8.646 2.793l-2.764.68s5.735-3.178 8.144-5.868z" fill="#fff"/><path d="M343.576 224.656a.74.74 0 01-.694-.458.742.742 0 01.325-.916s5.705-3.178 7.951-5.735c1.671-1.922 2.336-3.651 1.981-5.158-.636-2.676-2.572-3.134-4.611-3.621-.503-.119-1.005-.237-1.478-.385-16.111-3.37-23.855-15.105-24.343-25.214a28.576 28.576 0 018.026-21.387c4.847-5.01 13.908-10.967 29.973-10.76 33.994.429 37.704 20.781 37.689 29.56 0 10.656-4.552 28.777-34.866 30.24-.502 0-.62.739-.635.887-.769 6.119-4.523 7.937-7.257 9.252l-.355.177a43.538 43.538 0 01-8.868 2.853l-2.779.68-.059-.015zm16.391-72.156c-15.016 0-23.648 5.587-28.082 10.346a27.044 27.044 0 00-7.611 20.278c.458 9.548 7.833 20.692 23.249 23.855.487.163.946.266 1.478.384 2.039.488 4.847 1.153 5.69 4.7.473 2.011-.296 4.183-2.306 6.489a24.295 24.295 0 01-4.316 3.562 35.286 35.286 0 006.711-2.306l.369-.177c2.69-1.301 5.75-2.779 6.429-8.1a2.233 2.233 0 012.025-2.187c29.087-1.404 33.447-18.623 33.462-28.777 0-8.291-3.503-27.624-36.24-28.082l-.858.015z" fill="#407BFF"/><path d="M352.34 182.016l6.444 6.444 14.558-11.795" fill="#fff"/><path d="M358.785 189.938a1.472 1.472 0 01-1.049-.429l-6.444-6.444a1.474 1.474 0 01.422-2.499 1.482 1.482 0 011.662.415l5.513 5.498 13.524-10.952a1.466 1.466 0 011.103-.374 1.48 1.48 0 011.158 2.224 1.477 1.477 0 01-.399.441l-14.558 11.824a1.475 1.475 0 01-.932.296zm188.251-42.981a1.872 1.872 0 002.158-.665l11.203-15.637a1.832 1.832 0 00-.428-2.586 1.86 1.86 0 00-2.587.428l-11.203 15.637a1.846 1.846 0 00-.33 1.384 1.841 1.841 0 00.759 1.203c.131.099.275.178.428.236zm13.244 20.589c.302.111.628.141.946.089l18.578-3.075a1.86 1.86 0 00.704-3.285 1.86 1.86 0 00-1.31-.38l-18.578 3.074a1.858 1.858 0 00-1.535 1.659 1.86 1.86 0 001.195 1.918zm-57.08-12.933a1.86 1.86 0 002.436-2.165 1.868 1.868 0 00-.707-1.086l-16.11-11.543a1.848 1.848 0 00-2.158 2.956l16.11 11.543c.127.119.272.219.429.295zm66.775 47.873a1.867 1.867 0 002.29-.866 1.866 1.866 0 00-.546-2.386l-15.149-10.863a1.854 1.854 0 00-2.071-.068 1.864 1.864 0 00-.102 3.098l15.15 10.848c.133.096.276.175.428.237zm-46.542-60.598a1.867 1.867 0 001.826-.308 1.866 1.866 0 00.657-1.732l-3.207-19.376a1.873 1.873 0 00-.717-1.302 1.862 1.862 0 00-2.949 1.908l3.208 19.332a1.843 1.843 0 001.182 1.478z" fill="#407BFF"/><path opacity=".5" d="M547.036 146.957a1.872 1.872 0 002.158-.665l11.203-15.637a1.832 1.832 0 00-.428-2.586 1.86 1.86 0 00-2.587.428l-11.203 15.637a1.846 1.846 0 00-.33 1.384 1.841 1.841 0 00.759 1.203c.131.099.275.178.428.236zm13.244 20.589c.302.111.628.141.946.089l18.578-3.075a1.86 1.86 0 00.704-3.285 1.86 1.86 0 00-1.31-.38l-18.578 3.074a1.858 1.858 0 00-1.535 1.659 1.86 1.86 0 001.195 1.918zm-57.08-12.933a1.86 1.86 0 002.436-2.165 1.868 1.868 0 00-.707-1.086l-16.11-11.543a1.848 1.848 0 00-2.158 2.956l16.11 11.543c.127.119.272.219.429.295zm66.775 47.873a1.867 1.867 0 002.29-.866 1.866 1.866 0 00-.546-2.386l-15.149-10.863a1.854 1.854 0 00-2.071-.068 1.864 1.864 0 00-.102 3.098l15.15 10.848c.133.096.276.175.428.237zm-46.542-60.598a1.867 1.867 0 001.826-.308 1.866 1.866 0 00.657-1.732l-3.207-19.376a1.873 1.873 0 00-.717-1.302 1.862 1.862 0 00-2.949 1.908l3.208 19.332a1.843 1.843 0 001.182 1.478z" fill="#fff"/><path d="M507.293 159.905a25.126 25.126 0 0140.645 29.427c-5.912 8.144-16.361 8.956-25.126 12.445-2.719 1.078-7.981 8.646-7.981 8.646l-17.233-12.489s5.542-7.39 5.72-10.272c.576-9.415-1.922-19.613 3.975-27.757z" fill="#407BFF"/><path opacity=".4" d="M507.293 159.905a25.126 25.126 0 0140.645 29.427c-5.912 8.144-16.361 8.956-25.126 12.445-2.719 1.078-7.981 8.646-7.981 8.646l-17.233-12.489s5.542-7.39 5.72-10.272c.576-9.415-1.922-19.613 3.975-27.757z" fill="#fff"/><path d="M498.087 207.615l7.39 5.32a6.106 6.106 0 008.528-1.359l-17.248-12.475a6.12 6.12 0 001.33 8.514zm-.001 7.848a4.98 4.98 0 006.946-1.109l-8.055-5.838a4.983 4.983 0 001.109 6.947z" fill="#263238"/><path opacity=".5" d="M498.086 215.463a4.98 4.98 0 006.946-1.109l-8.055-5.838a4.983 4.983 0 001.109 6.947z" fill="#fff"/><path opacity=".7" d="M498.087 207.615l7.39 5.32a6.106 6.106 0 008.528-1.359l-17.248-12.475a6.12 6.12 0 001.33 8.514z" fill="#fff"/><path opacity=".3" d="M512.423 157.865c-9.208 12.844-11.588 33.152-1.671 40.246 9.918 7.095 29.56-3.399 37.571-14.514 4.907-6.843.857-18.164-9.06-25.259-9.917-7.094-21.963-7.316-26.84-.473z" fill="#fff"/><path opacity=".4" d="M509.777 174.892a14.23 14.23 0 00-.533 15.809 14.232 14.232 0 0025.414-12.518 14.234 14.234 0 00-24.881-3.291z" fill="#fff"/><path opacity=".4" d="M511.224 180.316c-3.222 4.434-.561 8.454 3.932 11.676 4.493 3.222 9.089 4.434 12.311 0 3.223-4.434.503-8.395-3.975-11.617-4.479-3.222-9.061-4.493-12.268-.059z" fill="#fff"/><path d="M157.645 211.724l5.04 4.197 29.146-24.904 37.216 7.523 28.363-26.752 2.542 3.488 6.725-15.164-16.495 1.759 2.542 3.488-24.889 27.564-37.261-7.242-32.929 26.043z" fill="#407BFF"/><path opacity=".3" d="M157.645 211.724l5.04 4.197 29.146-24.904 37.216 7.523 28.363-26.752 2.542 3.488 6.725-15.164-16.495 1.759 2.542 3.488-24.889 27.564-37.261-7.242-32.929 26.043z" fill="#fff"/><path d="M433.202 429.684c.857 13.391-2.454 30.624-5.617 43.468-2.616 10.612-4.434 13.539-5.128 18.239-.754 5.35.872 13.302.458 20.027-1.582 26.604-12.401 80.403-12.401 80.403l-9.075-.577.237-104.154 5.912-100.918 35.812 9.548c3.577 19.598-10.198 33.964-10.198 33.964z" fill="#DD8C6A"/><path d="M479.285 593.668l-8.247-.236-22.894-101.687-23.146-98.39 37.113-1.109c8.868 17.736-.133 35.472-.133 35.472 4.626 12.608 6.385 30.063 7.02 43.291.532 10.908-.428 14.248.281 18.933.828 5.35 3.429 12.46 4.981 19.066 6.089 26.22 5.025 84.66 5.025 84.66zm-120.87-291.284l4.316 5.675c4.301 1.331 4.212 7.73 4.212 7.73.932.725 9.681 6.252 11.721 8.041l-5.158 5.557c-2.232-3.414-9.992-9.193-9.992-9.193s-10.553-6.459-12.282-8.765c-1.729-2.305 1.153-9.163 1.153-9.163l6.03.118z" fill="#DD8C6A"/><path d="M370.357 316.366c7.079 5.158 17.529 13.065 17.529 13.065a247.523 247.523 0 0117.588-17.573 49.764 49.764 0 0112.932-8.868l-1.817 21.268c-5.602 4.819-23.161 19.392-30.019 18.801-5.66-.488-16.169-12.623-22.17-20.131l5.957-6.562z" fill="#263238"/><path opacity=".2" d="M399.283 337.442c3.74-6.311 13.997-22.879 13.997-22.879l2.453 5.572-1.655 6.119c-2.601 2.187-11.041 8.454-14.795 11.188z" fill="#000"/><path d="M466.621 313.75a441.276 441.276 0 01-8.366 57.938s21.653 17.736 14.633 90.586c0 0-21.904 9.696-73.605-1.833l9.829-89.079s-2.276-57.893 3.872-64.352c5.439-5.734 29.161-13.302 47.296-4.315a11.42 11.42 0 016.341 11.055z" fill="#407BFF"/><path opacity=".4" d="M466.621 313.75a441.276 441.276 0 01-8.366 57.938s21.653 17.736 14.633 90.586c0 0-21.904 9.696-73.605-1.833l9.829-89.079s-2.276-57.893 3.872-64.352c5.439-5.734 29.161-13.302 47.296-4.315a11.42 11.42 0 016.341 11.055z" fill="#000"/><path opacity=".3" d="M441.45 369.737s-15.859 2.749-27.003 0v6.798s8.292 1.198 27.003 0v-6.798z" fill="#000"/><path d="M450.673 277.864c-2.099 5.912-4.833 16.48-2.587 22.554a3.309 3.309 0 01-1.286 3.947c-4.567 3.295-12.001 5.912-17.588 5.365-7.168-.784-5.306-5.912-3.473-8.647.488-.739 1.256-1.788 2.128-1.951 7.05-1.197 8.395-6.488 7.848-11.824l14.958-9.444z" fill="#DD8C6A"/><path opacity=".3" d="M444.583 281.721l-8.868 5.543a21.87 21.87 0 010 3.931 10.899 10.899 0 008.868-5.04c1.034-1.877.724-4.094 0-4.434z" fill="#000"/><path d="M427.394 280.894l-4.005 7.198c1.241.103 2.364.517 3.606.62.621-.975 1.36-1.936 1.98-2.956-.236 1.005-1.049 2.084-1.3 3.075a38.58 38.58 0 006.68.635 2.55 2.55 0 00-.162-2.025 12.408 12.408 0 00-5.912-6.119l-.887-.428z" fill="#263238"/><path d="M453.466 268.153c-2.586 9.208-3.636 14.78-9.385 18.505-8.646 5.676-19.214-1.109-19.465-10.893-.193-8.868 4.079-22.406 14.011-24.136a13.047 13.047 0 019.729 2.134 13.047 13.047 0 015.391 8.375c.367 2 .271 4.058-.281 6.015z" fill="#DD8C6A"/><path d="M431.871 268.154a22.799 22.799 0 01-3.99 4.685 3.691 3.691 0 002.838 1.138l1.152-5.823z" fill="#FF5652"/><path d="M441.997 264.769a.553.553 0 00.222 0 .475.475 0 00.221-.606 4.572 4.572 0 00-3.237-2.631.457.457 0 00-.431.722.46.46 0 00.298.18 3.663 3.663 0 012.543 2.113.444.444 0 00.384.222zm-14.53-4.345a.434.434 0 00.443 0 3.584 3.584 0 013.267-.252.456.456 0 00.606-.207.45.45 0 00.032-.343.444.444 0 00-.224-.263 4.576 4.576 0 00-4.168.266.442.442 0 00-.178.606c.055.083.132.15.222.193z" fill="#263238"/><path d="M447.745 297.403l-10.346 8.011a3.614 3.614 0 01-3.153.642 3.612 3.612 0 01-2.419-2.12l-2.35-5.38-2.749.709a1.727 1.727 0 00-1.286 1.301c-.547 2.527-2.557 8.705-2.439 14.248 0 0 6.341-8.484 9.917-2.38 0 0 4.671-5.513 8.44 4.02a80.073 80.073 0 006.385-10.922c1.936-4.523 3.237-6.976 3.237-6.976l-3.237-1.153z" fill="#fff"/><path d="M448.987 297.861a410.183 410.183 0 00-9.237 59.475c-2.084 29.974-2.513 39.034 9.341 37.733 11.854-1.3 21.564-2.793 19.835-7.109-1.73-4.316-8.188-14.026-7.789-18.977.399-4.952 4.522-43.542 4.995-49.38.473-5.838 3.991-18.091-17.145-21.742z" fill="#263238"/><path d="M451.011 379.491c-.147-.798 2.69-3.68 5.912-5.69a34.778 34.778 0 016.799-3.119s6.622-7.789 8.454-9.902l5.114 4.434a132.52 132.52 0 00-9.503 9.695l-2.749 5.809a10.17 10.17 0 01-3.858 3.281 30.232 30.232 0 01-5.395 1.907 1.728 1.728 0 01-1.906-.754 21.199 21.199 0 01-2.868-5.661z" fill="#DD8C6A"/><path d="M428.192 298.866s-9.711 18.269-10.346 48.774c-.636 30.506.694 46.676-4.952 47.607-5.646.931-6.902-2.956-6.902-2.956s1.67-16.554 1.67-20.589-1.773-28.466 0-45.921c1.774-17.455 0-16.391 2.956-18.342 2.956-1.951 9.652-6.962 17.574-8.573z" fill="#263238"/><path opacity=".2" d="M462.835 352.488l-5.823-33.417s4.803 4.892 8.365 8.646c-.68 6.828-1.685 16.465-2.542 24.771z" fill="#000"/><path d="M460.191 301.689s-3.946 10.066-3.178 17.382c.325 3.104 22.377 26.752 22.377 26.752l-16.627 22.051 8.572 7.39s23.648-23.411 23.84-29.752c.192-6.34-26.101-41.147-34.984-43.823zm-21.549-34.629c-.148.768-.68 1.3-1.182 1.212-.503-.089-.799-.798-.636-1.582.163-.783.68-1.3 1.182-1.212.503.089.784.799.636 1.582zm-8.707-1.715c-.147.769-.679 1.316-1.182 1.212-.503-.103-.783-.798-.636-1.566.148-.769.68-1.316 1.183-1.212.502.103.798.783.635 1.566z" fill="#263238"/><path d="M429.508 263.853l-1.744-.887s.68 1.596 1.744.887zm8.705 1.714l-1.744-.887s.68 1.626 1.744.887zm-4.965 12.696a9.35 9.35 0 01-1.478 0 .239.239 0 01-.237-.266.251.251 0 01.251-.236 6.865 6.865 0 005.705-2.262.249.249 0 01.178-.08.232.232 0 01.177.08.251.251 0 010 .355 7.079 7.079 0 01-4.596 2.409zm14.719-28.112a53.37 53.37 0 01-1.803 39.714c1.286-.384 2.66-.68 3.932-1.049.62-1.641 1.108-3.326 1.729-4.951-.207 1.478-.606 3.31-.813 4.862l3.473-.635c.606-1.582 1.109-3.355 1.715-4.937-.266 1.404-.562 3.37-.843 4.774a19.375 19.375 0 007.967-11.661 23.918 23.918 0 00-1.951-15.564c-2.868-5.01-7.878-7.065-13.406-10.553z" fill="#263238"/><path d="M456.702 275.691a9.177 9.177 0 01-4.434 5.38c-2.823 1.478-4.907-.857-4.685-3.872.177-2.705 1.877-6.755 4.98-7.021a4.087 4.087 0 013.587 1.618 4.086 4.086 0 01.552 3.895z" fill="#DD8C6A"/><path d="M428.251 321.968a2.955 2.955 0 01-1.301-.311 3.296 3.296 0 01-1.773-2.379 4.437 4.437 0 012.246-4.316 11.83 11.83 0 014.316-1.478h1.375a.752.752 0 01.709.754.74.74 0 01-.724.724c-.724 0-1.596 1.478-1.774 2.675v.177a4.706 4.706 0 01-1.877 3.769c-.36.228-.772.36-1.197.385zm2.468-6.711a7.509 7.509 0 00-2.498.946 3.167 3.167 0 00-1.596 2.853 1.813 1.813 0 00.99 1.271 1.15 1.15 0 001.094 0c.769-.399.946-1.567 1.123-2.69v-.177c.15-.785.451-1.533.887-2.203z" fill="#fff"/><path d="M437.281 322.455c-.5.001-.989-.148-1.404-.428a4.626 4.626 0 01-1.478-3.947v-.177c0-1.168-.768-2.749-1.478-2.853a.72.72 0 01-.635-.798.725.725 0 01.768-.665h1.375a12.079 12.079 0 014.153 1.892 4.436 4.436 0 011.759 4.523 3.22 3.22 0 01-2.025 2.172 2.828 2.828 0 01-1.035.281zm-2.01-6.961c.351.732.556 1.525.606 2.335v.192c0 1.123.118 2.291.828 2.794a1.215 1.215 0 001.093.074 1.84 1.84 0 001.124-1.168 3.118 3.118 0 00-1.271-2.956 8.08 8.08 0 00-2.38-1.271zm-6.65 14.455a.63.63 0 01-.237 0 .74.74 0 01-.473-.931 69.076 69.076 0 002.956-14.056.739.739 0 01.813-.665.742.742 0 01.665.813 71.296 71.296 0 01-2.956 14.366.738.738 0 01-.768.473z" fill="#fff"/><path d="M434.532 333.629a.737.737 0 01-.68-.458 14.365 14.365 0 01-.961-4.641 28.801 28.801 0 01.399-4.818c.118-.799.237-1.597.311-2.395a9.705 9.705 0 00-1.139-6.429.742.742 0 01.755-1.14.725.725 0 01.472.312 11.057 11.057 0 011.375 7.39 44.225 44.225 0 01-.311 2.468 27.028 27.028 0 00-.384 4.553c.054 1.422.344 2.826.857 4.153a.754.754 0 01-.413.961.869.869 0 01-.281.044z" fill="#fff"/><path d="M447.258 267.104c-.798-.724-1.921-1.626-2.719-2.365.378-1.606.507-3.261.384-4.907-.369 1.301-.487 2.631-.857 3.932l-2.72-1.803a4.096 4.096 0 00-2.276-.917c.148-1.345.207-2.719.37-4.064-.31 1.197-.665 2.527-.961 3.724-1.064-.147-2.291-.399-3.34-.546.118-1.478.296-2.838.429-4.272-.459 1.123-.784 3.045-1.242 4.168l-.31-.429a25.309 25.309 0 00-9.253-.517c-1.034-4.064.207-9.814 4.198-11.129 13.524-4.508 24.594 6.045 24.904 6.917 2.025 5.572-1.714 9.267-6.607 12.208z" fill="#263238"/><path d="M452.269 278.455a1.282 1.282 0 01-.794 1.188 1.287 1.287 0 01-1.68-1.68 1.287 1.287 0 012.474.492z" fill="#407BFF"/><path d="M398.351 589.397c-7.139 3.916-7.937 3.99-15.815 5.483-1.729.325-1.123 4.434 2.956 4.523 6.666.207 6.104 0 11.824.118 4.848.118 10.686.532 14.544.695h.133a1.598 1.598 0 001.478-1.7l-.843-8.779a.8.8 0 00-.753-.695l-10.997-.31a4.884 4.884 0 00-2.527.665z" fill="#263238"/><path d="M398.395 590.062a.235.235 0 000-.237.223.223 0 00-.251 0c-.473.163-4.582 1.789-4.892 3.104a.784.784 0 00.192.71 1.355 1.355 0 001.138.428c1.478-.162 3.03-2.512 3.843-3.902l-.03-.103zm-4.714 2.823c.295-.724 2.35-1.759 3.931-2.439-1.168 1.862-2.335 2.956-3.133 3.089a.792.792 0 01-.739-.295.255.255 0 01-.089-.266l.03-.089z" fill="#407BFF"/><path d="M398.396 590.062a.206.206 0 00-.088-.222 6.608 6.608 0 00-3.828-1.404 1.692 1.692 0 00-1.168.695c-.37.517-.266.872-.089 1.079.724.901 3.858.546 5.04 0a.216.216 0 00.086-.057.209.209 0 00.047-.091zm-4.818-.488l.163-.177a1.228 1.228 0 01.842-.518 5.54 5.54 0 013.133 1.065c-1.359.413-3.665.487-4.094 0 0 0-.103-.119 0-.296l-.044-.074z" fill="#407BFF"/><path d="M467.211 590.091a34.33 34.33 0 01-13.834 6.844c-2.099.591-.783 4.434 4.242 4.434 8.321-.133 5.01-.266 12.12-.429 6.074-.118 7.685-.163 12.503-.192h.163a1.82 1.82 0 001.774-1.922l-1.611-9.429a.93.93 0 00-.976-.71l-12.696.34c-1.108-.133-.828.458-1.685 1.064z" fill="#263238"/><path d="M467.151 590.831a.22.22 0 000-.266.283.283 0 00-.236-.178c-.636 0-6.149.178-7.021 1.478a.726.726 0 000 .784 1.685 1.685 0 001.168.842c1.744.355 4.582-1.478 6.148-2.616l-.059-.044zm-6.739 1.182c.635-.65 3.488-.975 5.631-1.079-2.158 1.478-4.006 2.202-4.966 2.04a1.04 1.04 0 01-.754-.562.268.268 0 010-.31l.089-.089z" fill="#407BFF"/><path d="M467.152 590.83a.215.215 0 00.039-.125.218.218 0 00-.039-.126c-.103-.074-1.95-2.483-3.931-2.793a2.362 2.362 0 00-1.655.295c-.665.399-.68.798-.562 1.065.473 1.152 4.316 1.936 5.912 1.832a.302.302 0 00.236-.148zm-5.483-2.231l.192-.192a1.723 1.723 0 011.212-.207 6.708 6.708 0 013.252 2.187c-1.789-.074-4.523-.798-4.804-1.478 0 0 0-.163.192-.325l-.044.015z" fill="#407BFF"/><path d="M337.102 356.627c-2.084 4.108 4.847 9.148 4.847 9.148l3.282 3.355a3.221 3.221 0 004.286.414l3.237-2.305.103-.074a3.221 3.221 0 00.665-4.434l-2.172-2.956a10.467 10.467 0 00-3.311-2.956l-6.223-3.577-4.714 3.385z" fill="#FFC3BD"/><path d="M310.07 266.602a9.699 9.699 0 019.057-5.693 9.696 9.696 0 018.783 6.106l.207.518a27.339 27.339 0 011.478 11.277c-.089 3.769-.207 7.597-.148 11.247.059 3.651 0 16.835.118 20.412.118 3.31 6.814 18.282 13.302 39.906.132.415.295.82.488 1.212l1.197 2.379s-1.788 1.138-3.621 2.232a21.018 21.018 0 01-4.833 2.719 10.688 10.688 0 01-2.35-3.074c-5.173-8.158-22.067-38.428-22.953-42.862-.872-4.109-1.478-17.736-1.863-21.874-.384-4.139-.68-8.174-.798-12.253a36.984 36.984 0 01.237-6.134 21.651 21.651 0 011.699-6.133v.015z" fill="#263238"/><path opacity=".3" d="M310.07 266.602a9.699 9.699 0 019.057-5.693 9.696 9.696 0 018.783 6.106l.207.518a27.339 27.339 0 011.478 11.277c-.089 3.769-.207 7.597-.148 11.247.059 3.651 0 16.835.118 20.412.118 3.31 6.814 18.282 13.302 39.906.132.415.295.82.488 1.212l1.197 2.379s-1.788 1.138-3.621 2.232a21.018 21.018 0 01-4.833 2.719 10.688 10.688 0 01-2.35-3.074c-5.173-8.158-22.067-38.428-22.953-42.862-.872-4.109-1.478-17.736-1.863-21.874-.384-4.139-.68-8.174-.798-12.253a36.984 36.984 0 01.237-6.134 21.651 21.651 0 011.699-6.133v.015z" fill="#000"/><path d="M256.995 271.701c2.528 29.116 12.194 45.522 10.893 68.786 0 0 52.469 1.034 54.272 1.034.769-42.862 6.888-39.595 5.011-66.731.325-8.868-4.745-14.411-9.873-15.298l-22.348-4.626-28.806 4.951a11.06 11.06 0 00-9.149 11.884z" fill="#407BFF"/><path d="M298.201 538.288L305 592.013l13.243-.946-3.577-52.779h-16.465z" fill="#FFC3BD"/><path d="M321.467 481.399c1.197 50.666-1.73 94.09-1.73 94.09l-17.869 1.212s-10.065-65.742-6-92.597c-.193-5.646-6.725-76.25-8.972-89.596-4.064-23.959-8.41-40.394-8.41-40.394l42.049-2.35s.193 97.74.932 129.635z" fill="#407BFF"/><path opacity=".2" d="M297.477 372.53s-1.36 55.499-3.784 85.931c-1.256-16.45-4.552-50.607-6.798-63.953l10.582-21.978z" fill="#000"/><path d="M242.259 539.278l-5.454 50.917 13.198-1.434 9.578-50.119-17.322.636z" fill="#FFC3BD"/><path d="M235.15 575.312l20.264-.739s17.263-62.209 24.549-95.08c7.065-36.64 20.249-128.084 20.249-128.084l-33.684-2.601c-17.943 32.413-11.484 110.008-14.661 131.734-15.224 27.151-16.717 94.77-16.717 94.77z" fill="#407BFF"/><path d="M320.195 335.506h-49.321s-8.1 28.54-8.026 28.259c.074-.28 57.879 2.779 57.879 2.779l-.532-31.038z" fill="#407BFF"/><path d="M320.727 586.766c8.749 4.434 9.71 4.523 19.214 6.03 2.098.34 1.478 5.306-3.355 5.572-8.026.488-7.39.163-14.204.547-5.838.325-14.292 1.02-18.948 1.36h-.148a1.93 1.93 0 01-1.352-.609 1.935 1.935 0 01-.525-1.386l.71-10.627a.94.94 0 01.886-.857l14.677-.754a5.526 5.526 0 013.045.724z" fill="#263238"/><path d="M320.726 587.535c1.034 1.655 3.044 4.434 4.774 4.567a1.594 1.594 0 001.359-.562.901.901 0 00.207-.857c-.428-1.582-5.439-3.385-6-3.562a.296.296 0 00-.174-.014.298.298 0 00-.151.088.304.304 0 000 .295l-.015.045zm5.808 3.296a.343.343 0 01-.088.325.95.95 0 01-.887.369c-.976-.074-2.409-1.478-3.902-3.606 1.951.754 4.434 1.936 4.848 2.793l.029.119z" fill="#407BFF"/><path d="M320.728 587.653c1.478.591 5.246.901 6.089-.207.192-.251.325-.695-.148-1.301a2.151 2.151 0 00-1.478-.798c-1.936-.236-4.434 1.744-4.567 1.818a.333.333 0 00-.103.266c0 .057.021.111.059.152a.225.225 0 00.148.07zm5.646-.902a.33.33 0 010 .37c-.503.65-3.282.65-4.937.192a6.737 6.737 0 013.739-1.389 1.486 1.486 0 011.035.591l.207.207-.044.029z" fill="#407BFF"/><path d="M253.256 586.219c3.577 3.134 8.705 6.001 16.716 8.248 2.528.709.931 5.409-5.128 5.276-10.036-.148-6.046-.325-14.618-.503-7.39-.147-9.267-.206-15.09-.251h-.133a2.173 2.173 0 01-2.143-2.305l1.936-11.381a1.134 1.134 0 011.197-.857l15.312.414c1.271-.089.946.62 1.951 1.359z" fill="#263238"/><path d="M253.301 587.15c1.877 1.375 5.291 3.562 7.39 3.148a1.967 1.967 0 001.478-1.019.85.85 0 000-.946c-1.05-1.552-7.715-1.759-8.469-1.759a.295.295 0 00-.296.222.247.247 0 00-.053.155c0 .056.018.111.053.155l-.103.044zm8.277 1.478a.318.318 0 01.061.185.315.315 0 01-.061.185 1.306 1.306 0 01-.917.68c-1.153.192-3.399-.695-6-2.469 2.586.133 6.03.532 6.798 1.316l.119.103z" fill="#407BFF"/><path d="M253.567 587.224c1.951.133 6.592-.813 7.153-2.202.163-.325.133-.813-.665-1.286a2.953 2.953 0 00-1.995-.369c-2.394.384-4.626 3.281-4.744 3.384a.247.247 0 00-.048.148c0 .053.016.105.048.148a.407.407 0 00.251.177zm6.341-2.852c.206.207.147.34.236.399-.34.827-3.636 1.699-5.794 1.803a8.07 8.07 0 013.917-2.646 2.036 2.036 0 011.478.252l.236.236-.073-.044z" fill="#407BFF"/><path opacity=".8" d="M256.996 271.701c2.528 29.116 12.194 45.522 10.893 68.786 0 0 52.469 1.034 54.272 1.034.769-42.862 6.888-39.595 5.011-66.731.325-8.868-4.981-14.47-10.11-15.357l-22.17-4.567-28.806 4.951a11.055 11.055 0 00-9.09 11.884z" fill="#fff"/><path d="M311.49 315.021l-5.912 10.523-10.701-11.395c0-.281 4.582-48.109 4.582-48.109l2.764-.207c-.266 5.809 9.267 49.188 9.267 49.188z" fill="#407BFF"/><path d="M309.717 264.015a137.55 137.55 0 01-6.119 60.716l4.434 47.799c.872 6.932 5.32 8.292 9.296 8.661l8.159-.65-2.956-45.611s6.666-50.252 5.129-61.633c-1.02-7.508-3.503-10.435-5.277-11.957a5.91 5.91 0 00-2.646-1.271c-3.103-.65-12.237-3.119-11.824-2.956.414.162 1.804 6.902 1.804 6.902z" fill="#263238"/><path d="M305.386 243.072c-1.124 5.335-2.853 12.607 2.956 15.09 2.527 1.094 3.724 4.641 1.3 5.779-2.424 1.138-18.12 0-19.495-.65-3.399-1.744-5.793-2.956-3.961-6.356 3.193-5.808 1.168-17.957.739-23.795l18.461 9.932z" fill="#FFC3BD"/><path d="M303.789 263.38l-.724 2.29c-.051.264-.18.506-.37.695-.189.19-.431.319-.694.37l-2.764.207a1.051 1.051 0 01-1.005-.725l-1.345-2.039 3.443-2.025 3.459 1.227z" fill="#407BFF"/><path opacity=".2" d="M290.59 241.579a18.453 18.453 0 003.547 5.557c2.143 2.454 6.178 3.533 10.08 3.533a39.374 39.374 0 011.153-7.656l-.813-.429-13.967-1.005z" fill="#000"/><path d="M283.776 381.014c13.302.901 16.997-.473 18.845-10.849 0 0 3.517-37.201 2.823-45.434 0 0-8.868-17.292-10.612-29.308-1.892-13.435-10.139-40.335-12.519-40.158-4.567.311-21.608 6.282-24.372 9.932-3.666 4.863-1.286 10.479-.414 16.51 2.779 19.317 4.863 25.968 5.912 45.448 0 0-8.868 50.252-7.508 50.43 1.034.103 17.233 2.704 27.845 3.429z" fill="#263238"/><path opacity=".2" d="M267.889 340.487h22.702v1.02a5.44 5.44 0 01-5.439 5.439h-11.824a5.438 5.438 0 01-5.439-5.439v-1.02zm55.159 6.71h-3.193a5.466 5.466 0 01-5.675-5.217v-1.006l8.779-.369.089 6.592z" fill="#fff"/><path d="M314.328 235.593c-1.478 10.568-13.731 16.657-22.333 9.533-4.981-4.109-5.912-9.222-7.212-17.218-.193-1.212-.385-2.483-.606-3.843a14.285 14.285 0 01.354-6.326 12.9 12.9 0 01.961-2.483 14.262 14.262 0 0116.701-7.39c10.539 3.074 13.45 18.268 12.135 27.727z" fill="#FFC3BD"/><path d="M289.023 216.113a44.103 44.103 0 013.621 7.39 9.798 9.798 0 00-2.69 1.05c-.768.487 0 2.793.4 3.65a41.892 41.892 0 002.497 5.026 18.788 18.788 0 01-4.271 1.241 7.665 7.665 0 00-1.921-2.956 3.932 3.932 0 00-4.242-1.256c-.266-1.316-7.996-7.257-1.552-11.233a13.717 13.717 0 013.089-1.848l1.478-.546a10.802 10.802 0 013.591-.518z" fill="#263238"/><path d="M282.772 227.612c3.296-.754 6.356 2.867 7.39 5.616 1.212 3.045-.236 6.164-3.636 5.558a9.751 9.751 0 01-6.266-4.139 4.427 4.427 0 01-.67-4.205 4.444 4.444 0 013.182-2.83z" fill="#FFC3BD"/><path d="M302.548 223.178c.547 0 1.064.576 1.153 1.478.088.902-.222 1.567-.843 1.626-.621.059-1.123-.577-1.212-1.478-.089-.902.355-1.508.902-1.626zm9.473-.621c.547 0 1.064.577 1.153 1.478.089.902-.281 1.567-.842 1.626-.562.059-1.065-.577-1.153-1.404-.089-.828.295-1.626.842-1.7z" fill="#263238"/><path d="M309.627 233.095a4.83 4.83 0 003.799-1.611 29.644 29.644 0 01-5.395-6.222l1.596 7.833z" fill="#F98C8C"/><path d="M300.286 221.789a3.968 3.968 0 012.956-1.996h.162a.498.498 0 00.208-.897.52.52 0 00-.37-.093 4.951 4.951 0 00-3.814 2.439.521.521 0 00.163.68.508.508 0 00.251 0 .623.623 0 00.444-.133zm13.612-.858a.502.502 0 00.088-.694 4.93 4.93 0 00-4.079-1.951.473.473 0 00-.245.846.487.487 0 00.349.1 3.913 3.913 0 013.207 1.581.475.475 0 00.19.151.477.477 0 00.239.041.699.699 0 00.251-.074zm-16.494 95.598c-1.848-6.504-3.976-13.066-7.834-18.608-1.389-2.01-2.956-3.858-4.434-5.912a81.435 81.435 0 01-5.454-8.189c1.626-1.478 3.769-2.956 5.513-4.315l-6.591-5.454a68.651 68.651 0 002.261-19.214 3.399 3.399 0 012.498-.591 51.207 51.207 0 016.784 15.947 264.793 264.793 0 017.257 46.336z" fill="#263238"/><path opacity=".2" d="M304.661 323.105c-.103-.133-.192-.295-.296-.458-4.197-6.532-23.293-36.359-24.623-38.842 1.64-1.478 3.784-2.956 5.528-4.315l-6.592-5.454a69.177 69.177 0 002.261-19.214 3.38 3.38 0 012.483-.591 51.726 51.726 0 014.937 9.814 49.625 49.625 0 011.847 6.133c3.739 14.692 7.641 38.635 14.218 52.277l.237.65z" fill="#fff"/><path d="M314.18 319.677c-.103-6.77 0-13.657 2.114-20.086.753-2.321 1.758-4.553 2.542-6.873 1.005-2.956 4.064-6.621 4.685-9.725-1.981-.902-4.434-1.818-6.533-2.542l4.745-7.124c-3.4-5.513-8.588-10.006-10.346-16.258a3.412 3.412 0 00-2.557.147c-1.05 3.474.606 13.583.694 15.712.739 15.711 1.198 31.422 4.656 46.749z" fill="#263238"/><path opacity=".2" d="M323.521 282.993c-3.68 10.08-11.351 31.038-18.86 40.113-.236.28-.458.546-.694.798l.399-1.257a1.43 1.43 0 010-.207c6.843-22.17 5.912-34.215 5.188-49.572-.089-2.128-1.744-12.518-.695-15.977a3.362 3.362 0 011.264-.329c.438-.025.878.037 1.293.181 1.729 6.238 6.917 10.997 10.346 16.51-1.567 2.379-3.148 4.744-4.73 7.124 1.996.798 4.508 1.714 6.489 2.616z" fill="#fff"/><path opacity=".3" d="M256.375 275.972s4.538 10.198 15.49 25.259c11.129 15.297 17.381 15.297 17.381 15.297l8.159 2.454s-2.099-38.576-25.806-44.34c-7.035-1.759-16.731 1.374-15.224 1.33z" fill="#000"/><path d="M349.104 301.083l-12.194.562v6.71l12.194-1.714v-5.558z" fill="#FFC3BD"/><path d="M345.602 305.503c-.251 5.912 6.962 7.257 6.962 7.257l3.754 3.074a3.31 3.31 0 004.315 0l3.104-2.646.089-.074a3.309 3.309 0 00.207-4.67l-2.528-2.793a10.661 10.661 0 00-3.68-2.661l-8.72-1.907-3.503 4.42z" fill="#FFC3BD"/><path d="M257.571 267.843c-2.513 4.907-1.39 10.583 1.625 15.194 6.858 10.435 29.472 24.298 33.994 27.358 10.228 6.976 51.73-1.153 51.73-1.153l.606-10.243-44.34-2.217s-14.883-24.786-25.126-32.353c-5.158-3.784-14.972-3.459-18.489 3.414zm32.826-61.322a4.874 4.874 0 00-3.828 1.227 15.474 15.474 0 00-5.793 8.986 4.419 4.419 0 000 2.232 1.908 1.908 0 001.551 1.478 8.87 8.87 0 013.769-2.335 50.89 50.89 0 018.868-2.055 111.97 111.97 0 0016.155-3.695c1.049-.31 2.246-.783 2.527-1.833.281-1.049-1.98-2.763-1.611-3.103.577-.562 1.375-1.065 1.375-1.863a1.928 1.928 0 00-.251-.901 4.269 4.269 0 00-2.336-2.291 2.145 2.145 0 00-2.704 1.286 25.514 25.514 0 00-.651-2.838 2.008 2.008 0 00-1.153-.887 4.69 4.69 0 00-4.301.917 13.972 13.972 0 00-2.956 3.502c-1.537 2.247-5.971 2.794-8.661 2.173zm13.806 28.186a.24.24 0 01-.053-.263.226.226 0 01.053-.077.22.22 0 01.31 0 6.228 6.228 0 005.321 1.891.253.253 0 01.266.222.236.236 0 01-.207.251 6.619 6.619 0 01-5.69-2.024z" fill="#263238"/><path d="M283.347 254.719l3.754-1.183a36.434 36.434 0 0013.894 9.504 14.134 14.134 0 00-5.499 6.119c-12.563-4.966-12.149-14.44-12.149-14.44z" fill="#fff"/><path d="M308.371 255.369l-3.414-.902s-1.744 7.109-5.336 7.952c6.075 2.705 6.947 5.808 6.947 5.808 9.045-2.438 1.803-12.858 1.803-12.858z" fill="#fff"/><path opacity=".3" d="M301.276 326.49a1.368 1.368 0 01-.935 1.199 1.373 1.373 0 01-1.136-2.486c.233-.138.501-.204.771-.191.182.012.361.059.525.139a1.384 1.384 0 01.775 1.339z" fill="#fff"/><path transform="matrix(-.64094 .7676 -.69345 -.7205 140.299 693.806)" stroke="#777779" d="M0-.5h29.337"/><path transform="matrix(-.64094 .7676 -.69345 -.7205 150.312 695.587)" stroke="#777779" d="M0-.5h29.337"/><path transform="matrix(-.64094 .7676 -.69345 -.7205 130.059 692.293)" stroke="#777779" d="M0-.5h29.337"/><path transform="matrix(-.64094 .7676 -.69345 -.7205 118.803 692)" stroke="#777779" d="M0-.5h29.337"/></svg>