<svg width="674" height="644" fill="none" xmlns="http://www.w3.org/2000/svg"><path d="M674 492.531H0v.322h674v-.322zm-67.534 20.724H561.82v.322h44.646v-.322zm-159.982 3.504H434.77v.322h11.714v-.322zm113.988-15.457h-25.868v.322h25.868v-.322zm-431.535 2.164h-58.22v.322h58.22v-.322zm20.543 0h-8.533v.322h8.533v-.322zm154.021 5.436h-126.28v.322h126.28v-.322zm15.976-73.815H59.191c-2.039-.004-3.993-.78-5.434-2.159-1.44-1.379-2.25-3.248-2.25-5.196V78.13c.019-1.937.836-3.79 2.274-5.154 1.439-1.365 3.383-2.133 5.41-2.136h260.286c2.041 0 3.999.775 5.442 2.154 1.444 1.38 2.255 3.25 2.255 5.2v349.538c0 1.951-.811 3.821-2.255 5.2-1.443 1.38-3.401 2.155-5.442 2.155zM59.191 71.097c-1.95.004-3.818.747-5.195 2.065-1.378 1.319-2.151 3.105-2.151 4.968v349.602c0 1.863.773 3.65 2.15 4.968 1.378 1.319 3.247 2.061 5.196 2.064h260.286c1.951-.003 3.821-.745 5.2-2.063 1.38-1.318 2.156-3.105 2.16-4.969V78.13c-.004-1.864-.78-3.65-2.16-4.969-1.379-1.318-3.249-2.06-5.2-2.063H59.191zm551.871 363.99H350.763c-2.04-.004-3.996-.78-5.438-2.158-1.443-1.379-2.255-3.247-2.259-5.197V78.13c.022-1.938.842-3.79 2.282-5.155 1.441-1.364 3.387-2.132 5.415-2.135h260.299c2.025.007 3.966.776 5.402 2.14 1.436 1.365 2.251 3.215 2.268 5.15v349.602c0 1.946-.807 3.813-2.244 5.191-1.438 1.379-3.389 2.157-5.426 2.164zM350.763 71.097c-1.95.004-3.82.746-5.2 2.064-1.379 1.318-2.156 3.105-2.16 4.97v349.601c.004 1.864.781 3.651 2.16 4.969 1.38 1.318 3.25 2.06 5.2 2.063h260.299c1.951-.003 3.821-.745 5.201-2.063 1.379-1.318 2.156-3.105 2.159-4.969V78.13c-.003-1.864-.78-3.65-2.159-4.969-1.38-1.318-3.25-2.06-5.201-2.063H350.763z" fill="#EBEBEB"/><path d="M232.644 171.148l-10.951 2.252 2.358 10.464 10.951-2.253-2.358-10.463z" fill="#EBEBEB"/><path d="M303.315 239.69c1.821-32.54-24.311-60.329-58.367-62.069-34.056-1.739-63.14 23.229-64.96 55.77-1.821 32.54 24.311 60.329 58.367 62.069 34.056 1.739 63.14-23.23 64.96-55.77z" fill="#E0E0E0"/><path d="M275.404 276.536c23.106-17.814 26.723-50.153 8.079-72.23-18.644-22.078-52.489-25.534-75.595-7.719-23.106 17.814-26.723 50.153-8.079 72.23 18.644 22.078 52.489 25.534 75.595 7.719z" fill="#F0F0F0"/><path d="M234.987 161.219l-19.727 4.058 2.658 11.798 19.728-4.058-2.659-11.798zm11.779 74.266a4.797 4.797 0 01-.267 2.887 5.043 5.043 0 01-1.9 2.26 5.39 5.39 0 01-2.892.873 5.42 5.42 0 01-2.914-.808 5.07 5.07 0 01-1.953-2.218 4.791 4.791 0 01-.337-2.881 4.924 4.924 0 011.394-2.574 5.3 5.3 0 012.655-1.403 5.457 5.457 0 012.046-.027 5.37 5.37 0 011.901.725 5.138 5.138 0 011.464 1.367c.389.543.662 1.155.803 1.799z" fill="#E0E0E0"/><path d="M228.715 195.068c1.631 3.297 3.033 6.659 4.448 10.02l2.022 5.062 1.914 5.152c1.348 3.4 2.467 6.827 3.613 10.304 1.146 3.478 2.265 6.878 3.303 10.304l-4.044-1.056a465.245 465.245 0 017.4-6.337 338.06 338.06 0 017.576-6.144 393.154 393.154 0 017.764-5.963c2.616-1.958 5.298-3.864 8.088-5.642-2.089 2.576-4.286 4.895-6.497 7.265a283.08 283.08 0 01-6.74 6.955 306.554 306.554 0 01-6.983 6.762 341.015 341.015 0 01-7.171 6.569l-2.885 2.576-1.172-3.632a399.553 399.553 0 01-3.155-10.395 309.418 309.418 0 01-2.871-10.471l-1.348-5.268-1.2-5.294c-.795-3.619-1.55-7.161-2.062-10.767z" fill="#E0E0E0"/><path d="M570.784 210.253l-48.528 134.686-196.039-64.451 48.528-134.699 6.592 2.164a4.095 4.095 0 00-1.155 1.499 3.924 3.924 0 00.211 3.618 4.166 4.166 0 001.32 1.368c.545.352 1.167.58 1.819.665a4.465 4.465 0 001.939-.174 4.307 4.307 0 001.656-.979 4.053 4.053 0 001.03-1.58 3.698 3.698 0 00.149-2.125l6.578 2.164a3.866 3.866 0 00-1.254 1.765 3.922 3.922 0 00.203 3.121 4.219 4.219 0 002.453 2.069 4.456 4.456 0 003.266-.193 4.15 4.15 0 002.166-2.344 3.697 3.697 0 00.135-2.125l6.578 2.151a3.854 3.854 0 00-1.253 1.764 3.904 3.904 0 00.202 3.121c.247.482.59.913 1.011 1.268.421.355.911.628 1.442.802a4.449 4.449 0 003.266-.194 4.239 4.239 0 001.327-.966c.372-.402.657-.87.84-1.377a3.861 3.861 0 00.148-2.126l6.565 2.151a4.082 4.082 0 00-1.154 1.499 3.914 3.914 0 00.21 3.619 4.156 4.156 0 001.321 1.367 4.386 4.386 0 001.818.666 4.464 4.464 0 001.939-.175 4.316 4.316 0 001.657-.978 4.072 4.072 0 001.03-1.58 3.84 3.84 0 00.148-2.125l6.565 2.164a3.99 3.99 0 00-1.254 1.764 3.926 3.926 0 00.471 3.595c.363.524.848.961 1.416 1.277a4.443 4.443 0 003.783.243 4.265 4.265 0 001.582-1.084 4.02 4.02 0 00.914-1.643 3.902 3.902 0 00.057-1.86l6.565 2.151a3.993 3.993 0 00-1.254 1.765 3.921 3.921 0 00.203 3.121 4.221 4.221 0 002.452 2.07 4.463 4.463 0 003.267-.194 4.154 4.154 0 002.166-2.344 3.84 3.84 0 00.148-2.125l6.565 2.164a3.869 3.869 0 00-1.254 1.764 3.923 3.923 0 00.203 3.121c.247.482.59.913 1.011 1.268.421.355.911.628 1.442.802a4.437 4.437 0 003.266-.194 4.235 4.235 0 001.327-.966c.372-.402.657-.87.839-1.377a3.868 3.868 0 00.149-2.125l6.564 2.15a4.12 4.12 0 00-1.154 1.499 3.94 3.94 0 00-.338 1.833c.037.628.224 1.239.549 1.786a4.153 4.153 0 001.32 1.367 4.39 4.39 0 001.819.666 4.466 4.466 0 001.939-.175c.624-.2 1.19-.535 1.656-.978a4.053 4.053 0 001.03-1.58 3.707 3.707 0 00.149-2.125l6.564 2.164c-.498.41-.891.923-1.147 1.502a3.92 3.92 0 00.222 3.614 4.153 4.153 0 001.323 1.364 4.398 4.398 0 001.818.661 4.47 4.47 0 001.937-.177 4.309 4.309 0 001.654-.98 4.063 4.063 0 001.028-1.579 3.696 3.696 0 00.134-2.125l6.579 2.164a3.856 3.856 0 00-1.254 1.764 3.913 3.913 0 00-.204 1.85 3.97 3.97 0 00.675 1.745c.363.524.848.961 1.416 1.277a4.442 4.442 0 003.783.243 4.268 4.268 0 001.582-1.085 4.023 4.023 0 00.914-1.642 3.903 3.903 0 00.057-1.86l6.565 2.151a3.993 3.993 0 00-1.478 3.344c.035.536.18 1.06.427 1.542.246.482.59.912 1.011 1.268.42.355.91.627 1.442.801a4.447 4.447 0 003.266-.193 4.278 4.278 0 001.327-.966c.371-.402.657-.871.839-1.378a3.84 3.84 0 00.148-2.125l6.565 2.164a3.864 3.864 0 00-1.254 1.764 3.921 3.921 0 00.203 3.121 4.22 4.22 0 002.453 2.07 4.456 4.456 0 003.266-.194 4.15 4.15 0 002.166-2.344 3.867 3.867 0 00.149-2.125l6.564 2.151a3.99 3.99 0 00-1.253 1.765 3.917 3.917 0 00.202 3.121 4.218 4.218 0 002.453 2.069 4.458 4.458 0 003.267-.193 4.157 4.157 0 002.166-2.344 3.85 3.85 0 00.148-2.125l6.565 2.164a3.955 3.955 0 00-1.254 1.751 3.923 3.923 0 00.203 3.121c.246.482.59.913 1.011 1.268.421.355.911.628 1.442.802a4.448 4.448 0 003.266-.194 4.246 4.246 0 001.327-.966c.372-.402.657-.87.839-1.377a3.834 3.834 0 00.148-2.126l6.403 2.177z" fill="#F0F0F0"/><path d="M570.785 210.253l-9.881 27.447-196.121-64.4 9.881-27.46 6.592 2.164a4.093 4.093 0 00-1.154 1.499 3.914 3.914 0 00.21 3.618 4.159 4.159 0 001.321 1.368 4.386 4.386 0 001.818.666 4.464 4.464 0 001.939-.175 4.305 4.305 0 001.657-.979 4.06 4.06 0 001.03-1.579 3.707 3.707 0 00.148-2.125l6.578 2.164a3.854 3.854 0 00-1.253 1.764 3.917 3.917 0 00.202 3.121 4.223 4.223 0 002.453 2.07 4.456 4.456 0 003.266-.194 4.155 4.155 0 002.167-2.344 3.696 3.696 0 00.134-2.125l6.579 2.151a3.86 3.86 0 00-1.254 1.765 3.934 3.934 0 00-.224 1.579c.035.536.18 1.06.427 1.542.246.482.59.912 1.011 1.268.42.355.91.627 1.441.801a4.454 4.454 0 003.267-.193 4.278 4.278 0 001.327-.966c.371-.402.657-.87.839-1.378a3.84 3.84 0 00.148-2.125l6.565 2.151c-.5.408-.895.921-1.154 1.499a3.913 3.913 0 00.21 3.618 4.159 4.159 0 001.321 1.368 4.446 4.446 0 003.757.491 4.305 4.305 0 001.657-.979 4.068 4.068 0 001.03-1.579c.249-.683.3-1.417.148-2.126l6.565 2.164a3.993 3.993 0 00-1.254 1.765 3.91 3.91 0 00-.204 1.85 3.96 3.96 0 00.676 1.745c.362.524.847.961 1.415 1.277a4.464 4.464 0 003.784.243 4.276 4.276 0 001.581-1.085 4.037 4.037 0 00.915-1.642 3.915 3.915 0 00.056-1.86l6.565 2.151a3.996 3.996 0 00-1.254 1.764 3.923 3.923 0 00.203 3.121c.246.482.59.913 1.011 1.268.421.355.911.628 1.442.802a4.448 4.448 0 003.266-.194 4.246 4.246 0 001.327-.966c.372-.402.657-.87.839-1.377a3.84 3.84 0 00.148-2.125l6.565 2.163a3.862 3.862 0 00-1.253 1.765 3.917 3.917 0 00.202 3.121 4.223 4.223 0 002.453 2.07 4.46 4.46 0 003.266-.194 4.155 4.155 0 002.167-2.344 3.868 3.868 0 00.148-2.125l6.565 2.151a4.082 4.082 0 00-1.154 1.499 3.914 3.914 0 00.21 3.618 4.166 4.166 0 001.32 1.368c.545.353 1.167.58 1.819.666a4.464 4.464 0 001.939-.175 4.305 4.305 0 001.657-.979 4.047 4.047 0 001.029-1.579 3.699 3.699 0 00.149-2.125l6.565 2.163c-.499.41-.891.924-1.148 1.502a3.92 3.92 0 00.222 3.615 4.15 4.15 0 001.323 1.363 4.398 4.398 0 001.819.662 4.458 4.458 0 001.937-.178 4.312 4.312 0 001.653-.98 4.056 4.056 0 001.028-1.579 3.705 3.705 0 00.135-2.125l6.578 2.164a3.866 3.866 0 00-1.254 1.765 3.91 3.91 0 00-.204 1.85c.082.623.313 1.22.676 1.744.362.525.847.962 1.415 1.278a4.464 4.464 0 003.784.243 4.288 4.288 0 001.582-1.085 4.043 4.043 0 00.914-1.643 3.91 3.91 0 00.056-1.859l6.565 2.151a3.985 3.985 0 00-1.477 3.344c.034.535.179 1.059.426 1.541.246.482.59.913 1.011 1.268.421.355.911.628 1.442.802a4.449 4.449 0 003.266-.194 4.262 4.262 0 001.327-.966c.372-.402.657-.87.839-1.377.249-.683.3-1.417.148-2.126l6.565 2.164a3.857 3.857 0 00-1.253 1.765 3.917 3.917 0 00.202 3.121 4.218 4.218 0 002.453 2.069 4.455 4.455 0 003.266-.193 4.155 4.155 0 002.167-2.344 3.868 3.868 0 00.148-2.125l6.565 2.151a3.985 3.985 0 00-1.478 3.344c.035.535.18 1.059.427 1.541.246.482.59.913 1.011 1.268.421.355.91.628 1.442.802a4.467 4.467 0 003.266-.194 4.262 4.262 0 001.327-.966c.371-.402.657-.87.839-1.377.249-.683.3-1.417.148-2.126l6.565 2.164a3.958 3.958 0 00-1.254 1.752 3.918 3.918 0 00.203 3.121c.247.482.59.913 1.011 1.268.421.355.911.627 1.442.802a4.47 4.47 0 003.266-.194 4.255 4.255 0 001.327-.966c.372-.402.657-.87.839-1.378a3.83 3.83 0 00.149-2.125l6.484 2.125z" fill="#E0E0E0"/><path d="M445.889 206.164l-21.479-7.059-7.387 20.523 21.479 7.059 7.387-20.523zm25.68 8.452l-21.479-7.058-7.388 20.522 21.479 7.059 7.388-20.523zm25.683 8.436l-21.479-7.058-7.387 20.522 21.479 7.059 7.387-20.523zm25.694 8.453l-21.479-7.059-7.388 20.523 21.479 7.058 7.388-20.522zm25.685 8.435l-21.479-7.058-7.387 20.523 21.479 7.058 7.387-20.523zm-162.474-27.425l-21.479-7.058-7.388 20.522 21.479 7.059 7.388-20.523zm25.668 8.435l-21.479-7.058-7.388 20.523 21.479 7.058 7.388-20.523zm25.697 8.441l-21.479-7.059-7.387 20.523 21.478 7.058 7.388-20.522zm25.68 8.448l-21.479-7.059-7.388 20.523 21.479 7.059 7.388-20.523zm25.697 8.44l-21.479-7.059-7.387 20.523 21.478 7.059 7.388-20.523zm25.693 8.452l-21.479-7.058-7.387 20.523 21.479 7.058 7.387-20.523zm25.686 8.424l-21.479-7.059-7.388 20.523 21.479 7.058 7.388-20.522zm-162.489-27.426l-21.478-7.058-7.388 20.523 21.479 7.058 7.387-20.523zm25.682 8.448l-21.479-7.058-7.387 20.523 21.479 7.058 7.387-20.523zm25.697 8.44l-21.479-7.058-7.387 20.523 21.479 7.058 7.387-20.523zm25.68 8.449l-21.479-7.059-7.387 20.523 21.479 7.059 7.387-20.523zm25.697 8.44l-21.479-7.059-7.387 20.523 21.479 7.059 7.387-20.523zm25.68 8.439l-21.479-7.058-7.387 20.523 21.479 7.058 7.387-20.523zm25.685 8.436l-21.478-7.058-7.388 20.523 21.479 7.058 7.387-20.523zm-162.486-27.429l-21.479-7.059-7.387 20.523 21.479 7.059 7.387-20.523zm25.694 8.452l-21.479-7.058-7.388 20.523 21.479 7.058 7.388-20.523zm25.697 8.44l-21.479-7.058-7.387 20.523 21.478 7.058 7.388-20.523zm25.672 8.424l-21.479-7.059-7.388 20.523 21.479 7.058 7.388-20.522zm25.691 8.452l-21.479-7.059-7.387 20.523 21.479 7.059 7.387-20.523zm25.686 8.436l-21.479-7.059-7.388 20.523 21.479 7.059 7.388-20.523z" fill="#FAFAFA"/><path d="M455.813 260.305a2.098 2.098 0 01-1.071-.294 1.976 1.976 0 01-.749-.788l-14.087-27.589a1.849 1.849 0 01-.185-1.533c.081-.254.216-.49.396-.692.181-.202.403-.366.653-.482.249-.116.522-.182.799-.193.278-.012.555.032.815.128.259.095.495.241.692.428.198.187.353.41.456.657l14.1 27.653c.233.46.266.989.092 1.472a1.968 1.968 0 01-1.022 1.104 1.965 1.965 0 01-.889.129z" fill="#E0E0E0"/><path d="M434.325 253.247a2.086 2.086 0 01-1.263-.417 1.927 1.927 0 01-.715-1.079 1.856 1.856 0 01.146-1.27c.198-.395.53-.714.943-.905l28.928-13.46a2.111 2.111 0 011.547-.091c.508.166.926.519 1.162.98.236.461.271.993.096 1.479a1.966 1.966 0 01-1.026 1.11l-28.874 13.46c-.295.133-.618.2-.944.193z" fill="#E0E0E0"/><path d="M108.959 196.909v8.553l4.597.412a22.72 22.72 0 003.437 7.934l-2.952 3.413 6.322 6.041 3.572-2.834a24.236 24.236 0 008.264 3.285l.431 4.392h8.91l.432-4.392a24.344 24.344 0 008.263-3.285l3.572 2.834 6.322-6.041-2.925-3.413a22.456 22.456 0 003.424-7.895l4.61-.413v-8.552l-4.61-.412a22.469 22.469 0 00-3.424-7.896l2.952-3.413-6.322-6.04-3.572 2.833a24.34 24.34 0 00-8.264-3.284l-.431-4.405h-8.937l-.431 4.405a24.214 24.214 0 00-8.264 3.284l-3.572-2.833-6.322 6.04 2.952 3.413a22.723 22.723 0 00-3.437 7.896l-4.597.373zm28.133-7.29c2.399 0 4.745.68 6.74 1.954s3.55 3.084 4.468 5.202a11.11 11.11 0 01.691 6.698 11.441 11.441 0 01-3.321 5.935 12.32 12.32 0 01-6.211 3.173 12.665 12.665 0 01-7.01-.66 12.028 12.028 0 01-5.445-4.269 11.232 11.232 0 01-2.044-6.441c0-3.074 1.278-6.023 3.553-8.196 2.275-2.174 5.361-3.396 8.579-3.396z" fill="#EBEBEB"/><path d="M321.51 401.998a42.373 42.373 0 0014.249-5.667l6.174 4.881 10.918-10.433-5.068-5.886a38.58 38.58 0 005.931-13.627l7.94-.708V355.81l-7.94-.721a38.58 38.58 0 00-5.931-13.627l5.109-5.886-10.919-10.433-6.174 4.881a42.36 42.36 0 00-14.248-5.667l-.755-7.586h-15.475l-.741 7.586a42.432 42.432 0 00-14.262 5.667l-6.161-4.881-10.918 10.433 5.108 5.886a38.58 38.58 0 00-5.931 13.627l-7.939.721v14.748l7.939.708a38.58 38.58 0 005.931 13.627l-5.108 5.886 10.918 10.433 6.161-4.881a42.432 42.432 0 0014.262 5.667l.741 7.586h15.502l.687-7.586zm-29.359-38.782c0-3.948 1.225-7.808 3.521-11.091 2.296-3.283 5.559-5.842 9.377-7.353a21.794 21.794 0 0112.072-1.136c4.053.77 7.776 2.671 10.698 5.463 2.922 2.792 4.912 6.35 5.718 10.222a19.138 19.138 0 01-1.188 11.535c-1.582 3.648-4.26 6.766-7.696 8.96-3.436 2.193-7.476 3.364-11.608 3.364-5.541 0-10.856-2.103-14.774-5.847-3.919-3.744-6.12-8.822-6.12-14.117z" fill="#E0E0E0"/><path d="M149.628 464.62l2.346 1.855 4.165-3.98-1.955-2.241a14.474 14.474 0 002.265-5.152l3.033-.271v-5.628l-3.033-.271a14.27 14.27 0 00-2.265-5.152l1.955-2.254-4.165-3.98-2.346 1.791a15.848 15.848 0 00-5.392-2.164l-.283-2.898h-5.877l-.297 2.898a15.888 15.888 0 00-5.392 2.164l-2.345-1.868-4.166 3.98 1.941 2.254a14.478 14.478 0 00-2.251 5.152l-3.033.271v5.628l3.033.271a14.689 14.689 0 002.251 5.152l-1.941 2.241 4.166 3.98 2.345-1.855a16.148 16.148 0 005.392 2.151l.297 2.898h5.877l.283-2.898a16.103 16.103 0 005.392-2.074zm-16.634-12.648c0-1.506.467-2.977 1.342-4.229a7.902 7.902 0 013.576-2.804 8.31 8.31 0 014.603-.433 8.099 8.099 0 014.079 2.083 7.513 7.513 0 012.18 3.898 7.3 7.3 0 01-.453 4.398 7.691 7.691 0 01-2.935 3.416 8.227 8.227 0 01-4.426 1.283 8.3 8.3 0 01-3.061-.568 7.99 7.99 0 01-2.598-1.648 7.583 7.583 0 01-1.737-2.474 7.318 7.318 0 01-.611-2.922h.041z" fill="#E6E6E6"/><path d="M318.127 170.106l1.348 1.082 2.413-2.305-1.119-1.288a8.612 8.612 0 001.348-3.014l1.752-.155v-3.259l-1.752-.154a8.596 8.596 0 00-1.348-3.014l1.119-1.288-2.413-2.331-1.348 1.082a9.186 9.186 0 00-3.141-1.288l-.175-1.688h-3.424l-.162 1.675a9.456 9.456 0 00-3.154 1.288l-1.348-1.082-2.4 2.305 1.119 1.288a8.604 8.604 0 00-1.348 3.014l-1.752.155v3.258l1.752.155a8.604 8.604 0 001.348 3.014l-1.119 1.288 2.4 2.305 1.348-1.081a9.183 9.183 0 003.154 1.288l.162 1.674h3.41l.176-1.674a9.206 9.206 0 003.154-1.25zm-9.638-7.329c0-.873.271-1.727.779-2.454a4.584 4.584 0 012.075-1.627 4.821 4.821 0 012.671-.251c.897.17 1.721.591 2.368 1.209a4.358 4.358 0 011.265 2.262 4.236 4.236 0 01-.263 2.552 4.476 4.476 0 01-1.703 1.983 4.78 4.78 0 01-2.569.744 4.808 4.808 0 01-1.79-.317 4.668 4.668 0 01-1.523-.954 4.411 4.411 0 01-1.019-1.441 4.242 4.242 0 01-.359-1.706h.068z" fill="#F5F5F5"/><path d="M524.749 159.854l1.348 1.082 2.413-2.306-1.132-1.288a8.346 8.346 0 001.348-3.014l1.766-.154v-3.259l-1.766-.167a8.38 8.38 0 00-1.348-3.001l1.132-1.288-2.413-2.306-1.348 1.082a9.456 9.456 0 00-3.154-1.288l-.162-1.674h-3.41l-.162 1.674a9.439 9.439 0 00-3.154 1.288l-1.348-1.082-2.467 2.28 1.132 1.288a8.388 8.388 0 00-1.348 3.001l-1.766.167v3.259l1.766.155a8.344 8.344 0 001.348 3.014l-1.132 1.288 2.413 2.305 1.348-1.082a9.156 9.156 0 003.154 1.288l.162 1.675h3.41l.162-1.675a9.165 9.165 0 003.208-1.262zm-9.638-7.329c0-.874.271-1.728.779-2.454a4.578 4.578 0 012.075-1.627 4.825 4.825 0 012.672-.252c.897.171 1.72.591 2.367 1.209a4.355 4.355 0 011.265 2.262 4.232 4.232 0 01-.263 2.553 4.462 4.462 0 01-1.703 1.982 4.772 4.772 0 01-2.568.745 4.782 4.782 0 01-1.772-.333 4.634 4.634 0 01-1.502-.957 4.414 4.414 0 01-1.002-1.435 4.245 4.245 0 01-.348-1.693z" fill="#F0F0F0"/><path d="M569.058 365.959l2.345 1.855 4.166-3.967-1.942-2.254a14.683 14.683 0 002.252-5.152l3.033-.27v-5.629l-3.033-.27a14.569 14.569 0 00-2.252-5.152l1.942-2.254-4.166-3.98-2.345 1.867a16.435 16.435 0 00-5.392-2.164l-.297-2.898h-5.877l-.283 2.898a16.374 16.374 0 00-5.392 2.164l-2.346-1.867-4.165 3.98 1.955 2.254a14.346 14.346 0 00-2.265 5.152l-3.033.27v5.629l3.033.27a14.449 14.449 0 002.265 5.152l-1.955 2.254 4.165 3.967 2.346-1.855a16.353 16.353 0 005.392 2.164l.283 2.885h5.877l.297-2.885a16.413 16.413 0 005.392-2.164zm-16.635-12.648c0-1.505.468-2.977 1.343-4.229a7.897 7.897 0 013.575-2.803 8.312 8.312 0 014.603-.434 8.085 8.085 0 014.079 2.084 7.519 7.519 0 012.181 3.897 7.3 7.3 0 01-.454 4.398 7.695 7.695 0 01-2.934 3.416 8.227 8.227 0 01-4.426 1.283c-2.112-.003-4.136-.806-5.629-2.233-1.494-1.427-2.334-3.361-2.338-5.379z" fill="#EBEBEB"/><path d="M407.393 487.959l3.72 2.937 6.578-6.286-3.073-3.555a23.22 23.22 0 003.572-8.217l4.785-.425v-8.888l-4.785-.437a23.28 23.28 0 00-3.572-8.205l3.073-3.555-6.551-6.285-3.72 2.936a25.613 25.613 0 00-8.587-3.413l-.459-4.572h-9.301l-.445 4.572a25.567 25.567 0 00-8.6 3.413l-3.72-2.936-6.579 6.285 3.074 3.555a23.28 23.28 0 00-3.572 8.205l-4.786.437v8.888l4.786.425a23.22 23.22 0 003.572 8.217l-3.074 3.555 6.579 6.286 3.72-2.937a25.567 25.567 0 008.6 3.413l.445 4.572h9.301l.459-4.572a25.587 25.587 0 008.56-3.413zm-26.286-19.99a11.658 11.658 0 012.118-6.695c1.384-1.983 3.352-3.528 5.656-4.441a13.144 13.144 0 017.285-.689 12.798 12.798 0 016.457 3.297 11.891 11.891 0 013.45 6.169c.486 2.337.235 4.76-.721 6.961-.955 2.201-2.573 4.082-4.648 5.404a13.021 13.021 0 01-7.007 2.024c-3.338-.003-6.538-1.272-8.899-3.527-2.36-2.256-3.688-5.313-3.691-8.503z" fill="#F0F0F0"/><path d="M337 550.697c144.348 0 261.364-6.528 261.364-14.58S481.348 521.537 337 521.537c-144.347 0-261.363 6.528-261.363 14.58s117.016 14.58 261.363 14.58z" fill="#F5F5F5"/><path d="M189.906 249.138c-43.594 7.174-77.644 20.054-76.081 28.8l.742 4.044c1.563 8.694 38.188 9.917 81.769 2.705 43.581-7.213 77.659-20.093 76.081-28.787l-.727-4.044c-1.578-8.707-38.189-9.918-81.784-2.718z" fill="#407BFF"/><path opacity=".2" d="M196.338 284.685c43.591-7.201 77.651-20.091 76.077-28.79-1.574-8.699-38.187-9.912-81.777-2.71-43.59 7.201-77.651 20.091-76.077 28.79 1.574 8.698 38.187 9.912 81.777 2.71z" fill="#fff"/><path d="M192.199 261.786c-39.092 6.44-69.53 18.032-68.114 25.76l1.213 6.736c1.348 7.793 34.199 8.874 73.223 2.422 39.025-6.453 69.53-18.032 68.115-25.76l-1.214-6.724c-1.415-7.792-34.198-8.887-73.223-2.434z" fill="#407BFF"/><path opacity=".2" d="M198.513 296.728c39.027-6.448 69.522-17.988 68.113-25.775-1.409-7.788-34.19-8.873-73.217-2.426-39.027 6.448-69.522 17.988-68.113 25.776 1.409 7.787 34.189 8.873 73.217 2.425z" fill="#fff"/><path d="M232.948 364.04a12.335 12.335 0 01-4.293-3.539 11.637 11.637 0 01-2.213-4.989 11.423 11.423 0 01.326-5.409 11.811 11.811 0 012.797-4.713c15.812-16.448 34.954-42.633 30.101-69.552-1.052-5.757-30.115-5.77-64.92 0-34.805 5.77-62.183 15.095-61.145 20.853 4.866 26.88 32.096 45.402 52.774 55.822a12.337 12.337 0 014.294 3.538 11.658 11.658 0 012.212 4.989 11.414 11.414 0 01-.326 5.41 11.797 11.797 0 01-2.796 4.713c-15.826 16.435-34.968 42.62-30.101 69.552 1.051 5.77 30.114 5.783 64.919 0 34.806-5.783 62.184-15.096 61.2-20.827-4.921-26.919-32.164-45.441-52.829-55.848z" fill="#407BFF"/><path opacity=".8" d="M232.948 364.04a12.335 12.335 0 01-4.293-3.539 11.637 11.637 0 01-2.213-4.989 11.423 11.423 0 01.326-5.409 11.811 11.811 0 012.797-4.713c15.812-16.448 34.954-42.633 30.101-69.552-1.052-5.757-30.115-5.77-64.92 0-34.805 5.77-62.183 15.095-61.145 20.853 4.866 26.88 32.096 45.402 52.774 55.822a12.337 12.337 0 014.294 3.538 11.658 11.658 0 012.212 4.989 11.414 11.414 0 01-.326 5.41 11.797 11.797 0 01-2.796 4.713c-15.826 16.435-34.968 42.62-30.101 69.552 1.051 5.77 30.114 5.783 64.919 0 34.806-5.783 62.184-15.096 61.2-20.827-4.921-26.919-32.164-45.441-52.829-55.848z" fill="#fff"/><path d="M282.622 421.395c.62 6.041-111.507 26.893-118.961 17.633a7.324 7.324 0 01-1.37-3.473 7.224 7.224 0 01.534-3.676 20.181 20.181 0 013.343-5.937c3.465-4.483 11.108-6.44 16.284-8.244 3.491-1.223 7.01-2.344 10.528-3.503 3.774-1.288 7.657-.386 10.932-3.13 1.968-1.636 3.438-4.07 5.958-4.662 1.874-.438 3.883.27 5.729-.207 2.4-.618 4.112-3.091 6.592-3.129a16.15 16.15 0 013.599.837c2.157.438 4.368-.245 6.579-.438a28.926 28.926 0 016.497.451 206.766 206.766 0 0020.22 2.666c5.001.258 10.541.142 15.421 1.455 2.132.764 3.898 2.249 4.961 4.173a21.723 21.723 0 013.154 9.184z" fill="#263238"/><path opacity=".2" d="M279.509 412.16c-3.101-2.679-8.83-2.499-10.474-2.383-1.645.116-2.224-1.224-3.464-1.661-1.241-.438-8.574.463-8.574.463s2.696.503 3.262 1.353c.567.85 3.64-.129 4.044-.245-.417.232-4.165 2.112-5.931.979-1.766-1.134-2.494.979-3.896 1.52-1.401.541-5.823 0-6.537-.219a58.224 58.224 0 00-6.336 0 9.274 9.274 0 013.613-1.288c1.186.129 5.917-2.254 4.947-2.087-.971.168-3.181-1.069-4.907-1.584a24.115 24.115 0 00-6.255.386c2.095-.03 4.182.248 6.188.825a30.248 30.248 0 00-4.044 1.223 13.788 13.788 0 01-3.721.606 5.179 5.179 0 00-2.507 1.854 40.091 40.091 0 01-4.678.773 11.85 11.85 0 01-4.596-.515l4.259-1.288-1.455-.399a17.58 17.58 0 00-3.074-.683c-1.712-.27-2.44 1.288-2.858 1.662-.417.373-4.165 0-5.216-.245-1.052-.245-8.83 2.769-8.83 2.769l4.867-.799c1.262.513 2.607.814 3.976.889 3.249.412 3.721-.618 5.082-.528 1.362.09 5.877 1.288 5.877 1.288l-1.752.451a17.677 17.677 0 01-4.664 0c-2.696-.348-4.152 1.005-4.961 1.146-2.08.447-4.194.74-6.322.876-.876-.18-3.181.85-4.448 2.087a5.614 5.614 0 01-2.615 1.396 5.79 5.79 0 01-2.993-.108c-2.453-.606-6.592 2.254-6.592 2.254s2.171-2.744 3.303-2.937a31.507 31.507 0 005.055-2.421c-.606-.008-1.21.04-1.806.141a4.76 4.76 0 01-1.788-.199 4.62 4.62 0 01-1.569-.844c-1.348-.889-2.696-.193-4.677.773-1.982.966-4.112 2.112-6.201.708-2.09-1.404-8.493 3.787-8.493 3.787a24.938 24.938 0 004.247-1.391c.593-.464 1.011 0 2.898.373 1.887.374 2.507-.888 3.437-1.365.93-.477 3.721.322 3.721.322a4.376 4.376 0 01-2.117.374c-1.024-.155-2.696 2.666-3.235 2.357-.539-.31-4.462.18-6.147 1.017-1.685.837-4.165 3.632-6.659 2.769-2.116-.734-6.888 5.461-11.081 5.539a20.167 20.167 0 013.344-5.938c3.464-4.482 11.107-6.44 16.283-8.243 3.492-1.224 7.01-2.344 10.528-3.504 3.775-1.288 7.657-.386 10.933-3.129 1.968-1.636 3.437-4.07 5.958-4.663 1.873-.438 3.882.271 5.729-.206 2.399-.618 4.111-3.091 6.591-3.13a16.27 16.27 0 013.6.837c2.156.438 4.367-.244 6.578-.438a28.977 28.977 0 016.497.451 206.238 206.238 0 0020.22 2.666c5.001.258 10.542.142 15.421 1.456 2.135.727 3.918 2.175 5.015 4.07z" fill="#fff"/><path d="M220.803 419.888c-39.092 6.44-69.529 18.032-68.128 25.76l1.227 6.736c1.348 7.728 34.185 8.875 73.224 2.422 39.038-6.453 69.529-18.032 68.114-25.76l-1.213-6.724c-1.416-7.857-34.199-8.951-73.224-2.434z" fill="#407BFF"/><path d="M222.974 431.866c-43.581 7.2-77.645 20.093-76.068 28.8l.728 4.032c1.577 8.706 38.189 9.917 81.783 2.717 43.595-7.2 77.645-20.093 76.068-28.799l-.728-4.032c-1.577-8.707-38.189-9.918-81.783-2.718z" fill="#407BFF"/><path opacity=".2" d="M172.76 472.026l-3.155-.141 3.155.141zm-16.795-1.906c.431.116.89.219 1.348.322a8.65 8.65 0 00-1.348-.322zm67.009-38.254c-43.581 7.2-77.645 20.093-76.068 28.8l.728 4.032c-1.577-8.746 32.487-21.626 76.135-28.787 43.648-7.162 80.193-5.989 81.77 2.705l-.728-4.032c-1.631-8.707-38.243-9.918-81.837-2.718z" fill="#fff"/><path d="M216.313 353.273c-.849 6.44-3.316 16.19-4.421 22.694-1.105 6.505 2.211 16.59 3.195 19.642.984 3.053 7.629 2.576 7.36 5.01-.27 2.435 9.921 2.847 9.921 2.847s-47.746 18.032-52.572 16.886c-4.826-1.147 8.951-10.15 11.593-10.742 2.642-.593 4.044-2.151 5.823-5.758 1.78-3.606 3.613-2.962 5.473-6.581a80.274 80.274 0 004.475-8.359c2.117-5.024 3.95-20.467 1.726-21.768-2.224-1.301-.202 11.837-2.117 12.275-1.914.438 2.494-12.983-3.316-19.758-5.809-6.775 12.86-6.388 12.86-6.388z" fill="#263238"/><path opacity=".2" d="M232.355 403.466s-47.732 18.032-52.572 16.886c-4.407-1.044 6.862-8.759 10.784-10.446.257 2.653 7.738-.064 10.704-1.636 2.965-1.571 3.194-.425 4.286-.888 1.092-.464 9.369-6.363 8.506-6.118-.863.244-7.023 4.585-8.506 3.168-1.483-1.417-3.936 1.288-5.769 2.112-1.591.735-1.995-.154-3.316-1.288.256-.45.498-.94.755-1.455 1.739-3.606 3.599-2.962 5.392-6.582a77.105 77.105 0 004.569-8.243c2.13-5.023 3.963-20.466 1.753-21.767-2.211-1.301-.216 11.837-2.117 12.262-1.9.425 2.467-12.97-3.329-19.745-5.797-6.775 12.819-6.44 12.819-6.44-.849 6.44-3.316 16.19-4.421 22.694-.728 4.263.445 10.059 1.617 14.413-.31 1.056-.741 2.022-1.253 2.177-1.227.347-2.09 4.353-3.694 4.469-1.604.116-.256 2.937 1.968 1.765 1.47-.773 3.788-1.288 5.392-1.958 2.076 1.764 6.74 1.739 6.498 3.786-.229 2.435 9.934 2.834 9.934 2.834z" fill="#fff"/><path d="M242.209 323.829l-.566.889a108.671 108.671 0 01-6.093 9.248 57.787 57.787 0 01-7.319 8.848c-2.589 2.383-5.231 3.503-6.74 6.35a9.68 9.68 0 00-.877 2.228c-.566 2.151-.741 4.74-2.696 5.951-.47.228-.92.491-1.348.785-.984.812-.93 2.229-1.186 3.439-.256 1.211-1.483 2.576-2.696 1.984-1.213-.593-1.267-2.074-2.359-2.022a4.302 4.302 0 00-.795.245c-1.105.27-2.13-.554-2.979-1.288-.849-.735-2.063-1.404-3.033-.838a54.14 54.14 0 00-9.625-6.736c-2.804-1.623-5.715-3.078-8.775-4.65-6.74-3.503-14.559-6.955-19.277-10.51a13.17 13.17 0 01-3.761-3.993 4.983 4.983 0 01-.539-1.661c-.782-6.363 19.829-8.256 26.96-12.996s18.265-1.7 22.916-2.692c4.651-.992 9.948.412 14.895.065 4.948-.348 7.994-1.714 10.879.296 2.885 2.009 6.079 1.404 6.74 2.936.323 1.005-.89 2.86-1.726 4.122z" fill="#263238"/><path opacity=".2" d="M235.9 321.82c-4.26-.786 4.435-.941 3.774-1.417-.66-.477-2.79-2.022-7.535-1.868-4.745.155-8.708-.154-9.719 0-1.011.155 3.303 1.404 3.303 1.404h-11.121c-3.613 0 2.467-1.404 2.467-1.404h-18.724c.499 0 4.111 2.035 1.968 2.035s-4.435 1.095-7.387 2.19a52.068 52.068 0 01-7.212 2.202c-.485 0 6.74-5.152 7.185-5.486-.445.18-6.471 2.576-8.991 3.284-2.521.708-9.436 2.988-10.029 3.143 1.261.078 2.526.078 3.787 0 0 0-5.095 2.511-7.71 2.82-1.968.232-6.74 1.778-7.899 5.049a13.17 13.17 0 003.761 3.993c4.718 3.555 12.509 7.007 19.276 10.51 3.06 1.572 5.972 3.027 8.775 4.65a54.068 54.068 0 019.625 6.736c.971-.566 2.197.129 3.033.837.836.709 1.874 1.546 2.979 1.288.256-.106.523-.188.796-.244 1.091 0 1.348 1.545 2.359 2.022 1.011.476 2.359-.773 2.696-1.984.337-1.21.202-2.576 1.186-3.439.427-.294.878-.557 1.348-.785 1.968-1.211 2.143-3.8 2.696-5.951a9.66 9.66 0 01.876-2.228c1.55-2.847 4.192-3.967 6.74-6.35a57.753 57.753 0 007.32-8.849 108.897 108.897 0 006.093-9.247c-1.483-2.46-1.416-2.126-5.716-2.911zm-60.97 16.628c-1.429-.155 3.195-1.533 3.195-1.533a3.411 3.411 0 01-1.363 1.184c-.558.27-1.181.39-1.805.349h-.027zm.863-5.294s2.332-1.764 3.316-1.648c.947.062 1.897.062 2.844 0 0 0-3.666 2.357-6.133 1.648h-.027zm18.589 13.769c-1.685-.309 1.779-1.288 2.615-1.069.836.219-.62 1.417-2.588 1.069h-.027zm8.317-18.032s-7.145 2.009-5.702 2.009h2.696c-.499 0-7.886 1.533-8.25 1.468a35.238 35.238 0 014.395-2.369s-.526-.632-.499-.863c.027-.232 1.671-.709 1.671-.709.58-.476 3.168-1.172 4.152-.592a9.839 9.839 0 003.572.592l-2.035.464zm3.006 14c-1.995-1.738 3.923 0 3.923 0s-2.548 1.198-3.896.026l-.027-.026zm3.235-18.676c2.696-1.764 3.37 0 3.37 0s-4.246.567-3.37 0zm9.342 6.827l-2.076-1.018a7.97 7.97 0 012.831-.979 6.843 6.843 0 013.814.979c.728.425-3.855 1.366-4.583.992l.014.026zm5.311 8.655s-3.316-.077-3.64 0a29.246 29.246 0 013.64-1.223v1.223zm5.149-12.738s2.359-.49 3.465.683c1.482 1.571-3.478-.683-3.478-.683h.013z" fill="#fff"/><path d="M430.74 508.605l10.865 3.13h59.406l1.348-22.746-11.525-4.701s2.143-17.582 5.581-36.425l7.885-.232 16.743-63.112-9.517-3.928 6.888-20.905h10.339l11.027-29.314s-39.672-15.083-63.235-17.079l-21.163 3.387-1.47 26.327-17.241 2.177-3.383 28.336 12.253 2.009-7.886 60.278-17.699 4.753-3.087 41.512 15.408 3.027-1.537 23.506z" fill="#407BFF"/><path opacity=".6" d="M518.427 359.7l-6.901 20.904 9.517 3.928-16.756 63.112-7.872.232c-3.451 18.844-5.581 36.425-5.581 36.425l11.498 4.701-1.348 22.759h-59.393l-10.864-3.13 1.563-23.48-15.421-3.014 3.006-40.495.081-1.017 17.713-4.753 7.872-60.278-12.253-2.074 3.464-28.336 17.228-2.177 1.482-26.326 21.151-3.401c23.616 2.01 63.234 17.092 63.234 17.092L528.821 359.7h-10.394z" fill="#fff"/><path opacity=".4" d="M502.333 488.976l-58.773 1.572-11.269-5.423 12.914 2.293 45.63-3.143 11.498 4.701zm-5.917-41.125l-42.502.128-34.037-6.362.081-1.018 17.713-4.753 18.71 10.717 40.035 1.288z" fill="#fff"/><path opacity=".2" d="M511.527 380.604l-52.437-4.907-13.548-.129-12.253-2.009 25.046-2.744 53.192 9.789zm17.226-20.904h-10.339l-41.37-18.058-23.132 1.365 24.399-3.014 50.442 19.707z" fill="#000"/><path opacity=".2" d="M476.545 313.28l1.766 26.713-24.399 3.014 1.469-26.314 21.164-3.413zm-18.21 57.535l6.74-27.808-28.389 2.177-3.397 28.375 25.046-2.744zm-12.793 4.753l25.68 1.262-14.842 69.732-18.71-10.716 7.872-60.278zm-25.667 66.049l34.037 6.362-6.875 39.31-30.168-5.178 3.006-40.494zm23.684 48.931l-1.968 21.187-10.864-3.129 1.563-23.468 11.269 5.41z" fill="#fff"/><path d="M422.465 450.401l29.885 6.504 35.21-1.481-33.646 7.213-31.449-12.236zm9.369 41.576l11 6.453h26.582l-32.271 2.473-10.811-7.058 5.5-1.868zm22.619 12.739h46.978l5.419 3.89-52.397-3.89zm-9.652-37.455l-26.313-7.033-4.705 2.409 31.018 4.624zm7.873 9.879l39.55-3.233 4.192 1.61-43.742 1.623zm12.4-41.294l42.732-1.468 3.72 3.001-46.452-1.533zm31.341-8.578l-35.115-3.812-21.676-7.715h-7.333l25.855 10.355 38.269 1.172zm-48.542-30.113l17.726 6.092 55.282 4.263-4.988-3.542-50.819-3.052-17.201-3.761zm6.04-35.279l-24.628 1.173 6.107 2.82 18.521-3.993zm-10.352-9.647l18.723-2.382 48.259 16.022-48.515-11.991-18.467-1.649zm59.837-9.222l-28.807-14.863-28.564 8.552 8.425 2.164 23.86-3.284 25.086 7.431zm-8.869-10.304l43.338 17.144h-5.405l-37.933-17.144zm-13.777-12.944l21.662 2.357 33.7 17.878s-43.554-18.11-55.362-20.235zm-36.45 63.524l10.703 2.576-15.124-1.288 4.421-1.288z" fill="#407BFF"/><path opacity=".7" d="M422.465 450.401l29.885 6.504 35.21-1.481-33.646 7.213-31.449-12.236zm9.369 41.576l11 6.453h26.582l-32.271 2.473-10.811-7.058 5.5-1.868zm22.619 12.739h46.978l5.419 3.89-52.397-3.89zm-9.652-37.455l-26.313-7.033-4.705 2.409 31.018 4.624zm7.873 9.879l39.55-3.233 4.192 1.61-43.742 1.623zm12.4-41.294l42.732-1.468 3.72 3.001-46.452-1.533zm31.341-8.578l-35.115-3.812-21.676-7.715h-7.333l25.855 10.355 38.269 1.172zm-48.542-30.113l17.726 6.092 55.282 4.263-4.988-3.542-50.819-3.052-17.201-3.761zm6.04-35.279l-24.628 1.173 6.107 2.82 18.521-3.993zm-10.352-9.647l18.723-2.382 48.259 16.022-48.515-11.991-18.467-1.649zm59.837-9.222l-28.807-14.863-28.564 8.552 8.425 2.164 23.86-3.284 25.086 7.431zm-8.869-10.304l43.338 17.144h-5.405l-37.933-17.144zm-13.777-12.944l21.662 2.357 33.7 17.878s-43.554-18.11-55.362-20.235zm-36.45 63.524l10.703 2.576-15.124-1.288 4.421-1.288z" fill="#fff"/><path opacity=".1" d="M452.674 389.865l14.639 3.529 41.141 3.761-41.141-1.919-14.639-5.371zm-4.801-10.356l23.347 1.095 43.743 7.148-45.104-4.469-21.986-3.774zm-6.268-12.468l18.32-2.756 46.425 10.291-46.816-8.707-17.929 1.172zm4.422-8.758l15.448-.425 46.978 11.566-47.422-9.724-15.004-1.417zm-9.908-8.436l23.455-2.563-23.455 4.237v-1.674zm-.728 6.118h8.169l-8.169 1.893v-1.893zm19.615-32.574l21.972-3.632 29.373 10.124-29.103-7.767-22.242 2.705v-1.43zm75.744 30.989l-33.512-9.995 32.568 12.52.944-2.525z" fill="#000"/><path opacity=".1" d="M472.408 325.877l4.907-1.056 53.435 16.448-53.206-14.761-5.136-.631zm66.497 6.826l-19.169-6.517 18.131 8.166 1.038-1.649zm-95.344 71.742l20.503 5.989 46.479 3.581-46.911-1.507-20.071-8.063zm-4.422 18.509l20.638 7.612 46.573 1.017h-46.789l-20.422-8.629zm58.759 20.543l-39.753-4.224-16.54-6.44 15.826 8.784 40.467 1.88zm13.831-23.866c-.377-.129-32.055-.915-32.055-.915l31.557 2.795.498-1.88zm-92.446 24.974l33.983 7.084h23.779l-24.035 1.391-33.134-6.518-.593-1.957zm74.895 16.319c0 .064-33.039 3.529-33.039 3.529l32.756-1.765.283-1.764zm-67.845-2.216c-.445-.206 20.517 3.98 20.517 3.98s-13.049-.412-20.517-3.98zm-8.358 8.553l28.874 6.646-28.874-4.521v-2.125zm5.406 9.879l24.493 5.332 36.504-.708-36.504 2.511-24.493-7.135zm33.16-6.556h25.599l-21.016.991-4.583-.991zm-21.137 19.964l7.873 3.284s41.868-.322 41.114 0c-.755.322-41.276 1.739-41.276 1.739l-7.711-5.023zm61.011 10.355s-39.092.941-38.269.941h32.352l5.917-.941zm5.919-7.844s-6.416-.618-5.918 0c.499.619 5.594 1.43 5.594 1.43l.324-1.43zm-66.943 11.657l6.74 1.339 36.193 2.551-36.355-.825-6.578-3.065z" fill="#000"/><path d="M365.996 236.374c8.681 3.683 25.019 3.181 31.287-9.944 6.268-13.124 5.823-24.382-8.358-30.693-14.181-6.311-32.055 1.739-33.578 13.679-1.524 11.94-3.047 21.136 10.649 26.958z" fill="#263238"/><path d="M198.775 487.65a12.402 12.402 0 002.022-4.161s4.274-4.662 17.834-7.599l1.2-5.834a4.718 4.718 0 00-.385-2.952 5.005 5.005 0 00-2.095-2.2 2.956 2.956 0 00-.822-.309 34.751 34.751 0 00-4.489-.348c-5.032-.017-10.06.259-15.057.824l.067 1.03 9.436-.154c3.222 0-.391 2.576-3.801 3.413-3.411.837-6.997 2.576-6.74 9.261.417 7.908.943 11.141 2.83 9.029z" fill="#2E353A"/><path d="M222.136 475.427s-17.416 4.417-21.339 8.062c0 0-2.399-6.272 6.578-10.729 11.62-5.757 9.153-8.114 9.153-8.114a29.52 29.52 0 014.974 1.842c3.047 1.726.634 8.939.634 8.939z" fill="#E4897B"/><path d="M469.481 527.822a13.817 13.817 0 00-4.745.76s-6.43-.721-16.647-9.763l-5.703 2.37a5.024 5.024 0 00-2.266 1.972 4.694 4.694 0 00-.672 2.858c.011.282.07.561.175.824a32.278 32.278 0 002.251 3.736c2.83 3.974 5.909 7.78 9.221 11.398l.862-.631-5.5-7.393c-1.846-2.512 2.413-1.12 5.096 1.069 2.682 2.19 6.133 4.083 11.795.065 6.524-4.715 9.018-7.007 6.133-7.265z" fill="#2E353A"/><path d="M445.716 516.333s13.655 11.232 19.02 12.249c0 0-4.044 5.436-12.967.876-11.539-5.899-12.2-2.576-12.2-2.576a26.363 26.363 0 01-1.213-4.971c-.256-3.414 7.36-5.578 7.36-5.578z" fill="#E4897B"/><path d="M385.623 256.454c4.448 2.898 11.768 29.765 13.978 31.491 2.211 1.726 18.562-6.659 18.562-6.659l3.572 7.599s-24.695 14.439-28.092 11.721c-3.397-2.717-14.504-31.788-14.504-31.788l6.484-12.364z" fill="#263238"/><path opacity=".2" d="M385.623 256.454c4.448 2.898 11.768 29.765 13.978 31.491 2.211 1.726 18.562-6.659 18.562-6.659l3.572 7.599s-24.695 14.439-28.092 11.721c-3.397-2.717-14.504-31.788-14.504-31.788l6.484-12.364z" fill="#fff"/><path d="M294.889 282.239l16.809 16.242s51.359 16.744 64.165-1.043c0 0-5.581-26.713-19.977-31.286-14.397-4.572-60.997 16.087-60.997 16.087z" fill="#263238"/><path opacity=".1" d="M294.889 282.239l16.809 16.242s51.359 16.744 64.165-1.043c0 0-5.581-26.713-19.977-31.286-14.397-4.572-60.997 16.087-60.997 16.087z" fill="#fff"/><path d="M417.26 288.319l10.177-5.294 4.799-10.896a56.718 56.718 0 015.864 2.279c.674.503-2.157 9.506-2.871 10.073-.715.566-4.759 1.017-4.759 1.017l-9.692 5.861-3.518-3.04z" fill="#E4897B"/><path d="M327.927 242.427s33.336-.734 57.694 14.027a229.769 229.769 0 01-14.922 53.155l-48.879-7.728s5.23-13.305-.566-39.928l6.673-19.526z" fill="#407BFF"/><path opacity=".6" d="M327.927 242.427s33.336-.734 57.694 14.027a229.769 229.769 0 01-14.922 53.155l-48.879-7.728s5.23-13.305-.566-39.928l6.673-19.526z" fill="#fff"/><path d="M342.391 240.972c6.74 27.357-22.916 51.842-45.548 52.138l-5.851-11.862 24.143-9.622 12.846-29.199 14.41-1.455zm33.012 9.505s-4.542 38.254.459 46.961c0 0 8.533-14.928 10.46-40.353a46.184 46.184 0 00-10.919-6.608z" fill="#263238"/><path opacity=".3" d="M342.391 240.972c6.74 27.357-22.916 51.842-45.548 52.138l-5.851-11.862 24.143-9.622 12.846-29.199 14.41-1.455zm33.012 9.505s-4.542 38.254.459 46.961c0 0 8.533-14.928 10.46-40.353a46.184 46.184 0 00-10.919-6.608z" fill="#fff"/><path d="M349.806 241.345s-6.066-3.065-16.082 2.821l6.161 4.173-4.57 4.933c-.087 8.871-2.276 17.608-6.403 25.554 0 0 10.946-10.677 14.639-22.346 3.694-11.67 2.022-14.336 6.255-15.135zm19.76 5.178s7.226 1.494 13.481 9.454l-3.856.683 3.748 6.221-9.436 20.093s-.998-15.456-.526-24.782c.085-4.125-1.101-8.183-3.411-11.669z" fill="#263238"/><path opacity=".2" d="M349.806 241.345s-6.066-3.065-16.082 2.821l6.161 4.173-4.57 4.933c-.087 8.871-2.276 17.608-6.403 25.554 0 0 10.946-10.677 14.639-22.346 3.694-11.67 2.022-14.336 6.255-15.135zm19.76 5.178s7.226 1.494 13.481 9.454l-3.856.683 3.748 6.221-9.436 20.093s-.998-15.456-.526-24.782c.085-4.125-1.101-8.183-3.411-11.669z" fill="#fff"/><path d="M370.469 372.477c-8.155 32.122-31.691 74.884-36.288 83.166-3.585 6.517-17.807 8.707-35.048 10.613-33.255 3.684-78.049 9.518-78.049 9.518v-10.02s90.451-20.364 91.92-25.013c2.049-6.582 4.462-37.88 6.619-64.22.256-2.937.499-5.809.728-8.578.377-4.56.728-8.797 1.024-12.455.701-8.385 1.133-13.82 1.133-13.82l48.258-32.548s9.894 23.184-.297 63.357z" fill="#263238"/><path opacity=".2" d="M370.469 372.477c-8.155 32.122-31.691 74.884-36.288 83.166-3.585 6.517-17.807 8.707-35.048 10.613-33.255 3.684-78.049 9.518-78.049 9.518v-10.02s90.451-20.364 91.92-25.013c2.049-6.582 4.462-37.88 6.619-64.22.256-2.937.499-5.809.728-8.578.377-4.56.728-8.797 1.024-12.455.701-8.385 1.133-13.82 1.133-13.82l48.258-32.548s9.894 23.184-.297 63.357z" fill="#000"/><path d="M393.614 412.224c-4.556-9.531-43.81-68.946-43.81-68.946l-38.579 6.234c12.442 34.866 56.737 70.479 64.245 79.727 7.509 9.248 63.289 91.68 63.289 91.68l6.861-4.637s-42.354-83.887-52.006-104.058z" fill="#263238"/><path d="M321.78 301.894l50.766 3.156-.93 5.564s-5.392 24.949-26.812 38.176l-33.578.722s-3.923-20.338 9.301-43.908l1.253-3.71z" fill="#263238"/><path d="M339.521 303.504l-16.742-.94-1.267 3.722 17.631 1.263.378-4.045zm2.103.116l-.378 4.083 29.346 2.112.27-4.546-29.238-1.649z" fill="#000"/><path d="M362.612 310.614h-.095l-5.392-.296a1.65 1.65 0 01-1.092-.502 1.44 1.44 0 01-.391-1.095l.23-3.465c.012-.198.064-.392.155-.57.091-.179.217-.338.372-.47a1.642 1.642 0 011.144-.377l5.392.309c.209.008.413.056.601.142.188.087.355.209.491.361.139.147.246.321.313.509s.094.387.078.586l-.202 3.413c-.03.383-.208.741-.5 1.005a1.653 1.653 0 01-1.077.424l-.027.026zm-5.15-5.461a.231.231 0 00-.157.06.21.21 0 00-.072.146l-.216 3.426a.253.253 0 00.073.154.27.27 0 00.156.078l5.393.309a.258.258 0 00.155-.07.242.242 0 00.074-.149l.202-3.413a.201.201 0 000-.167.297.297 0 00-.162-.078l-5.392-.296h-.054z" fill="#fff"/><path d="M363.475 308.077l-2.035-.116a.705.705 0 01-.466-.216.627.627 0 01.058-.911.681.681 0 01.488-.161l2.022.116a.684.684 0 01.466.215.64.64 0 01-.274 1.038.689.689 0 01-.259.035z" fill="#fff"/><path d="M365.307 275.632l13.871-6.801a13.733 13.733 0 013.585-3.49c1.483-.657 14.559 1.288 14.559 1.288l-4.894 9.879s-9.678-.528-10.703-1.288l-12.684 6.44-3.734-6.028z" fill="#E4897B"/><path d="M327.928 242.427c-12.766 3.169 6.416 47.888 14.828 50.426 8.411 2.537 35.385-14.825 35.385-14.825l-4.638-7.445s-23.576 9.016-25.733 8.024c-2.157-.992-10.865-23.467-12.415-27.486-1.55-4.018-7.427-8.694-7.427-8.694z" fill="#263238"/><path opacity=".2" d="M327.928 242.427c-12.766 3.169 6.416 47.888 14.828 50.426 8.411 2.537 35.385-14.825 35.385-14.825l-4.638-7.445s-23.576 9.016-25.733 8.024c-2.157-.992-10.865-23.467-12.415-27.486-1.55-4.018-7.427-8.694-7.427-8.694z" fill="#fff"/><path opacity=".6" d="M375.754 278.028a.449.449 0 01-.197.276.486.486 0 01-.343.071.448.448 0 01-.363-.343.415.415 0 010-.172.426.426 0 01.19-.286.46.46 0 01.349-.062.47.47 0 01.289.188.436.436 0 01.075.328zm-3.235 1.906a.422.422 0 01-.194.281.465.465 0 01-.345.067.48.48 0 01-.29-.188.436.436 0 01-.074-.328.438.438 0 01.194-.28.474.474 0 01.639.118.426.426 0 01.07.33z" fill="#fff"/><path d="M442.723 254.612l-17.133 42.426a2.297 2.297 0 01-1.104 1.109 2.453 2.453 0 01-1.592.179l-31.368-7.457a1.814 1.814 0 01-.685-.31 1.724 1.724 0 01-.486-.556 1.632 1.632 0 01-.069-1.414l17.12-42.427a2.31 2.31 0 011.106-1.105 2.474 2.474 0 011.59-.183l31.368 7.471c.25.051.485.155.689.302.203.148.371.336.49.552a1.615 1.615 0 01.074 1.413z" fill="#263238"/><path opacity=".3" d="M442.723 254.612l-17.133 42.427a2.307 2.307 0 01-1.105 1.109 2.462 2.462 0 01-1.591.179l-29.939-7.123a1.78 1.78 0 01-.694-.303 1.69 1.69 0 01-.491-.557 1.597 1.597 0 01-.055-1.42l17.119-42.427a2.307 2.307 0 011.105-1.109 2.462 2.462 0 011.591-.179l29.953 7.123c.25.053.485.157.689.307.203.149.37.339.488.556a1.6 1.6 0 01.063 1.417z" fill="#fff"/><path opacity=".3" d="M418.661 268.909a3.516 3.516 0 00-2.3.284 3.292 3.292 0 00-1.568 1.635 2.306 2.306 0 00.078 2.014c.166.31.4.582.687.797.287.215.619.368.974.447.778.17 1.594.07 2.303-.281a3.28 3.28 0 001.565-1.638 2.538 2.538 0 01-.977-.443 2.421 2.421 0 01-.69-.798 2.3 2.3 0 01-.072-2.017z" fill="#fff"/><path d="M340.182 252.165s1.981-8.527 5.499-10.304c3.519-1.778 20.315 1.043 26.152 6.285 3.603 3.481 5.881 8.016 6.47 12.88l-7.508-3.04-11.391 12.262-8.924-17.156-10.298-.927z" fill="#407BFF"/><path opacity=".5" d="M340.182 252.165s1.981-8.527 5.499-10.304c3.519-1.778 20.315 1.043 26.152 6.285 3.603 3.481 5.881 8.016 6.47 12.88l-7.508-3.04-11.391 12.262-8.924-17.156-10.298-.927z" fill="#fff"/><path d="M357.058 242.208c9.692.709 14.72 7.11 13.48 12.352l-6.026.799-4.853 12.622-1.914-14.026-6.079-3.697s-3.883-8.745 5.392-8.05z" fill="#E4897B"/><path d="M360.629 256.016c-9.247-6.968-8.169-12.429-8.169-12.429 4.543-2.396 7.563-7.574 8.655-11.592.356-1.266.6-2.559.727-3.864l10.717 9.016a39.744 39.744 0 00-3.518 4.585 16.782 16.782 0 00-1.901 3.761c-1.348 3.864.688 5.152.688 5.152-.27 5.087-7.199 5.371-7.199 5.371z" fill="#E4897B"/><path opacity=".2" d="M368.825 241.101a16.077 16.077 0 00-1.348 3.967c-4.826-2.795-6.915-8.321-7.791-12.739.183-1.28.255-2.572.215-3.864l11.822 7.728a38.873 38.873 0 00-2.898 4.908z" fill="#000"/><path d="M386 206.724c11.027 5.088 11.728 12.365 7.05 23.583-5.85 14.04-13.871 22.218-26.192 12.958-16.728-12.571.836-44.99 19.142-36.541z" fill="#E4897B"/><path d="M386.214 226.43c.085 1.981.42 3.944.998 5.848a3.488 3.488 0 01-3.505-.142l2.507-5.706z" fill="#DE5753"/><path d="M379.906 222.463c-.418.876-1.253 1.366-1.86 1.095-.607-.27-.768-1.185-.35-2.061.417-.876 1.24-1.365 1.86-1.107.62.257.768 1.146.35 2.073z" fill="#263238"/><path d="M379.273 220.325l2.346.116s-1.752 1.172-2.346-.116zm12.104 6.891c-.418.876-1.254 1.378-1.86 1.108-.607-.271-.769-1.185-.351-2.061.418-.876 1.24-1.378 1.861-1.108.62.271.768 1.185.35 2.061z" fill="#263238"/><path d="M390.744 225.091l2.346.116s-1.753 1.172-2.346-.116zm-7.71-8.346a.503.503 0 01-.234-.064.464.464 0 01-.17-.168 5.808 5.808 0 00-1.841-1.82 6.105 6.105 0 00-2.486-.872.469.469 0 01-.432-.288.422.422 0 01-.026-.176.44.44 0 01.142-.323.485.485 0 01.343-.128c3.181.078 5.041 3.027 5.122 3.143a.444.444 0 01.049.35.47.47 0 01-.224.281.525.525 0 01-.243.065zm13.277 3.696h-.202a5.448 5.448 0 00-2.239-.626 5.494 5.494 0 00-2.304.356.486.486 0 01-.528-.043.462.462 0 01-.119-.138.417.417 0 01-.047-.348.453.453 0 01.088-.159.465.465 0 01.148-.111 6.449 6.449 0 015.392.245c.113.053.2.145.242.258a.445.445 0 01-.013.347.461.461 0 01-.178.164.495.495 0 01-.24.055z" fill="#263238"/><path d="M364.984 218.96s9.53-6.273 12.132-13.318c0 0 26.165 1.558 16.527 23.184 0 0 11.646-17.826-7.091-27.048-18.737-9.222-32.028 17.427-26.272 29.83 0 0-1.227-8.784 4.704-12.648z" fill="#263238"/><path d="M365.658 221.961a4.94 4.94 0 00-.114-3.913c-.575-1.239-1.639-2.212-2.959-2.707-3.6-1.224-8.614 4.727-.931 10.304 1.106.747 2.373-.065 4.004-3.684z" fill="#E4897B"/><path d="M376.616 196.343s8.317-1.778 13.642.747c5.325 2.524 5.689 6.311 5.689 6.311a8.159 8.159 0 013.695.211 7.904 7.904 0 013.179 1.811c3.316 2.924 5.271 11.334 1.753 20.338-3.519 9.003-11.728 7.728-11.728 7.728s10.703-13.357-.701-22.038c0 0-3.734-4.276-8.088-1.687-4.354 2.588-7.454 13.395-17.039 6.362-9.584-7.032 1.335-17.71 9.598-19.783zm4.516 40.481a.501.501 0 01-.313-.116.46.46 0 01-.158-.283c-.216-1.636-3.087-3.49-4.179-4.057a.479.479 0 01-.226-.28.453.453 0 01.037-.351.468.468 0 01.287-.213.487.487 0 01.36.045c.175.091 4.341 2.319 4.664 4.74a.45.45 0 01-.093.336.49.49 0 01-.311.179h-.068z" fill="#263238"/><path d="M377.439 198.03s-5.783-18.341-18.346-13.06c-12.563 5.28-18.67 18.534-28.834 10.806-10.164-7.728-14.828 2.293-19.761 5.345-4.934 3.053-13.669-1.533-11.337-5.345 0 0-6.403 4.675 4.947 9.596 11.35 4.92 16.917-5.359 20.53-1.469 3.613 3.89 16.405 11.631 23.145 6.041a14.234 14.234 0 016.689-3.111 14.583 14.583 0 017.411.612l15.556-9.415z" fill="#263238"/><path d="M343.483 215.096a7.51 7.51 0 01-2.548-.451 73.01 73.01 0 01-7.104-3.13c-5.015-2.421-9.76-4.714-12.402-2.717a.344.344 0 01-.236.092.343.343 0 01-.311-.195.31.31 0 01-.027-.123.31.31 0 01.027-.123.313.313 0 01.076-.102c2.979-2.241 7.912.141 13.116 2.653a73.666 73.666 0 007.05 3.117c4.394 1.558 8.573-1.803 12.267-4.778 2.696-2.139 5.149-4.148 7.494-4.212a.354.354 0 01.243.085.32.32 0 01.108.224c0 .086-.035.17-.098.232a.36.36 0 01-.239.103c-2.103.064-4.516 1.996-7.064 4.057-3.087 2.409-6.578 5.268-10.352 5.268zm-35.465-16.113a4.032 4.032 0 01-2.359-.76.312.312 0 01-.145-.208.307.307 0 01.064-.243.343.343 0 01.213-.126.353.353 0 01.246.049c2.911 1.971 6.012-.992 9.031-3.864 2.13-2.035 4.139-3.954 6.107-4.186 1.968-.232 4.421 1.005 7.333 2.576a37.828 37.828 0 0014.828 5.358.347.347 0 01.228.117.314.314 0 01-.047.456.35.35 0 01-.249.071 38.72 38.72 0 01-15.138-5.448c-2.79-1.559-5.001-2.782-6.901-2.576-1.901.206-3.667 2.048-5.716 4.006-2.319 2.318-4.907 4.778-7.495 4.778zm65.484 22.759a9.212 9.212 0 01-4.111-1.146.322.322 0 01-.154-.204.307.307 0 01.046-.247.309.309 0 01.09-.09.313.313 0 01.119-.049.355.355 0 01.13 0 .32.32 0 01.119.049c.202.116 4.853 2.833 7.441-.902 6.659-9.673 9.045-12.043 13.103-10.368a.312.312 0 01.186.175.302.302 0 01-.011.25.344.344 0 01-.188.167.367.367 0 01-.257 0c-3.424-1.417-5.486.283-12.28 10.137a4.75 4.75 0 01-1.805 1.655 5.024 5.024 0 01-2.428.573z" fill="#263238"/><path d="M430.012 286.747l27.539-10.304s31.22 17.453 51.063 20.338l-34.32 6.44s-37.138-6.981-44.282-16.474zm-166.815 84.545l20.921-18.032s35.763 5.152 63.666 18.032l-29.144 17.092s-27.472-13.331-55.443-17.092zM95.478 394.334l26.88-8.862s23.32 23.816 41.909 23.816l-30.815 14.142s-32.851-12.017-37.974-29.096zm103.123-89.233s35.048-3.864 59.945 14.58l-12.819 15.083s-30.802-12.442-57.762-5.152l10.636-24.511zm316.402 140.856l33.808 5.513s-29.346 18.65-54.095 22.024l-26.677-8.256s32.163-3.207 46.964-19.281zm-10.73-55.938s32.501-1.674 55.484 7.432l13.79-12.571s-36.086-15.108-59.312-7.56l-9.962 12.699zM282.123 508.76s16.243-16.345 56.805-20.608l24.587 10.587s-36.679 7.612-53.38 15.018l-28.012-4.997z" fill="#407BFF"/><path opacity=".6" d="M430.012 286.747l27.539-10.304s31.22 17.453 51.063 20.338l-34.32 6.44s-37.138-6.981-44.282-16.474zm-166.815 84.545l20.921-18.032s35.763 5.152 63.666 18.032l-29.144 17.092s-27.472-13.331-55.443-17.092zM95.478 394.334l26.88-8.862s23.32 23.816 41.909 23.816l-30.815 14.142s-32.851-12.017-37.974-29.096z" fill="#fff"/><path opacity=".4" d="M198.601 305.101s35.048-3.864 59.945 14.58l-12.819 15.083s-30.802-12.442-57.762-5.152l10.636-24.511z" fill="#fff"/><path opacity=".8" d="M515.003 445.957l33.808 5.513s-29.346 18.65-54.095 22.024l-26.677-8.256s32.163-3.207 46.964-19.281z" fill="#fff"/><path opacity=".4" d="M504.273 390.019s32.501-1.674 55.484 7.432l13.79-12.571s-36.086-15.108-59.312-7.56l-9.962 12.699zM282.123 508.76s16.243-16.345 56.805-20.608l24.587 10.587s-36.679 7.612-53.38 15.018l-28.012-4.997z" fill="#fff"/></svg>