<svg width="627" height="573" fill="none" xmlns="http://www.w3.org/2000/svg"><path d="M350.498 573c130.426 0 236.158-6.403 236.158-14.302 0-7.898-105.732-14.302-236.158-14.302-130.427 0-236.158 6.404-236.158 14.302 0 7.899 105.731 14.302 236.158 14.302z" fill="#F5F5F5"/><path d="M447.801 544.22c-2.006 13.509-5.992 22.78-21.974 22.78s-19.956-9.271-21.962-22.78c-2.507-16.552 6.268-44.143 21.962-44.143 15.694 0 24.431 27.591 21.974 44.143z" fill="#407BFF"/><path opacity=".7" d="M447.801 544.22c-2.006 13.509-5.992 22.78-21.974 22.78s-19.956-9.271-21.962-22.78c-2.507-16.552 6.268-44.143 21.962-44.143 15.694 0 24.431 27.591 21.974 44.143z" fill="#fff"/><path d="M425.373 503.665a20.398 20.398 0 01-8.214-3.137 21.242 21.242 0 01-6.252-6.355c-3.628-5.515-5.258-12.185-4.6-18.827 6.267-2.262 12.836-1.989 17.286 4.616a25.672 25.672 0 013.774 11.618 25.866 25.866 0 01-1.994 12.085z" fill="#407BFF"/><path opacity=".3" d="M425.373 503.665a20.398 20.398 0 01-8.214-3.137 21.242 21.242 0 01-6.252-6.355c-3.628-5.515-5.258-12.185-4.6-18.827 6.267-2.262 12.836-1.989 17.286 4.616a25.672 25.672 0 013.774 11.618 25.866 25.866 0 01-1.994 12.085z" fill="#000"/><path d="M413.942 496.007c-1.166-8.218-9.59-13.809-17.549-13.705-5.158.208-10.164 1.872-14.478 4.811a7.677 7.677 0 00-2.442 2.58 8.018 8.018 0 00-1.058 3.444 8.078 8.078 0 00.553 3.57 7.793 7.793 0 002.044 2.927c3.191 2.876 7.163 4.657 11.369 5.097 7.521.767 16.208-3.094 21.561-8.724z" fill="#407BFF"/><path opacity=".2" d="M413.942 496.007c-1.166-8.218-9.59-13.809-17.549-13.705-5.158.208-10.164 1.872-14.478 4.811a7.677 7.677 0 00-2.442 2.58 8.018 8.018 0 00-1.058 3.444 8.078 8.078 0 00.553 3.57 7.793 7.793 0 002.044 2.927c3.191 2.876 7.163 4.657 11.369 5.097 7.521.767 16.208-3.094 21.561-8.724z" fill="#000"/><path d="M419.508 502.326a8.78 8.78 0 00-1.025-3.84 8.451 8.451 0 00-2.592-2.94 8.061 8.061 0 00-3.596-1.4 7.964 7.964 0 00-3.818.444c-4.724 1.729-8.811 4.942-11.694 9.193-2.882 4.25-4.416 9.326-4.388 14.523a9.992 9.992 0 00.835 4.064 9.665 9.665 0 002.399 3.327 9.243 9.243 0 003.523 1.978 9.016 9.016 0 003.998.266 16.984 16.984 0 006.644-2.601c4.468-3.244 7.651-8.057 8.962-13.548.681-3.103.934-6.29.752-9.466z" fill="#407BFF"/><path d="M419.508 502.326a8.78 8.78 0 00-1.025-3.84 8.451 8.451 0 00-2.592-2.94 8.061 8.061 0 00-3.596-1.4 7.964 7.964 0 00-3.818.444c-4.724 1.729-8.811 4.942-11.694 9.193-2.882 4.25-4.416 9.326-4.388 14.523a9.992 9.992 0 00.835 4.064 9.665 9.665 0 002.399 3.327 9.243 9.243 0 003.523 1.978 9.016 9.016 0 003.998.266 16.984 16.984 0 006.644-2.601c4.468-3.244 7.651-8.057 8.962-13.548.681-3.103.934-6.29.752-9.466zm30.197-23.183a19.92 19.92 0 00-15.456.247 20.226 20.226 0 00-5.014 3.185 9.615 9.615 0 00-2.84 4.086 9.962 9.962 0 00-.461 5.014 9.783 9.783 0 002.044 4.568 9.275 9.275 0 003.99 2.871 14.048 14.048 0 0011.281-.429c7.195-3.653 10.555-12.417 6.456-19.542z" fill="#407BFF"/><path opacity=".3" d="M449.705 479.143a19.92 19.92 0 00-15.456.247 20.226 20.226 0 00-5.014 3.185 9.615 9.615 0 00-2.84 4.086 9.962 9.962 0 00-.461 5.014 9.783 9.783 0 002.044 4.568 9.275 9.275 0 003.99 2.871 14.048 14.048 0 0011.281-.429c7.195-3.653 10.555-12.417 6.456-19.542z" fill="#000"/><path d="M443.135 487.087c-2.094 1.886-4.25 3.836-5.252 6.879a8.285 8.285 0 00-.376 3.666c.513 3.732 3.321 4.928 5.891 5.643a44.487 44.487 0 0026.324-.806 4.994 4.994 0 002.06-1.322 5.264 5.264 0 001.222-2.171c.23-.816.263-1.678.098-2.511a5.289 5.289 0 00-1.049-2.265c-2.729-3.594-6.25-6.457-10.266-8.348-5.39-2.366-14.014-2.925-18.652 1.235z" fill="#407BFF"/><path opacity=".2" d="M443.135 487.087c-2.094 1.886-4.25 3.836-5.252 6.879a8.285 8.285 0 00-.376 3.666c.513 3.732 3.321 4.928 5.891 5.643a44.487 44.487 0 0026.324-.806 4.994 4.994 0 002.06-1.322 5.264 5.264 0 001.222-2.171c.23-.816.263-1.678.098-2.511a5.289 5.289 0 00-1.049-2.265c-2.729-3.594-6.25-6.457-10.266-8.348-5.39-2.366-14.014-2.925-18.652 1.235z" fill="#000"/><path d="M446.445 496.501a6.938 6.938 0 00-5.337.845c-1.604.994-2.771 2.599-3.249 4.473a14.58 14.58 0 00.263 7.866 18.955 18.955 0 004.019 6.528 18.152 18.152 0 006.209 4.303 26.546 26.546 0 007.835 2.081 6.068 6.068 0 002.779-.303 6.236 6.236 0 002.375-1.526 6.54 6.54 0 001.501-2.445 6.734 6.734 0 00.327-2.878 24.98 24.98 0 00-4.187-11.767c-2.833-3.992-7.659-5.955-12.535-7.177z" fill="#407BFF"/><path d="M446.445 496.501a6.938 6.938 0 00-5.337.845c-1.604.994-2.771 2.599-3.249 4.473a14.58 14.58 0 00.263 7.866 18.955 18.955 0 004.019 6.528 18.152 18.152 0 006.209 4.303 26.546 26.546 0 007.835 2.081 6.068 6.068 0 002.779-.303 6.236 6.236 0 002.375-1.526 6.54 6.54 0 001.501-2.445 6.734 6.734 0 00.327-2.878 24.98 24.98 0 00-4.187-11.767c-2.833-3.992-7.659-5.955-12.535-7.177z" fill="#407BFF"/><path d="M431.391 496.397c-3.284-3.901-9.84-3.628-13.513 0-3.673 3.627-4.65 9.44-3.447 14.51 1.203 5.071 4.249 9.453 7.672 13.276a66.19 66.19 0 004.6 4.681 9.366 9.366 0 004.257 2.233 9.153 9.153 0 004.767-.197 9.44 9.44 0 004.071-2.578 9.936 9.936 0 002.348-4.308v-.13c1.404-5.279 2.833-10.766 1.968-16.175-.865-5.409-7.458-10.74-12.723-11.312z" fill="#407BFF"/><path opacity=".1" d="M431.391 496.397c-3.284-3.901-9.84-3.628-13.513 0-3.673 3.627-4.65 9.44-3.447 14.51 1.203 5.071 4.249 9.453 7.672 13.276a66.19 66.19 0 004.6 4.681 9.366 9.366 0 004.257 2.233 9.153 9.153 0 004.767-.197 9.44 9.44 0 004.071-2.578 9.936 9.936 0 002.348-4.308v-.13c1.404-5.279 2.833-10.766 1.968-16.175-.865-5.409-7.458-10.74-12.723-11.312z" fill="#fff"/><path opacity=".2" d="M432.568 500.155a55.583 55.583 0 013.384 26.772 101.286 101.286 0 00-5.716-28.307c.485.02.956.172 1.366.441.409.27.743.647.966 1.094zm-20.981-.78c-5.451 6.046-9.419 13.364-11.569 21.336.954-7.973 4.295-15.435 9.551-21.336.527-.651 1.342-.391 2.018 0zm-5.718-7.503a27.256 27.256 0 00-8.962-3.394c-4.613-.559-9.176 1.613-13.475 3.446a42.308 42.308 0 0111.219-4.486 14.095 14.095 0 015.985-.099 14.328 14.328 0 015.522 2.401c-.075.741-.213 1.391-.289 2.132zm52.62 22.364a51.96 51.96 0 00-5.891-9.413c-2.311-2.919-5.482-4.97-9.026-5.839 1.041 0 2.294-.325 3.347-.325 5.685 3.561 9.855 9.225 11.67 15.85.101-.247-.2-.026-.1-.273zm-37.099-22.052c-2.149-6.347-6.365-11.718-11.921-15.187 4.175 3.256 7.3 7.749 8.962 12.886.276.858.276 1.898.564 2.743.397.178.836.231 1.262.152a2.178 2.178 0 001.133-.594zm25.132-11.442a20.99 20.99 0 00-7.969 4.764 21.977 21.977 0 00-5.268 7.822c.451.221.451.455.903.689.551-3.159 2.983-5.63 5.402-7.632 2.42-2.002 4.588-3.511 6.932-5.643zm22.998 15.304c-2.883-4.564-8.274-6.983-13.526-7.139a30.481 30.481 0 00-15.117 4.187v1.847c4.155-3.055 9.178-4.575 14.265-4.317 5.233.138 10.281 2.041 14.378 5.422z" fill="#fff"/><path d="M421.437 437.483H239.678a10.218 10.218 0 01-4.29-.877 10.544 10.544 0 01-3.577-2.606 11.023 11.023 0 01-2.251-3.888 11.322 11.322 0 01-.537-4.5l19.605-289.538c.266-3.202 1.666-6.189 3.93-8.383 2.264-2.195 5.231-3.442 8.329-3.501h181.759a10.214 10.214 0 014.293.878 10.55 10.55 0 013.58 2.609 11.015 11.015 0 012.249 3.893c.48 1.446.661 2.981.533 4.504l-19.605 289.538c-.269 3.2-1.67 6.183-3.934 8.375-2.263 2.192-5.229 3.437-8.325 3.496z" fill="#407BFF"/><path opacity=".7" d="M414.431 423.57H249.444a10.202 10.202 0 01-4.288-.876 10.533 10.533 0 01-3.576-2.607 11.022 11.022 0 01-2.247-3.888 11.319 11.319 0 01-.531-4.5l17.787-263.949c.266-3.2 1.664-6.185 3.925-8.379s5.226-3.443 8.322-3.505h164.987a10.22 10.22 0 014.29.882 10.545 10.545 0 013.577 2.61 11.023 11.023 0 012.251 3.89c.48 1.445.663 2.979.536 4.502l-17.799 263.949c-.269 3.198-1.669 6.179-3.93 8.371s-5.223 3.438-8.317 3.5z" fill="#fff"/><path opacity=".2" d="M359.412 124.19L245.055 437.483h42.581L399.775 124.19m16.487 0L301.904 437.483h28.768L442.811 124.19" fill="#fff"/><path d="M401.556 227.013a9.884 9.884 0 01-4.145-.85 10.2 10.2 0 01-3.457-2.522 10.66 10.66 0 01-2.173-3.759 10.959 10.959 0 01-.517-4.35c.246-3.072 1.584-5.94 3.755-8.045 2.171-2.105 5.019-3.298 7.991-3.345a9.87 9.87 0 014.149.846c1.311.58 2.49 1.439 3.461 2.521a10.652 10.652 0 012.176 3.761c.464 1.397.641 2.88.518 4.353-.249 3.073-1.59 5.941-3.763 8.046-2.173 2.105-5.022 3.297-7.995 3.344zm1.454-21.571c-2.657.042-5.204 1.108-7.145 2.989-1.941 1.882-3.139 4.445-3.36 7.192a9.63 9.63 0 00.453 3.826 9.356 9.356 0 001.911 3.305 8.946 8.946 0 003.041 2.215 8.675 8.675 0 003.646.744c2.657-.042 5.203-1.108 7.145-2.99 1.941-1.881 3.139-4.445 3.359-7.191a9.572 9.572 0 00-.444-3.83 9.351 9.351 0 00-1.91-3.31 8.948 8.948 0 00-3.045-2.215 8.646 8.646 0 00-3.651-.735z" fill="#407BFF"/><path d="M395.074 213.166s6.606 8.334 6.506 7.411l.664-.767a75.181 75.181 0 0118.389-15.733l1.254-.806c-9.514 1.716-20.056 12.599-20.056 12.599l-2.883-3.901-3.874 1.197z" fill="#263238"/><path d="M398.396 273.965a9.875 9.875 0 01-4.149-.847 10.192 10.192 0 01-3.46-2.52 10.654 10.654 0 01-2.177-3.761 10.937 10.937 0 01-.517-4.353c.248-3.074 1.589-5.941 3.762-8.046 2.173-2.105 5.023-3.297 7.996-3.344a9.86 9.86 0 014.145.85 10.217 10.217 0 013.456 2.521 10.654 10.654 0 012.173 3.759c.464 1.397.64 2.879.517 4.351-.246 3.072-1.584 5.939-3.755 8.045-2.171 2.105-5.019 3.297-7.991 3.345zm-9.05-11.39a9.594 9.594 0 00.444 3.83 9.326 9.326 0 001.911 3.309 8.916 8.916 0 003.045 2.215 8.639 8.639 0 003.65.735c2.656-.042 5.201-1.108 7.14-2.99 1.94-1.882 3.135-4.445 3.352-7.19a9.575 9.575 0 00-.443-3.827 9.327 9.327 0 00-1.907-3.308 8.917 8.917 0 00-3.041-2.216 8.64 8.64 0 00-3.646-.739c-2.657.042-5.204 1.107-7.145 2.989-1.942 1.882-3.139 4.445-3.36 7.192z" fill="#407BFF"/><path d="M391.914 260.13s6.594 8.348 6.506 7.412l.652-.768a75.253 75.253 0 0118.401-15.746l1.316-.793c-9.526 1.704-20.056 12.587-20.056 12.587l-2.87-3.901-3.949 1.209z" fill="#263238"/><path d="M395.287 320.929a9.852 9.852 0 01-4.148-.851 10.212 10.212 0 01-3.458-2.525 10.662 10.662 0 01-2.173-3.763 10.944 10.944 0 01-.512-4.355c.246-3.072 1.584-5.939 3.755-8.045 2.171-2.105 5.019-3.297 7.99-3.345a9.889 9.889 0 014.145.855 10.217 10.217 0 013.456 2.521 10.674 10.674 0 012.178 3.756c.465 1.396.644 2.877.525 4.349-.245 3.076-1.585 5.947-3.758 8.054-2.173 2.108-5.025 3.302-8 3.349zm1.454-21.584c-2.655.045-5.201 1.112-7.141 2.993-1.941 1.881-3.14 4.443-3.363 7.188a9.62 9.62 0 00.457 3.824 9.372 9.372 0 001.911 3.303 8.991 8.991 0 003.039 2.216 8.68 8.68 0 003.643.747c2.657-.042 5.204-1.107 7.145-2.989 1.942-1.882 3.139-4.445 3.36-7.192a9.616 9.616 0 00-.453-3.827 9.382 9.382 0 00-1.91-3.308 8.971 8.971 0 00-3.041-2.219 8.697 8.697 0 00-3.647-.749v.013z" fill="#407BFF"/><path d="M388.744 307.069s6.606 8.347 6.506 7.424l.664-.78a75.484 75.484 0 0118.389-15.733l1.316-.793c-9.514 1.716-20.056 12.586-20.056 12.586l-2.883-3.9-3.936 1.196z" fill="#263238"/><path d="M336.211 202.868h-48.26v1.3h48.26v-1.3zm40.375 0h-29.119v1.3h29.119v-1.3zm-76.212 11.247h-26.436v1.3h26.436v-1.3zm73.191 0h-63.766v1.3h63.766v-1.3zm-33.794 11.247h-67.175v1.3h67.175v-1.3zm32.438 0H350.26v1.3h21.949v-1.3zm-83.118 11.247h-17.437v1.3h17.437v-1.3zm43.96 13.067h-48.26v1.301h48.26v-1.301zm40.388 0H344.32v1.301h29.119v-1.301zm-76.223 11.247h-26.437v1.301h26.437v-1.301zm73.191 0h-63.766v1.301h63.766v-1.301zm-33.794 11.247h-67.175v1.301h67.175v-1.301zm32.439 0h-21.948v1.301h21.948v-1.301zm-83.12 11.247h-17.436v1.301h17.436v-1.301zm46.228 13.055H283.9v1.3h48.26v-1.3zm40.377 0h-29.119v1.3h29.119v-1.3zm-76.214 11.247h-26.436v1.3h26.436v-1.3zm73.179 0h-63.766v1.3h63.766v-1.3zm-33.793 11.247h-67.176v1.3h67.176v-1.3zm32.453 0h-21.949v1.3h21.949v-1.3zm-83.12 11.247h-17.437v1.3h17.437v-1.3z" fill="#407BFF"/><path d="M362.561 394.432a2.626 2.626 0 01-1.191-.273c-1.579-.793-1.817-2.952-1.366-4.746a13.627 13.627 0 013.911-6.358 26.23 26.23 0 016.017-4.083c2.281-1.17 5.252-2.432 8.035-1.677l.501.169a5.63 5.63 0 00-.042-3.107 5.449 5.449 0 00-1.675-2.575 8.378 8.378 0 00-3.738-1.405 8.291 8.291 0 00-3.946.494 14.526 14.526 0 00-5.057 2.84 15.14 15.14 0 00-3.618 4.637.638.638 0 01-.371.321.615.615 0 01-.481-.048.628.628 0 01-.309-.378.67.67 0 01.046-.493c1.983-3.9 5.378-6.823 9.439-8.127a9.45 9.45 0 014.517-.522 9.572 9.572 0 014.257 1.653 6.711 6.711 0 012.128 3.3 6.938 6.938 0 01-.047 3.969 6.268 6.268 0 012.444 2.873c.364.874.544 1.818.527 2.77a1.942 1.942 0 012.281-.104c.047.027.09.062.126.104.222-.474.509-.912.852-1.3a3.07 3.07 0 011.745-1.085 2.99 2.99 0 012.016.278c.412.29.724.709.89 1.197 2.645-4.681 5.64-6.502 10.454-6.684.166 0 .326.069.443.191a.66.66 0 01.184.459.66.66 0 01-.184.46.615.615 0 01-.443.191c-4.3.13-7.396 1.508-10.492 8.165a.636.636 0 01-.341.307.604.604 0 01-.452-.011.632.632 0 01-.327-.323.666.666 0 01-.033-.467c.164-.398.211-.837.135-1.263a2.223 2.223 0 00-.561-1.129 1.828 1.828 0 00-1.166-.062 1.896 1.896 0 00-.978.66 7.622 7.622 0 00-1.316 2.821.637.637 0 01-.305.377.594.594 0 01-.472.039.633.633 0 01-.367-.315.674.674 0 01-.047-.491c.113-.403.113-.897-.125-1.079-.238-.182-.715 0-1.041.312a6.558 6.558 0 00-.99 1.3l-.15.377a.635.635 0 01-.339.328.602.602 0 01-.464-.003.62.62 0 01-.34-.326.658.658 0 01-.023-.48c.051-.15.109-.298.175-.442a5.915 5.915 0 000-4.252 5.149 5.149 0 00-1.842-2.223 4.95 4.95 0 01-.289.429c-3.61 4.876-7.671 9.882-12.986 13.522a6.13 6.13 0 01-3.209 1.288zm13.626-16.058a13.081 13.081 0 00-5.691 1.768 24.39 24.39 0 00-5.729 3.901 12.375 12.375 0 00-3.56 5.734c-.301 1.235-.213 2.769.715 3.237.702.352 1.742 0 3.171-.923 5.152-3.536 9.138-8.451 12.686-13.236l.138-.195-.276-.078a5.51 5.51 0 00-1.454-.208zm25.042 26.083h-44.073a.633.633 0 01-.44-.194.685.685 0 01-.187-.456.66.66 0 01.184-.46.615.615 0 01.443-.191h44.073c.167 0 .326.069.444.191a.664.664 0 010 .919.617.617 0 01-.444.191z" fill="#263238"/><path d="M317.632 411.081c14.725-15.274 14.725-40.038 0-55.312-14.725-15.274-38.599-15.274-53.324 0-14.725 15.274-14.725 40.038 0 55.312 14.725 15.273 38.599 15.273 53.324 0z" fill="#407BFF"/><path opacity=".3" d="M317.632 411.081c14.725-15.274 14.725-40.038 0-55.312-14.725-15.274-38.599-15.274-53.324 0-14.725 15.274-14.725 40.038 0 55.312 14.725 15.273 38.599 15.273 53.324 0z" fill="#000"/><path d="M274.6 396.577v63.738l16.596-17.215 16.509 17.124v-63.959l-33.105.312z" fill="#263238"/><path d="M290.959 418.838c18.782 0 34.008-15.794 34.008-35.276 0-19.482-15.226-35.275-34.008-35.275-18.782 0-34.008 15.793-34.008 35.275s15.226 35.276 34.008 35.276z" fill="#407BFF"/><path opacity=".2" d="M286.786 355.282a5.644 5.644 0 011.874-1.419 5.453 5.453 0 014.542-.036 5.648 5.648 0 011.895 1.39 5.59 5.59 0 002.715 1.686 5.423 5.423 0 003.163-.1 5.428 5.428 0 014.524.466c.681.4 1.274.944 1.74 1.596.467.652.797 1.398.969 2.19a5.918 5.918 0 001.556 2.856 5.579 5.579 0 002.794 1.539 5.529 5.529 0 012.127.97 5.765 5.765 0 011.566 1.781c.397.701.648 1.479.737 2.286a6.043 6.043 0 01-.218 2.4 6.064 6.064 0 00-.047 3.281 5.887 5.887 0 001.664 2.791 5.821 5.821 0 011.372 1.943 6.01 6.01 0 01.497 2.353 5.999 5.999 0 01-.463 2.361 5.837 5.837 0 01-1.344 1.964 5.89 5.89 0 00-1.619 2.819 6.04 6.04 0 00.103 3.279c.242.772.327 1.588.248 2.397a5.992 5.992 0 01-.707 2.296 5.767 5.767 0 01-1.541 1.804 5.532 5.532 0 01-2.112 1.005 5.59 5.59 0 00-2.79 1.632 5.923 5.923 0 00-1.484 2.945 5.951 5.951 0 01-.936 2.207 5.704 5.704 0 01-1.717 1.624 5.43 5.43 0 01-4.517.538 5.44 5.44 0 00-3.164-.051 5.604 5.604 0 00-2.69 1.728 5.663 5.663 0 01-1.876 1.423 5.482 5.482 0 01-2.269.518 5.48 5.48 0 01-2.278-.475 5.655 5.655 0 01-1.901-1.388 5.557 5.557 0 00-2.707-1.689 5.393 5.393 0 00-3.159.103 5.434 5.434 0 01-4.52-.471 5.696 5.696 0 01-1.741-1.594 5.943 5.943 0 01-.972-2.187 5.9 5.9 0 00-1.543-2.87 5.572 5.572 0 00-2.794-1.551 5.532 5.532 0 01-2.121-.977 5.784 5.784 0 01-1.562-1.78 6.065 6.065 0 01-.529-4.68 6.024 6.024 0 00.054-3.283 5.848 5.848 0 00-1.671-2.789 5.821 5.821 0 01-1.372-1.943 6.01 6.01 0 01-.034-4.713 5.831 5.831 0 011.344-1.965 5.87 5.87 0 001.624-2.81 6.035 6.035 0 00-.095-3.275 6.026 6.026 0 01.449-4.692 5.773 5.773 0 011.538-1.805 5.532 5.532 0 012.112-1.005 5.585 5.585 0 002.767-1.601 5.918 5.918 0 001.495-2.898 5.955 5.955 0 01.939-2.203 5.697 5.697 0 011.717-1.622 5.446 5.446 0 014.514-.544 5.422 5.422 0 003.176.018 5.602 5.602 0 002.678-1.773z" fill="#000"/><path d="M291.149 357.115l8.236-5.474 4.487 9.011 9.778-.468-.464 10.129 8.699 4.655-5.29 8.542 5.29 8.543-8.699 4.655.464 10.141-9.778-.468-4.487 9.011-8.236-5.487-8.235 5.487-4.488-9.011-9.765.468.452-10.141-8.687-4.655 5.277-8.543-5.277-8.542 8.687-4.655-.452-10.129 9.765.468 4.488-9.011 8.235 5.474z" fill="#407BFF"/><path opacity=".1" d="M291.149 357.115l8.236-5.474 4.487 9.011 9.778-.468-.464 10.129 8.699 4.655-5.29 8.542 5.29 8.543-8.699 4.655.464 10.141-9.778-.468-4.487 9.011-8.236-5.487-8.235 5.487-4.488-9.011-9.765.468.452-10.141-8.687-4.655 5.277-8.543-5.277-8.542 8.687-4.655-.452-10.129 9.765.468 4.488-9.011 8.235 5.474z" fill="#fff"/><path opacity=".3" d="M290.958 404.184c11.008 0 19.931-9.256 19.931-20.674s-8.923-20.674-19.931-20.674c-11.007 0-19.931 9.256-19.931 20.674s8.924 20.674 19.931 20.674z" fill="#000"/><path d="M302.615 379.752h-4.324a1.595 1.595 0 01-.788-.202 1.682 1.682 0 01-.6-.565 1.772 1.772 0 01-.142-1.625l.74-1.781c.177-.449.246-.935.201-1.418l-.201-1.755a4.389 4.389 0 00-1.35-2.779 4.095 4.095 0 00-2.799-1.122 1.613 1.613 0 00-1.143.467 1.732 1.732 0 00-.512 1.159l-.15 2.925a1.743 1.743 0 01-.351.975l-4.613 6.034a3.98 3.98 0 00-.827 2.236l-.502 9.908a4.563 4.563 0 00.247 1.777 4.44 4.44 0 00.909 1.527c.401.439.885.788 1.422 1.025a4.124 4.124 0 001.697.352h8.975a3.3 3.3 0 001.375-.315c.432-.204.817-.5 1.132-.869l.714-.819a5.272 5.272 0 001.179-2.379l2.08-9.635a1.718 1.718 0 00-.275-1.391l-.765-1.079a1.663 1.663 0 00-.59-.488 1.596 1.596 0 00-.739-.163z" fill="#fff"/><path d="M282.763 379.753h-2.62a2.334 2.334 0 00-1.621.681 2.508 2.508 0 00-.736 1.646l-.639 12.534c-.019.301.022.603.121.886.099.284.253.543.453.762.201.218.442.392.71.509.268.117.556.175.847.171h2.62a2.364 2.364 0 001.615-.688 2.54 2.54 0 00.742-1.64l.626-12.534c.019-.3-.022-.6-.12-.883a2.198 2.198 0 00-.45-.76 2.12 2.12 0 00-.705-.51 2.048 2.048 0 00-.843-.174z" fill="#263238"/><path d="M476.894 252.329l-7.647 30.426-26.699-19.205s-3.548 5.201-4.15 7.503c0 0 25.998 27.305 35.099 22.767 9.1-4.538 15.255-41.491 15.255-41.491h-11.858z" fill="#FF887B"/><path d="M436.329 273.341a16.916 16.916 0 01-6.393-1.3l-2.281-.924a2.54 2.54 0 01-.966-.948 2.676 2.676 0 01-.363-1.327v-6.865c0-1.6 1.003-3.251 2.507-2.965l10.129-.39 6.43 6.943-4.35 7.737-4.713.039z" fill="#FF887B"/><path d="M439.389 259.48a20.037 20.037 0 01-1.68-5.955 1.303 1.303 0 00-.435-1.001 1.222 1.222 0 00-1.019-.299c-.297.05-.566.209-.759.447a1.328 1.328 0 00-.294.853l-.125 6.41c-.009.297.081.588.255.825.173.237.419.404.697.476l3.021.78.414-1.677a1.443 1.443 0 00-.075-.859z" fill="#FF887B"/><path d="M515.715 232.227c-1.254-2.132-1.705-4.316-2.946-6.501-.188 0 7.947-1.378 13.199-14.797 7.822-4.329-2.808 12.769-6.593 17.502 4.763.585 8.774 5.305 9.251 10.258.413 3.823-3.096 7.373-5.992 9.804-4.289-4.26-6.776-10.108-6.919-16.266z" fill="#263238"/><path d="M513.329 553.971l-10.68.624-.401-12.001 10.68-.611.401 11.988z" fill="#FF887B"/><path opacity=".2" d="M502.248 540.826l.188 5.578 10.68-.663-.188-5.539-10.68.624z" fill="#000"/><path d="M502.049 552.385l12.084-.221a.906.906 0 01.591.2.966.966 0 01.337.541l2.256 9.895a1.698 1.698 0 01-.225 1.263 1.614 1.614 0 01-.445.464 1.537 1.537 0 01-.584.249h-.338c-4.237 0-6.268-.221-11.608-.13-3.271 0-11.745.573-16.295.651-4.55.078-5.177-4.551-3.335-5.006 8.299-2.029 13.1-4.707 15.732-7.243a2.526 2.526 0 011.83-.663z" fill="#263238"/><path d="M539.64 553.971l-10.68.624-.401-12.001 10.679-.611.402 11.988z" fill="#FF887B"/><path opacity=".2" d="M528.559 540.826l.188 5.578 10.679-.663-.188-5.539-10.679.624z" fill="#000"/><path d="M528.36 552.385l12.083-.221a.905.905 0 01.591.2.966.966 0 01.337.541l2.256 9.895a1.685 1.685 0 01-.22 1.266 1.556 1.556 0 01-1.033.71h-.339c-4.224 0-6.267-.221-11.607-.13-3.272 0-11.745.573-16.296.651-4.55.078-5.177-4.551-3.334-5.006 8.298-2.029 13.099-4.707 15.732-7.243a2.524 2.524 0 011.83-.663zm-27.88-8.074l14.265-1.131s7.584-56.054-1.63-106.542c1.003-39.462 4.212-122.769 4.212-122.769l-34.509-.143c-2.169 13.354-.94 91.017 3.673 129.634l13.989 100.951z" fill="#263238"/><path opacity=".2" d="M512.466 355.75l-9.828.637c-1.542 12.027 3.685 37.265 8.637 52.01.476-15.447.589-37.434 1.191-52.647z" fill="#000"/><path d="M526.681 544.311l14.277-1.131s6.982-60.878-1.529-103.018c.564-22.026 1.88-71.162 2.808-94.437a31.768 31.768 0 00-1.885-12.113 30.914 30.914 0 00-6.306-10.381 29.62 29.62 0 00-9.721-6.992 28.7 28.7 0 00-11.583-2.487h-3.761c-2.156 13.354-2.582 100.509 1.529 129.166l16.171 101.393z" fill="#263238"/><path d="M479.109 240.237c-1.63.858-9.765 25.927-9.765 25.927l17.449 8.646s4.725-21.077 6.731-28.02c2.043-7.229-8.875-11.364-14.415-6.553z" fill="#407BFF"/><path opacity=".6" d="M479.109 240.237c-2.507 2.431-9.765 25.927-9.765 25.927l17.449 8.646s4.725-21.077 6.731-28.02c2.043-7.229-8.875-11.364-14.415-6.553z" fill="#fff"/><path d="M480.702 247.453a102.291 102.291 0 00-3.159 13.978 14.7 14.7 0 000 3.315c.652 5.695 3.259 28.086 4.463 38.201.225 1.938.589 8.374-1.254 21.779a337.559 337.559 0 00-2.118 33.169l67.464-4.42c-2.219-30.01-16.434-48.109-16.421-52.309 0-12.443 1.253-25.173 6.53-49.539.289-1.336.32-2.718.092-4.067a10.643 10.643 0 00-1.42-3.793 10.247 10.247 0 00-2.713-2.937 9.86 9.86 0 00-3.592-1.633c-.301 0-.602-.117-.916-.156-2.82-.39-5.954-.742-9.138-.911a145.78 145.78 0 00-21.435-.078c-5.014.456-5.728-.403-9.576.273-3.297.625-4.576 3.667-6.393 7.919-.16.395-.298.798-.414 1.209z" fill="#407BFF"/><path opacity=".7" d="M480 249.546a84.94 84.94 0 00-2.507 11.859 14.03 14.03 0 000 3.315c.665 5.695 3.259 28.085 4.463 38.201.225 1.938.589 8.374-1.254 21.779a337.867 337.867 0 00-2.118 33.169l67.464-4.42c-2.219-30.01-16.434-48.109-16.421-52.309 0-12.443 1.253-25.173 6.53-49.539.289-1.336.32-2.719.092-4.067a10.643 10.643 0 00-1.42-3.793 10.234 10.234 0 00-2.713-2.937 9.827 9.827 0 00-3.592-1.633c-.301 0-.602-.117-.915-.156-2.821-.391-5.955-.742-9.139-.911a145.78 145.78 0 00-21.435-.078c-5.014.455-5.728-.403-9.576.273-3.849.677-5.679 5.435-7.459 11.247z" fill="#fff"/><path d="M483.359 310.983l46.944-.338v4.655h-46.944v-4.317z" fill="#263238"/><path d="M524.263 316.561h1.254c.251 0 .451-.143.439-.299l-.577-5.695c0-.169-.251-.312-.501-.312h-1.254c-.251 0-.439.13-.426.312l.576 5.682c.013.182.226.312.489.312zm-38.098-.143h1.254c.25 0 .451-.13.426-.299l-.577-5.695c0-.169-.238-.299-.489-.299h-1.253c-.251 0-.451.13-.426.312l.576 5.682c.025.156.239.286.489.299zm19.04.065h1.253c.251 0 .452-.13.426-.299l-.576-5.682c0-.169-.238-.299-.489-.299h-1.254c-.25 0-.438.143-.426.299l.577 5.695a.49.49 0 00.199.225c.088.052.19.073.29.061z" fill="#407BFF"/><path opacity=".7" d="M524.259 316.561h1.254c.251 0 .451-.143.439-.299l-.577-5.695c0-.169-.251-.312-.501-.312h-1.254c-.251 0-.439.13-.426.312l.577 5.682c.012.182.225.312.488.312zm-38.094-.143h1.254c.25 0 .451-.13.426-.299l-.577-5.695c0-.169-.238-.299-.489-.299h-1.253c-.251 0-.451.13-.426.312l.576 5.682c.025.156.239.286.489.299zm19.042.065h1.253c.251 0 .451-.13.426-.3l-.576-5.682c0-.169-.238-.299-.489-.299h-1.254c-.25 0-.438.143-.426.299l.577 5.695a.482.482 0 00.199.226c.088.052.19.073.29.061z" fill="#fff"/><path d="M499.591 261.964c0 .317-.09.626-.26.89-.17.263-.412.468-.694.589-.283.12-.593.151-.893.088a1.52 1.52 0 01-.789-.441 1.62 1.62 0 01-.419-.822 1.652 1.652 0 01.093-.925c.118-.292.318-.541.573-.715a1.5 1.5 0 01.86-.263 1.507 1.507 0 011.086.469c.142.148.255.325.331.519.076.194.114.401.112.611zm0 18.45c0 .317-.09.627-.26.89s-.412.468-.694.589a1.487 1.487 0 01-.893.089 1.529 1.529 0 01-.789-.442 1.615 1.615 0 01-.419-.822 1.652 1.652 0 01.093-.925c.118-.292.318-.541.573-.715a1.5 1.5 0 01.86-.263c.202 0 .402.041.588.122.187.081.356.199.498.347a1.597 1.597 0 01.443 1.13zm1.692 16.617c.002.317-.086.627-.254.892a1.557 1.557 0 01-.689.595 1.494 1.494 0 01-.892.096c-.3-.06-.576-.211-.793-.434a1.654 1.654 0 01-.34-1.745c.117-.293.314-.543.568-.72.254-.176.552-.27.858-.27.407 0 .797.167 1.086.464.289.297.452.7.456 1.122z" fill="#407BFF"/><path d="M498.502 323.751l-26.75 2.107a2.032 2.032 0 01-1.4-.449 2.166 2.166 0 01-.768-1.294l-7.434-42.18a1.754 1.754 0 01.309-1.38c.144-.194.326-.353.535-.467.208-.114.438-.18.673-.194l26.725-2.119a2.067 2.067 0 011.404.458c.4.322.676.782.777 1.297l7.421 42.18a1.752 1.752 0 01-.295 1.375 1.645 1.645 0 01-.528.469 1.585 1.585 0 01-.669.197z" fill="#263238"/><path d="M480.826 281.923l-6.393.507a2.582 2.582 0 01-1.757-.567 2.761 2.761 0 01-.976-1.618l-.677-3.9 11.006-.872.69 3.901c.062.299.061.609-.004.908a2.133 2.133 0 01-.373.822c-.18.242-.409.441-.671.583a1.98 1.98 0 01-.845.236z" fill="#263238"/><path opacity=".7" d="M480.826 281.923l-6.393.507a2.582 2.582 0 01-1.757-.567 2.761 2.761 0 01-.976-1.618l-.677-3.9 11.006-.872.69 3.901c.062.299.061.609-.004.908a2.133 2.133 0 01-.373.822c-.18.242-.409.441-.671.583a1.98 1.98 0 01-.845.236z" fill="#fff"/><path d="M491.644 277.827l-1.253.091c.499-.03.993.126 1.39.441.398.315.674.767.778 1.275l7.434 42.18a1.754 1.754 0 01-.309 1.38 1.651 1.651 0 01-.535.467c-.208.114-.438.18-.673.194l1.253-.091a1.605 1.605 0 001.214-.665 1.756 1.756 0 00.303-1.389l-7.421-42.076a2.2 2.2 0 00-.76-1.332 2.056 2.056 0 00-1.421-.475z" fill="#fff"/><path d="M539.892 246.803c.978 6.501 1.73 12.82 2.294 19.309.288 3.224.552 6.501.639 9.803a86.57 86.57 0 01-.062 10.402 29.942 29.942 0 01-.427 3.186 13.695 13.695 0 01-.701 2.353c-.136.299-.286.59-.452.871l-.275.547c-.151.221-.301.429-.464.637l-.276.325-.088.169-.063.13-.225.221c-1.254 1.131-2.444 2.34-3.761 3.367a59.797 59.797 0 01-8.373 5.838 44.565 44.565 0 01-9.514 3.901 31.223 31.223 0 01-5.127.975 36.04 36.04 0 01-2.658.156h-1.378c-.514 0-.878-.065-1.592-.169l.614-6.657c.233-.076.472-.133.714-.169l.928-.221a22.467 22.467 0 001.893-.585 33.451 33.451 0 003.76-1.599 46.48 46.48 0 007.007-4.473c1.091-.936 2.194-1.755 3.247-2.809 1.053-1.053 2.081-1.911 3.071-2.899.99-.988 1.943-2.146 2.933-3.186l.113-.234.063-.117v.104l-.126.247c-.089.14-.185.274-.288.403a1.906 1.906 0 00-.15.273l-.176.338c-.138.286-.1.195 0 .078a9.848 9.848 0 00.088-1.573c0-2.6-.188-5.747-.476-8.789a427.25 427.25 0 00-.966-9.284 2318.602 2318.602 0 00-2.293-18.711l12.547-2.158z" fill="#FF887B"/><path d="M511.11 309.019l-12.221 1.6.852-11.611s6.932 0 10.141 4.342l1.228 5.669zm-18.802-1.04l-.564-4.447a3.386 3.386 0 01.615-2.397 3.155 3.155 0 012.055-1.269l5.327-.858-.852 11.611-3.247.208a3.097 3.097 0 01-2.206-.744 3.322 3.322 0 01-1.128-2.104z" fill="#FF887B"/><path d="M527.586 259.818h-17.988v4.408h17.988v-4.408z" fill="#fff"/><path d="M525.164 241.784c-6.581 8.426-1.253 37.044-1.253 37.044l22.187-4.005s.79-20.401-5.578-29.515c-4.425-6.358-11.645-7.932-15.356-3.524z" fill="#407BFF"/><path opacity=".6" d="M525.164 241.784c-6.581 8.426-1.253 37.044-1.253 37.044l22.187-4.005s.79-20.401-5.578-29.515c-4.425-6.358-11.645-7.932-15.356-3.524z" fill="#fff"/><path d="M516.566 213.101c-1.379 7.138-2.783 20.232 2.018 25.003-3.459 3.901-9.025 10.402-18.652 13.302-5.39-9.856-2.77-13.393-2.77-13.393 7.684-1.859 7.521-7.801 6.192-13.327l13.212-11.585z" fill="#FF887B"/><path opacity=".2" d="M515.122 214.362a30.577 30.577 0 01-2.908 12.248c-1.253 2.601-4.7 3.797-8.173 4.057a20.497 20.497 0 00-.664-5.981l11.745-10.324z" fill="#000"/><path d="M527.57 204.22c-3.385 11.455-4.5 16.357-11.57 20.934-10.542 6.865-23.353.117-23.391-12.118 0-11.026 5.503-27.877 17.462-29.802a15.18 15.18 0 017.898.745 15.703 15.703 0 016.541 4.652 16.545 16.545 0 013.516 7.374 16.885 16.885 0 01-.406 8.215h-.05z" fill="#FF887B"/><path d="M520.324 180.816c-7.383-7.034-15.531-4.213-19.805-1.898a17.5 17.5 0 00-5.516 4.778 18.258 18.258 0 00-3.171 6.69c-.451 1.924 0 6.345 3.598 7.593a19.211 19.211 0 014.111-5.929c2.683-2.197 7.672-2.432 9.665-1.807a50.183 50.183 0 007.759 13.002c3.159 3.628 7.822 6.202 12.535 5.526 4.274-5.682 5.703-13.574 2.82-20.141-2.883-6.566-11.996-7.814-11.996-7.814z" fill="#263238"/><path d="M513.117 200.242a1.163 1.163 0 01-.176-.235c-1.378-1.963-4.562-2.782-5.916-3.133a.567.567 0 01-.358-.229.604.604 0 01-.106-.421.578.578 0 01.226-.372.521.521 0 01.413-.096c1.73.403 5.516 1.625 6.757 3.796a.589.589 0 01-.314.742.555.555 0 01-.526-.052zm-15.945-2.523v-.078a.548.548 0 01-.164-.397.555.555 0 01.164-.396 5.448 5.448 0 012.187-1.351 5.297 5.297 0 012.539-.184.556.556 0 01.421.466.574.574 0 01-.257.573.536.536 0 01-.415.067 4.197 4.197 0 00-2.023.15 4.31 4.31 0 00-1.737 1.085.538.538 0 01-.715.065z" fill="#263238"/><path d="M524.598 206.365a8.334 8.334 0 00-2.483-2.165 8.035 8.035 0 00-3.095-1.007l-4.914-.546a5.609 5.609 0 00-1.223-3.772 5.23 5.23 0 00-3.363-1.915 5.127 5.127 0 00-3.724.952 5.487 5.487 0 00-2.119 3.318 1.526 1.526 0 00-1.166-.13 5.476 5.476 0 00-1.718-3.624 5.086 5.086 0 00-3.661-1.372 5.118 5.118 0 00-3.554 1.647 5.503 5.503 0 00-1.457 3.745c0 1.397.522 2.739 1.457 3.745a5.118 5.118 0 003.554 1.647 5.086 5.086 0 003.661-1.372 5.471 5.471 0 001.718-3.623.853.853 0 011.078.117 5.625 5.625 0 001.202 3.877 5.241 5.241 0 003.448 1.95 5.148 5.148 0 003.793-1.053 5.516 5.516 0 002.049-3.474l4.901.546a7.43 7.43 0 012.844.926 7.706 7.706 0 012.283 1.987l1.404 1.807.539-.442-1.454-1.769zm-27.866-.481a4.544 4.544 0 01-2.468-1.091 4.818 4.818 0 01-1.469-2.33 4.974 4.974 0 01.026-2.784 4.805 4.805 0 011.511-2.3 4.486 4.486 0 015.116-.477 4.718 4.718 0 011.882 1.984 4.95 4.95 0 01-.034 4.525 4.771 4.771 0 01-1.159 1.44 4.568 4.568 0 01-1.603.868 4.448 4.448 0 01-1.802.165zm11.608 1.301a4.552 4.552 0 01-2.473-1.086 4.823 4.823 0 01-1.474-2.328 4.963 4.963 0 01.021-2.786 4.803 4.803 0 011.509-2.303 4.53 4.53 0 012.488-1.047 4.491 4.491 0 012.63.565 4.717 4.717 0 011.884 1.984c.425.84.601 1.792.504 2.736a4.86 4.86 0 01-1.696 3.222 4.525 4.525 0 01-3.393 1.043z" fill="#263238"/><path d="M530.076 210.721a8.873 8.873 0 01-1.555 3.026 8.513 8.513 0 01-2.556 2.175c-2.62 1.379-4.538-.884-4.312-3.77.213-2.601 1.83-6.502 4.7-6.684a3.65 3.65 0 011.802.357 3.79 3.79 0 011.424 1.197c.373.515.616 1.118.71 1.754a4.04 4.04 0 01-.175 1.893l-.038.052z" fill="#FF887B"/><path d="M502.438 203.31a25.533 25.533 0 01-4.626 5.201c.385.458.862.823 1.396 1.07.535.247 1.115.37 1.701.36l1.529-6.631z" fill="#BA4D3C"/><path d="M501.987 214.206a.298.298 0 01-.125-.286.285.285 0 01.119-.18.267.267 0 01.207-.041 7.25 7.25 0 003.448-.125 7.443 7.443 0 003.032-1.708.292.292 0 01.086-.089.279.279 0 01.235-.028.276.276 0 01.169.171.29.29 0 01-.101.336 7.762 7.762 0 01-3.256 1.883 7.549 7.549 0 01-3.726.106l-.088-.039zm8.509-10.974c-.176.949-.802 1.638-1.404 1.521-.602-.117-.953-.988-.777-1.95.175-.962.802-1.638 1.404-1.508.601.13.952.988.777 1.937zm-10.629-1.495c-.176.962-.802 1.638-1.404 1.521-.602-.117-.953-.975-.777-1.95.175-.975.802-1.626 1.404-1.509.601.118.952.989.777 1.938z" fill="#263238"/><path d="M499.326 199.903l-2.094-1.092s.84 2.015 2.094 1.092zm10.656 1.496l-2.093-1.093s.802 2.016 2.093 1.093z" fill="#263238"/><path d="M494.908 245.828c0 .143 5.014 6.501 5.014 6.501l10.028-4.772-4.161-2.405-4.488 2.353a11.604 11.604 0 01-.752-7.151c.777-4.213-5.641 5.474-5.641 5.474z" fill="#407BFF"/><path d="M500.81 246.348a60.798 60.798 0 00-6.267 5.318c-1.417-5.11.113-14.303 4.813-16.396 1.856-.845 2.294-1.235 4.162-2.081-1.918 3.433-4.337 7.997-2.708 13.159zm14.979-14.017C514.259 242.46 502 246.972 502 246.972c1.955 1.833 2.871 3.524 4.826 5.357 5.779-3.416 10.744-8.135 14.528-13.809-1.73-2.158-3.76-4.199-5.465-6.345-.1.156-.075-.039-.1.156z" fill="#407BFF"/><path d="M230.2 256.867l16.458-.807 4.764-3.523a3.632 3.632 0 012.507-.182l7.596.585a3.725 3.725 0 011.527.879c.436.414.771.927.98 1.5l.263 7.503a3.913 3.913 0 01-1.197 1.896 3.685 3.685 0 01-2.012.886l-9.238 1.118a3.64 3.64 0 01-2.119-.377l-6.079-1.703-20.056 2.106 6.606-9.881z" fill="#FF887B"/><path d="M251.674 252.485a19.46 19.46 0 003.585-4.954c.067-.173.169-.329.3-.457a1.24 1.24 0 01.985-.35c.179.018.352.076.507.17.253.152.447.392.548.677.101.285.102.597.004.883l-2.068 6.046a1.302 1.302 0 01-.49.646 1.218 1.218 0 01-.764.212l-3.146-.429.188-1.716a1.32 1.32 0 01.351-.728z" fill="#FF887B"/><path d="M209.555 270.012a9.52 9.52 0 01-4.79-1.136 9.946 9.946 0 01-3.659-3.402 166.647 166.647 0 01-9.602-17.202c-4.161-8.607-5.327-26.005-10.203-34.209 8.524 3.784 17.862 10.285 21.861 18.957 3.059 6.645 7.032 13.081 10.329 19.608l25.434-.455a5.707 5.707 0 013.607 1.197 6.082 6.082 0 012.146 3.237c1.254 4.525 2.081 10.922-2.131 11.702-4.901.819-23.653 1.443-32.992 1.703z" fill="#263238"/><path d="M185.674 556.182l10.855-.299-.213-26.083-10.855.299.213 26.083z" fill="#FF887B"/><path d="M196.957 550.656l-11.87.325a.958.958 0 00-.6.297c-.16.169-.259.39-.278.626l-1.604 11.793c-.091.491-.001 1 .252 1.426.253.426.65.738 1.114.875h.301c4.274-.221 10.442-.702 15.819-.845 6.268-.169 6.807.234 14.165 0 4.45-.13 5.44-5.643 3.547-6.098-8.586-2.028-10.617-2.21-18.201-7.541a4.41 4.41 0 00-2.645-.858z" fill="#263238"/><path opacity=".2" d="M196.32 529.813l-.176 14.719-10.855.299.176-14.719 10.855-.299z" fill="#000"/><path d="M198.374 551.683a.225.225 0 01-.188-.13.269.269 0 01.1-.351c.477-.273 4.676-2.666 5.992-1.924.127.06.236.154.315.273.08.119.127.258.136.403a1.413 1.413 0 01-.413 1.3 3.814 3.814 0 01-2.57.754c-1.132.009-2.261-.1-3.372-.325zm.777-.39c2.382.351 4.137.195 4.764-.429a.94.94 0 00.263-.858.43.43 0 00-.163-.286 1.563 1.563 0 00-.489-.078 13.262 13.262 0 00-4.375 1.651z" fill="#407BFF"/><path d="M197.81 551.306a.327.327 0 01-.113-.247c0-.117.176-3.121 1.454-4.317.184-.177.402-.311.64-.394.238-.083.49-.113.739-.087.702 0 .965.416.978.702.251 1.3-2.156 3.719-3.435 4.356h-.112a.309.309 0 01-.151-.013zm1.68-4.148a6.173 6.173 0 00-1.254 3.459c1.254-.858 2.921-2.796 2.771-3.537 0-.065-.063-.286-.514-.273h-.163a1.29 1.29 0 00-.84.351z" fill="#407BFF"/><path d="M145.789 556.975l10.855-.13.163-26.083-10.855.143-.163 26.07z" fill="#FF887B"/><path d="M157.122 551.618l-11.871.156a.934.934 0 00-.609.283c-.164.167-.263.39-.281.627l-1.78 11.767a2.08 2.08 0 00.242 1.425c.247.427.639.744 1.099.89.1.012.201.012.301 0 4.275-.143 10.442-.533 15.832-.598 6.267-.078 6.794.338 14.152.247 4.462 0 5.528-5.565 3.648-6.033-8.562-2.172-10.592-2.38-18.088-7.802a4.613 4.613 0 00-2.645-.962z" fill="#263238"/><path opacity=".2" d="M156.808 530.775l-.376 14.706-10.868.143.389-14.706 10.855-.143z" fill="#000"/><path d="M158.563 552.684a.272.272 0 01-.201-.143.262.262 0 01-.013-.194.244.244 0 01.126-.144c.477-.273 4.713-2.6 6.017-1.846a.793.793 0 01.309.283.843.843 0 01.13.406c.045.236.029.481-.046.709a1.387 1.387 0 01-.38.591 3.913 3.913 0 01-2.595.715 16.986 16.986 0 01-3.347-.377zm.765-.39c2.394.39 4.136.26 4.776-.351a.974.974 0 00.275-.858.302.302 0 00-.163-.273 1.003 1.003 0 00-.476-.091c-1.546.26-3.038.792-4.412 1.573z" fill="#407BFF"/><path d="M157.998 552.281a.273.273 0 01-.113-.234c0-.13.226-3.121 1.517-4.291.185-.173.404-.304.641-.385a1.73 1.73 0 01.738-.083c.702 0 .965.429.977.715.226 1.301-2.218 3.68-3.51 4.304h-.1a.203.203 0 01-.15-.026zm1.742-4.122a6.329 6.329 0 00-1.253 3.446c1.253-.832 2.958-2.744 2.82-3.485 0-.065 0-.299-.501-.286h-.163a1.231 1.231 0 00-.903.325z" fill="#407BFF"/><path d="M196.554 317.978l3.259 138.346.852 80.614a4.138 4.138 0 01-.953 2.879 3.852 3.852 0 01-2.619 1.373l-12.911.26a3.765 3.765 0 01-2.6-1.122 4.05 4.05 0 01-1.161-2.662c-1.88-18.047-8.586-46.6-6.468-80.432 0 0-10.93-88.495-11.996-115.553l1.642-24.119 32.955.416z" fill="#263238"/><path opacity=".3" d="M170.371 355.711s1.855 22.26-1.091 58.511c0 0-3.647-26.564-5.653-41.088l6.744-17.423z" fill="#000"/><path d="M173.418 316.639l-9.351 140.764-3.761 80.497a4.123 4.123 0 01-1.097 2.802 3.834 3.834 0 01-2.663 1.229l-12.912-.533a3.8 3.8 0 01-2.485-1.303 4.086 4.086 0 01-.987-2.702c-.852-18.138-5.916-47.042-1.867-80.693 0 0-5.867-89.014-5.391-116.085l3.009-23.976h37.505z" fill="#263238"/><path d="M156.781 209.499c2.218-7.112 1.742-17.306 1.002-23.69l14.854 15.225a19.35 19.35 0 00-.927 8.478c.091.656.384 1.264.836 1.733a2.916 2.916 0 001.671.867l6.267 2.055.74 5.071-3.761 1.027-4.863 6.579-12.636-6.579-13.249-6.397a23.555 23.555 0 016.167-1.196 5.295 5.295 0 002.323-1.093 5.56 5.56 0 001.576-2.08z" fill="#FF887B"/><path d="M196.554 317.978l-62.788 1.3 11.958-106.099c.449-.15.905-.276 1.366-.377l4.801-.898c.953.69 10.517 9.583 19.793 9.96 7.847.299 4.626-9.986 4.626-9.986l3.372 1.093 1.341.208 4.074 3.159s8.649 19.504 10.73 68.003l.727 33.637z" fill="#407BFF"/><path opacity=".8" d="M196.554 317.978l-62.788 1.3 11.958-106.099c.449-.15.905-.276 1.366-.377l4.801-.898c.953.69 10.517 9.583 19.793 9.96 7.847.299 4.626-9.986 4.626-9.986l3.372 1.093 1.341.208 4.074 3.159s8.649 19.504 10.73 68.003l.727 33.637z" fill="#fff"/><path opacity=".2" d="M163.826 193.194l8.561 8.699a21.784 21.784 0 00-.815 4.941c-3.484-.82-7.771-4.239-8.862-8.335-.727-2.535.188-5.084 1.116-5.305z" fill="#000"/><path d="M155.542 174.315c.639 11.702.451 18.593 6.129 24.613 8.524 9.102 22.488 3.745 25.208-7.892 2.507-10.558.978-27.877-10.028-32.584a14.902 14.902 0 00-7.683-1.134 15.074 15.074 0 00-7.241 2.895 15.857 15.857 0 00-4.962 6.189 16.507 16.507 0 00-1.423 7.913z" fill="#FF887B"/><path d="M152.484 163.094a15.014 15.014 0 00-5.63 4.399 15.78 15.78 0 00-3.064 6.584 16.1 16.1 0 00.181 7.309 15.694 15.694 0 003.386 6.412c2.331 2.601 5.59 4.538 7.157 7.801.803 1.652-.225 3.29-1.755 4.239 1-.258 1.908-.806 2.618-1.58a5.704 5.704 0 001.394-2.789c.161.847.149 1.72-.035 2.562a6.273 6.273 0 01-1.031 2.327 10.329 10.329 0 003.037-4.51 10.68 10.68 0 00.373-5.488 12.476 12.476 0 01-3.243-4.444 12.917 12.917 0 01-1.057-5.464 11.66 11.66 0 011.46-5.116 11.177 11.177 0 013.554-3.856l-.927.429c-1.247-3.535-3.481-6.605-6.418-8.815z" fill="#263238"/><path d="M159.315 180.556a3.995 3.995 0 00-1.68-.455 2.004 2.004 0 00-1.042.146 2.09 2.09 0 00-.838.66 3.241 3.241 0 00-.088 2.496c.878 3.71 1.843 7.394 2.896 11.052-5.653-5.958-9.124-13.775-9.815-22.104 3.347-.299 7.283-.507 10.63-.806l-.063 9.011zm14.103-3.186c.088.949.639 1.677 1.253 1.612.615-.065 1.003-.871.928-1.82-.075-.949-.639-1.664-1.253-1.612-.615.052-.928.871-.928 1.82zm10.378-.793c.088.936.64 1.664 1.254 1.599.614-.065 1.015-.871.927-1.807-.087-.936-.639-1.677-1.253-1.625-.614.052-1.003.871-.928 1.833zm-14.365-3.563a.865.865 0 01-.25-.117.596.596 0 010-.793 5.35 5.35 0 012.23-1.244 5.233 5.233 0 012.533-.056.545.545 0 01.385.472.568.568 0 01-.022.217.56.56 0 01-.254.338.514.514 0 01-.41.052 4.122 4.122 0 00-2.007.075 4.232 4.232 0 00-1.753 1.017.562.562 0 01-.452.039zm18.276-.832a.489.489 0 01-.514 0 4.16 4.16 0 00-3.848-.325.532.532 0 01-.412.029.558.558 0 01-.348-.704.543.543 0 01.271-.326 5.187 5.187 0 014.926.364.534.534 0 01.263.529.55.55 0 01-.062.199.496.496 0 01-.276.234z" fill="#263238"/><path d="M149.987 185.171c1.512 2.491 3.907 4.265 6.669 4.941 3.685.845 5.327-2.6 4.136-6.098-1.065-3.133-4.262-7.372-7.872-6.67-3.61.702-4.751 4.772-2.933 7.827z" fill="#FF887B"/><path d="M179.861 177.149a32.226 32.226 0 005.403 7.164c-1.354 1.86-4.174 1.678-4.174 1.678l-1.229-8.842z" fill="#BA4D3C"/><path d="M173.842 211.905s9.414 4.121 12.861 30.477a437.18 437.18 0 013.76 74.244c-.952 23.105-.15 38.071 6.757 37.096 0 0 .626-12.418 0-53.739-.552-36.563 2.218-76.779-14.591-86.089a22.084 22.084 0 00-8.787-1.989z" fill="#263238"/><path opacity=".1" d="M173.842 211.905s9.414 4.121 12.861 30.477a437.18 437.18 0 013.76 74.244c-.952 23.105-.15 38.071 6.757 37.096 0 0 .626-12.418 0-53.739-.552-36.563 2.218-76.779-14.591-86.089a22.084 22.084 0 00-8.787-1.989z" fill="#fff"/><path d="M153.072 211.905s11.282 6.501 12.536 47.731c1.253 41.231 3.133 95.113-10.254 96.413-13.388 1.3-28.016-6.501-28.016-6.501s6.769-44.104 8.148-59.096c1.579-17.319-9.414-72.306-2.181-74.374a155.755 155.755 0 0119.767-4.173z" fill="#263238"/><path opacity=".1" d="M153.072 211.905s11.282 6.501 12.536 47.731c1.253 41.231 3.133 95.113-10.254 96.413-13.388 1.3-28.016-6.501-28.016-6.501s6.769-44.104 8.148-59.096c1.579-17.319-9.414-72.306-2.181-74.374a155.755 155.755 0 0119.767-4.173z" fill="#fff"/><path opacity=".2" d="M153.593 329.38l-10.511-1.541a4.073 4.073 0 01-2.701-1.654 4.37 4.37 0 01-.783-3.151l.333-2.446 18.615 2.731-.333 2.446a4.285 4.285 0 01-1.59 2.798 3.984 3.984 0 01-3.03.817z" fill="#fff"/><path d="M123.476 271.924l12.335 9.244 7.521-1.053a3.76 3.76 0 012.507.546l4.663 2.874c.503.323.928.762 1.241 1.283a4.09 4.09 0 01.564 1.72l.226 2.601a4.013 4.013 0 01-.59 2.496l-1.366 2.302a3.803 3.803 0 01-1.625 1.467 3.64 3.64 0 01-2.135.301l-9.189-1.547a3.841 3.841 0 01-1.93-.95l-4.926-4.576-15.719-9.323 8.423-7.385z" fill="#FF887B"/><path d="M132.414 290.907a3.643 3.643 0 01-2.173 1.288 3.56 3.56 0 01-2.465-.456c-4.111-2.431-24.832-16.812-28.003-25.757-4.525-12.743 22.25-41.53 30.385-47.979 9.113-7.217 13.701 14.133 7.747 20.622-7.208 7.801-15.381 16.747-18.941 20.439a2.265 2.265 0 00-.514.869 2.31 2.31 0 00.266 1.966c.187.285.435.52.725.689 0 0 15.43 13.574 18.176 16.11 1.754 1.625-3.285 9.856-5.203 12.209z" fill="#263238"/><path d="M132.414 290.907a3.643 3.643 0 01-2.173 1.288 3.56 3.56 0 01-2.465-.456c-4.111-2.431-24.832-16.812-28.003-25.757-4.525-12.743 22.25-41.53 30.385-47.979 9.113-7.217 13.701 14.133 7.747 20.622-7.208 7.801-15.381 16.747-18.941 20.439a2.265 2.265 0 00-.514.869 2.31 2.31 0 00.266 1.966c.187.285.435.52.725.689 0 0 15.43 13.574 18.176 16.11 1.754 1.625-3.285 9.856-5.203 12.209zm46.018-99.806a7.49 7.49 0 01-2.81-1.31 7.78 7.78 0 01-2.079-2.357.268.268 0 01.1-.364.266.266 0 01.205-.017c.067.022.124.07.159.134a7.477 7.477 0 002.35 2.448 7.156 7.156 0 003.153 1.115.252.252 0 01.122.001.281.281 0 01.212.278.295.295 0 01-.103.223.256.256 0 01-.109.055.265.265 0 01-.122.002 6.932 6.932 0 01-1.078-.208zm-8.877-19.582c4.4-.65 7.684-5.097 8.248-9.661 3.936 1.001 6.494 4.668 8.549 8.309.141.259.336.483.571.653a1.853 1.853 0 002.375-.159 3.16 3.16 0 00.68-1.323c.12-.491.123-1.006.01-1.499a9.28 9.28 0 00-1.254-2.873c-.777-1.3-1.579-2.705-2.507-3.992a12.943 12.943 0 00-4.723-4.264 12.42 12.42 0 00-6.107-1.431h-.226a16.702 16.702 0 00-10.354-1.781c-4.049.494-6.631 2.431-9.702 5.201-3.071 2.769-4.3 8.165-8.624 12.885-.33.364-.553.818-.64 1.309-.088.491-.038.998.145 1.46.182.462.489.86.883 1.146.395.286.861.448 1.342.467a49.613 49.613 0 0021.309-4.473l.025.026z" fill="#263238"/><path d="M170.947 219.472l-3.66 4.577 3.66 5.227h4.688v-6.462l-4.688-3.342z" fill="#407BFF"/><path d="M170.908 229.276l1.254 11.247c2.808 20.504-1.617 45.664-1.617 45.664l8.524 8.049s6.731-8.868 6.267-8.764c-.263 0-.213-16.279-2.732-31.401a137.188 137.188 0 00-6.932-24.795h-4.764zm.966-21.298c.953 1.183 2.106 1.3 2.996 2.47a21.717 21.717 0 013.617 7.921 22.15 22.15 0 01.244 8.761l-.126.715a8.932 8.932 0 00-2.766-4.04 8.45 8.45 0 00-4.416-1.889 22.377 22.377 0 01-8.198 7.36c-5.146-5.037-9.135-11.209-11.67-18.061a854.687 854.687 0 005.402-4.577c3.478 4.601 8.379 7.815 13.877 9.102.188-2.418.852-5.37 1.04-7.762z" fill="#407BFF"/><path opacity=".9" d="M171.874 207.978c.953 1.183 2.106 1.3 2.996 2.47a21.717 21.717 0 013.617 7.921 22.15 22.15 0 01.244 8.761l-.126.715a8.932 8.932 0 00-2.766-4.04 8.45 8.45 0 00-4.416-1.889 22.377 22.377 0 01-8.198 7.36c-5.146-5.037-9.135-11.209-11.67-18.061a854.687 854.687 0 005.402-4.577c3.478 4.601 8.379 7.815 13.877 9.102.188-2.418.852-5.37 1.04-7.762z" fill="#fff"/><path transform="matrix(.63715 -.77074 .69699 .71708 47.559 24.786)" stroke="#777779" d="M0-.5h29.337"/><path transform="matrix(.63715 -.77074 .69699 .71708 37.049 23.644)" stroke="#777779" d="M0-.5h29.337"/><path transform="matrix(.63715 -.77074 .69699 .71708 58.807 25.249)" stroke="#777779" d="M0-.5h29.337"/><path transform="matrix(.63715 -.77074 .69699 .71708 69.063 26.486)" stroke="#777779" d="M0-.5h29.337"/><path d="M313.317 171.008l-2.719-3.87c-.336.024-.6.036-.792.036l-3.114.001.001 3.834h-1.8l-.002-12.6 4.914-.001c1.632 0 2.916.39 3.852 1.17.936.779 1.404 1.853 1.404 3.221 0 .972-.239 1.8-.719 2.484-.48.685-1.164 1.183-2.052 1.495l2.989 4.229-1.962.001zm-3.565-5.364c1.14 0 2.01-.246 2.61-.738.6-.492.899-1.194.899-2.106 0-.912-.3-1.608-.9-2.088-.6-.492-1.47-.738-2.61-.738l-3.06.001.001 5.67 3.06-.001zm7.965-4.177h1.728l.002 9.54h-1.728l-.002-9.54zm.864-1.836c-.336 0-.618-.108-.846-.324a1.077 1.077 0 01-.324-.792c0-.312.108-.576.324-.792a1.15 1.15 0 01.846-.342c.336 0 .612.108.828.324a.994.994 0 01.342.774c0 .324-.114.6-.342.828-.216.216-.492.324-.828.324zm6.901 11.483c-.78 0-1.53-.102-2.25-.306-.72-.216-1.284-.486-1.692-.81l.72-1.368c.42.3.93.54 1.53.72.6.18 1.206.27 1.818.27 1.512-.001 2.268-.433 2.268-1.297 0-.288-.102-.516-.307-.684a1.852 1.852 0 00-.774-.36c-.3-.083-.732-.173-1.296-.269-.768-.12-1.398-.258-1.89-.414a2.905 2.905 0 01-1.242-.792c-.348-.372-.522-.894-.522-1.566 0-.864.36-1.554 1.08-2.07.72-.528 1.686-.792 2.898-.792.636 0 1.272.077 1.908.233.636.156 1.158.366 1.566.63l-.738 1.368c-.78-.504-1.698-.756-2.754-.755-.732 0-1.29.12-1.674.36-.384.24-.576.558-.576.954 0 .312.108.558.324.738.216.18.48.312.792.396.324.084.774.18 1.35.288.768.131 1.386.275 1.854.431.48.144.888.396 1.224.756.336.36.504.864.505 1.512 0 .864-.372 1.554-1.116 2.07-.732.504-1.734.757-3.006.757zm9.989-4.556l-1.98 1.836.001 2.61-1.728.001-.002-13.356 1.728-.001.001 8.568 5.201-4.752 2.088-.001-4.013 3.943 4.411 5.597-2.124.001-3.583-4.446zm9.822 4.553c-.78 0-1.53-.102-2.251-.306-.72-.216-1.284-.486-1.692-.81l.72-1.368c.42.3.93.54 1.53.72.6.18 1.206.27 1.818.27 1.512-.001 2.268-.433 2.268-1.297 0-.288-.102-.516-.306-.684a1.852 1.852 0 00-.774-.36 13.33 13.33 0 00-1.296-.269c-.768-.12-1.398-.258-1.89-.414a2.905 2.905 0 01-1.242-.792c-.348-.372-.522-.894-.522-1.566-.001-.864.359-1.554 1.079-2.07.72-.528 1.686-.792 2.898-.792a7.932 7.932 0 011.908.233c.636.156 1.158.366 1.566.63l-.738 1.368c-.78-.504-1.698-.756-2.754-.755-.732 0-1.29.12-1.674.36-.384.24-.576.558-.575.954 0 .312.108.558.324.738.216.18.48.312.792.396.324.084.774.18 1.35.287.768.132 1.386.276 1.854.432.48.144.888.396 1.224.756.336.36.504.864.504 1.512 0 .864-.372 1.554-1.116 2.07-.731.504-1.733.756-3.005.757z" fill="#000"/><path d="M563.954 541.619h-41.516v.325h41.516v-.325zm-148.768 3.537h-10.893v.325h10.893v-.325zm105.998-15.603h-24.055v.325h24.055v-.325zm-401.285 2.184h-54.14v.325h54.14v-.325zm19.102 0h-7.935v.325h7.935v-.325zm143.227 5.487H164.799v.325h117.429v-.325zm16.607-74.516H56.783a7.031 7.031 0 01-5.062-2.175 7.567 7.567 0 01-2.096-5.25V102.359a7.564 7.564 0 012.118-5.207A7.028 7.028 0 0156.783 95h242.052c.94 0 1.871.192 2.739.565.869.373 1.658.92 2.322 1.61a7.45 7.45 0 011.552 2.408 7.68 7.68 0 01.545 2.841v352.859c0 .975-.186 1.941-.545 2.841a7.444 7.444 0 01-1.552 2.409 7.136 7.136 0 01-2.322 1.609 6.918 6.918 0 01-2.739.566zM56.783 95.26a6.735 6.735 0 00-4.836 2.083 7.25 7.25 0 00-2.009 5.016v352.924a7.247 7.247 0 002.009 5.016 6.736 6.736 0 004.835 2.084h242.053a6.737 6.737 0 004.836-2.084 7.244 7.244 0 002.008-5.016V102.359a7.247 7.247 0 00-2.008-5.016 6.735 6.735 0 00-4.836-2.083H56.783zM569.97 462.708H327.917a7.031 7.031 0 01-5.061-2.175 7.568 7.568 0 01-2.096-5.25V102.359a7.564 7.564 0 012.118-5.207A7.03 7.03 0 01327.917 95H569.97a7.03 7.03 0 015.061 2.174 7.568 7.568 0 012.096 5.25v352.859a7.568 7.568 0 01-2.096 5.25 7.031 7.031 0 01-5.061 2.175zM327.917 95.26a6.735 6.735 0 00-4.836 2.083 7.251 7.251 0 00-2.008 5.016v352.924a7.249 7.249 0 002.008 5.016 6.737 6.737 0 004.836 2.084H569.97a6.737 6.737 0 004.836-2.084 7.244 7.244 0 002.008-5.016V102.359a7.247 7.247 0 00-2.008-5.016 6.735 6.735 0 00-4.836-2.083H327.917zm298.837 425.438H0v.325h626.754v-.325z" fill="#EBEBEB"/><path d="M475.82 139.208h-3.924a3.519 3.519 0 00-2.422 1.018 3.777 3.777 0 00-1.113 2.454l-.94 18.762c-.029.449.031.9.178 1.323.146.424.376.812.673 1.139.298.327.658.587 1.057.763.4.176.83.265 1.264.26h3.923a3.508 3.508 0 002.422-1.024 3.763 3.763 0 001.1-2.461l.953-18.762a3.373 3.373 0 00-.181-1.319 3.295 3.295 0 00-.675-1.134 3.148 3.148 0 00-1.055-.76 3.065 3.065 0 00-1.26-.259zm.1 22.234c0 .345-.132.676-.367.92a1.23 1.23 0 01-.886.38h-3.924a1.123 1.123 0 01-.467-.099 1.18 1.18 0 01-.636-.71 1.236 1.236 0 01-.063-.491l.953-18.762c0-.345.132-.676.367-.92.235-.243.554-.38.886-.38h3.924a1.111 1.111 0 01.858.382 1.2 1.2 0 01.295.918l-.94 18.762zm30.847-22.234H495.31l2.507-6.254a4.25 4.25 0 00.301-2.119l-.477-4.915a3.95 3.95 0 00-1.241-2.477 3.685 3.685 0 00-2.519-.982h-4.563l-.451 7.645-7.383 9.661a6.06 6.06 0 00-1.254 3.355l-.877 17.54a4.141 4.141 0 00.219 1.631c.18.522.463 1 .831 1.403a3.88 3.88 0 001.303.939 3.773 3.773 0 001.558.318h16.045a4.86 4.86 0 002.063-.464 5.029 5.029 0 001.697-1.305l1.504-1.716a5.428 5.428 0 001.191-2.379l3.51-16.253-2.507-3.628z" fill="#EBEBEB"/><path opacity=".5" d="M475.82 139.208h-3.924a3.519 3.519 0 00-2.422 1.018 3.777 3.777 0 00-1.113 2.454l-.94 18.762c-.029.449.031.9.178 1.323.146.424.376.812.673 1.139.298.327.658.587 1.057.763.4.176.83.265 1.264.26h3.923a3.508 3.508 0 002.422-1.024 3.763 3.763 0 001.1-2.461l.953-18.762a3.373 3.373 0 00-.181-1.319 3.295 3.295 0 00-.675-1.134 3.148 3.148 0 00-1.055-.76 3.065 3.065 0 00-1.26-.259zm.1 22.234c0 .345-.132.676-.367.92a1.23 1.23 0 01-.886.38h-3.924a1.123 1.123 0 01-.467-.099 1.18 1.18 0 01-.636-.71 1.236 1.236 0 01-.063-.491l.953-18.762c0-.345.132-.676.367-.92.235-.243.554-.38.886-.38h3.924a1.111 1.111 0 01.858.382 1.2 1.2 0 01.295.918l-.94 18.762z" fill="#EBEBEB"/><path d="M125.601 55.174h-3.547a3.173 3.173 0 00-2.195.921 3.41 3.41 0 00-1.002 2.226l-.852 16.98a3.032 3.032 0 00.782 2.207c.269.293.593.525.952.682.36.157.746.237 1.136.232h3.548a3.177 3.177 0 002.195-.92 3.41 3.41 0 001.001-2.226l.852-16.981a3.032 3.032 0 00-.17-1.188 2.949 2.949 0 00-.612-1.02 2.844 2.844 0 00-.952-.681 2.76 2.76 0 00-1.136-.232zm.1 20.128a1.316 1.316 0 01-.384.803 1.232 1.232 0 01-.794.354h-3.548c-.143 0-.285-.03-.417-.089a1.059 1.059 0 01-.35-.254 1.122 1.122 0 01-.285-.815l.864-16.98c.016-.311.146-.603.362-.819.217-.215.504-.336.804-.339h3.498a1.009 1.009 0 01.771.339c.099.108.176.237.224.378.048.142.068.291.057.44l-.802 16.982zm27.926-20.128h-10.392l2.269-5.656a3.759 3.759 0 00.276-1.924l-.489-4.46a3.554 3.554 0 00-1.116-2.247 3.315 3.315 0 00-2.281-.887h-4.136l-.339 6.904-6.694 8.751a5.479 5.479 0 00-1.115 3.03l-.752 15.837a3.773 3.773 0 00.198 1.48c.164.474.421.908.754 1.274a3.52 3.52 0 001.182.854 3.4 3.4 0 001.413.292h14.528a4.451 4.451 0 001.856-.428 4.61 4.61 0 001.529-1.171l1.354-1.56a4.864 4.864 0 001.078-2.146l3.183-14.706-2.306-3.237z" fill="#EBEBEB"/><path opacity=".5" d="M125.601 55.174h-3.547a3.173 3.173 0 00-2.195.921 3.41 3.41 0 00-1.002 2.226l-.852 16.98a3.032 3.032 0 00.782 2.207c.269.293.593.525.952.682.36.157.746.237 1.136.232h3.548a3.177 3.177 0 002.195-.92 3.41 3.41 0 001.001-2.226l.852-16.981a3.032 3.032 0 00-.17-1.188 2.949 2.949 0 00-.612-1.02 2.844 2.844 0 00-.952-.681 2.76 2.76 0 00-1.136-.232zm.1 20.128a1.316 1.316 0 01-.384.803 1.232 1.232 0 01-.794.354h-3.548c-.143 0-.285-.03-.417-.089a1.059 1.059 0 01-.35-.254 1.122 1.122 0 01-.285-.815l.864-16.98c.016-.311.146-.603.362-.819.217-.215.504-.336.804-.339h3.498a1.009 1.009 0 01.771.339c.099.108.176.237.224.378.048.142.068.291.057.44l-.802 16.982z" fill="#EBEBEB"/><path d="M292.069 475.97h-5.189a4.649 4.649 0 00-3.209 1.35 4.992 4.992 0 00-1.467 3.253l-1.253 24.86a4.466 4.466 0 00.238 1.755c.195.561.499 1.075.895 1.508.395.433.873.777 1.403 1.01.53.233 1.1.35 1.675.343h5.19a4.653 4.653 0 003.213-1.354 4.992 4.992 0 001.462-3.262l1.254-24.86a4.478 4.478 0 00-.242-1.75 4.365 4.365 0 00-.896-1.504 4.189 4.189 0 00-1.401-1.007 4.043 4.043 0 00-1.673-.342zm.138 29.463a1.82 1.82 0 01-.532 1.194 1.7 1.7 0 01-1.173.497H285.3a1.493 1.493 0 01-1.126-.496 1.594 1.594 0 01-.328-.552 1.652 1.652 0 01-.088-.643l1.254-24.86c.031-.453.225-.878.542-1.191a1.72 1.72 0 011.175-.499h5.19c.21-.003.419.04.613.125a1.576 1.576 0 01.841.923c.072.205.101.424.088.642l-1.254 24.86zm40.914-29.463h-15.193l3.397-8.283c.362-.89.5-1.861.401-2.821l-.727-6.501a5.18 5.18 0 00-1.641-3.313 4.819 4.819 0 00-3.373-1.277h-6.042l-.514 10.103-9.79 12.82a7.977 7.977 0 00-1.642 4.434l-1.166 23.235c-.046.734.054 1.47.294 2.162s.616 1.326 1.103 1.86a5.155 5.155 0 001.728 1.247 4.992 4.992 0 002.065.426h21.31a6.56 6.56 0 002.747-.617 6.78 6.78 0 002.267-1.723l1.98-2.289a7.145 7.145 0 001.58-3.146l4.65-21.532-3.434-4.785z" fill="#EBEBEB"/><path opacity=".5" d="M292.069 475.97h-5.189a4.649 4.649 0 00-3.209 1.35 4.992 4.992 0 00-1.467 3.253l-1.253 24.86a4.466 4.466 0 00.238 1.755c.195.561.499 1.075.895 1.508.395.433.873.777 1.403 1.01.53.233 1.1.35 1.675.343h5.19a4.653 4.653 0 003.213-1.354 4.992 4.992 0 001.462-3.262l1.254-24.86a4.478 4.478 0 00-.242-1.75 4.365 4.365 0 00-.896-1.504 4.189 4.189 0 00-1.401-1.007 4.043 4.043 0 00-1.673-.342zm.138 29.463a1.82 1.82 0 01-.532 1.194 1.7 1.7 0 01-1.173.497H285.3a1.493 1.493 0 01-1.126-.496 1.594 1.594 0 01-.328-.552 1.652 1.652 0 01-.088-.643l1.254-24.86c.031-.453.225-.878.542-1.191a1.72 1.72 0 011.175-.499h5.19c.21-.003.419.04.613.125a1.576 1.576 0 01.841.923c.072.205.101.424.088.642l-1.254 24.86z" fill="#EBEBEB"/><path d="M71.423 474.124h128.522v-46.016H71.423v46.016zm0 46.015h128.522v-46.015H71.423v46.015z" fill="#EBEBEB"/><path d="M124.122 474.124l-15.995-46.016h24.619l15.982 46.016h-24.606zm-27.903-46.016h5.415l15.982 46.016h-5.402l-15.995-46.016zm43.897 92.031l-15.995-46.015h24.606l15.995 46.015h-24.606z" fill="#F5F5F5"/><path d="M112.215 474.124h5.402l15.995 46.015h-5.402l-15.995-46.015z" fill="#F5F5F5"/><path d="M71.423 382.509h128.522v-46.016H71.423v46.016zm0 46.015h128.522v-46.015H71.423v46.015z" fill="#EBEBEB"/><path d="M117.765 382.509l-15.982-46.029h24.607l15.994 46.029h-24.619zM89.873 336.48h5.403l15.994 46.029h-5.415L89.873 336.48zm43.887 92.031l-15.994-46.002h24.619l15.982 46.002H133.76z" fill="#F5F5F5"/><path d="M105.857 382.509h5.416l15.982 46.002h-5.403l-15.995-46.002z" fill="#F5F5F5"/><path d="M199.945 343.567v-4.655H71.423v4.655h128.522zm0 45.651v-4.655H71.423v4.655h128.522zm-67.55-23.768a1.894 1.894 0 01-1.365-.587 2.04 2.04 0 01-.565-1.416c0-.531.203-1.04.565-1.415a1.894 1.894 0 011.365-.587h6.581c.512 0 1.003.211 1.365.587.362.375.566.884.566 1.415s-.204 1.041-.566 1.416a1.894 1.894 0 01-1.365.587h-6.581z" fill="#E0E0E0"/><path d="M132.395 364.682c-.512 0-1.003-.21-1.365-.586a2.04 2.04 0 01-.565-1.416c0-.531.203-1.04.565-1.416a1.897 1.897 0 011.365-.586h6.581c.512 0 1.003.211 1.365.586.362.376.566.885.566 1.416 0 .531-.204 1.041-.566 1.416a1.893 1.893 0 01-1.365.586h-6.581z" fill="#F5F5F5"/><path d="M132.395 407.864a1.894 1.894 0 01-1.365-.587 2.04 2.04 0 01-.565-1.416c0-.531.203-1.04.565-1.416a1.897 1.897 0 011.365-.586h6.581a1.88 1.88 0 011.365.586c.179.186.322.407.419.65a2.066 2.066 0 010 1.533c-.097.242-.24.463-.419.649a1.915 1.915 0 01-.626.434 1.863 1.863 0 01-.739.153h-6.581z" fill="#E0E0E0"/><path d="M132.395 407.161c-.512 0-1.003-.21-1.365-.586a2.042 2.042 0 01-.565-1.416c0-.531.203-1.04.565-1.416a1.897 1.897 0 011.365-.586h6.581c.512 0 1.003.211 1.365.586.362.376.566.885.566 1.416 0 .531-.204 1.04-.566 1.416a1.893 1.893 0 01-1.365.586h-6.581z" fill="#F5F5F5"/><path d="M69.182 334.426v96.101H202.19v-96.101H69.181zm4.487 50.527h124.035v40.932H73.669v-40.932zm0-45.599h124.035v40.944H73.669v-40.944z" fill="#F5F5F5"/><path d="M199.945 435.194v-4.654H71.423v4.654h128.522zm0 45.652v-4.655H71.423v4.655h128.522zm-67.55-23.833a1.894 1.894 0 01-1.365-.587 2.04 2.04 0 01-.565-1.416c0-.531.203-1.04.565-1.416a1.897 1.897 0 011.365-.586h6.581c.512 0 1.003.211 1.365.586.362.376.566.885.566 1.416 0 .531-.204 1.041-.566 1.416a1.894 1.894 0 01-1.365.587h-6.581z" fill="#E0E0E0"/><path d="M132.394 456.298a1.907 1.907 0 01-1.263-.639 2.041 2.041 0 01-.512-1.357c0-.503.183-.988.512-1.358.329-.37.78-.598 1.263-.638h6.581c.266-.022.533.013.785.103s.483.233.679.421a2 2 0 01.46.668 2.07 2.07 0 010 1.607 2.015 2.015 0 01-.46.669c-.196.187-.427.33-.679.421-.252.09-.519.125-.785.103h-6.581z" fill="#F5F5F5"/><path d="M132.394 499.478a1.902 1.902 0 01-1.263-.638 2.043 2.043 0 01-.512-1.357c0-.504.183-.988.512-1.358.329-.37.78-.598 1.263-.638h6.581c.266-.023.533.013.785.103s.483.233.679.421a2 2 0 01.46.668 2.07 2.07 0 010 1.607 2 2 0 01-.46.668 1.907 1.907 0 01-.679.421 1.84 1.84 0 01-.785.103h-6.581z" fill="#E0E0E0"/><path d="M132.394 498.776a1.902 1.902 0 01-1.263-.638 2.044 2.044 0 01-.512-1.358c0-.503.183-.987.512-1.357s.78-.598 1.263-.638h6.581a1.84 1.84 0 01.785.103c.252.09.483.233.679.421a2 2 0 01.46.668 2.065 2.065 0 010 1.607 2 2 0 01-.46.668 1.907 1.907 0 01-.679.421 1.84 1.84 0 01-.785.103h-6.581z" fill="#F5F5F5"/><path d="M69.182 426.041v96.113H202.19v-96.113H69.181zm4.487 50.514h124.035V517.5H73.669v-40.945zm0-45.586h124.035V471.9H73.669v-40.931z" fill="#F5F5F5"/><path d="M78.747 192.794a35.734 35.734 0 00-1.454-10.167l8.611-7.802-5.427-9.739-10.856 3.81c-4.57-5.065-10.485-8.613-16.997-10.194L50.367 147h-10.83l-2.256 11.702c-6.513 1.581-12.428 5.129-16.998 10.194l-10.855-3.81L4 174.825l8.612 7.802a36.357 36.357 0 000 20.348L4 210.777l5.428 9.739 10.855-3.81c4.576 5.057 10.489 8.603 16.998 10.194l2.256 11.702h10.83l2.257-11.702c6.51-1.588 12.423-5.134 16.997-10.194l10.856 3.81 5.427-9.739-8.611-7.802a35.754 35.754 0 001.454-10.181zm-33.845 18.919c-3.47 0-6.864-1.068-9.75-3.068s-5.135-4.843-6.463-8.169a18.837 18.837 0 01-.999-10.518c.677-3.531 2.349-6.774 4.803-9.32 2.454-2.546 5.581-4.28 8.985-4.982a16.965 16.965 0 0110.14 1.036c3.206 1.378 5.947 3.711 7.876 6.704a18.692 18.692 0 012.957 10.114c0 4.818-1.842 9.441-5.122 12.853-3.28 3.412-7.731 5.336-12.377 5.35h-.05zm473.199 193.095c-1.367-3.511-4.463-5.552-7.283-4.772-2.821.78-5.14 4.291-5.428 8.257a4.93 4.93 0 00-3.414-1.555 4.907 4.907 0 00-3.505 1.321 10.345 10.345 0 00-2.395 4.046 10.638 10.638 0 00-.388 4.73c-2.244-2.379-5.929-1.391-7.383 1.977-1.454 3.367-.326 8.347 2.256 9.959-1.755.169-3.259 2.471-3.222 4.915.038 2.445 1.643 4.629 3.397 4.668-1.779 0-3.409 2.107-3.622 4.551-.213 2.444 1.015 4.993 2.733 5.643-1.806 1.053-2.269 4.954-.79 6.748 1.479 1.795 4.199.65 4.713-1.963a.916.916 0 00.249.434.847.847 0 00.918.185.881.881 0 00.387-.307c.202-.335.283-.733.228-1.124a1.69 1.69 0 00-.528-1.008c.814 1.508 2.895.806 3.121-1.054-.602 4.304 3.296 8.348 6.092 6.307a4.031 4.031 0 00-.011 2.812 3.849 3.849 0 001.816 2.089c1.479.56 3.021-.234 4.4-1.131 1.379-.897 2.795-1.937 4.324-1.911 1.358.233 2.665.713 3.861 1.417 4.061 1.716 8.775.078 11.771-4.083 2.118 3.732 7.119 2.731 8.398-1.677a4.439 4.439 0 001.028 2.515 4.173 4.173 0 002.269 1.386 3.774 3.774 0 002.377-1.028 4.038 4.038 0 001.22-2.353c0 .949.063 1.886.101 2.822 2.92.91 5.816-4.057 4.562-7.802 2.094 0 4.074-2.314 4.338-5.201.263-2.886-1.254-5.877-3.235-6.566 3.448-1.3 6.08-5.968 6.118-10.909.037-4.941-2.507-9.713-5.955-11.091a3.36 3.36 0 00-2.119-.31 3.439 3.439 0 00-1.892 1.038c-1.078 1.3-1.253 3.992 0 4.993 1.028-4.434-.501-9.752-3.459-11.962-2.959-2.21-7.008-1.079-9.114 2.6a7.52 7.52 0 000-6.605 3.65 3.65 0 00-1.881-1.947 3.464 3.464 0 00-2.656-.068c-.401-3.043-2.72-5.344-4.926-4.889-2.207.455-3.949 3.576-3.698 6.644-.264-2.6-3.31-3.315-4.187-1.027-1.241-.546.414.286.414.286z" fill="#EBEBEB"/><path d="M518.953 433.439a3.523 3.523 0 00-1.445-.888 3.427 3.427 0 00-1.676-.1 3.306 3.306 0 00-1.531 1.056 3.502 3.502 0 00-.751 1.74 3.173 3.173 0 00.207 1.956 3.018 3.018 0 001.31 1.424c1.253.403 2.607-1.001 3.936-.754.468.146.925.328 1.366.546 1.906.663 3.761-.962 5.378-2.509a6.636 6.636 0 001.491-1.886 3.2 3.2 0 00.163-2.6 2.32 2.32 0 00-1.115-1.012c-.47-.2-.99-.233-1.479-.093a9.336 9.336 0 00-5.303 2.899l.151-1.183-.702 1.404zm27.654-2.145a4.66 4.66 0 00-1.668-1.144 1.421 1.421 0 00-.969.001 1.48 1.48 0 00-.76.623 2.78 2.78 0 00-.205 1.58 2.73 2.73 0 00.693 1.423 4.22 4.22 0 002.42 1.08c.877.182 1.993.221 2.419-.794a2.41 2.41 0 00-.401-2.301 4.126 4.126 0 00-1.73-1.118l.201.65zm-43.748-18.906a7.654 7.654 0 00-2.37 2.372 7.97 7.97 0 00-1.165 3.193c-.126.741-.101 1.665.388 2.055a1.222 1.222 0 001.254 0l5.014-1.574c-.858.36-1.635.9-2.282 1.587a3.767 3.767 0 00-.767 1.419 3.852 3.852 0 00-.11 1.623c.101.574.392 1.094.822 1.471.429.377.972.588 1.535.597a4.46 4.46 0 002.795-1.457 4.8 4.8 0 001.219-1.513 4.975 4.975 0 00.536-1.893c0-1.431-1.354-2.744-2.181-1.834a17.023 17.023 0 005.44-3.25 6.043 6.043 0 001.567-1.938c.208-.416.33-.873.358-1.34a3.5 3.5 0 00-.195-1.377c-1.73-4.122-3.924 1.937-5.014 2.47-2.031 1.067-4.275-2.041-6.844-.611zm-7.873 17.631a2.692 2.692 0 00.451 2.315c.12.125.268.215.432.261a.951.951 0 00.934-.255c.12-.124.207-.279.251-.448a5.553 5.553 0 00-3.046 2.249c-.714 1.3-.539 3.433.589 3.901.374.083.761.069 1.128-.04a2.3 2.3 0 00.978-.584 40 40 0 005.24-4.525 2.808 2.808 0 00.265 2.155c.185.321.431.599.724.816.293.218.627.371.979.449a5.288 5.288 0 003.522-1.613c1.317-1.066 2.846-2.678 2.507-4.655a2.653 2.653 0 00-.413-1.024 2.534 2.534 0 00-.788-.752 2.438 2.438 0 00-2.083-.213 8.123 8.123 0 00-3.171 3.186 2.68 2.68 0 00-.612-3.05 2.47 2.47 0 00-.93-.539 3.377 3.377 0 00-1.849.486 3.549 3.549 0 00-1.322 1.425c1.404-1.014 1.717-3.653-.163-3.965-1.241-.195-3.322 3.081-3.623 4.42zm38.682-5.928a1.987 1.987 0 00-1.762.243 2.082 2.082 0 00-.633.68c-.16.273-.258.579-.288.897a2.961 2.961 0 00.229 1.984 2.8 2.8 0 001.426 1.345 2.9 2.9 0 00-1.232.483 3.055 3.055 0 00-.912.986 2.51 2.51 0 00-.451 1.651c.045.396.221.764.497 1.041.276.278.637.447 1.02.48a3.75 3.75 0 001.968-.728 2.984 2.984 0 00-1.943.741c-.29.303-.475.697-.527 1.12a2 2 0 00.239 1.221 1.336 1.336 0 001.629.234 7.717 7.717 0 003.309-2.445 3.02 3.02 0 001.18 1.182 2.888 2.888 0 001.603.353 2.446 2.446 0 001.358-1.166 2.594 2.594 0 00.234-1.812 2.214 2.214 0 00-.621-1.086 2.09 2.09 0 00-1.096-.552 4.163 4.163 0 00-2.206.442 5.11 5.11 0 001.767-2.601c.276-1.118-.301-2.6-1.191-2.535-.89.065-1.516 1.898-2.306 2.535-.965-1.144.852-3.653-1.291-4.693zm-18.064-5.475a6.209 6.209 0 00-1.226 2.244 6.362 6.362 0 00-.228 2.567c.087 1.99.777 4.122 2.168 4.928 1.83 1.053 4.124-.949 4.463-3.537a7.195 7.195 0 00-.508-3.639 6.92 6.92 0 00-2.225-2.862 2.124 2.124 0 00-1.266-.239 2.158 2.158 0 00-1.178.538zm12.798-2.158l.464.546a2.084 2.084 0 00-.662-.739 1.99 1.99 0 00-2.672.388 3.824 3.824 0 00-.69 2.198c0 .789.241 1.559.69 2.197.211.261.481.464.785.594a1.975 1.975 0 001.879-.176c.277-.184.507-.434.67-.73a2.84 2.84 0 002.194.354 2.943 2.943 0 001.805-1.342 4.14 4.14 0 00.57-2.588 4.081 4.081 0 00-1.109-2.392c-1.254-.949-3.197.468-3.071 2.379a18.448 18.448 0 00-.552-.806l-.301.117zm14.118 3.004a10.054 10.054 0 00-2.181 4.03c-.326 1.6.213 3.654 1.454 4.07 1.241.416 2.382-.923 3.084-2.301a6.267 6.267 0 00.74-4.213c-.364-1.43-1.918-2.262-2.695-1.17l-.402-.416zm-20.344-9.726a1.957 1.957 0 00-.439-.797 1.866 1.866 0 00-.743-.498 1.808 1.808 0 00-1.701.255 3.939 3.939 0 00-.965 1.822 4.04 4.04 0 00.075 2.079c.17.622.505 1.182.965 1.619a3.318 3.318 0 001.642.851c.385.026.77-.038 1.127-.187.358-.149.679-.379.94-.673.261-.294.455-.645.568-1.028.113-.382.142-.785.085-1.181.272.463.669.833 1.141 1.064.472.231 1 .313 1.517.237a6.073 6.073 0 002.757-1.366 4.742 4.742 0 001.662-1.671c.41-.693.644-1.482.682-2.294a2.859 2.859 0 00-.67-1.695 2.683 2.683 0 00-1.536-.906 3.531 3.531 0 00-1.629.357 3.673 3.673 0 00-1.304 1.073c-.639.716-1.166 1.6-1.855 2.237a1.982 1.982 0 01-1.119.639c-.43.08-.874.01-1.263-.197l.063.26z" fill="#FAFAFA"/><path d="M526.012 450.68a27.818 27.818 0 00-1.021 12.425 27.45 27.45 0 004.493 11.565c-5.126 0-9.702.364-14.816.364a59.841 59.841 0 001.554-25.251c2.846.026 6.957.897 9.79.897z" fill="#E0E0E0"/><path d="M544.185 521.869h-44.274l-4.337-46.289h52.948l-4.337 46.289z" fill="#EBEBEB"/><path d="M551.947 477.972h-60.244l-1.078-6.163h62.412l-1.09 6.163z" fill="#F5F5F5"/></svg>