<svg width="65" height="66" fill="none" xmlns="http://www.w3.org/2000/svg"><path d="M63.593 11.605a1.919 1.919 0 01.434 2.097l.004-.011-16.677 44.76a1.943 1.943 0 01-1.216 1.165l-.01.003c-.31.104-.64.126-.96.064l-.023-.005a2.063 2.063 0 01-.703-.297l.012.007-14.618-9.557-10.887 8.107a1.811 1.811 0 01-1.482.369l-.058-.012h.002l-.058-.01a1.745 1.745 0 01-.622-.252l.01.007a1.852 1.852 0 01-.76-.873l-.003-.008a1.96 1.96 0 01-.12-1.149l2.64-13.622-13.096-8.569a1.804 1.804 0 01-.883-1.889 1.787 1.787 0 011.294-1.589l.01-.002 55.734-19.191a1.77 1.77 0 012.04.458l-.004-.003v.002zM44.539 54.75L58.924 16.2 10.895 32.73l9.323 6.088 29.726-14.202-19.056 21.208 13.65 8.926z" fill="#6180C6" fill-opacity=".7"/></svg>