<svg width="86" height="93" fill="none" xmlns="http://www.w3.org/2000/svg"><path d="M83.69 21.852c-1.357 1.578-2.431 3.313-3.74 4.89-1.43 1.722-2.983 3.06-4.575 4.582-.878.84-1.742 1.666-2.6 2.519-.971.964-2.187 1.57-3.176 2.516-1.124 1.075-3.447 2.006-4.925 2.287-1.997.379-4.129 1.148-6.156 1.198-3.748.092-7.593.264-11.225-.917-3.61-1.175-7.6-2.17-10.966-3.933-3.17-1.661-5.97-4.115-8.379-6.758-1.16-1.272-2.391-2.423-3.15-3.984-.73-1.503-.589-3.085-.71-4.682-.21-2.733 2.927-2.619 4.786-2.635 3.44-.03 5.819 2.18 7.117 5.228 1.19 2.796.616 6.306.15 9.179-.364 2.24-.706 4.461-1.139 6.691-.198 1.023-.526 2.06-.576 3.102-.045.942-.517 1.726-.665 2.64-.256 1.568-.953 2.88-1.52 4.33-.294.753-.903 1.259-1.32 1.932-.394.633-.636 1.37-1.148 1.925-2.445 2.646-4.386 6.057-7.27 8.287-3.17 2.45-7.026 3.976-10.377 6.182-.937.617-2.03.951-3 1.531-.79.472-1.551.993-2.397 1.36-1.552.671-3.157.972-4.729 1.49" stroke="#2D56B3" stroke-width="3" stroke-linecap="round"/></svg>