<svg width="38" height="38" fill="none" xmlns="http://www.w3.org/2000/svg"><ellipse cx="19.435" cy="18.87" rx="17.788" ry="17.077" fill="#fff"/><g clip-path="url(#clip0)"><path fill-rule="evenodd" clip-rule="evenodd" d="M20.862 13.31c.72.153 1.272.427 1.744.869.607.573.94 1.267 1.086 2.263.099.65.058.906-.172 1.117-.216.198-.614.205-.856.019-.175-.132-.23-.27-.27-.647-.048-.5-.135-.85-.286-1.175-.321-.69-.888-1.048-1.846-1.165-.45-.055-.585-.106-.731-.277a.68.68 0 01.204-1.023c.14-.07.198-.076.505-.058.19.01.472.044.622.077zm-.779-2.757c2.22.325 3.938 1.354 5.065 3.027.632.942 1.027 2.048 1.163 3.235.047.434.047 1.226-.004 1.358a.833.833 0 01-.333.361c-.142.073-.446.066-.614-.022-.282-.142-.366-.369-.366-.982 0-.946-.245-1.943-.669-2.717a5.554 5.554 0 00-2.04-2.121c-.736-.438-1.822-.763-2.813-.844-.358-.029-.555-.102-.69-.259a.665.665 0 01-.056-.825c.19-.295.483-.343 1.357-.211zM11.471 8.3c.128.044.326.146.439.22.695.46 2.63 2.931 3.262 4.165.362.705.482 1.227.37 1.614-.118.416-.312.636-1.178 1.333-.348.28-.673.57-.725.646-.131.19-.237.562-.237.825.004.61.399 1.716.918 2.567.402.661 1.122 1.508 1.835 2.158.838.767 1.576 1.289 2.41 1.701 1.072.534 1.726.669 2.205.446a1.89 1.89 0 00.289-.16c.036-.034.318-.377.625-.757.592-.745.728-.865 1.134-1.004.515-.175 1.042-.128 1.572.143.403.208 1.28.752 1.847 1.146.746.522 2.34 1.822 2.556 2.081.38.468.446 1.066.19 1.727-.27.698-1.323 2.005-2.059 2.564-.665.503-1.137.697-1.758.726-.512.025-.724-.018-1.379-.288-5.134-2.114-9.233-5.269-12.487-9.603-1.7-2.264-2.995-4.612-3.88-7.047-.516-1.42-.541-2.037-.117-2.764.183-.307.961-1.066 1.528-1.49.944-.7 1.379-.96 1.726-1.033.238-.051.651-.01.914.084zm8.36-.394c1.258.157 2.274.46 3.39 1.004 1.096.537 1.799 1.045 2.727 1.968.87.873 1.354 1.534 1.865 2.56.713 1.43 1.12 3.132 1.189 5.005.025.639.007.781-.14.964-.277.354-.888.296-1.096-.102-.066-.132-.084-.245-.106-.756a13.216 13.216 0 00-.202-1.899c-.431-2.377-1.572-4.275-3.393-5.637-1.518-1.14-3.087-1.694-5.141-1.815-.695-.04-.816-.066-.973-.186-.293-.23-.307-.77-.026-1.022.172-.157.293-.18.889-.161.311.011.768.048 1.017.077zM18.723.37c10.217 0 18.5 8.283 18.5 18.5s-8.283 18.5-18.5 18.5c-10.218 0-18.5-8.283-18.5-18.5S8.505.37 18.723.37z" fill="#71A5E2"/></g><defs><clipPath id="clip0"><path fill="#fff" transform="translate(.223 .37)" d="M0 0h37v37H0z"/></clipPath></defs></svg>