<svg width="384" height="469" fill="none" xmlns="http://www.w3.org/2000/svg"><path d="M463.798 266.167c-25.671 16.202-55.578 16.684-85.03 15.98-14.414-.345-28.479-1.101-42.785-2.431a241.2 241.2 0 00-15.247-.958c-6.152-.181-12.162-1.635-18.295-2.105-5.685-.435-11.272-1.843-16.962-2.073-6.983-.283-13.996-1.18-20.951-1.854-11.019-1.066-22.156-2.676-33.06-4.607-3.785-.671-7.507-1.42-11.229-2.363-3.621-.917-6.827-2.492-10.385-3.528-9.087-2.645-17.099-9.052-23.509-15.776-1.29-1.353-2.503-2.331-2.662-4.158-.25-2.873 2.246-7.105 5.33-7.471 4.875-.578 9.382 2.042 12.773 5.235 3.904 3.676 5.478 5.448 3.466 10.812-2.748 7.325-8.923 13.535-14.858 18.435-8.458 6.983-20.626 11.929-31.582 12.661-28.158 1.883-53.204-13.477-76.98-26.226-15.681-8.409-30.9-17.725-45.878-27.318-11.824-7.573-22.09-16.5-32.955-25.304" stroke="#2D56B3" stroke-width="3" stroke-linecap="round" stroke-dasharray="6 6"/></svg>