<svg width="354" height="294" fill="none" xmlns="http://www.w3.org/2000/svg"><path d="M-12 292.023c5.986-29.761 26.274-51.739 47.106-72.571 10.195-10.196 20.446-19.854 31.281-29.291A240.433 240.433 0 0077.6 179.786c4.377-4.328 9.576-7.674 14.148-11.789 4.238-3.814 9.111-6.887 13.204-10.847 5.024-4.859 10.512-9.316 15.798-13.885 8.376-7.24 17.225-14.19 26.147-20.75 3.097-2.277 6.207-4.454 9.458-6.497 3.163-1.988 6.515-3.222 9.72-5.083 8.184-4.752 18.35-6.13 27.639-6.13 1.87 0 3.415-.203 4.847.943 2.252 1.801 3.593 6.528 1.729 9.012-2.945 3.928-7.951 5.382-12.601 5.633-5.356.29-7.724.206-10.218-4.951-3.405-7.044-3.64-15.798-3.091-23.475.781-10.94 5.598-23.16 12.628-31.596 18.066-21.68 46.466-29.21 72.099-37.621 16.906-5.549 34.151-10.136 51.429-14.357C324.176 5.06 337.72 3.79 351.59 2" stroke="#FA9945" stroke-opacity=".7" stroke-width="3" stroke-linecap="round" stroke-dasharray="6 6"/></svg>