<svg width="37" height="37" fill="none" xmlns="http://www.w3.org/2000/svg"><path d="M18.5 37C28.717 37 37 28.717 37 18.5S28.717 0 18.5 0 0 8.283 0 18.5 8.283 37 18.5 37z" fill="#71A5E2"/><path d="M6.89 19.405c2.162-1.192 4.576-2.186 6.832-3.185 3.88-1.637 7.776-3.245 11.712-4.743.765-.255 2.141-.505 2.276.63-.074 1.606-.378 3.203-.586 4.8-.53 3.511-1.14 7.01-1.737 10.51-.205 1.166-1.666 1.77-2.6 1.023-2.246-1.517-4.508-3.019-6.725-4.57-.727-.739-.053-1.798.595-2.325 1.85-1.823 3.811-3.372 5.564-5.288.473-1.142-.924-.18-1.385.115-2.532 1.745-5.002 3.596-7.671 5.13-1.364.75-2.953.109-4.316-.31-1.222-.506-3.013-1.016-1.96-1.787z" fill="#fff"/></svg>