<svg width="80" height="94" fill="none" xmlns="http://www.w3.org/2000/svg"><path d="M17.957 69.79a.516.516 0 01-.14.35.456.456 0 01-.335.141.748.748 0 01-.334-.088 10.59 10.59 0 00-.404-.228 2.303 2.303 0 00-.51-.211 1.847 1.847 0 00-.65-.106c-.574 0-1.09.182-1.547.545a4.81 4.81 0 00-1.143 1.319 7.135 7.135 0 00-.703 1.687c-.164.598-.246 1.137-.246 1.617 0 .34.03.674.088 1.002.059.317.158.61.299.88.152.257.357.468.615.632.258.152.586.229.985.229a3.28 3.28 0 001.213-.229c.386-.164.75-.375 1.09-.633a5.41 5.41 0 01.175-1.178c.117-.421.264-.832.44-1.23.175-.41.375-.797.597-1.16a8.29 8.29 0 01.721-.967l.229.14a7.215 7.215 0 00-.282 1.231 9.064 9.064 0 00-.088 1.248c0 .422.035.82.106 1.196.07.375.193.703.369.984.176.27.416.486.72.65.305.153.698.229 1.178.229.586 0 1.125-.135 1.618-.404.492-.27.925-.61 1.3-1.02l.141.07c-.211.41-.486.803-.826 1.178-.34.375-.72.715-1.143 1.02-.41.293-.85.527-1.318.703a3.936 3.936 0 01-1.389.263c-.644 0-1.172-.187-1.582-.562a2.779 2.779 0 01-.844-1.389 7.474 7.474 0 01-1.652 1.248 3.887 3.887 0 01-1.898.492c-.492 0-.932-.093-1.319-.28a2.76 2.76 0 01-.949-.722 3.293 3.293 0 01-.598-1.072 4.486 4.486 0 01-.193-1.318c0-.528.082-1.066.246-1.617.176-.563.41-1.114.703-1.653a9.721 9.721 0 011.073-1.529 8.55 8.55 0 011.335-1.266 6.729 6.729 0 011.547-.86 4.5 4.5 0 011.653-.317c.129 0 .287.017.474.052.188.024.37.07.545.141.176.07.322.17.44.299a.667.667 0 01.193.492zm14.01 14.606c0 .95-.111 1.916-.334 2.9a9.658 9.658 0 01-1.055 2.743 6.991 6.991 0 01-1.863 2.11c-.75.574-1.658.931-2.725 1.072a2.553 2.553 0 01-.615.07 4.413 4.413 0 01-1.828-.387 4.88 4.88 0 01-1.512-1.054 4.876 4.876 0 01-1.002-1.53 4.548 4.548 0 01-.369-1.81c0-.703.146-1.377.44-2.022a7.2 7.2 0 011.125-1.793 9.188 9.188 0 011.582-1.441 9.268 9.268 0 011.828-.985l.105.229c-1.137.61-2.015 1.447-2.637 2.514-.62 1.066-.931 2.244-.931 3.533 0 .527.07 1.037.21 1.53.153.503.376.943.669 1.318.293.375.656.673 1.09.896.445.234.955.352 1.529.352.808 0 1.482-.211 2.021-.633a4.58 4.58 0 001.284-1.582 7.082 7.082 0 00.685-2.074c.14-.739.211-1.43.211-2.075 0-.562-.035-1.113-.105-1.652-.07-.54-.147-1.078-.229-1.617l-.21-1.6a12.642 12.642 0 01-.106-1.652c0-.399.011-.809.035-1.23.035-.422.093-.85.175-1.284a7.897 7.897 0 01-1.792 1.565 3.975 3.975 0 01-2.163.632c-.48 0-.914-.093-1.3-.28a2.944 2.944 0 01-.967-.722 3.297 3.297 0 01-.598-1.072 4.486 4.486 0 01-.193-1.318c0-.528.082-1.072.246-1.635a8.54 8.54 0 01.703-1.652 9.06 9.06 0 011.072-1.512A7.86 7.86 0 0125.78 70a6.248 6.248 0 011.547-.844 4.499 4.499 0 011.652-.316c.282 0 .563.04.844.123.293.07.557.181.791.334.246.152.44.346.58.58.153.234.229.516.229.844 0 .234-.053.445-.158.632-.106.188-.24.358-.405.51-.164.14-.345.27-.545.387a5.445 5.445 0 01-.58.299l-.07-.211a.863.863 0 00.193-.387 1.907 1.907 0 00-.052-1.072 1.756 1.756 0 00-.282-.598 1.42 1.42 0 00-.457-.457 1.17 1.17 0 00-.632-.176c-.598 0-1.137.165-1.618.493-.48.316-.89.72-1.23 1.212a6.435 6.435 0 00-.773 1.618 5.588 5.588 0 00-.264 1.635c0 .34.03.685.088 1.037.07.351.181.668.334.949.152.281.357.515.615.703.27.176.61.264 1.02.264a3.32 3.32 0 001.757-.493 7.116 7.116 0 001.442-1.195c.164-.469.375-.908.633-1.318.269-.422.597-.785.984-1.09l.299.21c-.27.434-.446.927-.528 1.477-.082.551-.123 1.09-.123 1.618 0 .62.047 1.242.14 1.863.095.621.194 1.248.3 1.88a50.3 50.3 0 01.316 1.917c.094.644.14 1.3.14 1.969zm12.885-7.91a6.882 6.882 0 01-1.108 1.248 7.08 7.08 0 01-1.406 1.002 7.686 7.686 0 01-1.6.668 5.82 5.82 0 01-1.67.246 7.616 7.616 0 01-2.232-.316 5.013 5.013 0 01-1.81-.932 4.4 4.4 0 01-1.214-1.582c-.292-.644-.439-1.394-.439-2.25 0-.843.152-1.629.457-2.355a6.046 6.046 0 011.283-1.916 6.109 6.109 0 011.934-1.301 5.96 5.96 0 012.373-.475c.398 0 .767.059 1.107.176.352.106.657.27.914.492.258.211.457.475.598.791.152.317.229.68.229 1.09 0 .492-.1.926-.3 1.301a3.359 3.359 0 01-.79.984 4.562 4.562 0 01-1.125.704 7.78 7.78 0 01-1.301.457c-.445.117-.89.205-1.336.263-.434.047-.832.07-1.195.07h-.422c.152 1.067.574 1.881 1.266 2.444.69.562 1.646.844 2.865.844.867 0 1.71-.153 2.53-.457a7.85 7.85 0 002.25-1.266l.142.07zm-9.106-2.162h.44a4.66 4.66 0 001.3-.193c.446-.14.844-.34 1.196-.598.363-.27.662-.597.896-.984.234-.387.352-.826.352-1.319 0-.48-.106-.878-.317-1.195-.199-.316-.55-.474-1.054-.474-.516 0-.956.158-1.319.474a3.541 3.541 0 00-.861 1.143c-.223.445-.387.92-.492 1.424-.094.492-.14.931-.14 1.318v.404zm23.432 2.162c-.223.422-.463.826-.721 1.213a5.146 5.146 0 01-.844 1.02 3.86 3.86 0 01-1.072.703c-.398.176-.855.264-1.371.264-.586 0-1.09-.147-1.512-.44a3.848 3.848 0 01-1.09-1.125 7.184 7.184 0 01-.72-1.635 19.42 19.42 0 01-.44-1.863 21.574 21.574 0 01-.264-1.863c-.058-.621-.11-1.178-.158-1.67-.222.176-.492.516-.808 1.02a17.55 17.55 0 00-.967 1.74 27.592 27.592 0 00-.95 2.18 21.015 21.015 0 00-.72 2.32 2.39 2.39 0 01-.176.51c-.07.175-.164.333-.281.474a1.289 1.289 0 01-.387.37.875.875 0 01-.51.157c-.304 0-.527-.105-.667-.316a2.312 2.312 0 01-.282-.72 35.733 35.733 0 01-.72-4.272 43.175 43.175 0 01-.194-4.078c0-.328.053-.61.158-.844.118-.246.27-.445.458-.598.187-.164.41-.281.667-.351.258-.082.528-.123.809-.123h.158c.082 0 .158.011.229.035.07.012.129.035.175.07a.13.13 0 01.053.14 23.178 23.178 0 00-.44 4.694c.012 1.582.094 3.105.247 4.57.129-.586.316-1.248.562-1.986.258-.75.551-1.5.88-2.25a24.81 24.81 0 011.09-2.162c.398-.692.802-1.272 1.212-1.74.2-.223.398-.41.598-.563.21-.164.468-.246.773-.246a.84.84 0 01.44.106c.117.07.21.158.28.263a.98.98 0 01.177.37c.047.128.082.257.105.386.059.34.117.78.176 1.319.059.538.129 1.113.21 1.722.094.61.206 1.225.335 1.846.129.61.293 1.166.492 1.67.2.492.44.896.72 1.213.282.316.616.474 1.003.474.316 0 .62-.058.914-.175.304-.13.592-.288.861-.475.27-.2.522-.422.756-.668.234-.258.445-.51.633-.756l.123.07zm10.248 0a5.204 5.204 0 01-1.195 1.354 8.235 8.235 0 01-1.6 1.002 8.68 8.68 0 01-1.81.615 7.519 7.519 0 01-1.794.229 5.971 5.971 0 01-1.968-.317 4.824 4.824 0 01-1.582-.914 4.523 4.523 0 01-1.055-1.459c-.246-.574-.37-1.224-.37-1.951 0-.82.147-1.623.44-2.408a7.085 7.085 0 011.248-2.092 6.235 6.235 0 011.899-1.46 5.203 5.203 0 012.39-.562c.282 0 .563.03.844.088.281.059.54.158.773.3.235.128.422.304.563.526.152.223.228.504.228.844 0 .34-.087.639-.263.897a2.244 2.244 0 01-.668.615c-.27.164-.563.299-.879.404a6.803 6.803 0 01-.879.211v-.246a4.22 4.22 0 00.527-.193c.2-.082.381-.188.545-.317a1.67 1.67 0 00.405-.457c.117-.175.175-.369.175-.58a.639.639 0 00-.123-.404.808.808 0 00-.28-.281 1.171 1.171 0 00-.37-.159 1.732 1.732 0 00-.422-.052 3.25 3.25 0 00-1.617.404 3.754 3.754 0 00-1.195 1.037c-.328.434-.58.92-.756 1.46a5.589 5.589 0 00-.246 1.634c0 .633.093 1.201.28 1.705.2.492.476.914.827 1.266.352.351.78.62 1.283.808a4.81 4.81 0 001.688.281 7 7 0 001.265-.123 8.136 8.136 0 001.319-.386 7.466 7.466 0 001.23-.598c.387-.234.72-.498 1.002-.791l.14.07zm10.177 7.84c0 .668-.064 1.336-.193 2.004a9.955 9.955 0 01-.58 1.934 8.391 8.391 0 01-.932 1.758 6.82 6.82 0 01-1.283 1.423 5.87 5.87 0 01-1.617.95 5.112 5.112 0 01-1.916.351 4.413 4.413 0 01-1.828-.387 5.032 5.032 0 01-1.512-1.037 4.876 4.876 0 01-1.002-1.529 4.592 4.592 0 01-.369-1.828 5 5 0 01.422-2.022 7.287 7.287 0 011.142-1.775 8.701 8.701 0 011.583-1.424 8.599 8.599 0 011.828-.967l.105.211c-1.136.621-2.015 1.46-2.636 2.514-.622 1.055-.932 2.232-.932 3.533 0 .528.07 1.031.21 1.512.153.492.376.926.669 1.3.293.376.656.675 1.09.897.445.234.955.352 1.529.352.797 0 1.459-.217 1.986-.65.527-.434.95-.98 1.266-1.635a7.682 7.682 0 00.668-2.11c.14-.761.21-1.476.21-2.144 0-.715-.058-1.418-.175-2.11a25.858 25.858 0 00-.404-2.074 129.01 129.01 0 00-.475-2.074 25.365 25.365 0 01-.404-2.092c-.246.293-.51.574-.791.844a5.814 5.814 0 01-.914.685 4.397 4.397 0 01-1.02.44 3.698 3.698 0 01-1.142.176c-.598 0-1.126-.112-1.583-.334a3.189 3.189 0 01-1.124-.88 4.094 4.094 0 01-.704-1.3 5.321 5.321 0 01-.228-1.582c0-.633.088-1.254.264-1.863a7.42 7.42 0 01.738-1.723 8.733 8.733 0 011.125-1.512 8.683 8.683 0 011.406-1.23l.211.105a9.691 9.691 0 00-1.195 2.356 7.963 7.963 0 00-.422 2.566c0 .375.04.78.123 1.213.082.434.21.832.387 1.195.187.364.433.668.738.914.316.235.703.352 1.16.352.55 0 1.066-.117 1.547-.352.48-.246.92-.556 1.318-.931a14.755 14.755 0 01.07-3.164 8.66 8.66 0 01.44-1.846 6.032 6.032 0 01.897-1.617c.374-.492.86-.89 1.459-1.196l.14.07a4.185 4.185 0 00-.703.985c-.188.352-.34.72-.457 1.108a7.968 7.968 0 00-.229 1.195c-.035.398-.052.79-.052 1.178 0 1.078.105 2.08.316 3.005.223.926.463 1.834.72 2.725.27.89.51 1.781.721 2.672.223.902.334 1.857.334 2.865zM42.004 61l-16.92-45.072h-.288c.144 1.488.264 3.504.36 6.048.096 2.496.144 5.112.144 7.848V61h-5.976V9.592H28.9l15.84 42.12h.288l16.128-42.12h9.504V61h-6.408V29.392c0-2.496.048-4.968.144-7.416.144-2.448.264-4.44.36-5.976h-.288L47.332 61h-5.328z" fill="#F8F6F4"/></svg>