<svg class="spiral" width="1440" height="627" fill="none" xmlns="http://www.w3.org/2000/svg"><g clip-path="url(#clip0)"><path d="M20.126 214.529h-3.648v464.415h3.648V214.529z" fill="url(#paint0_linear)"/><path d="M14.18 214.747c0-2.261 1.86-4.122 4.122-4.122 2.262 0 4.122 1.861 4.122 4.122 0 2.262-1.86 4.123-4.122 4.123-2.261-.037-4.122-1.861-4.122-4.123z" fill="url(#paint1_linear)"/><path d="M46.026 273.771H42.38v345.968h3.648V273.771z" fill="url(#paint2_linear)"/><path d="M40.117 273.953c0-2.262 1.86-4.122 4.122-4.122 2.262 0 4.122 1.86 4.122 4.122a4.118 4.118 0 01-4.122 4.122 4.117 4.117 0 01-4.122-4.122z" fill="url(#paint3_linear)"/><path d="M31.873 217.739h-3.648V675.77h3.648V217.739z" fill="url(#paint4_linear)"/><path d="M25.927 217.92c0-2.261 1.86-4.122 4.122-4.122 2.261 0 4.122 1.861 4.122 4.122 0 2.262-1.86 4.123-4.122 4.123a4.095 4.095 0 01-4.122-4.123z" fill="url(#paint5_linear)"/><path d="M103.481 276.907h-3.648v339.694h3.648V276.907z" fill="url(#paint6_linear)"/><path d="M97.535 277.09c0-2.262 1.86-4.122 4.122-4.122 2.262 0 4.122 1.86 4.122 4.122 0 2.261-1.86 4.122-4.122 4.122a4.118 4.118 0 01-4.122-4.122z" fill="url(#paint7_linear)"/><path d="M165.094 246.849h-3.648V646.66h3.648V246.849z" fill="url(#paint8_linear)"/><path d="M159.148 247.031c0-2.262 1.861-4.122 4.122-4.122 2.262 0 4.122 1.86 4.122 4.122 0 2.262-1.86 4.122-4.122 4.122a4.118 4.118 0 01-4.122-4.122z" fill="url(#paint9_linear)"/><path d="M91.662 209.859h-3.648v473.755h3.648V209.859z" fill="url(#paint10_linear)"/><path d="M85.716 210.078c0-2.262 1.86-4.122 4.122-4.122 2.262 0 4.122 1.86 4.122 4.122 0 2.262-1.86 4.122-4.122 4.122-2.262-.036-4.122-1.86-4.122-4.122z" fill="url(#paint11_linear)"/><path d="M113.513 242.544h-3.648v408.421h3.648V242.544z" fill="url(#paint12_linear)"/><path d="M107.567 242.727c0-2.262 1.86-4.123 4.122-4.123 2.262 0 4.122 1.861 4.122 4.123 0 2.261-1.86 4.122-4.122 4.122a4.118 4.118 0 01-4.122-4.122z" fill="url(#paint13_linear)"/><path d="M208.723 286.502h-3.648v320.469h3.648V286.502z" fill="url(#paint14_linear)"/><path d="M202.814 286.721c0-2.262 1.86-4.123 4.122-4.123 2.262 0 4.122 1.861 4.122 4.123 0 2.261-1.86 4.122-4.122 4.122-2.298-.037-4.122-1.861-4.122-4.122z" fill="url(#paint15_linear)"/><path d="M190.666 287.888h-3.648v317.696h3.648V287.888z" fill="url(#paint16_linear)"/><path d="M188.842 292.228a4.121 4.121 0 10.001-8.243 4.121 4.121 0 00-.001 8.243z" fill="url(#paint17_linear)"/><path d="M286.533 249.293h-3.648V644.18h3.648V249.293z" fill="url(#paint18_linear)"/><path d="M280.587 249.512c0-2.262 1.861-4.122 4.122-4.122 2.262 0 4.122 1.86 4.122 4.122 0 2.262-1.86 4.122-4.122 4.122-2.298-.036-4.122-1.86-4.122-4.122z" fill="url(#paint19_linear)"/><path d="M298.644 273.552h-3.648v346.333h3.648V273.552z" fill="url(#paint20_linear)"/><path d="M292.735 273.77c0-2.261 1.86-4.122 4.122-4.122 2.262 0 4.122 1.861 4.122 4.122 0 2.262-1.86 4.122-4.122 4.122a4.118 4.118 0 01-4.122-4.122z" fill="url(#paint21_linear)"/><path d="M246.698 239.589h-3.648v414.294h3.648V239.589z" fill="url(#paint22_linear)"/><path d="M240.752 239.808c0-2.262 1.86-4.122 4.122-4.122 2.262 0 4.122 1.86 4.122 4.122 0 2.262-1.86 4.122-4.122 4.122-2.262 0-4.122-1.86-4.122-4.122z" fill="url(#paint23_linear)"/><path d="M358.434 177.94h-3.648v537.629h3.648V177.94z" fill="url(#paint24_linear)"/><path d="M352.488 178.122c0-2.262 1.86-4.122 4.122-4.122 2.261 0 4.122 1.86 4.122 4.122 0 2.262-1.861 4.122-4.122 4.122-2.262 0-4.122-1.86-4.122-4.122z" fill="url(#paint25_linear)"/><path d="M371.165 208.108h-3.648v477.257h3.648V208.108z" fill="url(#paint26_linear)"/><path d="M365.219 208.327c0-2.262 1.86-4.122 4.122-4.122 2.262 0 4.122 1.86 4.122 4.122 0 2.262-1.86 4.122-4.122 4.122-2.298-.036-4.122-1.86-4.122-4.122z" fill="url(#paint27_linear)"/><path d="M402.756 192.532h-3.648v508.446h3.648V192.532z" fill="url(#paint28_linear)"/><path d="M396.81 192.714c0-2.262 1.86-4.122 4.122-4.122 2.262 0 4.122 1.86 4.122 4.122 0 2.261-1.86 4.122-4.122 4.122a4.095 4.095 0 01-4.122-4.122z" fill="url(#paint29_linear)"/><path d="M393.381 206.102h-3.648v481.305h3.648V206.102z" fill="url(#paint30_linear)"/><path d="M387.435 206.284c0-2.262 1.86-4.122 4.122-4.122 2.261 0 4.122 1.86 4.122 4.122 0 2.262-1.861 4.122-4.122 4.122a4.118 4.118 0 01-4.122-4.122z" fill="url(#paint31_linear)"/><path d="M375.469 251.372h-3.648v390.764h3.648V251.372z" fill="url(#paint32_linear)"/><path d="M369.523 251.554c0-2.261 1.861-4.122 4.122-4.122 2.262 0 4.123 1.861 4.123 4.122 0 2.262-1.861 4.122-4.123 4.122a4.095 4.095 0 01-4.122-4.122z" fill="url(#paint33_linear)"/><path d="M407.133 213.142h-3.648V680.33h3.648V213.142z" fill="url(#paint34_linear)"/><path d="M405.309 217.483a4.122 4.122 0 100-8.244 4.122 4.122 0 000 8.244z" fill="url(#paint35_linear)"/><path d="M415.378 278.731h-3.648v336.01h3.648v-336.01z" fill="url(#paint36_linear)"/><path d="M409.431 278.95c0-2.262 1.861-4.122 4.123-4.122 2.261 0 4.122 1.86 4.122 4.122 0 2.262-1.861 4.122-4.122 4.122a4.118 4.118 0 01-4.123-4.122z" fill="url(#paint37_linear)"/><path d="M492.75 237.109h-3.648v419.255h3.648V237.109z" fill="url(#paint38_linear)"/><path d="M486.804 237.328c0-2.262 1.86-4.122 4.122-4.122 2.262 0 4.122 1.86 4.122 4.122 0 2.261-1.86 4.122-4.122 4.122-2.262 0-4.122-1.861-4.122-4.122z" fill="url(#paint39_linear)"/><path d="M516.023 285.919h-3.647v321.636h3.647V285.919z" fill="url(#paint40_linear)"/><path d="M510.077 286.137c0-2.261 1.861-4.122 4.122-4.122 2.262 0 4.123 1.861 4.123 4.122 0 2.262-1.861 4.122-4.123 4.122-2.261-.036-4.122-1.86-4.122-4.122z" fill="url(#paint41_linear)"/><path d="M546.52 279.279h-3.648V614.23h3.648V279.279z" fill="url(#paint42_linear)"/><path d="M544.696 283.583a4.121 4.121 0 100-8.244 4.122 4.122 0 000 8.244z" fill="url(#paint43_linear)"/><path d="M595.438 224.961h-3.647v443.55h3.647v-443.55z" fill="url(#paint44_linear)"/><path d="M589.492 225.18a4.118 4.118 0 014.123-4.122c2.261 0 4.122 1.86 4.122 4.122 0 2.261-1.861 4.122-4.122 4.122-2.262-.037-4.123-1.861-4.123-4.122z" fill="url(#paint45_linear)"/><path d="M641.548 179.362H637.9V714.11h3.648V179.362z" fill="url(#paint46_linear)"/><path d="M639.724 183.703a4.122 4.122 0 100-8.244 4.122 4.122 0 000 8.244z" fill="url(#paint47_linear)"/><path d="M652.711 243.164h-3.648v407.144h3.648V243.164z" fill="url(#paint48_linear)"/><path d="M646.765 243.383c0-2.262 1.86-4.122 4.122-4.122 2.261 0 4.122 1.86 4.122 4.122 0 2.262-1.861 4.122-4.122 4.122-2.262-.036-4.122-1.86-4.122-4.122z" fill="url(#paint49_linear)"/><path d="M662.852 210.735h-3.648v472.039h3.648V210.735z" fill="url(#paint50_linear)"/><path d="M656.942 210.917c0-2.262 1.861-4.122 4.122-4.122a4.118 4.118 0 014.123 4.122c0 2.262-1.861 4.122-4.123 4.122a4.095 4.095 0 01-4.122-4.122z" fill="url(#paint51_linear)"/><path d="M669.637 270.451h-3.648v352.608h3.648V270.451z" fill="url(#paint52_linear)"/><path d="M663.691 270.634c0-2.262 1.86-4.123 4.122-4.123 2.262 0 4.122 1.861 4.122 4.123 0 2.261-1.86 4.122-4.122 4.122a4.118 4.118 0 01-4.122-4.122z" fill="url(#paint53_linear)"/><path d="M728.259 185.674h-3.648v522.162h3.648V185.674z" fill="url(#paint54_linear)"/><path d="M726.435 189.978a4.121 4.121 0 100-8.244 4.122 4.122 0 000 8.244z" fill="url(#paint55_linear)"/><path d="M740.078 257.829h-3.648V635.68h3.648V257.829z" fill="url(#paint56_linear)"/><path d="M734.132 258.011c0-2.262 1.861-4.122 4.122-4.122 2.262 0 4.122 1.86 4.122 4.122 0 2.262-1.86 4.122-4.122 4.122a4.118 4.118 0 01-4.122-4.122z" fill="url(#paint57_linear)"/><path d="M786.297 283.583h-3.648v326.343h3.648V283.583z" fill="url(#paint58_linear)"/><path d="M780.351 283.765c0-2.261 1.861-4.122 4.122-4.122 2.262 0 4.122 1.861 4.122 4.122 0 2.262-1.86 4.123-4.122 4.123a4.118 4.118 0 01-4.122-4.123z" fill="url(#paint59_linear)"/><path d="M741.319 179.399h-3.648v534.674h3.648V179.399z" fill="url(#paint60_linear)"/><path d="M739.495 183.74a4.123 4.123 0 10-.001-8.245 4.123 4.123 0 00.001 8.245z" fill="url(#paint61_linear)"/><path d="M800.889 233.206h-3.648v427.097h3.648V233.206z" fill="url(#paint62_linear)"/><path d="M799.065 237.51a4.122 4.122 0 100-8.244 4.122 4.122 0 000 8.244z" fill="url(#paint63_linear)"/><path d="M856.082 226.749h-3.648V666.76h3.648V226.749z" fill="url(#paint64_linear)"/><path d="M850.136 226.931c0-2.262 1.86-4.122 4.122-4.122 2.262 0 4.122 1.86 4.122 4.122 0 2.261-1.86 4.122-4.122 4.122a4.118 4.118 0 01-4.122-4.122z" fill="url(#paint65_linear)"/><path d="M887.198 205.153h-3.647v483.13h3.647v-483.13z" fill="url(#paint66_linear)"/><path d="M881.289 205.372c0-2.262 1.86-4.122 4.122-4.122 2.262 0 4.122 1.86 4.122 4.122 0 2.262-1.86 4.122-4.122 4.122a4.118 4.118 0 01-4.122-4.122z" fill="url(#paint67_linear)"/><path d="M816.575 193.298h-3.648v506.84h3.648v-506.84z" fill="url(#paint68_linear)"/><path d="M810.629 193.516c0-2.262 1.86-4.122 4.122-4.122 2.262 0 4.122 1.86 4.122 4.122 0 2.262-1.86 4.122-4.122 4.122-2.262 0-4.122-1.86-4.122-4.122z" fill="url(#paint69_linear)"/><path d="M888.621 285.152h-3.648v323.132h3.648V285.152z" fill="url(#paint70_linear)"/><path d="M882.711 285.37c0-2.261 1.861-4.122 4.123-4.122 2.261 0 4.122 1.861 4.122 4.122 0 2.262-1.861 4.123-4.122 4.123a4.119 4.119 0 01-4.123-4.123z" fill="url(#paint71_linear)"/><path d="M877.75 255.714h-3.648V637.76h3.648V255.714z" fill="url(#paint72_linear)"/><path d="M871.841 255.932c0-2.261 1.86-4.122 4.122-4.122 2.262 0 4.122 1.861 4.122 4.122 0 2.262-1.86 4.123-4.122 4.123-2.298-.037-4.122-1.861-4.122-4.123z" fill="url(#paint73_linear)"/><path d="M951.365 191.766h-3.648v509.905h3.648V191.766z" fill="url(#paint74_linear)"/><path d="M945.456 191.984c0-2.261 1.86-4.122 4.122-4.122 2.261 0 4.122 1.861 4.122 4.122 0 2.262-1.861 4.123-4.122 4.123a4.118 4.118 0 01-4.122-4.123z" fill="url(#paint75_linear)"/><path d="M915.178 289.384h-3.648v314.742h3.648V289.384z" fill="url(#paint76_linear)"/><path d="M909.232 289.566c0-2.262 1.86-4.122 4.122-4.122 2.262 0 4.122 1.86 4.122 4.122 0 2.262-1.86 4.122-4.122 4.122a4.118 4.118 0 01-4.122-4.122z" fill="url(#paint77_linear)"/><path d="M979.782 253.415h-3.647v386.642h3.647V253.415z" fill="url(#paint78_linear)"/><path d="M973.836 253.634c0-2.262 1.861-4.122 4.123-4.122 2.261 0 4.122 1.86 4.122 4.122 0 2.262-1.861 4.122-4.122 4.122-2.262 0-4.123-1.86-4.123-4.122z" fill="url(#paint79_linear)"/><path d="M986.859 260.31h-3.647V633.2h3.647V260.31z" fill="url(#paint80_linear)"/><path d="M980.95 260.492c0-2.261 1.86-4.122 4.122-4.122 2.262 0 4.122 1.861 4.122 4.122 0 2.262-1.86 4.122-4.122 4.122a4.095 4.095 0 01-4.122-4.122z" fill="url(#paint81_linear)"/><path d="M1062.92 209.932h-3.65v473.609h3.65V209.932z" fill="url(#paint82_linear)"/><path d="M1061.09 214.273c2.28 0 4.13-1.845 4.13-4.122a4.126 4.126 0 00-4.13-4.122 4.124 4.124 0 00-4.12 4.122 4.124 4.124 0 004.12 4.122z" fill="url(#paint83_linear)"/><path d="M1017.39 181.369h-3.65V712.14h3.65V181.369z" fill="url(#paint84_linear)"/><path d="M1011.45 181.551c0-2.262 1.86-4.122 4.12-4.122s4.12 1.86 4.12 4.122c0 2.262-1.86 4.122-4.12 4.122a4.117 4.117 0 01-4.12-4.122z" fill="url(#paint85_linear)"/><path d="M1059.27 188.774h-3.65v515.924h3.65V188.774z" fill="url(#paint86_linear)"/><path d="M1053.32 188.993c0-2.262 1.86-4.122 4.13-4.122 2.26 0 4.12 1.86 4.12 4.122 0 2.261-1.86 4.122-4.12 4.122-2.27 0-4.13-1.861-4.13-4.122z" fill="url(#paint87_linear)"/><path d="M1163.56 220.401h-3.64v452.67h3.64v-452.67z" fill="url(#paint88_linear)"/><path d="M1157.62 220.62c0-2.262 1.86-4.122 4.12-4.122s4.12 1.86 4.12 4.122c0 2.262-1.86 4.122-4.12 4.122-2.26-.036-4.12-1.86-4.12-4.122z" fill="url(#paint89_linear)"/><path d="M1159.11 255.641h-3.64v382.191h3.64V255.641z" fill="url(#paint90_linear)"/><path d="M1153.2 255.859c0-2.261 1.86-4.122 4.13-4.122 2.26 0 4.12 1.861 4.12 4.122 0 2.262-1.86 4.123-4.12 4.123-2.27 0-4.13-1.861-4.13-4.123z" fill="url(#paint91_linear)"/><path d="M1216.31 263.191h-3.64v367.09h3.64v-367.09z" fill="url(#paint92_linear)"/><path d="M1210.37 263.41a4.115 4.115 0 014.12-4.122c2.26 0 4.12 1.86 4.12 4.122 0 2.262-1.86 4.122-4.12 4.122s-4.12-1.86-4.12-4.122z" fill="url(#paint93_linear)"/><path d="M1162.62 219.599h-3.65v454.274h3.65V219.599z" fill="url(#paint94_linear)"/><path d="M1156.67 219.817c0-2.261 1.86-4.122 4.12-4.122s4.12 1.861 4.12 4.122c0 2.262-1.86 4.123-4.12 4.123s-4.12-1.861-4.12-4.123z" fill="url(#paint95_linear)"/><path d="M1183.77 231.054h-3.64v431.329h3.64V231.054z" fill="url(#paint96_linear)"/><path d="M1177.83 231.273c0-2.262 1.86-4.123 4.12-4.123s4.12 1.824 4.12 4.123c0 2.261-1.86 4.122-4.12 4.122-2.3 0-4.12-1.861-4.12-4.122z" fill="url(#paint97_linear)"/><path d="M1239.88 255.349h-3.65v382.812h3.65V255.349z" fill="url(#paint98_linear)"/><path d="M1233.93 255.531c0-2.262 1.86-4.122 4.12-4.122 2.27 0 4.13 1.86 4.13 4.122 0 2.262-1.86 4.122-4.13 4.122a4.098 4.098 0 01-4.12-4.122z" fill="url(#paint99_linear)"/><path d="M1219.56 250.569h-3.65v392.333h3.65V250.569z" fill="url(#paint100_linear)"/><path d="M1213.61 250.788c0-2.262 1.86-4.122 4.13-4.122 2.26 0 4.12 1.86 4.12 4.122 0 2.262-1.86 4.122-4.12 4.122-2.27-.036-4.13-1.86-4.13-4.122z" fill="url(#paint101_linear)"/><path d="M1243.56 181.771h-3.64v529.932h3.64V181.771z" fill="url(#paint102_linear)"/><path d="M1237.62 181.989c0-2.262 1.86-4.122 4.12-4.122s4.12 1.86 4.12 4.122c0 2.262-1.86 4.122-4.12 4.122-2.26-.036-4.12-1.86-4.12-4.122z" fill="url(#paint103_linear)"/><path d="M1303.02 277.893h-3.64v337.723h3.64V277.893z" fill="url(#paint104_linear)"/><path d="M1297.08 278.075c0-2.262 1.86-4.123 4.12-4.123s4.12 1.861 4.12 4.123c0 2.261-1.86 4.122-4.12 4.122-2.3 0-4.12-1.824-4.12-4.122z" fill="url(#paint105_linear)"/><path d="M1374.89 286.976h-3.65v319.52h3.65v-319.52z" fill="url(#paint106_linear)"/><path d="M1368.98 287.194c0-2.261 1.86-4.122 4.12-4.122s4.12 1.861 4.12 4.122c0 2.262-1.86 4.123-4.12 4.123-2.3-.037-4.12-1.861-4.12-4.123z" fill="url(#paint107_linear)"/><path d="M1382 192.824h-3.65V700.65h3.65V192.824z" fill="url(#paint108_linear)"/><path d="M1376.06 193.043c0-2.262 1.86-4.123 4.12-4.123s4.12 1.861 4.12 4.123c0 2.261-1.86 4.122-4.12 4.122s-4.12-1.861-4.12-4.122z" fill="url(#paint109_linear)"/><path d="M1343.99 273.406h-3.65V620.03h3.65V273.406z" fill="url(#paint110_linear)"/><path d="M1338.04 273.624c0-2.261 1.86-4.122 4.13-4.122 2.26 0 4.12 1.861 4.12 4.122 0 2.262-1.86 4.122-4.12 4.122-2.3 0-4.13-1.86-4.13-4.122z" fill="url(#paint111_linear)"/><path d="M1412.53 208.874h-3.64v475.724h3.64V208.874z" fill="url(#paint112_linear)"/><path d="M1406.62 209.093c0-2.262 1.87-4.122 4.13-4.122s4.12 1.824 4.12 4.122c0 2.262-1.86 4.122-4.12 4.122s-4.13-1.86-4.13-4.122z" fill="url(#paint113_linear)"/><path d="M1439.93 188.774h-3.65v515.924h3.65V188.774z" fill="url(#paint114_linear)"/><path d="M1433.98 188.993c0-2.262 1.86-4.122 4.13-4.122 2.26 0 4.12 1.86 4.12 4.122 0 2.261-1.86 4.122-4.12 4.122-2.27 0-4.13-1.861-4.13-4.122z" fill="url(#paint115_linear)"/><path d="M1429.5 248.345h-3.65v396.747h3.65V248.345z" fill="url(#paint116_linear)"/><path d="M1423.59 248.564c0-2.262 1.86-4.123 4.12-4.123s4.12 1.861 4.12 4.123c0 2.261-1.86 4.122-4.12 4.122-2.3 0-4.12-1.861-4.12-4.122z" fill="url(#paint117_linear)"/><path d="M1437.63 260.455h-3.65v372.562h3.65V260.455z" fill="url(#paint118_linear)"/><path d="M1431.69 260.674c0-2.262 1.86-4.122 4.12-4.122s4.12 1.86 4.12 4.122a4.115 4.115 0 01-4.12 4.122c-2.3 0-4.12-1.86-4.12-4.122z" fill="url(#paint119_linear)"/></g><defs><linearGradient id="paint0_linear" x1="18.31" y1="678.981" x2="18.31" y2="210.124" gradientUnits="userSpaceOnUse"><stop stop-color="#0F1145" stop-opacity="0"/><stop offset="1" stop-color="#fff" stop-opacity=".07"/></linearGradient><linearGradient id="paint1_linear" x1="18.32" y1="218.87" x2="18.32" y2="210.547" gradientUnits="userSpaceOnUse"><stop stop-color="#0F1145" stop-opacity="0"/><stop offset="1" stop-color="#fff" stop-opacity=".07"/></linearGradient><linearGradient id="paint2_linear" x1="44.21" y1="619.766" x2="44.21" y2="270.489" gradientUnits="userSpaceOnUse"><stop stop-color="#0F1145" stop-opacity="0"/><stop offset="1" stop-color="#fff" stop-opacity=".07"/></linearGradient><linearGradient id="paint3_linear" x1="44.256" y1="278.076" x2="44.256" y2="269.753" gradientUnits="userSpaceOnUse"><stop stop-color="#0F1145" stop-opacity="0"/><stop offset="1" stop-color="#fff" stop-opacity=".07"/></linearGradient><linearGradient id="paint4_linear" x1="30.056" y1="675.807" x2="30.056" y2="213.394" gradientUnits="userSpaceOnUse"><stop stop-color="#0F1145" stop-opacity="0"/><stop offset="1" stop-color="#fff" stop-opacity=".07"/></linearGradient><linearGradient id="paint5_linear" x1="30.066" y1="222.043" x2="30.066" y2="213.72" gradientUnits="userSpaceOnUse"><stop stop-color="#0F1145" stop-opacity="0"/><stop offset="1" stop-color="#fff" stop-opacity=".07"/></linearGradient><linearGradient id="paint6_linear" x1="101.665" y1="616.628" x2="101.665" y2="273.686" gradientUnits="userSpaceOnUse"><stop stop-color="#0F1145" stop-opacity="0"/><stop offset="1" stop-color="#fff" stop-opacity=".07"/></linearGradient><linearGradient id="paint7_linear" x1="101.674" y1="281.212" x2="101.674" y2="272.889" gradientUnits="userSpaceOnUse"><stop stop-color="#0F1145" stop-opacity="0"/><stop offset="1" stop-color="#fff" stop-opacity=".07"/></linearGradient><linearGradient id="paint8_linear" x1="163.278" y1="646.691" x2="163.278" y2="243.057" gradientUnits="userSpaceOnUse"><stop stop-color="#0F1145" stop-opacity="0"/><stop offset="1" stop-color="#fff" stop-opacity=".07"/></linearGradient><linearGradient id="paint9_linear" x1="163.288" y1="251.154" x2="163.288" y2="242.83" gradientUnits="userSpaceOnUse"><stop stop-color="#0F1145" stop-opacity="0"/><stop offset="1" stop-color="#fff" stop-opacity=".07"/></linearGradient><linearGradient id="paint10_linear" x1="89.846" y1="683.651" x2="89.846" y2="205.366" gradientUnits="userSpaceOnUse"><stop stop-color="#0F1145" stop-opacity="0"/><stop offset="1" stop-color="#fff" stop-opacity=".07"/></linearGradient><linearGradient id="paint11_linear" x1="89.855" y1="214.201" x2="89.855" y2="205.878" gradientUnits="userSpaceOnUse"><stop stop-color="#0F1145" stop-opacity="0"/><stop offset="1" stop-color="#fff" stop-opacity=".07"/></linearGradient><linearGradient id="paint12_linear" x1="111.697" y1="650.997" x2="111.697" y2="238.671" gradientUnits="userSpaceOnUse"><stop stop-color="#0F1145" stop-opacity="0"/><stop offset="1" stop-color="#fff" stop-opacity=".07"/></linearGradient><linearGradient id="paint13_linear" x1="111.706" y1="246.849" x2="111.706" y2="238.526" gradientUnits="userSpaceOnUse"><stop stop-color="#0F1145" stop-opacity="0"/><stop offset="1" stop-color="#fff" stop-opacity=".07"/></linearGradient><linearGradient id="paint14_linear" x1="206.907" y1="606.996" x2="206.907" y2="283.462" gradientUnits="userSpaceOnUse"><stop stop-color="#0F1145" stop-opacity="0"/><stop offset="1" stop-color="#fff" stop-opacity=".07"/></linearGradient><linearGradient id="paint15_linear" x1="206.953" y1="290.843" x2="206.953" y2="282.52" gradientUnits="userSpaceOnUse"><stop stop-color="#0F1145" stop-opacity="0"/><stop offset="1" stop-color="#fff" stop-opacity=".07"/></linearGradient><linearGradient id="paint16_linear" x1="188.85" y1="605.609" x2="188.85" y2="284.875" gradientUnits="userSpaceOnUse"><stop stop-color="#0F1145" stop-opacity="0"/><stop offset="1" stop-color="#fff" stop-opacity=".07"/></linearGradient><linearGradient id="paint17_linear" x1="188.86" y1="292.229" x2="188.86" y2="283.906" gradientUnits="userSpaceOnUse"><stop stop-color="#0F1145" stop-opacity="0"/><stop offset="1" stop-color="#fff" stop-opacity=".07"/></linearGradient><linearGradient id="paint18_linear" x1="284.717" y1="644.211" x2="284.717" y2="245.548" gradientUnits="userSpaceOnUse"><stop stop-color="#0F1145" stop-opacity="0"/><stop offset="1" stop-color="#fff" stop-opacity=".07"/></linearGradient><linearGradient id="paint19_linear" x1="284.727" y1="253.635" x2="284.727" y2="245.312" gradientUnits="userSpaceOnUse"><stop stop-color="#0F1145" stop-opacity="0"/><stop offset="1" stop-color="#fff" stop-opacity=".07"/></linearGradient><linearGradient id="paint20_linear" x1="296.828" y1="619.912" x2="296.828" y2="270.267" gradientUnits="userSpaceOnUse"><stop stop-color="#0F1145" stop-opacity="0"/><stop offset="1" stop-color="#fff" stop-opacity=".07"/></linearGradient><linearGradient id="paint21_linear" x1="296.874" y1="277.893" x2="296.874" y2="269.57" gradientUnits="userSpaceOnUse"><stop stop-color="#0F1145" stop-opacity="0"/><stop offset="1" stop-color="#fff" stop-opacity=".07"/></linearGradient><linearGradient id="paint22_linear" x1="244.882" y1="653.915" x2="244.882" y2="235.66" gradientUnits="userSpaceOnUse"><stop stop-color="#0F1145" stop-opacity="0"/><stop offset="1" stop-color="#fff" stop-opacity=".07"/></linearGradient><linearGradient id="paint23_linear" x1="244.891" y1="243.931" x2="244.891" y2="235.608" gradientUnits="userSpaceOnUse"><stop stop-color="#0F1145" stop-opacity="0"/><stop offset="1" stop-color="#fff" stop-opacity=".07"/></linearGradient><linearGradient id="paint24_linear" x1="356.617" y1="715.612" x2="356.617" y2="172.841" gradientUnits="userSpaceOnUse"><stop stop-color="#0F1145" stop-opacity="0"/><stop offset="1" stop-color="#fff" stop-opacity=".07"/></linearGradient><linearGradient id="paint25_linear" x1="356.627" y1="182.245" x2="356.627" y2="173.922" gradientUnits="userSpaceOnUse"><stop stop-color="#0F1145" stop-opacity="0"/><stop offset="1" stop-color="#fff" stop-opacity=".07"/></linearGradient><linearGradient id="paint26_linear" x1="369.349" y1="685.402" x2="369.349" y2="203.582" gradientUnits="userSpaceOnUse"><stop stop-color="#0F1145" stop-opacity="0"/><stop offset="1" stop-color="#fff" stop-opacity=".07"/></linearGradient><linearGradient id="paint27_linear" x1="369.358" y1="212.45" x2="369.358" y2="204.127" gradientUnits="userSpaceOnUse"><stop stop-color="#0F1145" stop-opacity="0"/><stop offset="1" stop-color="#fff" stop-opacity=".07"/></linearGradient><linearGradient id="paint28_linear" x1="400.939" y1="701.018" x2="400.939" y2="187.709" gradientUnits="userSpaceOnUse"><stop stop-color="#0F1145" stop-opacity="0"/><stop offset="1" stop-color="#fff" stop-opacity=".07"/></linearGradient><linearGradient id="paint29_linear" x1="400.949" y1="196.836" x2="400.949" y2="188.513" gradientUnits="userSpaceOnUse"><stop stop-color="#0F1145" stop-opacity="0"/><stop offset="1" stop-color="#fff" stop-opacity=".07"/></linearGradient><linearGradient id="paint30_linear" x1="391.564" y1="687.445" x2="391.564" y2="201.537" gradientUnits="userSpaceOnUse"><stop stop-color="#0F1145" stop-opacity="0"/><stop offset="1" stop-color="#fff" stop-opacity=".07"/></linearGradient><linearGradient id="paint31_linear" x1="391.574" y1="210.407" x2="391.574" y2="202.084" gradientUnits="userSpaceOnUse"><stop stop-color="#0F1145" stop-opacity="0"/><stop offset="1" stop-color="#fff" stop-opacity=".07"/></linearGradient><linearGradient id="paint32_linear" x1="373.653" y1="642.167" x2="373.653" y2="247.666" gradientUnits="userSpaceOnUse"><stop stop-color="#0F1145" stop-opacity="0"/><stop offset="1" stop-color="#fff" stop-opacity=".07"/></linearGradient><linearGradient id="paint33_linear" x1="373.663" y1="255.677" x2="373.663" y2="247.354" gradientUnits="userSpaceOnUse"><stop stop-color="#0F1145" stop-opacity="0"/><stop offset="1" stop-color="#fff" stop-opacity=".07"/></linearGradient><linearGradient id="paint34_linear" x1="405.317" y1="680.367" x2="405.317" y2="208.711" gradientUnits="userSpaceOnUse"><stop stop-color="#0F1145" stop-opacity="0"/><stop offset="1" stop-color="#fff" stop-opacity=".07"/></linearGradient><linearGradient id="paint35_linear" x1="405.327" y1="217.483" x2="405.327" y2="209.16" gradientUnits="userSpaceOnUse"><stop stop-color="#0F1145" stop-opacity="0"/><stop offset="1" stop-color="#fff" stop-opacity=".07"/></linearGradient><linearGradient id="paint36_linear" x1="413.561" y1="614.767" x2="413.561" y2="275.545" gradientUnits="userSpaceOnUse"><stop stop-color="#0F1145" stop-opacity="0"/><stop offset="1" stop-color="#fff" stop-opacity=".07"/></linearGradient><linearGradient id="paint37_linear" x1="413.571" y1="283.073" x2="413.571" y2="274.75" gradientUnits="userSpaceOnUse"><stop stop-color="#0F1145" stop-opacity="0"/><stop offset="1" stop-color="#fff" stop-opacity=".07"/></linearGradient><linearGradient id="paint38_linear" x1="490.933" y1="656.397" x2="490.933" y2="233.133" gradientUnits="userSpaceOnUse"><stop stop-color="#0F1145" stop-opacity="0"/><stop offset="1" stop-color="#fff" stop-opacity=".07"/></linearGradient><linearGradient id="paint39_linear" x1="490.943" y1="241.451" x2="490.943" y2="233.127" gradientUnits="userSpaceOnUse"><stop stop-color="#0F1145" stop-opacity="0"/><stop offset="1" stop-color="#fff" stop-opacity=".07"/></linearGradient><linearGradient id="paint40_linear" x1="514.207" y1="607.581" x2="514.207" y2="282.868" gradientUnits="userSpaceOnUse"><stop stop-color="#0F1145" stop-opacity="0"/><stop offset="1" stop-color="#fff" stop-opacity=".07"/></linearGradient><linearGradient id="paint41_linear" x1="514.217" y1="290.26" x2="514.217" y2="281.937" gradientUnits="userSpaceOnUse"><stop stop-color="#0F1145" stop-opacity="0"/><stop offset="1" stop-color="#fff" stop-opacity=".07"/></linearGradient><linearGradient id="paint42_linear" x1="544.704" y1="614.257" x2="544.704" y2="276.102" gradientUnits="userSpaceOnUse"><stop stop-color="#0F1145" stop-opacity="0"/><stop offset="1" stop-color="#fff" stop-opacity=".07"/></linearGradient><linearGradient id="paint43_linear" x1="544.713" y1="283.584" x2="544.713" y2="275.261" gradientUnits="userSpaceOnUse"><stop stop-color="#0F1145" stop-opacity="0"/><stop offset="1" stop-color="#fff" stop-opacity=".07"/></linearGradient><linearGradient id="paint44_linear" x1="593.622" y1="668.546" x2="593.622" y2="220.754" gradientUnits="userSpaceOnUse"><stop stop-color="#0F1145" stop-opacity="0"/><stop offset="1" stop-color="#fff" stop-opacity=".07"/></linearGradient><linearGradient id="paint45_linear" x1="593.632" y1="229.303" x2="593.632" y2="220.979" gradientUnits="userSpaceOnUse"><stop stop-color="#0F1145" stop-opacity="0"/><stop offset="1" stop-color="#fff" stop-opacity=".07"/></linearGradient><linearGradient id="paint46_linear" x1="639.732" y1="714.152" x2="639.732" y2="174.291" gradientUnits="userSpaceOnUse"><stop stop-color="#0F1145" stop-opacity="0"/><stop offset="1" stop-color="#fff" stop-opacity=".07"/></linearGradient><linearGradient id="paint47_linear" x1="639.741" y1="183.704" x2="639.741" y2="175.381" gradientUnits="userSpaceOnUse"><stop stop-color="#0F1145" stop-opacity="0"/><stop offset="1" stop-color="#fff" stop-opacity=".07"/></linearGradient><linearGradient id="paint48_linear" x1="650.894" y1="650.34" x2="650.894" y2="239.303" gradientUnits="userSpaceOnUse"><stop stop-color="#0F1145" stop-opacity="0"/><stop offset="1" stop-color="#fff" stop-opacity=".07"/></linearGradient><linearGradient id="paint49_linear" x1="650.904" y1="247.506" x2="650.904" y2="239.183" gradientUnits="userSpaceOnUse"><stop stop-color="#0F1145" stop-opacity="0"/><stop offset="1" stop-color="#fff" stop-opacity=".07"/></linearGradient><linearGradient id="paint50_linear" x1="661.036" y1="682.812" x2="661.036" y2="206.258" gradientUnits="userSpaceOnUse"><stop stop-color="#0F1145" stop-opacity="0"/><stop offset="1" stop-color="#fff" stop-opacity=".07"/></linearGradient><linearGradient id="paint51_linear" x1="661.082" y1="215.04" x2="661.082" y2="206.716" gradientUnits="userSpaceOnUse"><stop stop-color="#0F1145" stop-opacity="0"/><stop offset="1" stop-color="#fff" stop-opacity=".07"/></linearGradient><linearGradient id="paint52_linear" x1="667.821" y1="623.086" x2="667.821" y2="267.107" gradientUnits="userSpaceOnUse"><stop stop-color="#0F1145" stop-opacity="0"/><stop offset="1" stop-color="#fff" stop-opacity=".07"/></linearGradient><linearGradient id="paint53_linear" x1="667.83" y1="274.756" x2="667.83" y2="266.433" gradientUnits="userSpaceOnUse"><stop stop-color="#0F1145" stop-opacity="0"/><stop offset="1" stop-color="#fff" stop-opacity=".07"/></linearGradient><linearGradient id="paint54_linear" x1="726.443" y1="707.878" x2="726.443" y2="180.722" gradientUnits="userSpaceOnUse"><stop stop-color="#0F1145" stop-opacity="0"/><stop offset="1" stop-color="#fff" stop-opacity=".07"/></linearGradient><linearGradient id="paint55_linear" x1="726.452" y1="189.979" x2="726.452" y2="181.656" gradientUnits="userSpaceOnUse"><stop stop-color="#0F1145" stop-opacity="0"/><stop offset="1" stop-color="#fff" stop-opacity=".07"/></linearGradient><linearGradient id="paint56_linear" x1="738.262" y1="635.709" x2="738.262" y2="254.245" gradientUnits="userSpaceOnUse"><stop stop-color="#0F1145" stop-opacity="0"/><stop offset="1" stop-color="#fff" stop-opacity=".07"/></linearGradient><linearGradient id="paint57_linear" x1="738.272" y1="262.134" x2="738.272" y2="253.811" gradientUnits="userSpaceOnUse"><stop stop-color="#0F1145" stop-opacity="0"/><stop offset="1" stop-color="#fff" stop-opacity=".07"/></linearGradient><linearGradient id="paint58_linear" x1="784.481" y1="609.951" x2="784.481" y2="280.488" gradientUnits="userSpaceOnUse"><stop stop-color="#0F1145" stop-opacity="0"/><stop offset="1" stop-color="#fff" stop-opacity=".07"/></linearGradient><linearGradient id="paint59_linear" x1="784.491" y1="287.888" x2="784.491" y2="279.565" gradientUnits="userSpaceOnUse"><stop stop-color="#0F1145" stop-opacity="0"/><stop offset="1" stop-color="#fff" stop-opacity=".07"/></linearGradient><linearGradient id="paint60_linear" x1="739.502" y1="714.116" x2="739.502" y2="174.328" gradientUnits="userSpaceOnUse"><stop stop-color="#0F1145" stop-opacity="0"/><stop offset="1" stop-color="#fff" stop-opacity=".07"/></linearGradient><linearGradient id="paint61_linear" x1="739.512" y1="183.74" x2="739.512" y2="175.417" gradientUnits="userSpaceOnUse"><stop stop-color="#0F1145" stop-opacity="0"/><stop offset="1" stop-color="#fff" stop-opacity=".07"/></linearGradient><linearGradient id="paint62_linear" x1="799.073" y1="660.337" x2="799.073" y2="229.155" gradientUnits="userSpaceOnUse"><stop stop-color="#0F1145" stop-opacity="0"/><stop offset="1" stop-color="#fff" stop-opacity=".07"/></linearGradient><linearGradient id="paint63_linear" x1="799.082" y1="237.511" x2="799.082" y2="229.187" gradientUnits="userSpaceOnUse"><stop stop-color="#0F1145" stop-opacity="0"/><stop offset="1" stop-color="#fff" stop-opacity=".07"/></linearGradient><linearGradient id="paint64_linear" x1="854.265" y1="666.795" x2="854.265" y2="222.576" gradientUnits="userSpaceOnUse"><stop stop-color="#0F1145" stop-opacity="0"/><stop offset="1" stop-color="#fff" stop-opacity=".07"/></linearGradient><linearGradient id="paint65_linear" x1="854.275" y1="231.054" x2="854.275" y2="222.73" gradientUnits="userSpaceOnUse"><stop stop-color="#0F1145" stop-opacity="0"/><stop offset="1" stop-color="#fff" stop-opacity=".07"/></linearGradient><linearGradient id="paint66_linear" x1="885.382" y1="688.321" x2="885.382" y2="200.571" gradientUnits="userSpaceOnUse"><stop stop-color="#0F1145" stop-opacity="0"/><stop offset="1" stop-color="#fff" stop-opacity=".07"/></linearGradient><linearGradient id="paint67_linear" x1="885.428" y1="209.495" x2="885.428" y2="201.172" gradientUnits="userSpaceOnUse"><stop stop-color="#0F1145" stop-opacity="0"/><stop offset="1" stop-color="#fff" stop-opacity=".07"/></linearGradient><linearGradient id="paint68_linear" x1="814.759" y1="700.179" x2="814.759" y2="188.491" gradientUnits="userSpaceOnUse"><stop stop-color="#0F1145" stop-opacity="0"/><stop offset="1" stop-color="#fff" stop-opacity=".07"/></linearGradient><linearGradient id="paint69_linear" x1="814.768" y1="197.639" x2="814.768" y2="189.316" gradientUnits="userSpaceOnUse"><stop stop-color="#0F1145" stop-opacity="0"/><stop offset="1" stop-color="#fff" stop-opacity=".07"/></linearGradient><linearGradient id="paint70_linear" x1="886.805" y1="608.309" x2="886.805" y2="282.087" gradientUnits="userSpaceOnUse"><stop stop-color="#0F1145" stop-opacity="0"/><stop offset="1" stop-color="#fff" stop-opacity=".07"/></linearGradient><linearGradient id="paint71_linear" x1="886.851" y1="289.493" x2="886.851" y2="281.17" gradientUnits="userSpaceOnUse"><stop stop-color="#0F1145" stop-opacity="0"/><stop offset="1" stop-color="#fff" stop-opacity=".07"/></linearGradient><linearGradient id="paint72_linear" x1="875.934" y1="637.79" x2="875.934" y2="252.09" gradientUnits="userSpaceOnUse"><stop stop-color="#0F1145" stop-opacity="0"/><stop offset="1" stop-color="#fff" stop-opacity=".07"/></linearGradient><linearGradient id="paint73_linear" x1="875.98" y1="260.055" x2="875.98" y2="251.732" gradientUnits="userSpaceOnUse"><stop stop-color="#0F1145" stop-opacity="0"/><stop offset="1" stop-color="#fff" stop-opacity=".07"/></linearGradient><linearGradient id="paint74_linear" x1="949.549" y1="701.711" x2="949.549" y2="186.93" gradientUnits="userSpaceOnUse"><stop stop-color="#0F1145" stop-opacity="0"/><stop offset="1" stop-color="#fff" stop-opacity=".07"/></linearGradient><linearGradient id="paint75_linear" x1="949.595" y1="196.107" x2="949.595" y2="187.784" gradientUnits="userSpaceOnUse"><stop stop-color="#0F1145" stop-opacity="0"/><stop offset="1" stop-color="#fff" stop-opacity=".07"/></linearGradient><linearGradient id="paint76_linear" x1="913.362" y1="604.151" x2="913.362" y2="286.399" gradientUnits="userSpaceOnUse"><stop stop-color="#0F1145" stop-opacity="0"/><stop offset="1" stop-color="#fff" stop-opacity=".07"/></linearGradient><linearGradient id="paint77_linear" x1="913.371" y1="293.689" x2="913.371" y2="285.366" gradientUnits="userSpaceOnUse"><stop stop-color="#0F1145" stop-opacity="0"/><stop offset="1" stop-color="#fff" stop-opacity=".07"/></linearGradient><linearGradient id="paint78_linear" x1="977.966" y1="640.088" x2="977.966" y2="249.748" gradientUnits="userSpaceOnUse"><stop stop-color="#0F1145" stop-opacity="0"/><stop offset="1" stop-color="#fff" stop-opacity=".07"/></linearGradient><linearGradient id="paint79_linear" x1="977.976" y1="257.757" x2="977.976" y2="249.434" gradientUnits="userSpaceOnUse"><stop stop-color="#0F1145" stop-opacity="0"/><stop offset="1" stop-color="#fff" stop-opacity=".07"/></linearGradient><linearGradient id="paint80_linear" x1="985.043" y1="633.229" x2="985.043" y2="256.773" gradientUnits="userSpaceOnUse"><stop stop-color="#0F1145" stop-opacity="0"/><stop offset="1" stop-color="#fff" stop-opacity=".07"/></linearGradient><linearGradient id="paint81_linear" x1="985.089" y1="264.615" x2="985.089" y2="256.292" gradientUnits="userSpaceOnUse"><stop stop-color="#0F1145" stop-opacity="0"/><stop offset="1" stop-color="#fff" stop-opacity=".07"/></linearGradient><linearGradient id="paint82_linear" x1="1061.1" y1="683.578" x2="1061.1" y2="205.44" gradientUnits="userSpaceOnUse"><stop stop-color="#0F1145" stop-opacity="0"/><stop offset="1" stop-color="#fff" stop-opacity=".07"/></linearGradient><linearGradient id="paint83_linear" x1="1061.11" y1="214.274" x2="1061.11" y2="205.951" gradientUnits="userSpaceOnUse"><stop stop-color="#0F1145" stop-opacity="0"/><stop offset="1" stop-color="#fff" stop-opacity=".07"/></linearGradient><linearGradient id="paint84_linear" x1="1015.58" y1="712.182" x2="1015.58" y2="176.335" gradientUnits="userSpaceOnUse"><stop stop-color="#0F1145" stop-opacity="0"/><stop offset="1" stop-color="#fff" stop-opacity=".07"/></linearGradient><linearGradient id="paint85_linear" x1="1015.59" y1="185.674" x2="1015.59" y2="177.351" gradientUnits="userSpaceOnUse"><stop stop-color="#0F1145" stop-opacity="0"/><stop offset="1" stop-color="#fff" stop-opacity=".07"/></linearGradient><linearGradient id="paint86_linear" x1="1057.45" y1="704.739" x2="1057.45" y2="183.881" gradientUnits="userSpaceOnUse"><stop stop-color="#0F1145" stop-opacity="0"/><stop offset="1" stop-color="#fff" stop-opacity=".07"/></linearGradient><linearGradient id="paint87_linear" x1="1057.46" y1="193.116" x2="1057.46" y2="184.792" gradientUnits="userSpaceOnUse"><stop stop-color="#0F1145" stop-opacity="0"/><stop offset="1" stop-color="#fff" stop-opacity=".07"/></linearGradient><linearGradient id="paint88_linear" x1="1161.75" y1="673.107" x2="1161.75" y2="216.108" gradientUnits="userSpaceOnUse"><stop stop-color="#0F1145" stop-opacity="0"/><stop offset="1" stop-color="#fff" stop-opacity=".07"/></linearGradient><linearGradient id="paint89_linear" x1="1161.76" y1="224.743" x2="1161.76" y2="216.42" gradientUnits="userSpaceOnUse"><stop stop-color="#0F1145" stop-opacity="0"/><stop offset="1" stop-color="#fff" stop-opacity=".07"/></linearGradient><linearGradient id="paint90_linear" x1="1157.3" y1="637.863" x2="1157.3" y2="252.016" gradientUnits="userSpaceOnUse"><stop stop-color="#0F1145" stop-opacity="0"/><stop offset="1" stop-color="#fff" stop-opacity=".07"/></linearGradient><linearGradient id="paint91_linear" x1="1157.34" y1="259.982" x2="1157.34" y2="251.659" gradientUnits="userSpaceOnUse"><stop stop-color="#0F1145" stop-opacity="0"/><stop offset="1" stop-color="#fff" stop-opacity=".07"/></linearGradient><linearGradient id="paint92_linear" x1="1214.5" y1="630.31" x2="1214.5" y2="259.71" gradientUnits="userSpaceOnUse"><stop stop-color="#0F1145" stop-opacity="0"/><stop offset="1" stop-color="#fff" stop-opacity=".07"/></linearGradient><linearGradient id="paint93_linear" x1="1214.51" y1="267.533" x2="1214.51" y2="259.21" gradientUnits="userSpaceOnUse"><stop stop-color="#0F1145" stop-opacity="0"/><stop offset="1" stop-color="#fff" stop-opacity=".07"/></linearGradient><linearGradient id="paint94_linear" x1="1160.8" y1="673.909" x2="1160.8" y2="215.29" gradientUnits="userSpaceOnUse"><stop stop-color="#0F1145" stop-opacity="0"/><stop offset="1" stop-color="#fff" stop-opacity=".07"/></linearGradient><linearGradient id="paint95_linear" x1="1160.81" y1="223.94" x2="1160.81" y2="215.617" gradientUnits="userSpaceOnUse"><stop stop-color="#0F1145" stop-opacity="0"/><stop offset="1" stop-color="#fff" stop-opacity=".07"/></linearGradient><linearGradient id="paint96_linear" x1="1181.96" y1="662.417" x2="1181.96" y2="226.963" gradientUnits="userSpaceOnUse"><stop stop-color="#0F1145" stop-opacity="0"/><stop offset="1" stop-color="#fff" stop-opacity=".07"/></linearGradient><linearGradient id="paint97_linear" x1="1181.97" y1="235.395" x2="1181.97" y2="227.072" gradientUnits="userSpaceOnUse"><stop stop-color="#0F1145" stop-opacity="0"/><stop offset="1" stop-color="#fff" stop-opacity=".07"/></linearGradient><linearGradient id="paint98_linear" x1="1238.06" y1="638.191" x2="1238.06" y2="251.718" gradientUnits="userSpaceOnUse"><stop stop-color="#0F1145" stop-opacity="0"/><stop offset="1" stop-color="#fff" stop-opacity=".07"/></linearGradient><linearGradient id="paint99_linear" x1="1238.07" y1="259.654" x2="1238.07" y2="251.33" gradientUnits="userSpaceOnUse"><stop stop-color="#0F1145" stop-opacity="0"/><stop offset="1" stop-color="#fff" stop-opacity=".07"/></linearGradient><linearGradient id="paint100_linear" x1="1217.74" y1="642.933" x2="1217.74" y2="246.848" gradientUnits="userSpaceOnUse"><stop stop-color="#0F1145" stop-opacity="0"/><stop offset="1" stop-color="#fff" stop-opacity=".07"/></linearGradient><linearGradient id="paint101_linear" x1="1217.75" y1="254.911" x2="1217.75" y2="246.588" gradientUnits="userSpaceOnUse"><stop stop-color="#0F1145" stop-opacity="0"/><stop offset="1" stop-color="#fff" stop-opacity=".07"/></linearGradient><linearGradient id="paint102_linear" x1="1241.75" y1="711.745" x2="1241.75" y2="176.744" gradientUnits="userSpaceOnUse"><stop stop-color="#0F1145" stop-opacity="0"/><stop offset="1" stop-color="#fff" stop-opacity=".07"/></linearGradient><linearGradient id="paint103_linear" x1="1241.76" y1="186.112" x2="1241.76" y2="177.789" gradientUnits="userSpaceOnUse"><stop stop-color="#0F1145" stop-opacity="0"/><stop offset="1" stop-color="#fff" stop-opacity=".07"/></linearGradient><linearGradient id="paint104_linear" x1="1301.21" y1="615.643" x2="1301.21" y2="274.689" gradientUnits="userSpaceOnUse"><stop stop-color="#0F1145" stop-opacity="0"/><stop offset="1" stop-color="#fff" stop-opacity=".07"/></linearGradient><linearGradient id="paint105_linear" x1="1301.22" y1="282.197" x2="1301.22" y2="273.874" gradientUnits="userSpaceOnUse"><stop stop-color="#0F1145" stop-opacity="0"/><stop offset="1" stop-color="#fff" stop-opacity=".07"/></linearGradient><linearGradient id="paint106_linear" x1="1373.07" y1="606.522" x2="1373.07" y2="283.945" gradientUnits="userSpaceOnUse"><stop stop-color="#0F1145" stop-opacity="0"/><stop offset="1" stop-color="#fff" stop-opacity=".07"/></linearGradient><linearGradient id="paint107_linear" x1="1373.12" y1="291.317" x2="1373.12" y2="282.994" gradientUnits="userSpaceOnUse"><stop stop-color="#0F1145" stop-opacity="0"/><stop offset="1" stop-color="#fff" stop-opacity=".07"/></linearGradient><linearGradient id="paint108_linear" x1="1380.19" y1="700.69" x2="1380.19" y2="188.007" gradientUnits="userSpaceOnUse"><stop stop-color="#0F1145" stop-opacity="0"/><stop offset="1" stop-color="#fff" stop-opacity=".07"/></linearGradient><linearGradient id="paint109_linear" x1="1380.19" y1="197.165" x2="1380.19" y2="188.842" gradientUnits="userSpaceOnUse"><stop stop-color="#0F1145" stop-opacity="0"/><stop offset="1" stop-color="#fff" stop-opacity=".07"/></linearGradient><linearGradient id="paint110_linear" x1="1342.17" y1="620.058" x2="1342.17" y2="270.118" gradientUnits="userSpaceOnUse"><stop stop-color="#0F1145" stop-opacity="0"/><stop offset="1" stop-color="#fff" stop-opacity=".07"/></linearGradient><linearGradient id="paint111_linear" x1="1342.18" y1="277.747" x2="1342.18" y2="269.424" gradientUnits="userSpaceOnUse"><stop stop-color="#0F1145" stop-opacity="0"/><stop offset="1" stop-color="#fff" stop-opacity=".07"/></linearGradient><linearGradient id="paint112_linear" x1="1410.72" y1="684.636" x2="1410.72" y2="204.362" gradientUnits="userSpaceOnUse"><stop stop-color="#0F1145" stop-opacity="0"/><stop offset="1" stop-color="#fff" stop-opacity=".07"/></linearGradient><linearGradient id="paint113_linear" x1="1410.76" y1="213.216" x2="1410.76" y2="204.893" gradientUnits="userSpaceOnUse"><stop stop-color="#0F1145" stop-opacity="0"/><stop offset="1" stop-color="#fff" stop-opacity=".07"/></linearGradient><linearGradient id="paint114_linear" x1="1438.11" y1="704.739" x2="1438.11" y2="183.881" gradientUnits="userSpaceOnUse"><stop stop-color="#0F1145" stop-opacity="0"/><stop offset="1" stop-color="#fff" stop-opacity=".07"/></linearGradient><linearGradient id="paint115_linear" x1="1438.12" y1="193.116" x2="1438.12" y2="184.792" gradientUnits="userSpaceOnUse"><stop stop-color="#0F1145" stop-opacity="0"/><stop offset="1" stop-color="#fff" stop-opacity=".07"/></linearGradient><linearGradient id="paint116_linear" x1="1427.68" y1="645.123" x2="1427.68" y2="244.582" gradientUnits="userSpaceOnUse"><stop stop-color="#0F1145" stop-opacity="0"/><stop offset="1" stop-color="#fff" stop-opacity=".07"/></linearGradient><linearGradient id="paint117_linear" x1="1427.73" y1="252.686" x2="1427.73" y2="244.363" gradientUnits="userSpaceOnUse"><stop stop-color="#0F1145" stop-opacity="0"/><stop offset="1" stop-color="#fff" stop-opacity=".07"/></linearGradient><linearGradient id="paint118_linear" x1="1435.82" y1="633.046" x2="1435.82" y2="256.922" gradientUnits="userSpaceOnUse"><stop stop-color="#0F1145" stop-opacity="0"/><stop offset="1" stop-color="#fff" stop-opacity=".07"/></linearGradient><linearGradient id="paint119_linear" x1="1435.83" y1="264.797" x2="1435.83" y2="256.474" gradientUnits="userSpaceOnUse"><stop stop-color="#0F1145" stop-opacity="0"/><stop offset="1" stop-color="#fff" stop-opacity=".07"/></linearGradient><clipPath id="clip0"><path fill="#fff" transform="translate(-294.834)" d="M0 0h2030.21v626.31H0z"/></clipPath></defs></svg>