<svg width="168" height="55" fill="none" xmlns="http://www.w3.org/2000/svg"><path fill="#C8C9CD" d="M136.736 0h20.905v55h-20.905z"/><path d="M20.012.948v36.983h-2.087L2.53 18.54v19.39H0V14.034h2.087l15.427 19.39v-19.39L20.012.948zm17.462 37.188c-3.102 0-5.52-.888-7.252-2.663-1.734-1.775-2.6-4.358-2.6-7.75V14.035h2.531v13.587c0 2.777.627 4.848 1.882 6.213 1.254 1.366 3.067 2.048 5.439 2.048 2.394 0 4.219-.682 5.473-2.048 1.254-1.365 1.881-3.436 1.881-6.213V14.034h2.463v13.69c0 3.39-.866 5.974-2.6 7.749-1.71 1.775-4.116 2.663-7.217 2.663zm50.319-24.102L79.72 37.931h-2.668l-7.013-20.38-7.047 20.38H60.36l-8.074-23.897h2.6l6.91 20.551 7.15-20.55h2.36l7.047 20.653 7.012-20.654h2.43zm29.51 0v23.897h-2.428V18.814l-9.408 16.078h-1.197l-9.407-15.976v19.015l-2.429 16.12V14.035h2.087l10.399 17.718 10.297-17.718h2.086zm24.735 21.712v2.185h-16.933V14.034h16.42v2.185h-13.888v8.5h12.383v2.151h-12.383v8.876h14.401zm21.036-10.139c1.574.341 2.782 1.024 3.626 2.048.867 1.002 1.3 2.299 1.3 3.892 0 2.048-.764 3.63-2.292 4.745-1.505 1.093-3.74 1.639-6.705 1.639h-11.015V14.034h10.331c2.668 0 4.732.535 6.192 1.605 1.482 1.07 2.223 2.583 2.223 4.54 0 1.32-.33 2.447-.992 3.38-.638.91-1.528 1.593-2.668 2.048zm-12.554-9.49v8.67h7.628c1.939 0 3.432-.363 4.481-1.092 1.049-.75 1.574-1.832 1.574-3.243 0-1.41-.525-2.48-1.574-3.209-1.049-.75-2.542-1.126-4.481-1.126h-7.628zm8.449 19.731c2.144 0 3.763-.364 4.858-1.092 1.094-.728 1.642-1.866 1.642-3.414 0-2.981-2.167-4.472-6.5-4.472h-8.449v8.978h8.449z" fill="#000"/></svg>